<svg id="in-outliers" version="2.0" xmlns="http://www.w3.org/2000/svg" xmlns:xlink= "http://www.w3.org/1999/xlink"
height="300.0pt" width="675.0pt" viewBox="-0.05 -0.05 1.35 0.6">
<rect height="0.6" width="1.35" x="-0.05" y="-0.05" id="back-in-out" style="fill:rgb(255,255,255);stroke-width:0;stroke:rgb(0,0,0);"/>
<svg id="px-in-out" version="2.0" height="0.5" width="1" x="0" y="0" viewBox="0 0 1 0.5">

<defs>
  <pattern id="in-pattern" x="0" y="0" width="0.02" height="0.02" patternUnits="userSpaceOnUse">
        
    <rect x="0" cy="0" height="0.02" width="0.02"
    style="fill:rgb(128, 128, 255);stroke-width:0;stroke:rgb(0,0,0);" />
    <line x1="0" x2="0.02" y1="0" y2="0.02"
    style="stroke:rgb(0,0,0);stroke-width:0.001;stroke-linejoin:round;stroke-linecap:square;"/>
    <line x1="0" x2="0.04" y1="-0.02" y2="0.02"
    style="stroke:rgb(0,0,0);stroke-width:0.001;stroke-linejoin:round;stroke-linecap:square;"/>
    <line x1="-0.02" x2="0.02" y1="0" y2="0.04"
    style="stroke:rgb(0,0,0);stroke-width:0.001;stroke-linejoin:round;stroke-linecap:square;"/>
        
  </pattern>
</defs>

<defs>
  <pattern id="out-pattern" x="0" y="0" width="0.02" height="0.02" patternUnits="userSpaceOnUse">
        
    <rect x="0" cy="0" height="0.02" width="0.02"
    style="fill:rgb(255, 128, 128);stroke-width:0;stroke:rgb(0,0,0);" />
    <line x1="0" x2="0.02" y2="0" y1="0.02"
    style="stroke:rgb(0,0,0);stroke-width:0.001;stroke-linejoin:round;stroke-linecap:butt;"/>
    <line x1="0.02" x2="-0.02" y2="0.02" y1="-0.02"
    style="stroke:rgb(0,0,0);stroke-width:0.001;stroke-linejoin:round;stroke-linecap:square;"/>
    <line x1="0.04" x2="0" y2="0.04" y1="0"
    style="stroke:rgb(0,0,0);stroke-width:0.001;stroke-linejoin:round;stroke-linecap:square;"/>

    <line x1="0" x2="0.02" y1="0" y2="0.02"
    style="stroke:rgb(0,0,0);stroke-width:0.001;stroke-linejoin:round;stroke-linecap:square;"/>
    <line x1="0" x2="0.04" y1="-0.02" y2="0.02"
    style="stroke:rgb(0,0,0);stroke-width:0.001;stroke-linejoin:round;stroke-linecap:square;"/>
    <line x1="-0.02" x2="0.02" y1="0" y2="0.04"
    style="stroke:rgb(0,0,0);stroke-width:0.001;stroke-linejoin:round;stroke-linecap:square;"/>
        
  </pattern>
</defs>

<defs>
  <pattern id="neutral-pattern" x="0" y="0" width="0.01" height="0.01" patternUnits="userSpaceOnUse">
        
    <rect x="0" cy="0" height="0.01" width="0.01"
    style="fill:rgb(230, 230, 230);stroke-width:0;stroke:rgb(0,0,0);" />
    <line x1="0.01" x2="0.01" y1="0" y2="0.01"
    style="stroke:rgb(0,0,0);stroke-width:0.001;stroke-linejoin:round;stroke-linecap:square;"/>
    <line x1="0" x2="0" y1="0" y2="0.01"
    style="stroke:rgb(0,0,0);stroke-width:0.001;stroke-linejoin:round;stroke-linecap:square;"/>
        
  </pattern>
</defs>
<rect height="0.5" width="1" x="0" y="0" id="back-in-out-plot" style="fill:url(#neutral-pattern);stroke-width:0;stroke:rgb(0,0,0);"/>
<rect height="0.5" width="0" x="0.9303903579711914" y="0" id="typ-rect-up" style="fill:url(#out-pattern);stroke-width:0;stroke:rgb(0,0,0);"/>
<rect height="0.5" width="0" x="0.10317707061767578" y="0" id="typ-rect-mid" style="fill:url(#in-pattern);stroke-width:0;stroke:rgb(0,0,0);"/>
<rect height="0.5" width="0" x="0" y="0" id="typ-rect-down" style="fill:url(#out-pattern);stroke-width:0;stroke:rgb(0,0,0);"/>
<rect height="0.5" width="0" x="0" y="0" id="ds-rect-down" style="fill:url(#out-pattern);stroke-width:0;stroke:rgb(0,0,0);"/>
<rect height="0.5" width="0" x="0.2521486282348633" y="0" id="ds-rect-up" style="fill:url(#in-pattern);stroke-width:0;stroke:rgb(0,0,0);"/>
<path d="M 0.0000 0.2240 L 0.0026 0.2238 L 0.0052 0.2236 L 0.0078 0.2234 L 0.0104 0.2232 L 0.0130 0.2230 L 0.0156 0.2228 L 0.0182 0.2226 L 0.0208 0.2224 L 0.0234 0.2221 L 0.0260 0.2219 L 0.0286 0.2217 L 0.0312 0.2215 L 0.0338 0.2212 L 0.0364 0.2210 L 0.0390 0.2207 L 0.0415 0.2205 L 0.0441 0.2202 L 0.0467 0.2200 L 0.0493 0.2197 L 0.0519 0.2194 L 0.0545 0.2192 L 0.0570 0.2189 L 0.0596 0.2186 L 0.0622 0.2183 L 0.0648 0.2181 L 0.0673 0.2178 L 0.0699 0.2175 L 0.0725 0.2172 L 0.0750 0.2169 L 0.0776 0.2166 L 0.0802 0.2162 L 0.0827 0.2159 L 0.0853 0.2156 L 0.0879 0.2153 L 0.0904 0.2150 L 0.0930 0.2146 L 0.0955 0.2143 L 0.0981 0.2139 L 0.1006 0.2136 L 0.1032 0.2133 L 0.1057 0.2129 L 0.1083 0.2126 L 0.1108 0.2122 L 0.1134 0.2118 L 0.1159 0.2115 L 0.1184 0.2111 L 0.1210 0.2107 L 0.1235 0.2103 L 0.1260 0.2100 L 0.1286 0.2096 L 0.1311 0.2092 L 0.1336 0.2088 L 0.1361 0.2084 L 0.1387 0.2080 L 0.1412 0.2076 L 0.1437 0.2072 L 0.1462 0.2068 L 0.1487 0.2064 L 0.1512 0.2060 L 0.1537 0.2056 L 0.1563 0.2052 L 0.1588 0.2048 L 0.1613 0.2043 L 0.1638 0.2039 L 0.1663 0.2035 L 0.1688 0.2031 L 0.1712 0.2027 L 0.1737 0.2022 L 0.1762 0.2018 L 0.1787 0.2014 L 0.1812 0.2010 L 0.1837 0.2005 L 0.1862 0.2001 L 0.1886 0.1997 L 0.1911 0.1993 L 0.1936 0.1988 L 0.1960 0.1984 L 0.1985 0.1980 L 0.2010 0.1975 L 0.2034 0.1971 L 0.2059 0.1967 L 0.2084 0.1962 L 0.2108 0.1958 L 0.2133 0.1954 L 0.2157 0.1950 L 0.2182 0.1945 L 0.2206 0.1941 L 0.2230 0.1937 L 0.2255 0.1933 L 0.2279 0.1929 L 0.2304 0.1924 L 0.2328 0.1920 L 0.2352 0.1916 L 0.2376 0.1912 L 0.2401 0.1908 L 0.2425 0.1904 L 0.2449 0.1900 L 0.2473 0.1896 L 0.2497 0.1892 L 0.2521 0.1887 L 0.2546 0.1884 L 0.2570 0.1880 L 0.2594 0.1876 L 0.2618 0.1872 L 0.2642 0.1868 L 0.2666 0.1864 L 0.2690 0.1860 L 0.2713 0.1856 L 0.2737 0.1853 L 0.2761 0.1849 L 0.2785 0.1845 L 0.2809 0.1841 L 0.2833 0.1838 L 0.2856 0.1834 L 0.2880 0.1831 L 0.2904 0.1827 L 0.2927 0.1823 L 0.2951 0.1820 L 0.2975 0.1816 L 0.2998 0.1813 L 0.3022 0.1810 L 0.3045 0.1806 L 0.3069 0.1803 L 0.3092 0.1800 L 0.3116 0.1796 L 0.3139 0.1793 L 0.3163 0.1790 L 0.3186 0.1787 L 0.3209 0.1784 L 0.3233 0.1780 L 0.3256 0.1777 L 0.3279 0.1774 L 0.3303 0.1771 L 0.3326 0.1768 L 0.3349 0.1765 L 0.3372 0.1762 L 0.3395 0.1759 L 0.3419 0.1757 L 0.3442 0.1754 L 0.3465 0.1751 L 0.3488 0.1748 L 0.3511 0.1745 L 0.3534 0.1743 L 0.3557 0.1740 L 0.3580 0.1737 L 0.3603 0.1735 L 0.3626 0.1732 L 0.3649 0.1729 L 0.3672 0.1727 L 0.3695 0.1724 L 0.3717 0.1722 L 0.3740 0.1719 L 0.3763 0.1717 L 0.3786 0.1714 L 0.3809 0.1712 L 0.3831 0.1709 L 0.3854 0.1707 L 0.3877 0.1705 L 0.3900 0.1702 L 0.3922 0.1700 L 0.3945 0.1698 L 0.3968 0.1695 L 0.3990 0.1693 L 0.4013 0.1691 L 0.4035 0.1688 L 0.4058 0.1686 L 0.4080 0.1684 L 0.4103 0.1682 L 0.4125 0.1679 L 0.4148 0.1677 L 0.4170 0.1675 L 0.4193 0.1673 L 0.4215 0.1671 L 0.4238 0.1669 L 0.4260 0.1666 L 0.4282 0.1664 L 0.4305 0.1662 L 0.4327 0.1660 L 0.4349 0.1658 L 0.4372 0.1656 L 0.4394 0.1654 L 0.4416 0.1651 L 0.4438 0.1649 L 0.4461 0.1647 L 0.4483 0.1645 L 0.4505 0.1643 L 0.4527 0.1641 L 0.4549 0.1639 L 0.4572 0.1637 L 0.4594 0.1634 L 0.4616 0.1632 L 0.4638 0.1630 L 0.4660 0.1628 L 0.4682 0.1626 L 0.4704 0.1624 L 0.4726 0.1622 L 0.4748 0.1619 L 0.4770 0.1617 L 0.4792 0.1615 L 0.4814 0.1613 L 0.4836 0.1611 L 0.4858 0.1608 L 0.4880 0.1606 L 0.4902 0.1604 L 0.4924 0.1602 L 0.4946 0.1599 L 0.4968 0.1597 L 0.4989 0.1595 L 0.5011 0.1592 L 0.5033 0.1590 L 0.5055 0.1588 L 0.5077 0.1585 L 0.5098 0.1583 L 0.5120 0.1581 L 0.5142 0.1578 L 0.5164 0.1576 L 0.5185 0.1573 L 0.5207 0.1571 L 0.5229 0.1568 L 0.5251 0.1565 L 0.5272 0.1563 L 0.5294 0.1560 L 0.5315 0.1558 L 0.5337 0.1555 L 0.5359 0.1552 L 0.5380 0.1549 L 0.5402 0.1547 L 0.5423 0.1544 L 0.5445 0.1541 L 0.5467 0.1538 L 0.5488 0.1535 L 0.5510 0.1532 L 0.5531 0.1529 L 0.5553 0.1526 L 0.5574 0.1523 L 0.5595 0.1520 L 0.5617 0.1517 L 0.5638 0.1514 L 0.5660 0.1511 L 0.5681 0.1507 L 0.5703 0.1504 L 0.5724 0.1501 L 0.5745 0.1497 L 0.5767 0.1494 L 0.5788 0.1490 L 0.5809 0.1487 L 0.5830 0.1483 L 0.5852 0.1480 L 0.5873 0.1476 L 0.5894 0.1472 L 0.5915 0.1469 L 0.5937 0.1465 L 0.5958 0.1461 L 0.5979 0.1457 L 0.6000 0.1453 L 0.6021 0.1449 L 0.6042 0.1445 L 0.6064 0.1441 L 0.6085 0.1437 L 0.6106 0.1432 L 0.6127 0.1428 L 0.6148 0.1424 L 0.6169 0.1419 L 0.6190 0.1415 L 0.6211 0.1411 L 0.6232 0.1406 L 0.6253 0.1401 L 0.6274 0.1397 L 0.6295 0.1392 L 0.6316 0.1387 L 0.6336 0.1382 L 0.6357 0.1377 L 0.6378 0.1372 L 0.6399 0.1367 L 0.6420 0.1362 L 0.6440 0.1357 L 0.6461 0.1352 L 0.6482 0.1347 L 0.6503 0.1341 L 0.6523 0.1336 L 0.6544 0.1331 L 0.6565 0.1325 L 0.6585 0.1320 L 0.6606 0.1314 L 0.6626 0.1308 L 0.6647 0.1303 L 0.6668 0.1297 L 0.6688 0.1291 L 0.6709 0.1285 L 0.6729 0.1279 L 0.6749 0.1273 L 0.6770 0.1267 L 0.6790 0.1261 L 0.6811 0.1255 L 0.6831 0.1248 L 0.6851 0.1242 L 0.6872 0.1236 L 0.6892 0.1229 L 0.6912 0.1223 L 0.6932 0.1216 L 0.6952 0.1210 L 0.6972 0.1203 L 0.6993 0.1196 L 0.7013 0.1190 L 0.7033 0.1183 L 0.7053 0.1176 L 0.7073 0.1169 L 0.7093 0.1162 L 0.7113 0.1155 L 0.7133 0.1148 L 0.7152 0.1141 L 0.7172 0.1134 L 0.7192 0.1127 L 0.7212 0.1120 L 0.7232 0.1113 L 0.7251 0.1105 L 0.7271 0.1098 L 0.7291 0.1091 L 0.7310 0.1083 L 0.7330 0.1076 L 0.7349 0.1069 L 0.7369 0.1061 L 0.7388 0.1054 L 0.7408 0.1046 L 0.7427 0.1039 L 0.7446 0.1031 L 0.7466 0.1023 L 0.7485 0.1016 L 0.7504 0.1008 L 0.7523 0.1000 L 0.7542 0.0993 L 0.7561 0.0985 L 0.7580 0.0977 L 0.7600 0.0970 L 0.7618 0.0962 L 0.7637 0.0954 L 0.7656 0.0947 L 0.7675 0.0939 L 0.7694 0.0931 L 0.7713 0.0923 L 0.7731 0.0916 L 0.7750 0.0908 L 0.7769 0.0900 L 0.7787 0.0892 L 0.7806 0.0885 L 0.7824 0.0877 L 0.7843 0.0869 L 0.7861 0.0862 L 0.7879 0.0854 L 0.7898 0.0846 L 0.7916 0.0838 L 0.7934 0.0831 L 0.7952 0.0823 L 0.7970 0.0816 L 0.7988 0.0808 L 0.8006 0.0800 L 0.8024 0.0793 L 0.8042 0.0785 L 0.8060 0.0778 L 0.8077 0.0770 L 0.8095 0.0763 L 0.8113 0.0755 L 0.8130 0.0748 L 0.8148 0.0741 L 0.8165 0.0733 L 0.8183 0.0726 L 0.8200 0.0719 L 0.8218 0.0712 L 0.8235 0.0705 L 0.8252 0.0697 L 0.8269 0.0690 L 0.8286 0.0683 L 0.8303 0.0676 L 0.8320 0.0669 L 0.8337 0.0662 L 0.8354 0.0655 L 0.8371 0.0649 L 0.8387 0.0642 L 0.8404 0.0635 L 0.8421 0.0628 L 0.8437 0.0622 L 0.8454 0.0615 L 0.8470 0.0609 L 0.8486 0.0602 L 0.8503 0.0596 L 0.8519 0.0589 L 0.8535 0.0583 L 0.8551 0.0577 L 0.8567 0.0570 L 0.8583 0.0564 L 0.8599 0.0558 L 0.8615 0.0552 L 0.8631 0.0546 L 0.8647 0.0540 L 0.8662 0.0534 L 0.8678 0.0528 L 0.8694 0.0522 L 0.8709 0.0516 L 0.8724 0.0511 L 0.8740 0.0505 L 0.8755 0.0499 L 0.8770 0.0494 L 0.8785 0.0488 L 0.8801 0.0483 L 0.8816 0.0477 L 0.8831 0.0472 L 0.8846 0.0467 L 0.8860 0.0462 L 0.8875 0.0456 L 0.8890 0.0451 L 0.8905 0.0446 L 0.8919 0.0441 L 0.8934 0.0436 L 0.8948 0.0431 L 0.8963 0.0426 L 0.8977 0.0422 L 0.8991 0.0417 L 0.9006 0.0412 L 0.9020 0.0407 L 0.9034 0.0403 L 0.9048 0.0398 L 0.9062 0.0394 L 0.9076 0.0389 L 0.9090 0.0385 L 0.9104 0.0380 L 0.9117 0.0376 L 0.9131 0.0372 L 0.9145 0.0368 L 0.9158 0.0363 L 0.9172 0.0359 L 0.9185 0.0355 L 0.9199 0.0351 L 0.9212 0.0347 L 0.9225 0.0343 L 0.9239 0.0339 L 0.9252 0.0336 L 0.9265 0.0332 L 0.9278 0.0328 L 0.9291 0.0324 L 0.9304 0.0321 L 0.9317 0.0317 L 0.9330 0.0313 L 0.9342 0.0310 L 0.9355 0.0306 L 0.9368 0.0303 L 0.9381 0.0299 L 0.9393 0.0296 L 0.9406 0.0293 L 0.9418 0.0289 L 0.9431 0.0286 L 0.9443 0.0283 L 0.9455 0.0280 L 0.9468 0.0277 L 0.9480 0.0273 L 0.9492 0.0270 L 0.9504 0.0267 L 0.9516 0.0264 L 0.9529 0.0261 L 0.9541 0.0258 L 0.9553 0.0255 L 0.9564 0.0253 L 0.9576 0.0250 L 0.9588 0.0247 L 0.9600 0.0244 L 0.9612 0.0241 L 0.9623 0.0239 L 0.9635 0.0236 L 0.9647 0.0233 L 0.9658 0.0231 L 0.9670 0.0228 L 0.9681 0.0225 L 0.9693 0.0223 L 0.9704 0.0220 L 0.9716 0.0218 L 0.9727 0.0215 L 0.9738 0.0213 L 0.9750 0.0211 L 0.9761 0.0208 L 0.9772 0.0206 L 0.9783 0.0204 L 0.9794 0.0201 L 0.9806 0.0199 L 0.9817 0.0197 L 0.9828 0.0195 L 0.9839 0.0192 L 0.9850 0.0190 L 0.9861 0.0188 L 0.9871 0.0186 L 0.9882 0.0184 L 0.9893 0.0182 L 0.9904 0.0180 L 0.9915 0.0178 L 0.9926 0.0176 L 0.9936 0.0174 L 0.9947 0.0172 L 0.9958 0.0170 L 0.9968 0.0168 L 0.9979 0.0166 L 0.9989 0.0164 L 1.0000 0.0162L 1 0 L 0 0 Z" fill="white" />
<path id="plot-px-in-out" d="M 0.0000 0.2240 L 0.0026 0.2238 L 0.0052 0.2236 L 0.0078 0.2234 L 0.0104 0.2232 L 0.0130 0.2230 L 0.0156 0.2228 L 0.0182 0.2226 L 0.0208 0.2224 L 0.0234 0.2221 L 0.0260 0.2219 L 0.0286 0.2217 L 0.0312 0.2215 L 0.0338 0.2212 L 0.0364 0.2210 L 0.0390 0.2207 L 0.0415 0.2205 L 0.0441 0.2202 L 0.0467 0.2200 L 0.0493 0.2197 L 0.0519 0.2194 L 0.0545 0.2192 L 0.0570 0.2189 L 0.0596 0.2186 L 0.0622 0.2183 L 0.0648 0.2181 L 0.0673 0.2178 L 0.0699 0.2175 L 0.0725 0.2172 L 0.0750 0.2169 L 0.0776 0.2166 L 0.0802 0.2162 L 0.0827 0.2159 L 0.0853 0.2156 L 0.0879 0.2153 L 0.0904 0.2150 L 0.0930 0.2146 L 0.0955 0.2143 L 0.0981 0.2139 L 0.1006 0.2136 L 0.1032 0.2133 L 0.1057 0.2129 L 0.1083 0.2126 L 0.1108 0.2122 L 0.1134 0.2118 L 0.1159 0.2115 L 0.1184 0.2111 L 0.1210 0.2107 L 0.1235 0.2103 L 0.1260 0.2100 L 0.1286 0.2096 L 0.1311 0.2092 L 0.1336 0.2088 L 0.1361 0.2084 L 0.1387 0.2080 L 0.1412 0.2076 L 0.1437 0.2072 L 0.1462 0.2068 L 0.1487 0.2064 L 0.1512 0.2060 L 0.1537 0.2056 L 0.1563 0.2052 L 0.1588 0.2048 L 0.1613 0.2043 L 0.1638 0.2039 L 0.1663 0.2035 L 0.1688 0.2031 L 0.1712 0.2027 L 0.1737 0.2022 L 0.1762 0.2018 L 0.1787 0.2014 L 0.1812 0.2010 L 0.1837 0.2005 L 0.1862 0.2001 L 0.1886 0.1997 L 0.1911 0.1993 L 0.1936 0.1988 L 0.1960 0.1984 L 0.1985 0.1980 L 0.2010 0.1975 L 0.2034 0.1971 L 0.2059 0.1967 L 0.2084 0.1962 L 0.2108 0.1958 L 0.2133 0.1954 L 0.2157 0.1950 L 0.2182 0.1945 L 0.2206 0.1941 L 0.2230 0.1937 L 0.2255 0.1933 L 0.2279 0.1929 L 0.2304 0.1924 L 0.2328 0.1920 L 0.2352 0.1916 L 0.2376 0.1912 L 0.2401 0.1908 L 0.2425 0.1904 L 0.2449 0.1900 L 0.2473 0.1896 L 0.2497 0.1892 L 0.2521 0.1887 L 0.2546 0.1884 L 0.2570 0.1880 L 0.2594 0.1876 L 0.2618 0.1872 L 0.2642 0.1868 L 0.2666 0.1864 L 0.2690 0.1860 L 0.2713 0.1856 L 0.2737 0.1853 L 0.2761 0.1849 L 0.2785 0.1845 L 0.2809 0.1841 L 0.2833 0.1838 L 0.2856 0.1834 L 0.2880 0.1831 L 0.2904 0.1827 L 0.2927 0.1823 L 0.2951 0.1820 L 0.2975 0.1816 L 0.2998 0.1813 L 0.3022 0.1810 L 0.3045 0.1806 L 0.3069 0.1803 L 0.3092 0.1800 L 0.3116 0.1796 L 0.3139 0.1793 L 0.3163 0.1790 L 0.3186 0.1787 L 0.3209 0.1784 L 0.3233 0.1780 L 0.3256 0.1777 L 0.3279 0.1774 L 0.3303 0.1771 L 0.3326 0.1768 L 0.3349 0.1765 L 0.3372 0.1762 L 0.3395 0.1759 L 0.3419 0.1757 L 0.3442 0.1754 L 0.3465 0.1751 L 0.3488 0.1748 L 0.3511 0.1745 L 0.3534 0.1743 L 0.3557 0.1740 L 0.3580 0.1737 L 0.3603 0.1735 L 0.3626 0.1732 L 0.3649 0.1729 L 0.3672 0.1727 L 0.3695 0.1724 L 0.3717 0.1722 L 0.3740 0.1719 L 0.3763 0.1717 L 0.3786 0.1714 L 0.3809 0.1712 L 0.3831 0.1709 L 0.3854 0.1707 L 0.3877 0.1705 L 0.3900 0.1702 L 0.3922 0.1700 L 0.3945 0.1698 L 0.3968 0.1695 L 0.3990 0.1693 L 0.4013 0.1691 L 0.4035 0.1688 L 0.4058 0.1686 L 0.4080 0.1684 L 0.4103 0.1682 L 0.4125 0.1679 L 0.4148 0.1677 L 0.4170 0.1675 L 0.4193 0.1673 L 0.4215 0.1671 L 0.4238 0.1669 L 0.4260 0.1666 L 0.4282 0.1664 L 0.4305 0.1662 L 0.4327 0.1660 L 0.4349 0.1658 L 0.4372 0.1656 L 0.4394 0.1654 L 0.4416 0.1651 L 0.4438 0.1649 L 0.4461 0.1647 L 0.4483 0.1645 L 0.4505 0.1643 L 0.4527 0.1641 L 0.4549 0.1639 L 0.4572 0.1637 L 0.4594 0.1634 L 0.4616 0.1632 L 0.4638 0.1630 L 0.4660 0.1628 L 0.4682 0.1626 L 0.4704 0.1624 L 0.4726 0.1622 L 0.4748 0.1619 L 0.4770 0.1617 L 0.4792 0.1615 L 0.4814 0.1613 L 0.4836 0.1611 L 0.4858 0.1608 L 0.4880 0.1606 L 0.4902 0.1604 L 0.4924 0.1602 L 0.4946 0.1599 L 0.4968 0.1597 L 0.4989 0.1595 L 0.5011 0.1592 L 0.5033 0.1590 L 0.5055 0.1588 L 0.5077 0.1585 L 0.5098 0.1583 L 0.5120 0.1581 L 0.5142 0.1578 L 0.5164 0.1576 L 0.5185 0.1573 L 0.5207 0.1571 L 0.5229 0.1568 L 0.5251 0.1565 L 0.5272 0.1563 L 0.5294 0.1560 L 0.5315 0.1558 L 0.5337 0.1555 L 0.5359 0.1552 L 0.5380 0.1549 L 0.5402 0.1547 L 0.5423 0.1544 L 0.5445 0.1541 L 0.5467 0.1538 L 0.5488 0.1535 L 0.5510 0.1532 L 0.5531 0.1529 L 0.5553 0.1526 L 0.5574 0.1523 L 0.5595 0.1520 L 0.5617 0.1517 L 0.5638 0.1514 L 0.5660 0.1511 L 0.5681 0.1507 L 0.5703 0.1504 L 0.5724 0.1501 L 0.5745 0.1497 L 0.5767 0.1494 L 0.5788 0.1490 L 0.5809 0.1487 L 0.5830 0.1483 L 0.5852 0.1480 L 0.5873 0.1476 L 0.5894 0.1472 L 0.5915 0.1469 L 0.5937 0.1465 L 0.5958 0.1461 L 0.5979 0.1457 L 0.6000 0.1453 L 0.6021 0.1449 L 0.6042 0.1445 L 0.6064 0.1441 L 0.6085 0.1437 L 0.6106 0.1432 L 0.6127 0.1428 L 0.6148 0.1424 L 0.6169 0.1419 L 0.6190 0.1415 L 0.6211 0.1411 L 0.6232 0.1406 L 0.6253 0.1401 L 0.6274 0.1397 L 0.6295 0.1392 L 0.6316 0.1387 L 0.6336 0.1382 L 0.6357 0.1377 L 0.6378 0.1372 L 0.6399 0.1367 L 0.6420 0.1362 L 0.6440 0.1357 L 0.6461 0.1352 L 0.6482 0.1347 L 0.6503 0.1341 L 0.6523 0.1336 L 0.6544 0.1331 L 0.6565 0.1325 L 0.6585 0.1320 L 0.6606 0.1314 L 0.6626 0.1308 L 0.6647 0.1303 L 0.6668 0.1297 L 0.6688 0.1291 L 0.6709 0.1285 L 0.6729 0.1279 L 0.6749 0.1273 L 0.6770 0.1267 L 0.6790 0.1261 L 0.6811 0.1255 L 0.6831 0.1248 L 0.6851 0.1242 L 0.6872 0.1236 L 0.6892 0.1229 L 0.6912 0.1223 L 0.6932 0.1216 L 0.6952 0.1210 L 0.6972 0.1203 L 0.6993 0.1196 L 0.7013 0.1190 L 0.7033 0.1183 L 0.7053 0.1176 L 0.7073 0.1169 L 0.7093 0.1162 L 0.7113 0.1155 L 0.7133 0.1148 L 0.7152 0.1141 L 0.7172 0.1134 L 0.7192 0.1127 L 0.7212 0.1120 L 0.7232 0.1113 L 0.7251 0.1105 L 0.7271 0.1098 L 0.7291 0.1091 L 0.7310 0.1083 L 0.7330 0.1076 L 0.7349 0.1069 L 0.7369 0.1061 L 0.7388 0.1054 L 0.7408 0.1046 L 0.7427 0.1039 L 0.7446 0.1031 L 0.7466 0.1023 L 0.7485 0.1016 L 0.7504 0.1008 L 0.7523 0.1000 L 0.7542 0.0993 L 0.7561 0.0985 L 0.7580 0.0977 L 0.7600 0.0970 L 0.7618 0.0962 L 0.7637 0.0954 L 0.7656 0.0947 L 0.7675 0.0939 L 0.7694 0.0931 L 0.7713 0.0923 L 0.7731 0.0916 L 0.7750 0.0908 L 0.7769 0.0900 L 0.7787 0.0892 L 0.7806 0.0885 L 0.7824 0.0877 L 0.7843 0.0869 L 0.7861 0.0862 L 0.7879 0.0854 L 0.7898 0.0846 L 0.7916 0.0838 L 0.7934 0.0831 L 0.7952 0.0823 L 0.7970 0.0816 L 0.7988 0.0808 L 0.8006 0.0800 L 0.8024 0.0793 L 0.8042 0.0785 L 0.8060 0.0778 L 0.8077 0.0770 L 0.8095 0.0763 L 0.8113 0.0755 L 0.8130 0.0748 L 0.8148 0.0741 L 0.8165 0.0733 L 0.8183 0.0726 L 0.8200 0.0719 L 0.8218 0.0712 L 0.8235 0.0705 L 0.8252 0.0697 L 0.8269 0.0690 L 0.8286 0.0683 L 0.8303 0.0676 L 0.8320 0.0669 L 0.8337 0.0662 L 0.8354 0.0655 L 0.8371 0.0649 L 0.8387 0.0642 L 0.8404 0.0635 L 0.8421 0.0628 L 0.8437 0.0622 L 0.8454 0.0615 L 0.8470 0.0609 L 0.8486 0.0602 L 0.8503 0.0596 L 0.8519 0.0589 L 0.8535 0.0583 L 0.8551 0.0577 L 0.8567 0.0570 L 0.8583 0.0564 L 0.8599 0.0558 L 0.8615 0.0552 L 0.8631 0.0546 L 0.8647 0.0540 L 0.8662 0.0534 L 0.8678 0.0528 L 0.8694 0.0522 L 0.8709 0.0516 L 0.8724 0.0511 L 0.8740 0.0505 L 0.8755 0.0499 L 0.8770 0.0494 L 0.8785 0.0488 L 0.8801 0.0483 L 0.8816 0.0477 L 0.8831 0.0472 L 0.8846 0.0467 L 0.8860 0.0462 L 0.8875 0.0456 L 0.8890 0.0451 L 0.8905 0.0446 L 0.8919 0.0441 L 0.8934 0.0436 L 0.8948 0.0431 L 0.8963 0.0426 L 0.8977 0.0422 L 0.8991 0.0417 L 0.9006 0.0412 L 0.9020 0.0407 L 0.9034 0.0403 L 0.9048 0.0398 L 0.9062 0.0394 L 0.9076 0.0389 L 0.9090 0.0385 L 0.9104 0.0380 L 0.9117 0.0376 L 0.9131 0.0372 L 0.9145 0.0368 L 0.9158 0.0363 L 0.9172 0.0359 L 0.9185 0.0355 L 0.9199 0.0351 L 0.9212 0.0347 L 0.9225 0.0343 L 0.9239 0.0339 L 0.9252 0.0336 L 0.9265 0.0332 L 0.9278 0.0328 L 0.9291 0.0324 L 0.9304 0.0321 L 0.9317 0.0317 L 0.9330 0.0313 L 0.9342 0.0310 L 0.9355 0.0306 L 0.9368 0.0303 L 0.9381 0.0299 L 0.9393 0.0296 L 0.9406 0.0293 L 0.9418 0.0289 L 0.9431 0.0286 L 0.9443 0.0283 L 0.9455 0.0280 L 0.9468 0.0277 L 0.9480 0.0273 L 0.9492 0.0270 L 0.9504 0.0267 L 0.9516 0.0264 L 0.9529 0.0261 L 0.9541 0.0258 L 0.9553 0.0255 L 0.9564 0.0253 L 0.9576 0.0250 L 0.9588 0.0247 L 0.9600 0.0244 L 0.9612 0.0241 L 0.9623 0.0239 L 0.9635 0.0236 L 0.9647 0.0233 L 0.9658 0.0231 L 0.9670 0.0228 L 0.9681 0.0225 L 0.9693 0.0223 L 0.9704 0.0220 L 0.9716 0.0218 L 0.9727 0.0215 L 0.9738 0.0213 L 0.9750 0.0211 L 0.9761 0.0208 L 0.9772 0.0206 L 0.9783 0.0204 L 0.9794 0.0201 L 0.9806 0.0199 L 0.9817 0.0197 L 0.9828 0.0195 L 0.9839 0.0192 L 0.9850 0.0190 L 0.9861 0.0188 L 0.9871 0.0186 L 0.9882 0.0184 L 0.9893 0.0182 L 0.9904 0.0180 L 0.9915 0.0178 L 0.9926 0.0176 L 0.9936 0.0174 L 0.9947 0.0172 L 0.9958 0.0170 L 0.9968 0.0168 L 0.9979 0.0166 L 0.9989 0.0164 L 1.0000 0.0162" fill="none" 
  style="stroke:rgb(0,0,0);stroke-width:0.0025;stroke-linejoin:round;stroke-linecap:round;"/> 
<line x1="0" x2="0" y1="0.18874914290164324" y2="0.18874914290164324" id="ds-limit" style="stroke:rgb(0,0,0);stroke-width:0.0025;stroke-linejoin:round;stroke-linecap:round;" stroke-dasharray="0.005,0.005" />
<line x1="0" x2="0" y1="0.1340191597275851" y2="0.1340191597275851" id="typ-mu" style="stroke:rgb(0,0,0);stroke-width:0.0025;stroke-linejoin:round;stroke-linecap:round;"/>
<line x1="0" x2="0" y1="0.2136057355929173" y2="0.2136057355929173" id="typ-low" style="stroke:rgb(0,0,0);stroke-width:0.0025;stroke-linejoin:round;stroke-linecap:round;" stroke-dasharray="0.005,0.005" />
<line x1="0" x2="0" y1="0.032316138649631454" y2="0.032316138649631454" id="typ-high" style="stroke:rgb(0,0,0);stroke-width:0.0025;stroke-linejoin:round;stroke-linecap:round;" stroke-dasharray="0.005,0.005" />
<animate 
    xlink:href="#ds-rect-down" attributeName="width" from="0" to="0.2521486282348633" dur="0.2521486282348633s" begin="ds-label.mouseenter + 0s;ds-label.mouseover + 0s;ds-label.touchstart + 0s;" fill="freeze"
    id="ds-on-down" />
<animate 
    xlink:href="#ds-rect-up" attributeName="width" from="0" to="0.7478513717651367" dur="0.7478513717651367s" begin="ds-label.mouseenter + 0.2521486282348633s;ds-label.mouseover + 0.2521486282348633s;ds-label.touchstart + 0.2521486282348633s;" fill="freeze"
    id="ds-on-up" />
<animate 
    xlink:href="#ds-limit" attributeName="x2" from="0" to="1" dur="1s" begin="ds-label.mouseenter + 0s;ds-label.mouseover + 0s;ds-label.touchstart + 0s;" fill="freeze"
    id="ds-on-limit" />
<animate 
    xlink:href="#ds-limit" attributeName="x1" from="0" to="1" dur="1s" begin="ds-label.mouseleave + 0s;ds-label.mouseout + 0s;ds-label.touchend + 0s;" fill="freeze"
    id="ds-off-limit" />
<animate 
    xlink:href="#ds-limit" attributeName="x1" from="1" to="0" dur="0.0001s" begin="ds-label.mouseleave + 1s;ds-label.mouseout + 1s;ds-label.touchend + 1s;" fill="freeze"
    id="ds-off-limit-epilogue-x1" />
<animate 
    xlink:href="#ds-limit" attributeName="x2" from="1" to="0" dur="0.0001s" begin="ds-label.mouseleave + 1s;ds-label.mouseout + 1s;ds-label.touchend + 1s;" fill="freeze"
    id="ds-off-limit-epilogue-x2" />
<animate 
    xlink:href="#ds-rect-down" attributeName="x" from="0" to="0.2521486282348633" dur="0.2521486282348633s" begin="ds-label.mouseleave + 0s;ds-label.mouseout + 0s;ds-label.touchend + 0s;" fill="freeze"
    id="ds-off-down-x" />
<animate 
    xlink:href="#ds-rect-up" attributeName="x" from="0.2521486282348633" to="1" dur="0.7478513717651367s" begin="ds-label.mouseleave + 0.2521486282348633s;ds-label.mouseout + 0.2521486282348633s;ds-label.touchend + 0.2521486282348633s;" fill="freeze"
    id="ds-off-up-x" />
<animate 
    xlink:href="#ds-rect-down" attributeName="width" from="0.2521486282348633" to="0" dur="0.2521486282348633s" begin="ds-label.mouseleave + 0s;ds-label.mouseout + 0s;ds-label.touchend + 0s;" fill="freeze"
    id="ds-off-down-width" />
<animate 
    xlink:href="#ds-rect-up" attributeName="width" from="0.7478513717651367" to="0" dur="0.7478513717651367s" begin="ds-label.mouseleave + 0.2521486282348633s;ds-label.mouseout + 0.2521486282348633s;ds-label.touchend + 0.2521486282348633s;" fill="freeze"
    id="ds-off-up-width" />
<animate 
    xlink:href="#ds-rect-down" attributeName="x" from="0.2521486282348633" to="0" dur="0.0001s" begin="ds-label.mouseleave + 1s;ds-label.mouseout + 1s;ds-label.touchend + 1s;" fill="freeze"
    id="ds-off-down-epilogue" />
<animate 
    xlink:href="#ds-rect-up" attributeName="x" from="1" to="0.2521486282348633" dur="0.0001s" begin="ds-label.mouseleave + 1s;ds-label.mouseout + 1s;ds-label.touchend + 1s;" fill="freeze"
    id="ds-off-up-epilogue" />
<animate 
    xlink:href="#typ-label-txt" attributeName="opacity" from="1" to="0.25" dur="0.25s" begin="ds-label.mouseenter + 0s;ds-label.mouseover + 0s;ds-label.touchstart + 0s;" fill="freeze"
    id="ds-on-label" />
<animate 
    xlink:href="#typ-label-txt" attributeName="opacity" from="0.25" to="1" dur="0.25s" begin="ds-label.mouseleave + 0s;ds-label.mouseout + 0s;ds-label.touchend + 0s;" fill="freeze"
    id="ds-off-label" />
<animate 
    xlink:href="#ds-label-txt" attributeName="opacity" from="1" to="0.25" dur="0.25s" begin="typ-label.mouseenter + 0s;typ-label.mouseover + 0s;typ-label.touchstart + 0s;" fill="freeze"
    id="typ-on-label" />
<animate 
    xlink:href="#ds-label-txt" attributeName="opacity" from="0.25" to="1" dur="0.25s" begin="typ-label.mouseleave + 0s;typ-label.mouseout + 0s;typ-label.touchend + 0s;" fill="freeze"
    id="typ-off-label" />
<animate 
      xlink:href="#typ-rect-down" attributeName="width" from="0" to="0.10317707061767578" dur="0.10317707061767578s" begin="typ-label.mouseenter + 0s;typ-label.mouseover + 0s;typ-label.touchstart + 0s;" fill="freeze"
      id="typ-rect-down-on" />
<animate 
      xlink:href="#typ-rect-down" attributeName="x" from="0" to="0.10317707061767578" dur="0.10317707061767578s" begin="typ-label.mouseleave + 0s;typ-label.mouseout + 0s;typ-label.touchend + 0s;" fill="freeze"
      id="typ-rect-down-off-x" />
<animate 
      xlink:href="#typ-rect-down" attributeName="width" from="0.10317707061767578" to="0" dur="0.10317707061767578s" begin="typ-label.mouseleave + 0s;typ-label.mouseout + 0s;typ-label.touchend + 0s;" fill="freeze"
      id="typ-rect-down-off-width" />
<animate 
      xlink:href="#typ-rect-down" attributeName="x" from="0.10317707061767578" to="0" dur="0.0001s" begin="typ-label.mouseleave + 1s;typ-label.mouseout + 1s;typ-label.touchend + 1s;" fill="freeze"
      id="typ-rect-down-off-x-epilogue" />
<animate 
      xlink:href="#typ-low" attributeName="x2" from="0" to="1" dur="1s" begin="typ-label.mouseenter + 0s;typ-label.mouseover + 0s;typ-label.touchstart + 0s;" fill="freeze"
      id="typ-low-on" />
<animate 
      xlink:href="#typ-low" attributeName="x1" from="0" to="1" dur="1s" begin="typ-label.mouseleave + 0s;typ-label.mouseout + 0s;typ-label.touchend + 0s;" fill="freeze"
      id="typ-low-off" />
<animate 
      xlink:href="#typ-low" attributeName="x1" from="1" to="0" dur="0.0001s" begin="typ-label.mouseleave + 1s;typ-label.mouseout + 1s;typ-label.touchend + 1s;" fill="freeze"
      id="typ-low-off-epilogue-x1" />
<animate 
      xlink:href="#typ-low" attributeName="x2" from="1" to="0" dur="0.0001s" begin="typ-label.mouseleave + 1s;typ-label.mouseout + 1s;typ-label.touchend + 1s;" fill="freeze"
      id="typ-low-off-epilogue-x2" />
<animate 
      xlink:href="#typ-rect-mid" attributeName="width" from="0" to="0.8272132873535156" dur="0.8272132873535156s" begin="typ-label.mouseenter + 0.10317707061767578s;typ-label.mouseover + 0.10317707061767578s;typ-label.touchstart + 0.10317707061767578s;" fill="freeze"
      id="typ-rect-mid-on" />
<animate 
      xlink:href="#typ-rect-mid" attributeName="x" from="0.10317707061767578" to="0.9303903579711914" dur="0.8272132873535156s" begin="typ-label.mouseleave + 0.10317707061767578s;typ-label.mouseout + 0.10317707061767578s;typ-label.touchend + 0.10317707061767578s;" fill="freeze"
      id="typ-rect-mid-off-x" />
<animate 
      xlink:href="#typ-rect-mid" attributeName="width" from="0.8272132873535156" to="0" dur="0.8272132873535156s" begin="typ-label.mouseleave + 0.10317707061767578s;typ-label.mouseout + 0.10317707061767578s;typ-label.touchend + 0.10317707061767578s;" fill="freeze"
      id="typ-rect-mid-off-width" />
<animate 
      xlink:href="#typ-rect-mid" attributeName="x" from="0.9303903579711914" to="0.10317707061767578" dur="0.0001s" begin="typ-label.mouseleave + 1s;typ-label.mouseout + 1s;typ-label.touchend + 1s;" fill="freeze"
      id="typ-rect-mid-off-x-epilogue" />
<animate 
      xlink:href="#typ-mu" attributeName="x2" from="0" to="1" dur="1s" begin="typ-label.mouseenter + 0s;typ-label.mouseover + 0s;typ-label.touchstart + 0s;" fill="freeze"
      id="typ-mu-on" />
<animate 
      xlink:href="#typ-mu" attributeName="x1" from="0" to="1" dur="1s" begin="typ-label.mouseleave + 0s;typ-label.mouseout + 0s;typ-label.touchend + 0s;" fill="freeze"
      id="typ-mu-off" />
<animate 
      xlink:href="#typ-mu" attributeName="x1" from="1" to="0" dur="0.0001s" begin="typ-label.mouseleave + 1s;typ-label.mouseout + 1s;typ-label.touchend + 1s;" fill="freeze"
      id="typ-mu-off-epilogue-x1" />
<animate 
      xlink:href="#typ-mu" attributeName="x2" from="1" to="0" dur="0.0001s" begin="typ-label.mouseleave + 1s;typ-label.mouseout + 1s;typ-label.touchend + 1s;" fill="freeze"
      id="typ-mu-off-epilogue-x2" />
<animate 
      xlink:href="#typ-rect-up" attributeName="width" from="0" to="0.0696096420288086" dur="0.0696096420288086s" begin="typ-label.mouseenter + 0.9303903579711914s;typ-label.mouseover + 0.9303903579711914s;typ-label.touchstart + 0.9303903579711914s;" fill="freeze"
      id="typ-rect-up-on" />
<animate 
      xlink:href="#typ-rect-up" attributeName="x" from="0.9303903579711914" to="1.0" dur="0.0696096420288086s" begin="typ-label.mouseleave + 0.9303903579711914s;typ-label.mouseout + 0.9303903579711914s;typ-label.touchend + 0.9303903579711914s;" fill="freeze"
      id="typ-rect-up-off-x" />
<animate 
      xlink:href="#typ-rect-up" attributeName="width" from="0.0696096420288086" to="0" dur="0.0696096420288086s" begin="typ-label.mouseleave + 0.9303903579711914s;typ-label.mouseout + 0.9303903579711914s;typ-label.touchend + 0.9303903579711914s;" fill="freeze"
      id="typ-rect-up-off-width" />
<animate 
      xlink:href="#typ-rect-up" attributeName="x" from="1.0" to="0.9303903579711914" dur="0.0001s" begin="typ-label.mouseleave + 1s;typ-label.mouseout + 1s;typ-label.touchend + 1s;" fill="freeze"
      id="typ-rect-up-off-x-epilogue" />
<animate 
      xlink:href="#typ-high" attributeName="x2" from="0" to="1" dur="1s" begin="typ-label.mouseenter + 0s;typ-label.mouseover + 0s;typ-label.touchstart + 0s;" fill="freeze"
      id="typ-high-on" />
<animate 
      xlink:href="#typ-high" attributeName="x1" from="0" to="1" dur="1s" begin="typ-label.mouseleave + 0s;typ-label.mouseout + 0s;typ-label.touchend + 0s;" fill="freeze"
      id="typ-high-off" />
<animate 
      xlink:href="#typ-high" attributeName="x1" from="1" to="0" dur="0.0001s" begin="typ-label.mouseleave + 1s;typ-label.mouseout + 1s;typ-label.touchend + 1s;" fill="freeze"
      id="typ-high-off-epilogue-x1" />
<animate 
      xlink:href="#typ-high" attributeName="x2" from="1" to="0" dur="0.0001s" begin="typ-label.mouseleave + 1s;typ-label.mouseout + 1s;typ-label.touchend + 1s;" fill="freeze"
      id="typ-high-off-epilogue-x2" />
</svg>
<rect height="0.5" width="1" x="0" y="0" id="frame" style="fill:none;stroke-width:0.0025;stroke:rgb(0,0,0);"/>
<text x="1.05" y="0.125" font-size="0.03" id="ds-label-txt">Density scoring</text>
<text x="1.05" y="0.2" font-size="0.03" id="typ-label-txt">Typicality</text>
<rect x="1.05" y="0.095" width="0.21" height="0.04" id="ds-label"
    style="fill:rgb(0,0,0);opacity:0;stroke-width:0.0025;stroke:rgb(0,0,0);"/>
<rect x="1.05" y="0.17" width="0.13" height="0.04" id="typ-label"
    style="fill:rgb(0,0,0);opacity:0;stroke-width:0.0025;stroke:rgb(0,0,0);"/>
<rect x="1.05" y="0.25" width="0.05" height="0.05"
    style="fill:url(#in-pattern);stroke-width:0.0025;stroke:rgb(0,0,0);"/>
<rect x="1.05" y="0.325" width="0.05" height="0.05"
    style="fill:url(#out-pattern);stroke-width:0.0025;stroke:rgb(0,0,0);"/>
<text x="1.12" y="0.2875" font-size="0.03">Inlier</text>
<text x="1.12" y="0.3625" font-size="0.03">Outlier</text>
</svg>