<svg id="logo_sign" class="defs-only" version="2.0" height="20.0pt" width="15.17pt" xmlns="http://www.w3.org/2000/svg" xmlns:xlink= "http://www.w3.org/1999/xlink" viewBox="0 0 27.3 36">
<path id="red_d" d="M 3.000000 3.000000 L 3.000000 3.000000 L 3.000000 3.000000 L 3.000000 3.000000" style="fill:none;stroke:rgb(140, 35, 35);stroke-linecap:round;stroke-width:0.000000;stroke-linejoin:round;"/>
<path id="red_i" d="M 30.300000 33.000000 L 30.300000 33.000000" style="fill:none;stroke:rgb(140, 35, 35);stroke-linecap:round;stroke-width:0.000000;stroke-linejoin:round;"/>
<path id="red_n" d="M 38.100000 33.000000 L 38.100000 33.000000 L 38.100000 33.000000 L 38.100000 33.000000 L 38.100000 33.000000" style="fill:none;stroke:rgb(140, 35, 35);stroke-linecap:round;stroke-width:0.000000;stroke-linejoin:round;"/>
<path id="red_h" d="M 65.400000 3.000000 L 65.400000 3.000000 L 65.400000 3.000000 L 65.400000 3.000000 L 65.400000 3.000000 L 65.400000 3.000000" style="fill:none;stroke:rgb(140, 35, 35);stroke-linecap:round;stroke-width:0.000000;stroke-linejoin:round;"/>
<path id="black_d" d="M 3.000000 3.000000 L 22.500000 18.000000 L 3.000000 33.000000 L 3.000000 3.000000" style="fill:none;stroke:rgb(51, 51, 51);stroke-linecap:round;stroke-width:1.800000;stroke-linejoin:round;"/>
<path id="black_i" d="M 22.500000 33.000000 L 22.500000 3.000000" style="fill:none;stroke:rgb(51, 51, 51);stroke-linecap:round;stroke-width:1.800000;stroke-linejoin:round;"/>
<path id="black_n" d="M 3.000000 33.000000 L 3.000000 3.000000 L 22.500000 18.000000 L 22.500000 33.000000 L 22.500000 3.000000" style="fill:none;stroke:rgb(51, 51, 51);stroke-linecap:round;stroke-width:1.800000;stroke-linejoin:round;"/>
<path id="black_h" d="M 3.000000 3.000000 L 3.000000 33.000000 L 3.000000 18.000000 L 22.500000 18.000000 L 22.500000 33.000000 L 22.500000 3.000000" style="fill:none;stroke:rgb(51, 51, 51);stroke-linecap:round;stroke-width:1.800000;stroke-linejoin:round;"/>
</svg>
