<?xml version="1.0" encoding="utf-8" standalone="no"?>
<!DOCTYPE svg PUBLIC "-//W3C//DTD SVG 1.1//EN"
  "http://www.w3.org/Graphics/SVG/1.1/DTD/svg11.dtd">
<!-- Created with matplotlib (http://matplotlib.org/) -->
<svg height="294pt" version="1.1" viewBox="0 0 702 294" width="702pt" xmlns="http://www.w3.org/2000/svg" xmlns:xlink="http://www.w3.org/1999/xlink">
 <defs>
  <style type="text/css">
*{stroke-linecap:butt;stroke-linejoin:round;}
  </style>
 </defs>
 <g id="figure_1">
  <g id="patch_1">
   <path d="M 0 294.48 
L 702 294.48 
L 702 0 
L 0 0 
z
" style="fill:none;"/>
  </g>
  <g id="axes_1">
   <g id="line2d_1">
    <path clip-path="url(#p744fb86dab)" d="M 64.7925 35.510769 
L 204.634167 140.68 
L 64.7925 245.849231 
L 64.7925 35.510769 
" style="fill:none;stroke:#800000;stroke-linecap:round;stroke-width:16;"/>
   </g>
   <g id="line2d_2">
    <path clip-path="url(#p744fb86dab)" d="M 64.7925 35.510769 
L 64.7925 35.510769 
" style="fill:none;opacity:0.495;stroke:#333333;stroke-linecap:round;stroke-width:16;"/>
   </g>
   <g id="line2d_3">
    <path clip-path="url(#p744fb86dab)" d="M 204.634167 35.510769 
L 204.634167 35.510769 
" style="fill:none;opacity:0.495;stroke:#333333;stroke-linecap:round;stroke-width:16;"/>
   </g>
   <g id="line2d_4">
    <path clip-path="url(#p744fb86dab)" d="M 260.570833 245.849231 
L 260.570833 35.510769 
" style="fill:none;opacity:0.757596;stroke:#800000;stroke-linecap:round;stroke-width:16;"/>
   </g>
   <g id="line2d_5">
    <path clip-path="url(#p744fb86dab)" d="M 204.634167 35.510769 
L 204.634167 181.246196 
" style="fill:none;opacity:0.586608;stroke:#333333;stroke-linecap:round;stroke-width:16;"/>
   </g>
   <g id="line2d_6">
    <path clip-path="url(#p744fb86dab)" d="M 316.5075 245.849231 
L 316.5075 35.510769 
L 456.349167 140.68 
L 456.349167 245.849231 
L 456.349167 181.246196 
" style="fill:none;opacity:0.757596;stroke:#800000;stroke-linecap:round;stroke-width:16;"/>
   </g>
   <g id="line2d_7">
    <path clip-path="url(#p744fb86dab)" d="M 204.634167 35.510769 
L 204.634167 245.849231 
L 204.634167 223.551335 
" style="fill:none;opacity:0.621202;stroke:#333333;stroke-linecap:round;stroke-width:16;"/>
   </g>
   <g id="line2d_8">
    <path clip-path="url(#p744fb86dab)" d="M 512.285833 35.510769 
L 512.285833 245.849231 
L 512.285833 140.68 
L 652.1275 140.68 
L 652.1275 223.551335 
" style="fill:none;opacity:0.757596;stroke:#800000;stroke-linecap:round;stroke-width:16;"/>
   </g>
   <g id="PathCollection_1">
    <defs>
     <path d="M 0 20.727649 
C 5.497037 20.727649 10.769669 18.543653 14.656661 14.656661 
C 18.543653 10.769669 20.727649 5.497037 20.727649 0 
C 20.727649 -5.497037 18.543653 -10.769669 14.656661 -14.656661 
C 10.769669 -18.543653 5.497037 -20.727649 0 -20.727649 
C -5.497037 -20.727649 -10.769669 -18.543653 -14.656661 -14.656661 
C -18.543653 -10.769669 -20.727649 -5.497037 -20.727649 0 
C -20.727649 5.497037 -18.543653 10.769669 -14.656661 14.656661 
C -10.769669 18.543653 -5.497037 20.727649 0 20.727649 
z
" id="ma2a8bae47c" style="stroke:#800000;"/>
    </defs>
    <g clip-path="url(#p744fb86dab)">
     <use style="fill:#800000;stroke:#800000;" x="204.634167" xlink:href="#ma2a8bae47c" y="181.246196"/>
    </g>
   </g>
   <g id="PathCollection_2">
    <defs>
     <path d="M 0 20.727649 
C 5.497037 20.727649 10.769669 18.543653 14.656661 14.656661 
C 18.543653 10.769669 20.727649 5.497037 20.727649 0 
C 20.727649 -5.497037 18.543653 -10.769669 14.656661 -14.656661 
C 10.769669 -18.543653 5.497037 -20.727649 0 -20.727649 
C -5.497037 -20.727649 -10.769669 -18.543653 -14.656661 -14.656661 
C -18.543653 -10.769669 -20.727649 -5.497037 -20.727649 0 
C -20.727649 5.497037 -18.543653 10.769669 -14.656661 14.656661 
C -10.769669 18.543653 -5.497037 20.727649 0 20.727649 
z
" id="me4ab5b03f8" style="stroke:#333333;"/>
    </defs>
    <g clip-path="url(#p744fb86dab)">
     <use style="fill:#333333;stroke:#333333;" x="456.349167" xlink:href="#me4ab5b03f8" y="181.246196"/>
    </g>
   </g>
   <g id="PathCollection_3">
    <defs>
     <path d="M 0 23.471955 
C 6.224835 23.471955 12.195555 20.998801 16.597178 16.597178 
C 20.998801 12.195555 23.471955 6.224835 23.471955 0 
C 23.471955 -6.224835 20.998801 -12.195555 16.597178 -16.597178 
C 12.195555 -20.998801 6.224835 -23.471955 0 -23.471955 
C -6.224835 -23.471955 -12.195555 -20.998801 -16.597178 -16.597178 
C -20.998801 -12.195555 -23.471955 -6.224835 -23.471955 0 
C -23.471955 6.224835 -20.998801 12.195555 -16.597178 16.597178 
C -12.195555 20.998801 -6.224835 23.471955 0 23.471955 
z
" id="m187c34f23d" style="stroke:#800000;"/>
    </defs>
    <g clip-path="url(#p744fb86dab)">
     <use style="fill:#800000;stroke:#800000;" x="204.634167" xlink:href="#m187c34f23d" y="223.551335"/>
    </g>
   </g>
   <g id="PathCollection_4">
    <defs>
     <path d="M 0 23.471955 
C 6.224835 23.471955 12.195555 20.998801 16.597178 16.597178 
C 20.998801 12.195555 23.471955 6.224835 23.471955 0 
C 23.471955 -6.224835 20.998801 -12.195555 16.597178 -16.597178 
C 12.195555 -20.998801 6.224835 -23.471955 0 -23.471955 
C -6.224835 -23.471955 -12.195555 -20.998801 -16.597178 -16.597178 
C -20.998801 -12.195555 -23.471955 -6.224835 -23.471955 0 
C -23.471955 6.224835 -20.998801 12.195555 -16.597178 16.597178 
C -12.195555 20.998801 -6.224835 23.471955 0 23.471955 
z
" id="mf01a2cf20d" style="stroke:#333333;"/>
    </defs>
    <g clip-path="url(#p744fb86dab)">
     <use style="fill:#333333;stroke:#333333;" x="652.1275" xlink:href="#mf01a2cf20d" y="223.551335"/>
    </g>
   </g>
  </g>
 </g>
 <defs>
  <clipPath id="p744fb86dab">
   <rect height="273.44" width="671.24" x="22.84" y="3.96"/>
  </clipPath>
 </defs>
</svg>
