<?xml version="1.0" encoding="utf-8" standalone="no"?>
<!DOCTYPE svg PUBLIC "-//W3C//DTD SVG 1.1//EN"
  "http://www.w3.org/Graphics/SVG/1.1/DTD/svg11.dtd">
<!-- Created with matplotlib (http://matplotlib.org/) -->
<svg height="294pt" version="1.1" viewBox="0 0 702 294" width="702pt" xmlns="http://www.w3.org/2000/svg" xmlns:xlink="http://www.w3.org/1999/xlink">
 <defs>
  <style type="text/css">
*{stroke-linecap:butt;stroke-linejoin:round;}
  </style>
 </defs>
 <g id="figure_1">
  <g id="patch_1">
   <path d="M 0 294.48 
L 702 294.48 
L 702 0 
L 0 0 
z
" style="fill:none;"/>
  </g>
  <g id="axes_1">
   <g id="line2d_1">
    <path clip-path="url(#pa17052046a)" d="M 64.7925 35.510769 
L 204.634167 140.68 
L 64.7925 245.849231 
L 64.7925 35.510769 
" style="fill:none;stroke:#800000;stroke-linecap:round;stroke-width:16;"/>
   </g>
   <g id="line2d_2">
    <path clip-path="url(#pa17052046a)" d="M 64.7925 35.510769 
L 64.7925 235.51664 
" style="fill:none;opacity:0.658479;stroke:#333333;stroke-linecap:round;stroke-width:16;"/>
   </g>
   <g id="line2d_3">
    <path clip-path="url(#pa17052046a)" d="M 204.634167 35.510769 
L 204.634167 35.510769 
" style="fill:none;opacity:0.495;stroke:#333333;stroke-linecap:round;stroke-width:16;"/>
   </g>
   <g id="line2d_4">
    <path clip-path="url(#pa17052046a)" d="M 260.570833 245.849231 
L 260.570833 35.510769 
" style="fill:none;opacity:0.471145;stroke:#800000;stroke-linecap:round;stroke-width:16;"/>
   </g>
   <g id="line2d_5">
    <path clip-path="url(#pa17052046a)" d="M 204.634167 35.510769 
L 204.634167 245.849231 
L 204.634167 146.642207 
" style="fill:none;opacity:0.742914;stroke:#333333;stroke-linecap:round;stroke-width:16;"/>
   </g>
   <g id="line2d_6">
    <path clip-path="url(#pa17052046a)" d="M 316.5075 245.849231 
L 316.5075 35.510769 
L 456.349167 140.68 
L 456.349167 146.642207 
" style="fill:none;opacity:0.471145;stroke:#800000;stroke-linecap:round;stroke-width:16;"/>
   </g>
   <g id="line2d_7">
    <path clip-path="url(#pa17052046a)" d="M 204.634167 35.510769 
L 204.634167 245.849231 
L 204.634167 140.68 
L 114.537649 140.68 
" style="fill:none;opacity:0.764428;stroke:#333333;stroke-linecap:round;stroke-width:16;"/>
   </g>
   <g id="line2d_8">
    <path clip-path="url(#pa17052046a)" d="M 512.285833 35.510769 
L 512.285833 245.849231 
L 512.285833 140.68 
L 562.030982 140.68 
" style="fill:none;opacity:0.471145;stroke:#800000;stroke-linecap:round;stroke-width:16;"/>
   </g>
   <g id="PathCollection_1">
    <defs>
     <path d="M 0 25.485049 
C 6.758714 25.485049 13.241519 22.799784 18.020651 18.020651 
C 22.799784 13.241519 25.485049 6.758714 25.485049 0 
C 25.485049 -6.758714 22.799784 -13.241519 18.020651 -18.020651 
C 13.241519 -22.799784 6.758714 -25.485049 0 -25.485049 
C -6.758714 -25.485049 -13.241519 -22.799784 -18.020651 -18.020651 
C -22.799784 -13.241519 -25.485049 -6.758714 -25.485049 0 
C -25.485049 6.758714 -22.799784 13.241519 -18.020651 18.020651 
C -13.241519 22.799784 -6.758714 25.485049 0 25.485049 
z
" id="m5b2d037e8e" style="stroke:#800000;"/>
    </defs>
    <g clip-path="url(#pa17052046a)">
     <use style="fill:#800000;stroke:#800000;" x="64.7925" xlink:href="#m5b2d037e8e" y="235.51664"/>
    </g>
   </g>
   <g id="PathCollection_2">
    <defs>
     <path d="M 0 27.375124 
C 7.259968 27.375124 14.223563 24.490708 19.357135 19.357135 
C 24.490708 14.223563 27.375124 7.259968 27.375124 0 
C 27.375124 -7.259968 24.490708 -14.223563 19.357135 -19.357135 
C 14.223563 -24.490708 7.259968 -27.375124 0 -27.375124 
C -7.259968 -27.375124 -14.223563 -24.490708 -19.357135 -19.357135 
C -24.490708 -14.223563 -27.375124 -7.259968 -27.375124 0 
C -27.375124 7.259968 -24.490708 14.223563 -19.357135 19.357135 
C -14.223563 24.490708 -7.259968 27.375124 0 27.375124 
z
" id="mb6ddc6fc52" style="stroke:#800000;"/>
    </defs>
    <g clip-path="url(#pa17052046a)">
     <use style="fill:#800000;stroke:#800000;" x="204.634167" xlink:href="#mb6ddc6fc52" y="146.642207"/>
    </g>
   </g>
   <g id="PathCollection_3">
    <defs>
     <path d="M 0 27.375124 
C 7.259968 27.375124 14.223563 24.490708 19.357135 19.357135 
C 24.490708 14.223563 27.375124 7.259968 27.375124 0 
C 27.375124 -7.259968 24.490708 -14.223563 19.357135 -19.357135 
C 14.223563 -24.490708 7.259968 -27.375124 0 -27.375124 
C -7.259968 -27.375124 -14.223563 -24.490708 -19.357135 -19.357135 
C -24.490708 -14.223563 -27.375124 -7.259968 -27.375124 0 
C -27.375124 7.259968 -24.490708 14.223563 -19.357135 19.357135 
C -14.223563 24.490708 -7.259968 27.375124 0 27.375124 
z
" id="madae7d3778" style="stroke:#333333;"/>
    </defs>
    <g clip-path="url(#pa17052046a)">
     <use style="fill:#333333;stroke:#333333;" x="456.349167" xlink:href="#madae7d3778" y="146.642207"/>
    </g>
   </g>
   <g id="PathCollection_4">
    <defs>
     <path d="M 0 27.340486 
C 7.250782 27.340486 14.205566 24.45972 19.332643 19.332643 
C 24.45972 14.205566 27.340486 7.250782 27.340486 0 
C 27.340486 -7.250782 24.45972 -14.205566 19.332643 -19.332643 
C 14.205566 -24.45972 7.250782 -27.340486 0 -27.340486 
C -7.250782 -27.340486 -14.205566 -24.45972 -19.332643 -19.332643 
C -24.45972 -14.205566 -27.340486 -7.250782 -27.340486 0 
C -27.340486 7.250782 -24.45972 14.205566 -19.332643 19.332643 
C -14.205566 24.45972 -7.250782 27.340486 0 27.340486 
z
" id="m96bf69f06c" style="stroke:#800000;"/>
    </defs>
    <g clip-path="url(#pa17052046a)">
     <use style="fill:#800000;stroke:#800000;" x="114.537649" xlink:href="#m96bf69f06c" y="140.68"/>
    </g>
   </g>
   <g id="PathCollection_5">
    <defs>
     <path d="M 0 27.340486 
C 7.250782 27.340486 14.205566 24.45972 19.332643 19.332643 
C 24.45972 14.205566 27.340486 7.250782 27.340486 0 
C 27.340486 -7.250782 24.45972 -14.205566 19.332643 -19.332643 
C 14.205566 -24.45972 7.250782 -27.340486 0 -27.340486 
C -7.250782 -27.340486 -14.205566 -24.45972 -19.332643 -19.332643 
C -24.45972 -14.205566 -27.340486 -7.250782 -27.340486 0 
C -27.340486 7.250782 -24.45972 14.205566 -19.332643 19.332643 
C -14.205566 24.45972 -7.250782 27.340486 0 27.340486 
z
" id="m048813eed6" style="stroke:#333333;"/>
    </defs>
    <g clip-path="url(#pa17052046a)">
     <use style="fill:#333333;stroke:#333333;" x="562.030982" xlink:href="#m048813eed6" y="140.68"/>
    </g>
   </g>
  </g>
 </g>
 <defs>
  <clipPath id="pa17052046a">
   <rect height="273.44" width="671.24" x="22.84" y="3.96"/>
  </clipPath>
 </defs>
</svg>
