<?xml version="1.0" encoding="utf-8" standalone="no"?>
<!DOCTYPE svg PUBLIC "-//W3C//DTD SVG 1.1//EN"
  "http://www.w3.org/Graphics/SVG/1.1/DTD/svg11.dtd">
<!-- Created with matplotlib (http://matplotlib.org/) -->
<svg height="294pt" version="1.1" viewBox="0 0 702 294" width="702pt" xmlns="http://www.w3.org/2000/svg" xmlns:xlink="http://www.w3.org/1999/xlink">
 <defs>
  <style type="text/css">
*{stroke-linecap:butt;stroke-linejoin:round;}
  </style>
 </defs>
 <g id="figure_1">
  <g id="patch_1">
   <path d="M 0 294.48 
L 702 294.48 
L 702 0 
L 0 0 
z
" style="fill:none;"/>
  </g>
  <g id="axes_1">
   <g id="line2d_1">
    <path clip-path="url(#pc6ba93d854)" d="M 64.7925 35.510769 
L 204.634167 140.68 
L 64.7925 245.849231 
L 64.7925 35.510769 
" style="fill:none;stroke:#800000;stroke-linecap:round;stroke-width:16;"/>
   </g>
   <g id="line2d_2">
    <path clip-path="url(#pc6ba93d854)" d="M 64.7925 35.510769 
L 64.7925 179.556434 
" style="fill:none;opacity:0.614138;stroke:#333333;stroke-linecap:round;stroke-width:16;"/>
   </g>
   <g id="line2d_3">
    <path clip-path="url(#pc6ba93d854)" d="M 204.634167 35.510769 
L 204.634167 35.510769 
" style="fill:none;opacity:0.495;stroke:#333333;stroke-linecap:round;stroke-width:16;"/>
   </g>
   <g id="line2d_4">
    <path clip-path="url(#pc6ba93d854)" d="M 260.570833 245.849231 
L 260.570833 35.510769 
" style="fill:none;opacity:0.532316;stroke:#800000;stroke-linecap:round;stroke-width:16;"/>
   </g>
   <g id="line2d_5">
    <path clip-path="url(#pc6ba93d854)" d="M 204.634167 35.510769 
L 204.634167 245.849231 
L 204.634167 174.725648 
" style="fill:none;opacity:0.709535;stroke:#333333;stroke-linecap:round;stroke-width:16;"/>
   </g>
   <g id="line2d_6">
    <path clip-path="url(#pc6ba93d854)" d="M 316.5075 245.849231 
L 316.5075 35.510769 
L 456.349167 140.68 
L 456.349167 174.725648 
" style="fill:none;opacity:0.532316;stroke:#800000;stroke-linecap:round;stroke-width:16;"/>
   </g>
   <g id="line2d_7">
    <path clip-path="url(#pc6ba93d854)" d="M 204.634167 35.510769 
L 204.634167 245.849231 
L 204.634167 140.68 
L 157.309062 140.68 
" style="fill:none;opacity:0.733842;stroke:#333333;stroke-linecap:round;stroke-width:16;"/>
   </g>
   <g id="line2d_8">
    <path clip-path="url(#pc6ba93d854)" d="M 512.285833 35.510769 
L 512.285833 245.849231 
L 512.285833 140.68 
L 604.802395 140.68 
" style="fill:none;opacity:0.532316;stroke:#800000;stroke-linecap:round;stroke-width:16;"/>
   </g>
   <g id="PathCollection_1">
    <defs>
     <path d="M 0 22.989089 
C 6.096778 22.989089 11.944668 20.566813 16.25574 16.25574 
C 20.566813 11.944668 22.989089 6.096778 22.989089 0 
C 22.989089 -6.096778 20.566813 -11.944668 16.25574 -16.25574 
C 11.944668 -20.566813 6.096778 -22.989089 0 -22.989089 
C -6.096778 -22.989089 -11.944668 -20.566813 -16.25574 -16.25574 
C -20.566813 -11.944668 -22.989089 -6.096778 -22.989089 0 
C -22.989089 6.096778 -20.566813 11.944668 -16.25574 16.25574 
C -11.944668 20.566813 -6.096778 22.989089 0 22.989089 
z
" id="m1707a77d3e" style="stroke:#800000;"/>
    </defs>
    <g clip-path="url(#pc6ba93d854)">
     <use style="fill:#800000;stroke:#800000;" x="64.7925" xlink:href="#m1707a77d3e" y="179.556434"/>
    </g>
   </g>
   <g id="PathCollection_2">
    <defs>
     <path d="M 0 27.025001 
C 7.167114 27.025001 14.041647 24.177477 19.109562 19.109562 
C 24.177477 14.041647 27.025001 7.167114 27.025001 0 
C 27.025001 -7.167114 24.177477 -14.041647 19.109562 -19.109562 
C 14.041647 -24.177477 7.167114 -27.025001 0 -27.025001 
C -7.167114 -27.025001 -14.041647 -24.177477 -19.109562 -19.109562 
C -24.177477 -14.041647 -27.025001 -7.167114 -27.025001 0 
C -27.025001 7.167114 -24.177477 14.041647 -19.109562 19.109562 
C -14.041647 24.177477 -7.167114 27.025001 0 27.025001 
z
" id="m3268cf54f0" style="stroke:#800000;"/>
    </defs>
    <g clip-path="url(#pc6ba93d854)">
     <use style="fill:#800000;stroke:#800000;" x="204.634167" xlink:href="#m3268cf54f0" y="174.725648"/>
    </g>
   </g>
   <g id="PathCollection_3">
    <defs>
     <path d="M 0 27.025001 
C 7.167114 27.025001 14.041647 24.177477 19.109562 19.109562 
C 24.177477 14.041647 27.025001 7.167114 27.025001 0 
C 27.025001 -7.167114 24.177477 -14.041647 19.109562 -19.109562 
C 14.041647 -24.177477 7.167114 -27.025001 0 -27.025001 
C -7.167114 -27.025001 -14.041647 -24.177477 -19.109562 -19.109562 
C -24.177477 -14.041647 -27.025001 -7.167114 -27.025001 0 
C -27.025001 7.167114 -24.177477 14.041647 -19.109562 19.109562 
C -14.041647 24.177477 -7.167114 27.025001 0 27.025001 
z
" id="m19b4ca7d59" style="stroke:#333333;"/>
    </defs>
    <g clip-path="url(#pc6ba93d854)">
     <use style="fill:#333333;stroke:#333333;" x="456.349167" xlink:href="#m19b4ca7d59" y="174.725648"/>
    </g>
   </g>
   <g id="PathCollection_4">
    <defs>
     <path d="M 0 27.328867 
C 7.2477 27.328867 14.199529 24.449326 19.324428 19.324428 
C 24.449326 14.199529 27.328867 7.2477 27.328867 0 
C 27.328867 -7.2477 24.449326 -14.199529 19.324428 -19.324428 
C 14.199529 -24.449326 7.2477 -27.328867 0 -27.328867 
C -7.2477 -27.328867 -14.199529 -24.449326 -19.324428 -19.324428 
C -24.449326 -14.199529 -27.328867 -7.2477 -27.328867 0 
C -27.328867 7.2477 -24.449326 14.199529 -19.324428 19.324428 
C -14.199529 24.449326 -7.2477 27.328867 0 27.328867 
z
" id="m30802ebf90" style="stroke:#800000;"/>
    </defs>
    <g clip-path="url(#pc6ba93d854)">
     <use style="fill:#800000;stroke:#800000;" x="157.309062" xlink:href="#m30802ebf90" y="140.68"/>
    </g>
   </g>
   <g id="PathCollection_5">
    <defs>
     <path d="M 0 27.328867 
C 7.2477 27.328867 14.199529 24.449326 19.324428 19.324428 
C 24.449326 14.199529 27.328867 7.2477 27.328867 0 
C 27.328867 -7.2477 24.449326 -14.199529 19.324428 -19.324428 
C 14.199529 -24.449326 7.2477 -27.328867 0 -27.328867 
C -7.2477 -27.328867 -14.199529 -24.449326 -19.324428 -19.324428 
C -24.449326 -14.199529 -27.328867 -7.2477 -27.328867 0 
C -27.328867 7.2477 -24.449326 14.199529 -19.324428 19.324428 
C -14.199529 24.449326 -7.2477 27.328867 0 27.328867 
z
" id="m29b270749b" style="stroke:#333333;"/>
    </defs>
    <g clip-path="url(#pc6ba93d854)">
     <use style="fill:#333333;stroke:#333333;" x="604.802395" xlink:href="#m29b270749b" y="140.68"/>
    </g>
   </g>
  </g>
 </g>
 <defs>
  <clipPath id="pc6ba93d854">
   <rect height="273.44" width="671.24" x="22.84" y="3.96"/>
  </clipPath>
 </defs>
</svg>
