<?xml version="1.0" encoding="utf-8" standalone="no"?>
<!DOCTYPE svg PUBLIC "-//W3C//DTD SVG 1.1//EN"
  "http://www.w3.org/Graphics/SVG/1.1/DTD/svg11.dtd">
<!-- Created with matplotlib (http://matplotlib.org/) -->
<svg height="294pt" version="1.1" viewBox="0 0 702 294" width="702pt" xmlns="http://www.w3.org/2000/svg" xmlns:xlink="http://www.w3.org/1999/xlink">
 <defs>
  <style type="text/css">
*{stroke-linecap:butt;stroke-linejoin:round;}
  </style>
 </defs>
 <g id="figure_1">
  <g id="patch_1">
   <path d="M 0 294.48 
L 702 294.48 
L 702 0 
L 0 0 
z
" style="fill:none;"/>
  </g>
  <g id="axes_1">
   <g id="line2d_1">
    <path clip-path="url(#p751d490e9b)" d="M 64.7925 35.510769 
L 204.634167 140.68 
L 64.7925 245.849231 
L 64.7925 35.510769 
" style="fill:none;stroke:#800000;stroke-linecap:round;stroke-width:16;"/>
   </g>
   <g id="line2d_2">
    <path clip-path="url(#p751d490e9b)" d="M 64.7925 35.510769 
L 64.7925 151.943866 
" style="fill:none;opacity:0.592259;stroke:#333333;stroke-linecap:round;stroke-width:16;"/>
   </g>
   <g id="line2d_3">
    <path clip-path="url(#p751d490e9b)" d="M 204.634167 35.510769 
L 204.634167 35.510769 
" style="fill:none;opacity:0.495;stroke:#333333;stroke-linecap:round;stroke-width:16;"/>
   </g>
   <g id="line2d_4">
    <path clip-path="url(#p751d490e9b)" d="M 260.570833 245.849231 
L 260.570833 35.510769 
" style="fill:none;opacity:0.5625;stroke:#800000;stroke-linecap:round;stroke-width:16;"/>
   </g>
   <g id="line2d_5">
    <path clip-path="url(#p751d490e9b)" d="M 204.634167 35.510769 
L 204.634167 245.849231 
L 204.634167 188.582922 
" style="fill:none;opacity:0.693064;stroke:#333333;stroke-linecap:round;stroke-width:16;"/>
   </g>
   <g id="line2d_6">
    <path clip-path="url(#p751d490e9b)" d="M 316.5075 245.849231 
L 316.5075 35.510769 
L 456.349167 140.68 
L 456.349167 188.582922 
" style="fill:none;opacity:0.5625;stroke:#800000;stroke-linecap:round;stroke-width:16;"/>
   </g>
   <g id="line2d_7">
    <path clip-path="url(#p751d490e9b)" d="M 204.634167 35.510769 
L 204.634167 245.849231 
L 204.634167 140.68 
L 178.413854 140.68 
" style="fill:none;opacity:0.71875;stroke:#333333;stroke-linecap:round;stroke-width:16;"/>
   </g>
   <g id="line2d_8">
    <path clip-path="url(#p751d490e9b)" d="M 512.285833 35.510769 
L 512.285833 245.849231 
L 512.285833 140.68 
L 625.907188 140.68 
" style="fill:none;opacity:0.5625;stroke:#800000;stroke-linecap:round;stroke-width:16;"/>
   </g>
   <g id="PathCollection_1">
    <defs>
     <path d="M 0 21.246447 
C 5.634624 21.246447 11.039226 19.007788 15.023507 15.023507 
C 19.007788 11.039226 21.246447 5.634624 21.246447 0 
C 21.246447 -5.634624 19.007788 -11.039226 15.023507 -15.023507 
C 11.039226 -19.007788 5.634624 -21.246447 0 -21.246447 
C -5.634624 -21.246447 -11.039226 -19.007788 -15.023507 -15.023507 
C -19.007788 -11.039226 -21.246447 -5.634624 -21.246447 0 
C -21.246447 5.634624 -19.007788 11.039226 -15.023507 15.023507 
C -11.039226 19.007788 -5.634624 21.246447 0 21.246447 
z
" id="m02e27ebc7b" style="stroke:#800000;"/>
    </defs>
    <g clip-path="url(#p751d490e9b)">
     <use style="fill:#800000;stroke:#800000;" x="64.7925" xlink:href="#m02e27ebc7b" y="151.943866"/>
    </g>
   </g>
   <g id="PathCollection_2">
    <defs>
     <path d="M 0 26.666461 
C 7.072028 26.666461 13.855356 23.856715 18.856036 18.856036 
C 23.856715 13.855356 26.666461 7.072028 26.666461 0 
C 26.666461 -7.072028 23.856715 -13.855356 18.856036 -18.856036 
C 13.855356 -23.856715 7.072028 -26.666461 0 -26.666461 
C -7.072028 -26.666461 -13.855356 -23.856715 -18.856036 -18.856036 
C -23.856715 -13.855356 -26.666461 -7.072028 -26.666461 0 
C -26.666461 7.072028 -23.856715 13.855356 -18.856036 18.856036 
C -13.855356 23.856715 -7.072028 26.666461 0 26.666461 
z
" id="m9fe36740af" style="stroke:#800000;"/>
    </defs>
    <g clip-path="url(#p751d490e9b)">
     <use style="fill:#800000;stroke:#800000;" x="204.634167" xlink:href="#m9fe36740af" y="188.582922"/>
    </g>
   </g>
   <g id="PathCollection_3">
    <defs>
     <path d="M 0 26.666461 
C 7.072028 26.666461 13.855356 23.856715 18.856036 18.856036 
C 23.856715 13.855356 26.666461 7.072028 26.666461 0 
C 26.666461 -7.072028 23.856715 -13.855356 18.856036 -18.856036 
C 13.855356 -23.856715 7.072028 -26.666461 0 -26.666461 
C -7.072028 -26.666461 -13.855356 -23.856715 -18.856036 -18.856036 
C -23.856715 -13.855356 -26.666461 -7.072028 -26.666461 0 
C -26.666461 7.072028 -23.856715 13.855356 -18.856036 18.856036 
C -13.855356 23.856715 -7.072028 26.666461 0 26.666461 
z
" id="md8cb9a5804" style="stroke:#333333;"/>
    </defs>
    <g clip-path="url(#p751d490e9b)">
     <use style="fill:#333333;stroke:#333333;" x="456.349167" xlink:href="#md8cb9a5804" y="188.582922"/>
    </g>
   </g>
   <g id="PathCollection_4">
    <defs>
     <path d="M 0 27.171331 
C 7.205921 27.171331 14.117677 24.308389 19.213033 19.213033 
C 24.308389 14.117677 27.171331 7.205921 27.171331 0 
C 27.171331 -7.205921 24.308389 -14.117677 19.213033 -19.213033 
C 14.117677 -24.308389 7.205921 -27.171331 0 -27.171331 
C -7.205921 -27.171331 -14.117677 -24.308389 -19.213033 -19.213033 
C -24.308389 -14.117677 -27.171331 -7.205921 -27.171331 0 
C -27.171331 7.205921 -24.308389 14.117677 -19.213033 19.213033 
C -14.117677 24.308389 -7.205921 27.171331 0 27.171331 
z
" id="mcadd0407dc" style="stroke:#800000;"/>
    </defs>
    <g clip-path="url(#p751d490e9b)">
     <use style="fill:#800000;stroke:#800000;" x="178.413854" xlink:href="#mcadd0407dc" y="140.68"/>
    </g>
   </g>
   <g id="PathCollection_5">
    <defs>
     <path d="M 0 27.171331 
C 7.205921 27.171331 14.117677 24.308389 19.213033 19.213033 
C 24.308389 14.117677 27.171331 7.205921 27.171331 0 
C 27.171331 -7.205921 24.308389 -14.117677 19.213033 -19.213033 
C 14.117677 -24.308389 7.205921 -27.171331 0 -27.171331 
C -7.205921 -27.171331 -14.117677 -24.308389 -19.213033 -19.213033 
C -24.308389 -14.117677 -27.171331 -7.205921 -27.171331 0 
C -27.171331 7.205921 -24.308389 14.117677 -19.213033 19.213033 
C -14.117677 24.308389 -7.205921 27.171331 0 27.171331 
z
" id="m745728d55f" style="stroke:#333333;"/>
    </defs>
    <g clip-path="url(#p751d490e9b)">
     <use style="fill:#333333;stroke:#333333;" x="625.907188" xlink:href="#m745728d55f" y="140.68"/>
    </g>
   </g>
  </g>
 </g>
 <defs>
  <clipPath id="p751d490e9b">
   <rect height="273.44" width="671.24" x="22.84" y="3.96"/>
  </clipPath>
 </defs>
</svg>
