<?xml version="1.0" encoding="utf-8" standalone="no"?>
<!DOCTYPE svg PUBLIC "-//W3C//DTD SVG 1.1//EN"
  "http://www.w3.org/Graphics/SVG/1.1/DTD/svg11.dtd">
<!-- Created with matplotlib (http://matplotlib.org/) -->
<svg height="294pt" version="1.1" viewBox="0 0 702 294" width="702pt" xmlns="http://www.w3.org/2000/svg" xmlns:xlink="http://www.w3.org/1999/xlink">
 <defs>
  <style type="text/css">
*{stroke-linecap:butt;stroke-linejoin:round;}
  </style>
 </defs>
 <g id="figure_1">
  <g id="patch_1">
   <path d="M 0 294.48 
L 702 294.48 
L 702 0 
L 0 0 
z
" style="fill:none;"/>
  </g>
  <g id="axes_1">
   <g id="line2d_1">
    <path clip-path="url(#p5ed8145603)" d="M 64.7925 35.510769 
L 204.634167 140.68 
L 64.7925 245.849231 
L 64.7925 35.510769 
" style="fill:none;stroke:#800000;stroke-linecap:round;stroke-width:16;"/>
   </g>
   <g id="line2d_2">
    <path clip-path="url(#p5ed8145603)" d="M 64.7925 35.510769 
L 64.7925 245.849231 
L 204.634167 140.68 
L 79.141863 46.302342 
" style="fill:none;opacity:0.982898;stroke:#333333;stroke-linecap:round;stroke-width:16;"/>
   </g>
   <g id="line2d_3">
    <path clip-path="url(#p5ed8145603)" d="M 204.634167 35.510769 
L 204.634167 228.480457 
" style="fill:none;opacity:0.958712;stroke:#333333;stroke-linecap:round;stroke-width:16;"/>
   </g>
   <g id="line2d_4">
    <path clip-path="url(#p5ed8145603)" d="M 260.570833 245.849231 
L 260.570833 228.480457 
" style="fill:none;opacity:0.023593;stroke:#800000;stroke-linecap:round;stroke-width:16;"/>
   </g>
   <g id="line2d_5">
    <path clip-path="url(#p5ed8145603)" d="M 204.634167 35.510769 
L 204.634167 245.849231 
L 204.634167 140.68 
L 64.7925 35.510769 
L 64.7925 224.186373 
" style="fill:none;opacity:0.987126;stroke:#333333;stroke-linecap:round;stroke-width:16;"/>
   </g>
   <g id="line2d_6">
    <path clip-path="url(#p5ed8145603)" d="M 316.5075 245.849231 
L 316.5075 224.186373 
" style="fill:none;opacity:0.023593;stroke:#800000;stroke-linecap:round;stroke-width:16;"/>
   </g>
   <g id="line2d_7">
    <path clip-path="url(#p5ed8145603)" d="M 204.634167 35.510769 
L 204.634167 245.849231 
L 204.634167 140.68 
L 64.7925 140.68 
L 64.7925 245.849231 
L 64.7925 60.323304 
" style="fill:none;opacity:0.988204;stroke:#333333;stroke-linecap:round;stroke-width:16;"/>
   </g>
   <g id="line2d_8">
    <path clip-path="url(#p5ed8145603)" d="M 512.285833 35.510769 
L 512.285833 60.323304 
" style="fill:none;opacity:0.023593;stroke:#800000;stroke-linecap:round;stroke-width:16;"/>
   </g>
   <g id="PathCollection_1">
    <defs>
     <path d="M 0 9.954988 
C 2.640094 9.954988 5.172412 8.906068 7.03924 7.03924 
C 8.906068 5.172412 9.954988 2.640094 9.954988 0 
C 9.954988 -2.640094 8.906068 -5.172412 7.03924 -7.03924 
C 5.172412 -8.906068 2.640094 -9.954988 0 -9.954988 
C -2.640094 -9.954988 -5.172412 -8.906068 -7.03924 -7.03924 
C -8.906068 -5.172412 -9.954988 -2.640094 -9.954988 0 
C -9.954988 2.640094 -8.906068 5.172412 -7.03924 7.03924 
C -5.172412 8.906068 -2.640094 9.954988 0 9.954988 
z
" id="md63b1b7b58" style="stroke:#800000;"/>
    </defs>
    <g clip-path="url(#p5ed8145603)">
     <use style="fill:#800000;stroke:#800000;" x="79.141863" xlink:href="#md63b1b7b58" y="46.302342"/>
    </g>
   </g>
   <g id="PathCollection_2">
    <defs>
     <path d="M 0 15.075477 
C 3.998063 15.075477 7.832914 13.48703 10.659972 10.659972 
C 13.48703 7.832914 15.075477 3.998063 15.075477 0 
C 15.075477 -3.998063 13.48703 -7.832914 10.659972 -10.659972 
C 7.832914 -13.48703 3.998063 -15.075477 0 -15.075477 
C -3.998063 -15.075477 -7.832914 -13.48703 -10.659972 -10.659972 
C -13.48703 -7.832914 -15.075477 -3.998063 -15.075477 0 
C -15.075477 3.998063 -13.48703 7.832914 -10.659972 10.659972 
C -7.832914 13.48703 -3.998063 15.075477 0 15.075477 
z
" id="ma8c9d78955" style="stroke:#800000;"/>
    </defs>
    <g clip-path="url(#p5ed8145603)">
     <use style="fill:#800000;stroke:#800000;" x="204.634167" xlink:href="#ma8c9d78955" y="228.480457"/>
    </g>
   </g>
   <g id="PathCollection_3">
    <defs>
     <path d="M 0 15.075477 
C 3.998063 15.075477 7.832914 13.48703 10.659972 10.659972 
C 13.48703 7.832914 15.075477 3.998063 15.075477 0 
C 15.075477 -3.998063 13.48703 -7.832914 10.659972 -10.659972 
C 7.832914 -13.48703 3.998063 -15.075477 0 -15.075477 
C -3.998063 -15.075477 -7.832914 -13.48703 -10.659972 -10.659972 
C -13.48703 -7.832914 -15.075477 -3.998063 -15.075477 0 
C -15.075477 3.998063 -13.48703 7.832914 -10.659972 10.659972 
C -7.832914 13.48703 -3.998063 15.075477 0 15.075477 
z
" id="m50d8f0a3ca" style="stroke:#333333;"/>
    </defs>
    <g clip-path="url(#p5ed8145603)">
     <use style="fill:#333333;stroke:#333333;" x="260.570833" xlink:href="#m50d8f0a3ca" y="228.480457"/>
    </g>
   </g>
   <g id="PathCollection_4">
    <defs>
     <path d="M 0 8.674908 
C 2.300613 8.674908 4.507308 7.760865 6.134086 6.134086 
C 7.760865 4.507308 8.674908 2.300613 8.674908 0 
C 8.674908 -2.300613 7.760865 -4.507308 6.134086 -6.134086 
C 4.507308 -7.760865 2.300613 -8.674908 0 -8.674908 
C -2.300613 -8.674908 -4.507308 -7.760865 -6.134086 -6.134086 
C -7.760865 -4.507308 -8.674908 -2.300613 -8.674908 0 
C -8.674908 2.300613 -7.760865 4.507308 -6.134086 6.134086 
C -4.507308 7.760865 -2.300613 8.674908 0 8.674908 
z
" id="mca3c8a574c" style="stroke:#800000;"/>
    </defs>
    <g clip-path="url(#p5ed8145603)">
     <use style="fill:#800000;stroke:#800000;" x="64.7925" xlink:href="#mca3c8a574c" y="224.186373"/>
    </g>
   </g>
   <g id="PathCollection_5">
    <defs>
     <path d="M 0 8.674908 
C 2.300613 8.674908 4.507308 7.760865 6.134086 6.134086 
C 7.760865 4.507308 8.674908 2.300613 8.674908 0 
C 8.674908 -2.300613 7.760865 -4.507308 6.134086 -6.134086 
C 4.507308 -7.760865 2.300613 -8.674908 0 -8.674908 
C -2.300613 -8.674908 -4.507308 -7.760865 -6.134086 -6.134086 
C -7.760865 -4.507308 -8.674908 -2.300613 -8.674908 0 
C -8.674908 2.300613 -7.760865 4.507308 -6.134086 6.134086 
C -4.507308 7.760865 -2.300613 8.674908 0 8.674908 
z
" id="m101d824a67" style="stroke:#333333;"/>
    </defs>
    <g clip-path="url(#p5ed8145603)">
     <use style="fill:#333333;stroke:#333333;" x="316.5075" xlink:href="#m101d824a67" y="224.186373"/>
    </g>
   </g>
   <g id="PathCollection_6">
    <defs>
     <path d="M 0 8.313182 
C 2.204682 8.313182 4.319362 7.437253 5.878307 5.878307 
C 7.437253 4.319362 8.313182 2.204682 8.313182 0 
C 8.313182 -2.204682 7.437253 -4.319362 5.878307 -5.878307 
C 4.319362 -7.437253 2.204682 -8.313182 0 -8.313182 
C -2.204682 -8.313182 -4.319362 -7.437253 -5.878307 -5.878307 
C -7.437253 -4.319362 -8.313182 -2.204682 -8.313182 0 
C -8.313182 2.204682 -7.437253 4.319362 -5.878307 5.878307 
C -4.319362 7.437253 -2.204682 8.313182 0 8.313182 
z
" id="ma1b9a50e58" style="stroke:#800000;"/>
    </defs>
    <g clip-path="url(#p5ed8145603)">
     <use style="fill:#800000;stroke:#800000;" x="64.7925" xlink:href="#ma1b9a50e58" y="60.323304"/>
    </g>
   </g>
   <g id="PathCollection_7">
    <defs>
     <path d="M 0 8.313182 
C 2.204682 8.313182 4.319362 7.437253 5.878307 5.878307 
C 7.437253 4.319362 8.313182 2.204682 8.313182 0 
C 8.313182 -2.204682 7.437253 -4.319362 5.878307 -5.878307 
C 4.319362 -7.437253 2.204682 -8.313182 0 -8.313182 
C -2.204682 -8.313182 -4.319362 -7.437253 -5.878307 -5.878307 
C -7.437253 -4.319362 -8.313182 -2.204682 -8.313182 0 
C -8.313182 2.204682 -7.437253 4.319362 -5.878307 5.878307 
C -4.319362 7.437253 -2.204682 8.313182 0 8.313182 
z
" id="m450de85676" style="stroke:#333333;"/>
    </defs>
    <g clip-path="url(#p5ed8145603)">
     <use style="fill:#333333;stroke:#333333;" x="512.285833" xlink:href="#m450de85676" y="60.323304"/>
    </g>
   </g>
  </g>
 </g>
 <defs>
  <clipPath id="p5ed8145603">
   <rect height="273.44" width="671.24" x="22.84" y="3.96"/>
  </clipPath>
 </defs>
</svg>
