<?xml version="1.0" encoding="utf-8" standalone="no"?>
<!DOCTYPE svg PUBLIC "-//W3C//DTD SVG 1.1//EN"
  "http://www.w3.org/Graphics/SVG/1.1/DTD/svg11.dtd">
<!-- Created with matplotlib (http://matplotlib.org/) -->
<svg height="294pt" version="1.1" viewBox="0 0 702 294" width="702pt" xmlns="http://www.w3.org/2000/svg" xmlns:xlink="http://www.w3.org/1999/xlink">
 <defs>
  <style type="text/css">
*{stroke-linecap:butt;stroke-linejoin:round;}
  </style>
 </defs>
 <g id="figure_1">
  <g id="patch_1">
   <path d="M 0 294.48 
L 702 294.48 
L 702 0 
L 0 0 
z
" style="fill:none;"/>
  </g>
  <g id="axes_1">
   <g id="line2d_1">
    <path clip-path="url(#p44efba16f5)" d="M 64.7925 35.510769 
L 204.634167 140.68 
L 64.7925 245.849231 
L 64.7925 35.510769 
" style="fill:none;stroke:#800000;stroke-linecap:round;stroke-width:16;"/>
   </g>
   <g id="line2d_2">
    <path clip-path="url(#p44efba16f5)" d="M 64.7925 35.510769 
L 64.7925 207.445056 
" style="fill:none;opacity:0.636236;stroke:#333333;stroke-linecap:round;stroke-width:16;"/>
   </g>
   <g id="line2d_3">
    <path clip-path="url(#p44efba16f5)" d="M 204.634167 35.510769 
L 204.634167 35.510769 
" style="fill:none;opacity:0.495;stroke:#333333;stroke-linecap:round;stroke-width:16;"/>
   </g>
   <g id="line2d_4">
    <path clip-path="url(#p44efba16f5)" d="M 260.570833 245.849231 
L 260.570833 35.510769 
" style="fill:none;opacity:0.501831;stroke:#800000;stroke-linecap:round;stroke-width:16;"/>
   </g>
   <g id="line2d_5">
    <path clip-path="url(#p44efba16f5)" d="M 204.634167 35.510769 
L 204.634167 245.849231 
L 204.634167 160.729837 
" style="fill:none;opacity:0.72617;stroke:#333333;stroke-linecap:round;stroke-width:16;"/>
   </g>
   <g id="line2d_6">
    <path clip-path="url(#p44efba16f5)" d="M 316.5075 245.849231 
L 316.5075 35.510769 
L 456.349167 140.68 
L 456.349167 160.729837 
" style="fill:none;opacity:0.501831;stroke:#800000;stroke-linecap:round;stroke-width:16;"/>
   </g>
   <g id="line2d_7">
    <path clip-path="url(#p44efba16f5)" d="M 204.634167 35.510769 
L 204.634167 245.849231 
L 204.634167 140.68 
L 135.993276 140.68 
" style="fill:none;opacity:0.749085;stroke:#333333;stroke-linecap:round;stroke-width:16;"/>
   </g>
   <g id="line2d_8">
    <path clip-path="url(#p44efba16f5)" d="M 512.285833 35.510769 
L 512.285833 245.849231 
L 512.285833 140.68 
L 583.486609 140.68 
" style="fill:none;opacity:0.501831;stroke:#800000;stroke-linecap:round;stroke-width:16;"/>
   </g>
   <g id="PathCollection_1">
    <defs>
     <path d="M 0 24.38634 
C 6.467333 24.38634 12.670652 21.816842 17.243747 17.243747 
C 21.816842 12.670652 24.38634 6.467333 24.38634 0 
C 24.38634 -6.467333 21.816842 -12.670652 17.243747 -17.243747 
C 12.670652 -21.816842 6.467333 -24.38634 0 -24.38634 
C -6.467333 -24.38634 -12.670652 -21.816842 -17.243747 -17.243747 
C -21.816842 -12.670652 -24.38634 -6.467333 -24.38634 0 
C -24.38634 6.467333 -21.816842 12.670652 -17.243747 17.243747 
C -12.670652 21.816842 -6.467333 24.38634 0 24.38634 
z
" id="m6f4dd687b3" style="stroke:#800000;"/>
    </defs>
    <g clip-path="url(#p44efba16f5)">
     <use style="fill:#800000;stroke:#800000;" x="64.7925" xlink:href="#m6f4dd687b3" y="207.445056"/>
    </g>
   </g>
   <g id="PathCollection_2">
    <defs>
     <path d="M 0 27.261425 
C 7.229815 27.261425 14.164488 24.38899 19.276739 19.276739 
C 24.38899 14.164488 27.261425 7.229815 27.261425 0 
C 27.261425 -7.229815 24.38899 -14.164488 19.276739 -19.276739 
C 14.164488 -24.38899 7.229815 -27.261425 0 -27.261425 
C -7.229815 -27.261425 -14.164488 -24.38899 -19.276739 -19.276739 
C -24.38899 -14.164488 -27.261425 -7.229815 -27.261425 0 
C -27.261425 7.229815 -24.38899 14.164488 -19.276739 19.276739 
C -14.164488 24.38899 -7.229815 27.261425 0 27.261425 
z
" id="m84ac83954b" style="stroke:#800000;"/>
    </defs>
    <g clip-path="url(#p44efba16f5)">
     <use style="fill:#800000;stroke:#800000;" x="204.634167" xlink:href="#m84ac83954b" y="160.729837"/>
    </g>
   </g>
   <g id="PathCollection_3">
    <defs>
     <path d="M 0 27.261425 
C 7.229815 27.261425 14.164488 24.38899 19.276739 19.276739 
C 24.38899 14.164488 27.261425 7.229815 27.261425 0 
C 27.261425 -7.229815 24.38899 -14.164488 19.276739 -19.276739 
C 14.164488 -24.38899 7.229815 -27.261425 0 -27.261425 
C -7.229815 -27.261425 -14.164488 -24.38899 -19.276739 -19.276739 
C -24.38899 -14.164488 -27.261425 -7.229815 -27.261425 0 
C -27.261425 7.229815 -24.38899 14.164488 -19.276739 19.276739 
C -14.164488 24.38899 -7.229815 27.261425 0 27.261425 
z
" id="m962aeba2a0" style="stroke:#333333;"/>
    </defs>
    <g clip-path="url(#p44efba16f5)">
     <use style="fill:#333333;stroke:#333333;" x="456.349167" xlink:href="#m962aeba2a0" y="160.729837"/>
    </g>
   </g>
   <g id="PathCollection_4">
    <defs>
     <path d="M 0 27.385944 
C 7.262837 27.385944 14.229185 24.500388 19.364787 19.364787 
C 24.500388 14.229185 27.385944 7.262837 27.385944 0 
C 27.385944 -7.262837 24.500388 -14.229185 19.364787 -19.364787 
C 14.229185 -24.500388 7.262837 -27.385944 0 -27.385944 
C -7.262837 -27.385944 -14.229185 -24.500388 -19.364787 -19.364787 
C -24.500388 -14.229185 -27.385944 -7.262837 -27.385944 0 
C -27.385944 7.262837 -24.500388 14.229185 -19.364787 19.364787 
C -14.229185 24.500388 -7.262837 27.385944 0 27.385944 
z
" id="md090c520e1" style="stroke:#800000;"/>
    </defs>
    <g clip-path="url(#p44efba16f5)">
     <use style="fill:#800000;stroke:#800000;" x="135.993276" xlink:href="#md090c520e1" y="140.68"/>
    </g>
   </g>
   <g id="PathCollection_5">
    <defs>
     <path d="M 0 27.385944 
C 7.262837 27.385944 14.229185 24.500388 19.364787 19.364787 
C 24.500388 14.229185 27.385944 7.262837 27.385944 0 
C 27.385944 -7.262837 24.500388 -14.229185 19.364787 -19.364787 
C 14.229185 -24.500388 7.262837 -27.385944 0 -27.385944 
C -7.262837 -27.385944 -14.229185 -24.500388 -19.364787 -19.364787 
C -24.500388 -14.229185 -27.385944 -7.262837 -27.385944 0 
C -27.385944 7.262837 -24.500388 14.229185 -19.364787 19.364787 
C -14.229185 24.500388 -7.262837 27.385944 0 27.385944 
z
" id="ma8115991ce" style="stroke:#333333;"/>
    </defs>
    <g clip-path="url(#p44efba16f5)">
     <use style="fill:#333333;stroke:#333333;" x="583.486609" xlink:href="#ma8115991ce" y="140.68"/>
    </g>
   </g>
  </g>
 </g>
 <defs>
  <clipPath id="p44efba16f5">
   <rect height="273.44" width="671.24" x="22.84" y="3.96"/>
  </clipPath>
 </defs>
</svg>
