<?xml version="1.0" encoding="utf-8" standalone="no"?>
<!DOCTYPE svg PUBLIC "-//W3C//DTD SVG 1.1//EN"
  "http://www.w3.org/Graphics/SVG/1.1/DTD/svg11.dtd">
<!-- Created with matplotlib (http://matplotlib.org/) -->
<svg height="294pt" version="1.1" viewBox="0 0 702 294" width="702pt" xmlns="http://www.w3.org/2000/svg" xmlns:xlink="http://www.w3.org/1999/xlink">
 <defs>
  <style type="text/css">
*{stroke-linecap:butt;stroke-linejoin:round;}
  </style>
 </defs>
 <g id="figure_1">
  <g id="patch_1">
   <path d="M 0 294.48 
L 702 294.48 
L 702 0 
L 0 0 
z
" style="fill:none;"/>
  </g>
  <g id="axes_1">
   <g id="line2d_1">
    <path clip-path="url(#pc9a743a6f1)" d="M 64.7925 35.510769 
L 204.634167 140.68 
L 64.7925 245.849231 
L 64.7925 35.510769 
" style="fill:none;stroke:#800000;stroke-linecap:round;stroke-width:16;"/>
   </g>
   <g id="line2d_2">
    <path clip-path="url(#pc9a743a6f1)" d="M 64.7925 35.510769 
L 64.7925 245.849231 
L 168.696131 167.707535 
" style="fill:none;opacity:0.790502;stroke:#333333;stroke-linecap:round;stroke-width:16;"/>
   </g>
   <g id="line2d_3">
    <path clip-path="url(#pc9a743a6f1)" d="M 204.634167 35.510769 
L 204.634167 35.510769 
" style="fill:none;opacity:0.495;stroke:#333333;stroke-linecap:round;stroke-width:16;"/>
   </g>
   <g id="line2d_4">
    <path clip-path="url(#pc9a743a6f1)" d="M 260.570833 245.849231 
L 260.570833 35.510769 
" style="fill:none;opacity:0.289014;stroke:#800000;stroke-linecap:round;stroke-width:16;"/>
   </g>
   <g id="line2d_5">
    <path clip-path="url(#pc9a743a6f1)" d="M 204.634167 35.510769 
L 204.634167 245.849231 
L 204.634167 140.68 
L 101.379734 63.02654 
" style="fill:none;opacity:0.842296;stroke:#333333;stroke-linecap:round;stroke-width:16;"/>
   </g>
   <g id="line2d_6">
    <path clip-path="url(#pc9a743a6f1)" d="M 316.5075 245.849231 
L 316.5075 35.510769 
L 353.094734 63.02654 
" style="fill:none;opacity:0.289014;stroke:#800000;stroke-linecap:round;stroke-width:16;"/>
   </g>
   <g id="line2d_7">
    <path clip-path="url(#pc9a743a6f1)" d="M 204.634167 35.510769 
L 204.634167 245.849231 
L 204.634167 140.68 
L 64.7925 140.68 
L 64.7925 199.041687 
" style="fill:none;opacity:0.855493;stroke:#333333;stroke-linecap:round;stroke-width:16;"/>
   </g>
   <g id="line2d_8">
    <path clip-path="url(#pc9a743a6f1)" d="M 512.285833 35.510769 
L 512.285833 245.849231 
L 512.285833 199.041687 
" style="fill:none;opacity:0.289014;stroke:#800000;stroke-linecap:round;stroke-width:16;"/>
   </g>
   <g id="PathCollection_1">
    <defs>
     <path d="M 0 27.024351 
C 7.166942 27.024351 14.041309 24.176895 19.109102 19.109102 
C 24.176895 14.041309 27.024351 7.166942 27.024351 0 
C 27.024351 -7.166942 24.176895 -14.041309 19.109102 -19.109102 
C 14.041309 -24.176895 7.166942 -27.024351 0 -27.024351 
C -7.166942 -27.024351 -14.041309 -24.176895 -19.109102 -19.109102 
C -24.176895 -14.041309 -27.024351 -7.166942 -27.024351 0 
C -27.024351 7.166942 -24.176895 14.041309 -19.109102 19.109102 
C -14.041309 24.176895 -7.166942 27.024351 0 27.024351 
z
" id="m81c4fdcda3" style="stroke:#800000;"/>
    </defs>
    <g clip-path="url(#pc9a743a6f1)">
     <use style="fill:#800000;stroke:#800000;" x="168.696131" xlink:href="#m81c4fdcda3" y="167.707535"/>
    </g>
   </g>
   <g id="PathCollection_2">
    <defs>
     <path d="M 0 25.451478 
C 6.749811 25.451478 13.224076 22.76975 17.996913 17.996913 
C 22.76975 13.224076 25.451478 6.749811 25.451478 0 
C 25.451478 -6.749811 22.76975 -13.224076 17.996913 -17.996913 
C 13.224076 -22.76975 6.749811 -25.451478 0 -25.451478 
C -6.749811 -25.451478 -13.224076 -22.76975 -17.996913 -17.996913 
C -22.76975 -13.224076 -25.451478 -6.749811 -25.451478 0 
C -25.451478 6.749811 -22.76975 13.224076 -17.996913 17.996913 
C -13.224076 22.76975 -6.749811 25.451478 0 25.451478 
z
" id="mde298a2ac3" style="stroke:#800000;"/>
    </defs>
    <g clip-path="url(#pc9a743a6f1)">
     <use style="fill:#800000;stroke:#800000;" x="101.379734" xlink:href="#mde298a2ac3" y="63.02654"/>
    </g>
   </g>
   <g id="PathCollection_3">
    <defs>
     <path d="M 0 25.451478 
C 6.749811 25.451478 13.224076 22.76975 17.996913 17.996913 
C 22.76975 13.224076 25.451478 6.749811 25.451478 0 
C 25.451478 -6.749811 22.76975 -13.224076 17.996913 -17.996913 
C 13.224076 -22.76975 6.749811 -25.451478 0 -25.451478 
C -6.749811 -25.451478 -13.224076 -22.76975 -17.996913 -17.996913 
C -22.76975 -13.224076 -25.451478 -6.749811 -25.451478 0 
C -25.451478 6.749811 -22.76975 13.224076 -17.996913 17.996913 
C -13.224076 22.76975 -6.749811 25.451478 0 25.451478 
z
" id="maf5577e39c" style="stroke:#333333;"/>
    </defs>
    <g clip-path="url(#pc9a743a6f1)">
     <use style="fill:#333333;stroke:#333333;" x="353.094734" xlink:href="#maf5577e39c" y="63.02654"/>
    </g>
   </g>
   <g id="PathCollection_4">
    <defs>
     <path d="M 0 24.8285 
C 6.584595 24.8285 12.900389 22.212413 17.556401 17.556401 
C 22.212413 12.900389 24.8285 6.584595 24.8285 0 
C 24.8285 -6.584595 22.212413 -12.900389 17.556401 -17.556401 
C 12.900389 -22.212413 6.584595 -24.8285 0 -24.8285 
C -6.584595 -24.8285 -12.900389 -22.212413 -17.556401 -17.556401 
C -22.212413 -12.900389 -24.8285 -6.584595 -24.8285 0 
C -24.8285 6.584595 -22.212413 12.900389 -17.556401 17.556401 
C -12.900389 22.212413 -6.584595 24.8285 0 24.8285 
z
" id="m76701f3955" style="stroke:#800000;"/>
    </defs>
    <g clip-path="url(#pc9a743a6f1)">
     <use style="fill:#800000;stroke:#800000;" x="64.7925" xlink:href="#m76701f3955" y="199.041687"/>
    </g>
   </g>
   <g id="PathCollection_5">
    <defs>
     <path d="M 0 24.8285 
C 6.584595 24.8285 12.900389 22.212413 17.556401 17.556401 
C 22.212413 12.900389 24.8285 6.584595 24.8285 0 
C 24.8285 -6.584595 22.212413 -12.900389 17.556401 -17.556401 
C 12.900389 -22.212413 6.584595 -24.8285 0 -24.8285 
C -6.584595 -24.8285 -12.900389 -22.212413 -17.556401 -17.556401 
C -22.212413 -12.900389 -24.8285 -6.584595 -24.8285 0 
C -24.8285 6.584595 -22.212413 12.900389 -17.556401 17.556401 
C -12.900389 22.212413 -6.584595 24.8285 0 24.8285 
z
" id="m336cf187fb" style="stroke:#333333;"/>
    </defs>
    <g clip-path="url(#pc9a743a6f1)">
     <use style="fill:#333333;stroke:#333333;" x="512.285833" xlink:href="#m336cf187fb" y="199.041687"/>
    </g>
   </g>
  </g>
 </g>
 <defs>
  <clipPath id="pc9a743a6f1">
   <rect height="273.44" width="671.24" x="22.84" y="3.96"/>
  </clipPath>
 </defs>
</svg>
