<?xml version="1.0" encoding="utf-8" standalone="no"?>
<!DOCTYPE svg PUBLIC "-//W3C//DTD SVG 1.1//EN"
  "http://www.w3.org/Graphics/SVG/1.1/DTD/svg11.dtd">
<!-- Created with matplotlib (http://matplotlib.org/) -->
<svg height="294pt" version="1.1" viewBox="0 0 702 294" width="702pt" xmlns="http://www.w3.org/2000/svg" xmlns:xlink="http://www.w3.org/1999/xlink">
 <defs>
  <style type="text/css">
*{stroke-linecap:butt;stroke-linejoin:round;}
  </style>
 </defs>
 <g id="figure_1">
  <g id="patch_1">
   <path d="M 0 294.48 
L 702 294.48 
L 702 0 
L 0 0 
z
" style="fill:none;"/>
  </g>
  <g id="axes_1">
   <g id="line2d_1">
    <path clip-path="url(#pbcbdac6b85)" d="M 64.7925 35.510769 
L 204.634167 140.68 
L 64.7925 245.849231 
L 64.7925 35.510769 
" style="fill:none;stroke:#800000;stroke-linecap:round;stroke-width:16;"/>
   </g>
   <g id="line2d_2">
    <path clip-path="url(#pbcbdac6b85)" d="M 64.7925 35.510769 
L 64.7925 245.849231 
L 76.643528 236.936555 
" style="fill:none;opacity:0.680791;stroke:#333333;stroke-linecap:round;stroke-width:16;"/>
   </g>
   <g id="line2d_3">
    <path clip-path="url(#pbcbdac6b85)" d="M 204.634167 35.510769 
L 204.634167 35.510769 
" style="fill:none;opacity:0.495;stroke:#333333;stroke-linecap:round;stroke-width:16;"/>
   </g>
   <g id="line2d_4">
    <path clip-path="url(#pbcbdac6b85)" d="M 260.570833 245.849231 
L 260.570833 35.510769 
" style="fill:none;opacity:0.440365;stroke:#800000;stroke-linecap:round;stroke-width:16;"/>
   </g>
   <g id="line2d_5">
    <path clip-path="url(#pbcbdac6b85)" d="M 204.634167 35.510769 
L 204.634167 245.849231 
L 204.634167 140.68 
L 193.77231 132.511239 
" style="fill:none;opacity:0.759709;stroke:#333333;stroke-linecap:round;stroke-width:16;"/>
   </g>
   <g id="line2d_6">
    <path clip-path="url(#pbcbdac6b85)" d="M 316.5075 245.849231 
L 316.5075 35.510769 
L 445.48731 132.511239 
" style="fill:none;opacity:0.440365;stroke:#800000;stroke-linecap:round;stroke-width:16;"/>
   </g>
   <g id="line2d_7">
    <path clip-path="url(#pbcbdac6b85)" d="M 204.634167 35.510769 
L 204.634167 245.849231 
L 204.634167 140.68 
L 93.016016 140.68 
" style="fill:none;opacity:0.779818;stroke:#333333;stroke-linecap:round;stroke-width:16;"/>
   </g>
   <g id="line2d_8">
    <path clip-path="url(#pbcbdac6b85)" d="M 512.285833 35.510769 
L 512.285833 245.849231 
L 512.285833 140.68 
L 540.50935 140.68 
" style="fill:none;opacity:0.440365;stroke:#800000;stroke-linecap:round;stroke-width:16;"/>
   </g>
   <g id="PathCollection_1">
    <defs>
     <path d="M 0 26.315801 
C 6.979032 26.315801 13.67316 23.543002 18.608081 18.608081 
C 23.543002 13.67316 26.315801 6.979032 26.315801 0 
C 26.315801 -6.979032 23.543002 -13.67316 18.608081 -18.608081 
C 13.67316 -23.543002 6.979032 -26.315801 0 -26.315801 
C -6.979032 -26.315801 -13.67316 -23.543002 -18.608081 -18.608081 
C -23.543002 -13.67316 -26.315801 -6.979032 -26.315801 0 
C -26.315801 6.979032 -23.543002 13.67316 -18.608081 18.608081 
C -13.67316 23.543002 -6.979032 26.315801 0 26.315801 
z
" id="m89c03f7854" style="stroke:#800000;"/>
    </defs>
    <g clip-path="url(#pbcbdac6b85)">
     <use style="fill:#800000;stroke:#800000;" x="76.643528" xlink:href="#m89c03f7854" y="236.936555"/>
    </g>
   </g>
   <g id="PathCollection_2">
    <defs>
     <path d="M 0 27.365467 
C 7.257407 27.365467 14.218546 24.482069 19.350308 19.350308 
C 24.482069 14.218546 27.365467 7.257407 27.365467 0 
C 27.365467 -7.257407 24.482069 -14.218546 19.350308 -19.350308 
C 14.218546 -24.482069 7.257407 -27.365467 0 -27.365467 
C -7.257407 -27.365467 -14.218546 -24.482069 -19.350308 -19.350308 
C -24.482069 -14.218546 -27.365467 -7.257407 -27.365467 0 
C -27.365467 7.257407 -24.482069 14.218546 -19.350308 19.350308 
C -14.218546 24.482069 -7.257407 27.365467 0 27.365467 
z
" id="mceb0c53bc4" style="stroke:#800000;"/>
    </defs>
    <g clip-path="url(#pbcbdac6b85)">
     <use style="fill:#800000;stroke:#800000;" x="193.77231" xlink:href="#mceb0c53bc4" y="132.511239"/>
    </g>
   </g>
   <g id="PathCollection_3">
    <defs>
     <path d="M 0 27.365467 
C 7.257407 27.365467 14.218546 24.482069 19.350308 19.350308 
C 24.482069 14.218546 27.365467 7.257407 27.365467 0 
C 27.365467 -7.257407 24.482069 -14.218546 19.350308 -19.350308 
C 14.218546 -24.482069 7.257407 -27.365467 0 -27.365467 
C -7.257407 -27.365467 -14.218546 -24.482069 -19.350308 -19.350308 
C -24.482069 -14.218546 -27.365467 -7.257407 -27.365467 0 
C -27.365467 7.257407 -24.482069 14.218546 -19.350308 19.350308 
C -14.218546 24.482069 -7.257407 27.365467 0 27.365467 
z
" id="md4f8da6578" style="stroke:#333333;"/>
    </defs>
    <g clip-path="url(#pbcbdac6b85)">
     <use style="fill:#333333;stroke:#333333;" x="445.48731" xlink:href="#md4f8da6578" y="132.511239"/>
    </g>
   </g>
   <g id="PathCollection_4">
    <defs>
     <path d="M 0 27.190642 
C 7.211042 27.190642 14.12771 24.325664 19.226687 19.226687 
C 24.325664 14.12771 27.190642 7.211042 27.190642 0 
C 27.190642 -7.211042 24.325664 -14.12771 19.226687 -19.226687 
C 14.12771 -24.325664 7.211042 -27.190642 0 -27.190642 
C -7.211042 -27.190642 -14.12771 -24.325664 -19.226687 -19.226687 
C -24.325664 -14.12771 -27.190642 -7.211042 -27.190642 0 
C -27.190642 7.211042 -24.325664 14.12771 -19.226687 19.226687 
C -14.12771 24.325664 -7.211042 27.190642 0 27.190642 
z
" id="mb5e9c5576b" style="stroke:#800000;"/>
    </defs>
    <g clip-path="url(#pbcbdac6b85)">
     <use style="fill:#800000;stroke:#800000;" x="93.016016" xlink:href="#mb5e9c5576b" y="140.68"/>
    </g>
   </g>
   <g id="PathCollection_5">
    <defs>
     <path d="M 0 27.190642 
C 7.211042 27.190642 14.12771 24.325664 19.226687 19.226687 
C 24.325664 14.12771 27.190642 7.211042 27.190642 0 
C 27.190642 -7.211042 24.325664 -14.12771 19.226687 -19.226687 
C 14.12771 -24.325664 7.211042 -27.190642 0 -27.190642 
C -7.211042 -27.190642 -14.12771 -24.325664 -19.226687 -19.226687 
C -24.325664 -14.12771 -27.190642 -7.211042 -27.190642 0 
C -27.190642 7.211042 -24.325664 14.12771 -19.226687 19.226687 
C -14.12771 24.325664 -7.211042 27.190642 0 27.190642 
z
" id="m4d0a473dbd" style="stroke:#333333;"/>
    </defs>
    <g clip-path="url(#pbcbdac6b85)">
     <use style="fill:#333333;stroke:#333333;" x="540.50935" xlink:href="#m4d0a473dbd" y="140.68"/>
    </g>
   </g>
  </g>
 </g>
 <defs>
  <clipPath id="pbcbdac6b85">
   <rect height="273.44" width="671.24" x="22.84" y="3.96"/>
  </clipPath>
 </defs>
</svg>
