<?xml version="1.0" encoding="utf-8" standalone="no"?>
<!DOCTYPE svg PUBLIC "-//W3C//DTD SVG 1.1//EN"
  "http://www.w3.org/Graphics/SVG/1.1/DTD/svg11.dtd">
<!-- Created with matplotlib (http://matplotlib.org/) -->
<svg height="294pt" version="1.1" viewBox="0 0 702 294" width="702pt" xmlns="http://www.w3.org/2000/svg" xmlns:xlink="http://www.w3.org/1999/xlink">
 <defs>
  <style type="text/css">
*{stroke-linecap:butt;stroke-linejoin:round;}
  </style>
 </defs>
 <g id="figure_1">
  <g id="patch_1">
   <path d="M 0 294.48 
L 702 294.48 
L 702 0 
L 0 0 
z
" style="fill:none;"/>
  </g>
  <g id="axes_1">
   <g id="line2d_1">
    <path clip-path="url(#pc8bdfe9c22)" d="M 64.7925 35.510769 
L 204.634167 140.68 
L 64.7925 245.849231 
L 64.7925 35.510769 
" style="fill:none;stroke:#800000;stroke-linecap:round;stroke-width:16;"/>
   </g>
   <g id="line2d_2">
    <path clip-path="url(#pc8bdfe9c22)" d="M 64.7925 35.510769 
L 64.7925 245.849231 
L 204.634167 140.68 
L 173.309561 117.122038 
" style="fill:none;opacity:0.870667;stroke:#333333;stroke-linecap:round;stroke-width:16;"/>
   </g>
   <g id="line2d_3">
    <path clip-path="url(#pc8bdfe9c22)" d="M 204.634167 35.510769 
L 204.634167 114.497876 
" style="fill:none;opacity:0.687762;stroke:#333333;stroke-linecap:round;stroke-width:16;"/>
   </g>
   <g id="line2d_4">
    <path clip-path="url(#pc8bdfe9c22)" d="M 260.570833 245.849231 
L 260.570833 114.497876 
" style="fill:none;opacity:0.178422;stroke:#800000;stroke-linecap:round;stroke-width:16;"/>
   </g>
   <g id="line2d_5">
    <path clip-path="url(#pc8bdfe9c22)" d="M 204.634167 35.510769 
L 204.634167 245.849231 
L 204.634167 140.68 
L 64.7925 35.510769 
L 64.7925 82.023872 
" style="fill:none;opacity:0.902642;stroke:#333333;stroke-linecap:round;stroke-width:16;"/>
   </g>
   <g id="line2d_6">
    <path clip-path="url(#pc8bdfe9c22)" d="M 316.5075 245.849231 
L 316.5075 82.023872 
" style="fill:none;opacity:0.178422;stroke:#800000;stroke-linecap:round;stroke-width:16;"/>
   </g>
   <g id="line2d_7">
    <path clip-path="url(#pc8bdfe9c22)" d="M 204.634167 35.510769 
L 204.634167 245.849231 
L 204.634167 140.68 
L 64.7925 140.68 
L 64.7925 245.849231 
L 64.7925 223.155562 
" style="fill:none;opacity:0.910789;stroke:#333333;stroke-linecap:round;stroke-width:16;"/>
   </g>
   <g id="line2d_8">
    <path clip-path="url(#pc8bdfe9c22)" d="M 512.285833 35.510769 
L 512.285833 223.155562 
" style="fill:none;opacity:0.178422;stroke:#800000;stroke-linecap:round;stroke-width:16;"/>
   </g>
   <g id="PathCollection_1">
    <defs>
     <path d="M 0 23.984879 
C 6.360864 23.984879 12.46206 21.457681 16.959871 16.959871 
C 21.457681 12.46206 23.984879 6.360864 23.984879 0 
C 23.984879 -6.360864 21.457681 -12.46206 16.959871 -16.959871 
C 12.46206 -21.457681 6.360864 -23.984879 0 -23.984879 
C -6.360864 -23.984879 -12.46206 -21.457681 -16.959871 -16.959871 
C -21.457681 -12.46206 -23.984879 -6.360864 -23.984879 0 
C -23.984879 6.360864 -21.457681 12.46206 -16.959871 16.959871 
C -12.46206 21.457681 -6.360864 23.984879 0 23.984879 
z
" id="m61791dc4fd" style="stroke:#800000;"/>
    </defs>
    <g clip-path="url(#pc8bdfe9c22)">
     <use style="fill:#800000;stroke:#800000;" x="173.309561" xlink:href="#m61791dc4fd" y="117.122038"/>
    </g>
   </g>
   <g id="PathCollection_2">
    <defs>
     <path d="M 0 26.523896 
C 7.034219 26.523896 13.781282 23.729171 18.755227 18.755227 
C 23.729171 13.781282 26.523896 7.034219 26.523896 0 
C 26.523896 -7.034219 23.729171 -13.781282 18.755227 -18.755227 
C 13.781282 -23.729171 7.034219 -26.523896 0 -26.523896 
C -7.034219 -26.523896 -13.781282 -23.729171 -18.755227 -18.755227 
C -23.729171 -13.781282 -26.523896 -7.034219 -26.523896 0 
C -26.523896 7.034219 -23.729171 13.781282 -18.755227 18.755227 
C -13.781282 23.729171 -7.034219 26.523896 0 26.523896 
z
" id="mfd57824494" style="stroke:#800000;"/>
    </defs>
    <g clip-path="url(#pc8bdfe9c22)">
     <use style="fill:#800000;stroke:#800000;" x="204.634167" xlink:href="#mfd57824494" y="114.497876"/>
    </g>
   </g>
   <g id="PathCollection_3">
    <defs>
     <path d="M 0 26.523896 
C 7.034219 26.523896 13.781282 23.729171 18.755227 18.755227 
C 23.729171 13.781282 26.523896 7.034219 26.523896 0 
C 26.523896 -7.034219 23.729171 -13.781282 18.755227 -18.755227 
C 13.781282 -23.729171 7.034219 -26.523896 0 -26.523896 
C -7.034219 -26.523896 -13.781282 -23.729171 -18.755227 -18.755227 
C -23.729171 -13.781282 -26.523896 -7.034219 -26.523896 0 
C -26.523896 7.034219 -23.729171 13.781282 -18.755227 18.755227 
C -13.781282 23.729171 -7.034219 26.523896 0 26.523896 
z
" id="mb4d01c2fad" style="stroke:#333333;"/>
    </defs>
    <g clip-path="url(#pc8bdfe9c22)">
     <use style="fill:#333333;stroke:#333333;" x="260.570833" xlink:href="#mb4d01c2fad" y="114.497876"/>
    </g>
   </g>
   <g id="PathCollection_4">
    <defs>
     <path d="M 0 21.688838 
C 5.751947 21.688838 11.269084 19.403565 15.336324 15.336324 
C 19.403565 11.269084 21.688838 5.751947 21.688838 0 
C 21.688838 -5.751947 19.403565 -11.269084 15.336324 -15.336324 
C 11.269084 -19.403565 5.751947 -21.688838 0 -21.688838 
C -5.751947 -21.688838 -11.269084 -19.403565 -15.336324 -15.336324 
C -19.403565 -11.269084 -21.688838 -5.751947 -21.688838 0 
C -21.688838 5.751947 -19.403565 11.269084 -15.336324 15.336324 
C -11.269084 19.403565 -5.751947 21.688838 0 21.688838 
z
" id="m7c44fb977c" style="stroke:#800000;"/>
    </defs>
    <g clip-path="url(#pc8bdfe9c22)">
     <use style="fill:#800000;stroke:#800000;" x="64.7925" xlink:href="#m7c44fb977c" y="82.023872"/>
    </g>
   </g>
   <g id="PathCollection_5">
    <defs>
     <path d="M 0 21.688838 
C 5.751947 21.688838 11.269084 19.403565 15.336324 15.336324 
C 19.403565 11.269084 21.688838 5.751947 21.688838 0 
C 21.688838 -5.751947 19.403565 -11.269084 15.336324 -15.336324 
C 11.269084 -19.403565 5.751947 -21.688838 0 -21.688838 
C -5.751947 -21.688838 -11.269084 -19.403565 -15.336324 -15.336324 
C -19.403565 -11.269084 -21.688838 -5.751947 -21.688838 0 
C -21.688838 5.751947 -19.403565 11.269084 -15.336324 15.336324 
C -11.269084 19.403565 -5.751947 21.688838 0 21.688838 
z
" id="mec78ac0a68" style="stroke:#333333;"/>
    </defs>
    <g clip-path="url(#pc8bdfe9c22)">
     <use style="fill:#333333;stroke:#333333;" x="316.5075" xlink:href="#mec78ac0a68" y="82.023872"/>
    </g>
   </g>
   <g id="PathCollection_6">
    <defs>
     <path d="M 0 20.97051 
C 5.561444 20.97051 10.895855 18.760925 14.82839 14.82839 
C 18.760925 10.895855 20.97051 5.561444 20.97051 0 
C 20.97051 -5.561444 18.760925 -10.895855 14.82839 -14.82839 
C 10.895855 -18.760925 5.561444 -20.97051 0 -20.97051 
C -5.561444 -20.97051 -10.895855 -18.760925 -14.82839 -14.82839 
C -18.760925 -10.895855 -20.97051 -5.561444 -20.97051 0 
C -20.97051 5.561444 -18.760925 10.895855 -14.82839 14.82839 
C -10.895855 18.760925 -5.561444 20.97051 0 20.97051 
z
" id="mfb3a93aa32" style="stroke:#800000;"/>
    </defs>
    <g clip-path="url(#pc8bdfe9c22)">
     <use style="fill:#800000;stroke:#800000;" x="64.7925" xlink:href="#mfb3a93aa32" y="223.155562"/>
    </g>
   </g>
   <g id="PathCollection_7">
    <defs>
     <path d="M 0 20.97051 
C 5.561444 20.97051 10.895855 18.760925 14.82839 14.82839 
C 18.760925 10.895855 20.97051 5.561444 20.97051 0 
C 20.97051 -5.561444 18.760925 -10.895855 14.82839 -14.82839 
C 10.895855 -18.760925 5.561444 -20.97051 0 -20.97051 
C -5.561444 -20.97051 -10.895855 -18.760925 -14.82839 -14.82839 
C -18.760925 -10.895855 -20.97051 -5.561444 -20.97051 0 
C -20.97051 5.561444 -18.760925 10.895855 -14.82839 14.82839 
C -10.895855 18.760925 -5.561444 20.97051 0 20.97051 
z
" id="m666280214f" style="stroke:#333333;"/>
    </defs>
    <g clip-path="url(#pc8bdfe9c22)">
     <use style="fill:#333333;stroke:#333333;" x="512.285833" xlink:href="#m666280214f" y="223.155562"/>
    </g>
   </g>
  </g>
 </g>
 <defs>
  <clipPath id="pc8bdfe9c22">
   <rect height="273.44" width="671.24" x="22.84" y="3.96"/>
  </clipPath>
 </defs>
</svg>
