<?xml version="1.0" encoding="utf-8" standalone="no"?>
<!DOCTYPE svg PUBLIC "-//W3C//DTD SVG 1.1//EN"
  "http://www.w3.org/Graphics/SVG/1.1/DTD/svg11.dtd">
<!-- Created with matplotlib (http://matplotlib.org/) -->
<svg height="294pt" version="1.1" viewBox="0 0 702 294" width="702pt" xmlns="http://www.w3.org/2000/svg" xmlns:xlink="http://www.w3.org/1999/xlink">
 <defs>
  <style type="text/css">
*{stroke-linecap:butt;stroke-linejoin:round;}
  </style>
 </defs>
 <g id="figure_1">
  <g id="patch_1">
   <path d="M 0 294.48 
L 702 294.48 
L 702 0 
L 0 0 
z
" style="fill:none;"/>
  </g>
  <g id="axes_1">
   <g id="line2d_1">
    <path clip-path="url(#pb7ea4b315e)" d="M 64.7925 35.510769 
L 204.634167 140.68 
L 64.7925 245.849231 
L 64.7925 35.510769 
" style="fill:none;stroke:#800000;stroke-linecap:round;stroke-width:16;"/>
   </g>
   <g id="line2d_2">
    <path clip-path="url(#pb7ea4b315e)" d="M 64.7925 35.510769 
L 64.7925 245.849231 
L 95.35494 222.864463 
" style="fill:none;opacity:0.703092;stroke:#333333;stroke-linecap:round;stroke-width:16;"/>
   </g>
   <g id="line2d_3">
    <path clip-path="url(#pb7ea4b315e)" d="M 204.634167 35.510769 
L 204.634167 35.510769 
" style="fill:none;opacity:0.495;stroke:#333333;stroke-linecap:round;stroke-width:16;"/>
   </g>
   <g id="line2d_4">
    <path clip-path="url(#pb7ea4b315e)" d="M 260.570833 245.849231 
L 260.570833 35.510769 
" style="fill:none;opacity:0.4096;stroke:#800000;stroke-linecap:round;stroke-width:16;"/>
   </g>
   <g id="line2d_5">
    <path clip-path="url(#pb7ea4b315e)" d="M 204.634167 35.510769 
L 204.634167 245.849231 
L 204.634167 140.68 
L 174.991792 118.387175 
" style="fill:none;opacity:0.776496;stroke:#333333;stroke-linecap:round;stroke-width:16;"/>
   </g>
   <g id="line2d_6">
    <path clip-path="url(#pb7ea4b315e)" d="M 316.5075 245.849231 
L 316.5075 35.510769 
L 426.706792 118.387175 
" style="fill:none;opacity:0.4096;stroke:#800000;stroke-linecap:round;stroke-width:16;"/>
   </g>
   <g id="line2d_7">
    <path clip-path="url(#pb7ea4b315e)" d="M 204.634167 35.510769 
L 204.634167 245.849231 
L 204.634167 140.68 
L 71.5049 140.68 
" style="fill:none;opacity:0.7952;stroke:#333333;stroke-linecap:round;stroke-width:16;"/>
   </g>
   <g id="line2d_8">
    <path clip-path="url(#pb7ea4b315e)" d="M 512.285833 35.510769 
L 512.285833 245.849231 
L 512.285833 140.68 
L 518.998233 140.68 
" style="fill:none;opacity:0.4096;stroke:#800000;stroke-linecap:round;stroke-width:16;"/>
   </g>
   <g id="PathCollection_1">
    <defs>
     <path d="M 0 26.899728 
C 7.133891 26.899728 13.976557 24.065403 19.02098 19.02098 
C 24.065403 13.976557 26.899728 7.133891 26.899728 0 
C 26.899728 -7.133891 24.065403 -13.976557 19.02098 -19.02098 
C 13.976557 -24.065403 7.133891 -26.899728 0 -26.899728 
C -7.133891 -26.899728 -13.976557 -24.065403 -19.02098 -19.02098 
C -24.065403 -13.976557 -26.899728 -7.133891 -26.899728 0 
C -26.899728 7.133891 -24.065403 13.976557 -19.02098 19.02098 
C -13.976557 24.065403 -7.133891 26.899728 0 26.899728 
z
" id="m86061c62f7" style="stroke:#800000;"/>
    </defs>
    <g clip-path="url(#pb7ea4b315e)">
     <use style="fill:#800000;stroke:#800000;" x="95.35494" xlink:href="#m86061c62f7" y="222.864463"/>
    </g>
   </g>
   <g id="PathCollection_2">
    <defs>
     <path d="M 0 27.23188 
C 7.221979 27.23188 14.149137 24.362558 19.255847 19.255847 
C 24.362558 14.149137 27.23188 7.221979 27.23188 0 
C 27.23188 -7.221979 24.362558 -14.149137 19.255847 -19.255847 
C 14.149137 -24.362558 7.221979 -27.23188 0 -27.23188 
C -7.221979 -27.23188 -14.149137 -24.362558 -19.255847 -19.255847 
C -24.362558 -14.149137 -27.23188 -7.221979 -27.23188 0 
C -27.23188 7.221979 -24.362558 14.149137 -19.255847 19.255847 
C -14.149137 24.362558 -7.221979 27.23188 0 27.23188 
z
" id="m115322119e" style="stroke:#800000;"/>
    </defs>
    <g clip-path="url(#pb7ea4b315e)">
     <use style="fill:#800000;stroke:#800000;" x="174.991792" xlink:href="#m115322119e" y="118.387175"/>
    </g>
   </g>
   <g id="PathCollection_3">
    <defs>
     <path d="M 0 27.23188 
C 7.221979 27.23188 14.149137 24.362558 19.255847 19.255847 
C 24.362558 14.149137 27.23188 7.221979 27.23188 0 
C 27.23188 -7.221979 24.362558 -14.149137 19.255847 -19.255847 
C 14.149137 -24.362558 7.221979 -27.23188 0 -27.23188 
C -7.221979 -27.23188 -14.149137 -24.362558 -19.255847 -19.255847 
C -24.362558 -14.149137 -27.23188 -7.221979 -27.23188 0 
C -27.23188 7.221979 -24.362558 14.149137 -19.255847 19.255847 
C -14.149137 24.362558 -7.221979 27.23188 0 27.23188 
z
" id="m981757f5bb" style="stroke:#333333;"/>
    </defs>
    <g clip-path="url(#pb7ea4b315e)">
     <use style="fill:#333333;stroke:#333333;" x="426.706792" xlink:href="#m981757f5bb" y="118.387175"/>
    </g>
   </g>
   <g id="PathCollection_4">
    <defs>
     <path d="M 0 26.934801 
C 7.143193 26.934801 13.994781 24.096781 19.045781 19.045781 
C 24.096781 13.994781 26.934801 7.143193 26.934801 0 
C 26.934801 -7.143193 24.096781 -13.994781 19.045781 -19.045781 
C 13.994781 -24.096781 7.143193 -26.934801 0 -26.934801 
C -7.143193 -26.934801 -13.994781 -24.096781 -19.045781 -19.045781 
C -24.096781 -13.994781 -26.934801 -7.143193 -26.934801 0 
C -26.934801 7.143193 -24.096781 13.994781 -19.045781 19.045781 
C -13.994781 24.096781 -7.143193 26.934801 0 26.934801 
z
" id="m33357e4a06" style="stroke:#800000;"/>
    </defs>
    <g clip-path="url(#pb7ea4b315e)">
     <use style="fill:#800000;stroke:#800000;" x="71.5049" xlink:href="#m33357e4a06" y="140.68"/>
    </g>
   </g>
   <g id="PathCollection_5">
    <defs>
     <path d="M 0 26.934801 
C 7.143193 26.934801 13.994781 24.096781 19.045781 19.045781 
C 24.096781 13.994781 26.934801 7.143193 26.934801 0 
C 26.934801 -7.143193 24.096781 -13.994781 19.045781 -19.045781 
C 13.994781 -24.096781 7.143193 -26.934801 0 -26.934801 
C -7.143193 -26.934801 -13.994781 -24.096781 -19.045781 -19.045781 
C -24.096781 -13.994781 -26.934801 -7.143193 -26.934801 0 
C -26.934801 7.143193 -24.096781 13.994781 -19.045781 19.045781 
C -13.994781 24.096781 -7.143193 26.934801 0 26.934801 
z
" id="m06c1179912" style="stroke:#333333;"/>
    </defs>
    <g clip-path="url(#pb7ea4b315e)">
     <use style="fill:#333333;stroke:#333333;" x="518.998233" xlink:href="#m06c1179912" y="140.68"/>
    </g>
   </g>
  </g>
 </g>
 <defs>
  <clipPath id="pb7ea4b315e">
   <rect height="273.44" width="671.24" x="22.84" y="3.96"/>
  </clipPath>
 </defs>
</svg>
