<?xml version="1.0" encoding="utf-8" standalone="no"?>
<!DOCTYPE svg PUBLIC "-//W3C//DTD SVG 1.1//EN"
  "http://www.w3.org/Graphics/SVG/1.1/DTD/svg11.dtd">
<!-- Created with matplotlib (http://matplotlib.org/) -->
<svg height="294pt" version="1.1" viewBox="0 0 702 294" width="702pt" xmlns="http://www.w3.org/2000/svg" xmlns:xlink="http://www.w3.org/1999/xlink">
 <defs>
  <style type="text/css">
*{stroke-linecap:butt;stroke-linejoin:round;}
  </style>
 </defs>
 <g id="figure_1">
  <g id="patch_1">
   <path d="M 0 294.48 
L 702 294.48 
L 702 0 
L 0 0 
z
" style="fill:none;"/>
  </g>
  <g id="axes_1">
   <g id="line2d_1">
    <path clip-path="url(#p1c8c998f34)" d="M 64.7925 35.510769 
L 204.634167 140.68 
L 64.7925 245.849231 
L 64.7925 35.510769 
" style="fill:none;stroke:#800000;stroke-linecap:round;stroke-width:16;"/>
   </g>
   <g id="line2d_2">
    <path clip-path="url(#p1c8c998f34)" d="M 64.7925 35.510769 
L 64.7925 35.510769 
" style="fill:none;opacity:0.495;stroke:#333333;stroke-linecap:round;stroke-width:16;"/>
   </g>
   <g id="line2d_3">
    <path clip-path="url(#p1c8c998f34)" d="M 204.634167 35.510769 
L 204.634167 35.510769 
" style="fill:none;opacity:0.495;stroke:#333333;stroke-linecap:round;stroke-width:16;"/>
   </g>
   <g id="line2d_4">
    <path clip-path="url(#p1c8c998f34)" d="M 260.570833 245.849231 
L 260.570833 35.510769 
" style="fill:none;opacity:0.8281;stroke:#800000;stroke-linecap:round;stroke-width:16;"/>
   </g>
   <g id="line2d_5">
    <path clip-path="url(#p1c8c998f34)" d="M 204.634167 35.510769 
L 204.634167 116.510163 
" style="fill:none;opacity:0.548136;stroke:#333333;stroke-linecap:round;stroke-width:16;"/>
   </g>
   <g id="line2d_6">
    <path clip-path="url(#p1c8c998f34)" d="M 316.5075 245.849231 
L 316.5075 35.510769 
L 456.349167 140.68 
L 456.349167 245.849231 
L 456.349167 116.510163 
" style="fill:none;opacity:0.8281;stroke:#800000;stroke-linecap:round;stroke-width:16;"/>
   </g>
   <g id="line2d_7">
    <path clip-path="url(#p1c8c998f34)" d="M 204.634167 35.510769 
L 204.634167 216.296677 
" style="fill:none;opacity:0.58595;stroke:#333333;stroke-linecap:round;stroke-width:16;"/>
   </g>
   <g id="line2d_8">
    <path clip-path="url(#p1c8c998f34)" d="M 512.285833 35.510769 
L 512.285833 245.849231 
L 512.285833 140.68 
L 652.1275 140.68 
L 652.1275 245.849231 
L 652.1275 216.296677 
" style="fill:none;opacity:0.8281;stroke:#800000;stroke-linecap:round;stroke-width:16;"/>
   </g>
   <g id="PathCollection_1">
    <defs>
     <path d="M 0 16.15589 
C 4.284592 16.15589 8.394275 14.453603 11.423939 11.423939 
C 14.453603 8.394275 16.15589 4.284592 16.15589 0 
C 16.15589 -4.284592 14.453603 -8.394275 11.423939 -11.423939 
C 8.394275 -14.453603 4.284592 -16.15589 0 -16.15589 
C -4.284592 -16.15589 -8.394275 -14.453603 -11.423939 -11.423939 
C -14.453603 -8.394275 -16.15589 -4.284592 -16.15589 0 
C -16.15589 4.284592 -14.453603 8.394275 -11.423939 11.423939 
C -8.394275 14.453603 -4.284592 16.15589 0 16.15589 
z
" id="mb423f0fc31" style="stroke:#800000;"/>
    </defs>
    <g clip-path="url(#p1c8c998f34)">
     <use style="fill:#800000;stroke:#800000;" x="204.634167" xlink:href="#mb423f0fc31" y="116.510163"/>
    </g>
   </g>
   <g id="PathCollection_2">
    <defs>
     <path d="M 0 16.15589 
C 4.284592 16.15589 8.394275 14.453603 11.423939 11.423939 
C 14.453603 8.394275 16.15589 4.284592 16.15589 0 
C 16.15589 -4.284592 14.453603 -8.394275 11.423939 -11.423939 
C 8.394275 -14.453603 4.284592 -16.15589 0 -16.15589 
C -4.284592 -16.15589 -8.394275 -14.453603 -11.423939 -11.423939 
C -14.453603 -8.394275 -16.15589 -4.284592 -16.15589 0 
C -16.15589 4.284592 -14.453603 8.394275 -11.423939 11.423939 
C -8.394275 14.453603 -4.284592 16.15589 0 16.15589 
z
" id="m681e6977b8" style="stroke:#333333;"/>
    </defs>
    <g clip-path="url(#p1c8c998f34)">
     <use style="fill:#333333;stroke:#333333;" x="456.349167" xlink:href="#m681e6977b8" y="116.510163"/>
    </g>
   </g>
   <g id="PathCollection_3">
    <defs>
     <path d="M 0 20.665216 
C 5.480479 20.665216 10.73723 18.487799 14.612515 14.612515 
C 18.487799 10.73723 20.665216 5.480479 20.665216 0 
C 20.665216 -5.480479 18.487799 -10.73723 14.612515 -14.612515 
C 10.73723 -18.487799 5.480479 -20.665216 0 -20.665216 
C -5.480479 -20.665216 -10.73723 -18.487799 -14.612515 -14.612515 
C -18.487799 -10.73723 -20.665216 -5.480479 -20.665216 0 
C -20.665216 5.480479 -18.487799 10.73723 -14.612515 14.612515 
C -10.73723 18.487799 -5.480479 20.665216 0 20.665216 
z
" id="mb90041143a" style="stroke:#800000;"/>
    </defs>
    <g clip-path="url(#p1c8c998f34)">
     <use style="fill:#800000;stroke:#800000;" x="204.634167" xlink:href="#mb90041143a" y="216.296677"/>
    </g>
   </g>
   <g id="PathCollection_4">
    <defs>
     <path d="M 0 20.665216 
C 5.480479 20.665216 10.73723 18.487799 14.612515 14.612515 
C 18.487799 10.73723 20.665216 5.480479 20.665216 0 
C 20.665216 -5.480479 18.487799 -10.73723 14.612515 -14.612515 
C 10.73723 -18.487799 5.480479 -20.665216 0 -20.665216 
C -5.480479 -20.665216 -10.73723 -18.487799 -14.612515 -14.612515 
C -18.487799 -10.73723 -20.665216 -5.480479 -20.665216 0 
C -20.665216 5.480479 -18.487799 10.73723 -14.612515 14.612515 
C -10.73723 18.487799 -5.480479 20.665216 0 20.665216 
z
" id="mbbd8cd97cb" style="stroke:#333333;"/>
    </defs>
    <g clip-path="url(#p1c8c998f34)">
     <use style="fill:#333333;stroke:#333333;" x="652.1275" xlink:href="#mbbd8cd97cb" y="216.296677"/>
    </g>
   </g>
  </g>
 </g>
 <defs>
  <clipPath id="p1c8c998f34">
   <rect height="273.44" width="671.24" x="22.84" y="3.96"/>
  </clipPath>
 </defs>
</svg>
