<?xml version="1.0" encoding="utf-8" standalone="no"?>
<!DOCTYPE svg PUBLIC "-//W3C//DTD SVG 1.1//EN"
  "http://www.w3.org/Graphics/SVG/1.1/DTD/svg11.dtd">
<!-- Created with matplotlib (http://matplotlib.org/) -->
<svg height="294pt" version="1.1" viewBox="0 0 702 294" width="702pt" xmlns="http://www.w3.org/2000/svg" xmlns:xlink="http://www.w3.org/1999/xlink">
 <defs>
  <style type="text/css">
*{stroke-linecap:butt;stroke-linejoin:round;}
  </style>
 </defs>
 <g id="figure_1">
  <g id="patch_1">
   <path d="M 0 294.48 
L 702 294.48 
L 702 0 
L 0 0 
z
" style="fill:none;"/>
  </g>
  <g id="axes_1">
   <g id="line2d_1">
    <path clip-path="url(#pc70ba0f275)" d="M 64.7925 35.510769 
L 204.634167 140.68 
L 64.7925 245.849231 
L 64.7925 35.510769 
" style="fill:none;stroke:#800000;stroke-linecap:round;stroke-width:16;"/>
   </g>
   <g id="line2d_2">
    <path clip-path="url(#pc70ba0f275)" d="M 64.7925 35.510769 
L 64.7925 35.510769 
" style="fill:none;opacity:0.495;stroke:#333333;stroke-linecap:round;stroke-width:16;"/>
   </g>
   <g id="line2d_3">
    <path clip-path="url(#pc70ba0f275)" d="M 204.634167 35.510769 
L 204.634167 35.510769 
" style="fill:none;opacity:0.495;stroke:#333333;stroke-linecap:round;stroke-width:16;"/>
   </g>
   <g id="line2d_4">
    <path clip-path="url(#pc70ba0f275)" d="M 260.570833 245.849231 
L 260.570833 35.510769 
" style="fill:none;opacity:0.888118;stroke:#800000;stroke-linecap:round;stroke-width:16;"/>
   </g>
   <g id="line2d_5">
    <path clip-path="url(#pc70ba0f275)" d="M 204.634167 35.510769 
L 204.634167 61.402361 
" style="fill:none;opacity:0.515387;stroke:#333333;stroke-linecap:round;stroke-width:16;"/>
   </g>
   <g id="line2d_6">
    <path clip-path="url(#pc70ba0f275)" d="M 316.5075 245.849231 
L 316.5075 35.510769 
L 456.349167 140.68 
L 456.349167 245.849231 
L 456.349167 61.402361 
" style="fill:none;opacity:0.888118;stroke:#800000;stroke-linecap:round;stroke-width:16;"/>
   </g>
   <g id="line2d_7">
    <path clip-path="url(#pc70ba0f275)" d="M 204.634167 35.510769 
L 204.634167 153.17646 
" style="fill:none;opacity:0.555941;stroke:#333333;stroke-linecap:round;stroke-width:16;"/>
   </g>
   <g id="line2d_8">
    <path clip-path="url(#pc70ba0f275)" d="M 512.285833 35.510769 
L 512.285833 245.849231 
L 512.285833 140.68 
L 652.1275 140.68 
L 652.1275 245.849231 
L 652.1275 153.17646 
" style="fill:none;opacity:0.888118;stroke:#800000;stroke-linecap:round;stroke-width:16;"/>
   </g>
   <g id="PathCollection_1">
    <defs>
     <path d="M 0 9.459393 
C 2.50866 9.459393 4.91491 8.462691 6.688801 6.688801 
C 8.462691 4.91491 9.459393 2.50866 9.459393 0 
C 9.459393 -2.50866 8.462691 -4.91491 6.688801 -6.688801 
C 4.91491 -8.462691 2.50866 -9.459393 0 -9.459393 
C -2.50866 -9.459393 -4.91491 -8.462691 -6.688801 -6.688801 
C -8.462691 -4.91491 -9.459393 -2.50866 -9.459393 0 
C -9.459393 2.50866 -8.462691 4.91491 -6.688801 6.688801 
C -4.91491 8.462691 -2.50866 9.459393 0 9.459393 
z
" id="m90677d9bee" style="stroke:#800000;"/>
    </defs>
    <g clip-path="url(#pc70ba0f275)">
     <use style="fill:#800000;stroke:#800000;" x="204.634167" xlink:href="#m90677d9bee" y="61.402361"/>
    </g>
   </g>
   <g id="PathCollection_2">
    <defs>
     <path d="M 0 9.459393 
C 2.50866 9.459393 4.91491 8.462691 6.688801 6.688801 
C 8.462691 4.91491 9.459393 2.50866 9.459393 0 
C 9.459393 -2.50866 8.462691 -4.91491 6.688801 -6.688801 
C 4.91491 -8.462691 2.50866 -9.459393 0 -9.459393 
C -2.50866 -9.459393 -4.91491 -8.462691 -6.688801 -6.688801 
C -8.462691 -4.91491 -9.459393 -2.50866 -9.459393 0 
C -9.459393 2.50866 -8.462691 4.91491 -6.688801 6.688801 
C -4.91491 8.462691 -2.50866 9.459393 0 9.459393 
z
" id="m13dad0c955" style="stroke:#333333;"/>
    </defs>
    <g clip-path="url(#pc70ba0f275)">
     <use style="fill:#333333;stroke:#333333;" x="456.349167" xlink:href="#m13dad0c955" y="61.402361"/>
    </g>
   </g>
   <g id="PathCollection_3">
    <defs>
     <path d="M 0 17.265394 
C 4.578836 17.265394 8.970751 15.446203 12.208477 12.208477 
C 15.446203 8.970751 17.265394 4.578836 17.265394 0 
C 17.265394 -4.578836 15.446203 -8.970751 12.208477 -12.208477 
C 8.970751 -15.446203 4.578836 -17.265394 0 -17.265394 
C -4.578836 -17.265394 -8.970751 -15.446203 -12.208477 -12.208477 
C -15.446203 -8.970751 -17.265394 -4.578836 -17.265394 0 
C -17.265394 4.578836 -15.446203 8.970751 -12.208477 12.208477 
C -8.970751 15.446203 -4.578836 17.265394 0 17.265394 
z
" id="m550bd949db" style="stroke:#800000;"/>
    </defs>
    <g clip-path="url(#pc70ba0f275)">
     <use style="fill:#800000;stroke:#800000;" x="204.634167" xlink:href="#m550bd949db" y="153.17646"/>
    </g>
   </g>
   <g id="PathCollection_4">
    <defs>
     <path d="M 0 17.265394 
C 4.578836 17.265394 8.970751 15.446203 12.208477 12.208477 
C 15.446203 8.970751 17.265394 4.578836 17.265394 0 
C 17.265394 -4.578836 15.446203 -8.970751 12.208477 -12.208477 
C 8.970751 -15.446203 4.578836 -17.265394 0 -17.265394 
C -4.578836 -17.265394 -8.970751 -15.446203 -12.208477 -12.208477 
C -15.446203 -8.970751 -17.265394 -4.578836 -17.265394 0 
C -17.265394 4.578836 -15.446203 8.970751 -12.208477 12.208477 
C -8.970751 15.446203 -4.578836 17.265394 0 17.265394 
z
" id="mf926f19a7d" style="stroke:#333333;"/>
    </defs>
    <g clip-path="url(#pc70ba0f275)">
     <use style="fill:#333333;stroke:#333333;" x="652.1275" xlink:href="#mf926f19a7d" y="153.17646"/>
    </g>
   </g>
  </g>
 </g>
 <defs>
  <clipPath id="pc70ba0f275">
   <rect height="273.44" width="671.24" x="22.84" y="3.96"/>
  </clipPath>
 </defs>
</svg>
