<?xml version="1.0" encoding="utf-8" standalone="no"?>
<!DOCTYPE svg PUBLIC "-//W3C//DTD SVG 1.1//EN"
  "http://www.w3.org/Graphics/SVG/1.1/DTD/svg11.dtd">
<!-- Created with matplotlib (http://matplotlib.org/) -->
<svg height="294pt" version="1.1" viewBox="0 0 702 294" width="702pt" xmlns="http://www.w3.org/2000/svg" xmlns:xlink="http://www.w3.org/1999/xlink">
 <defs>
  <style type="text/css">
*{stroke-linecap:butt;stroke-linejoin:round;}
  </style>
 </defs>
 <g id="figure_1">
  <g id="patch_1">
   <path d="M 0 294.48 
L 702 294.48 
L 702 0 
L 0 0 
z
" style="fill:none;"/>
  </g>
  <g id="axes_1">
   <g id="line2d_1">
    <path clip-path="url(#p83d3543062)" d="M 64.7925 35.510769 
L 204.634167 140.68 
L 64.7925 245.849231 
L 64.7925 35.510769 
" style="fill:none;stroke:#800000;stroke-linecap:round;stroke-width:16;"/>
   </g>
   <g id="line2d_2">
    <path clip-path="url(#p83d3543062)" d="M 64.7925 35.510769 
L 64.7925 71.640706 
" style="fill:none;opacity:0.528628;stroke:#333333;stroke-linecap:round;stroke-width:16;"/>
   </g>
   <g id="line2d_3">
    <path clip-path="url(#p83d3543062)" d="M 204.634167 35.510769 
L 204.634167 35.510769 
" style="fill:none;opacity:0.495;stroke:#333333;stroke-linecap:round;stroke-width:16;"/>
   </g>
   <g id="line2d_4">
    <path clip-path="url(#p83d3543062)" d="M 260.570833 245.849231 
L 260.570833 35.510769 
" style="fill:none;opacity:0.650281;stroke:#800000;stroke-linecap:round;stroke-width:16;"/>
   </g>
   <g id="line2d_5">
    <path clip-path="url(#p83d3543062)" d="M 204.634167 35.510769 
L 204.634167 245.849231 
L 204.634167 228.882791 
" style="fill:none;opacity:0.645166;stroke:#333333;stroke-linecap:round;stroke-width:16;"/>
   </g>
   <g id="line2d_6">
    <path clip-path="url(#p83d3543062)" d="M 316.5075 245.849231 
L 316.5075 35.510769 
L 456.349167 140.68 
L 456.349167 228.882791 
" style="fill:none;opacity:0.650281;stroke:#800000;stroke-linecap:round;stroke-width:16;"/>
   </g>
   <g id="line2d_7">
    <path clip-path="url(#p83d3543062)" d="M 204.634167 35.510769 
L 204.634167 245.849231 
L 204.634167 167.120049 
" style="fill:none;opacity:0.67486;stroke:#333333;stroke-linecap:round;stroke-width:16;"/>
   </g>
   <g id="line2d_8">
    <path clip-path="url(#p83d3543062)" d="M 512.285833 35.510769 
L 512.285833 245.849231 
L 512.285833 140.68 
L 652.1275 140.68 
L 652.1275 167.120049 
" style="fill:none;opacity:0.650281;stroke:#800000;stroke-linecap:round;stroke-width:16;"/>
   </g>
   <g id="PathCollection_1">
    <defs>
     <path d="M 0 12.725386 
C 3.374812 12.725386 6.611854 11.384559 8.998207 8.998207 
C 11.384559 6.611854 12.725386 3.374812 12.725386 0 
C 12.725386 -3.374812 11.384559 -6.611854 8.998207 -8.998207 
C 6.611854 -11.384559 3.374812 -12.725386 0 -12.725386 
C -3.374812 -12.725386 -6.611854 -11.384559 -8.998207 -8.998207 
C -11.384559 -6.611854 -12.725386 -3.374812 -12.725386 0 
C -12.725386 3.374812 -11.384559 6.611854 -8.998207 8.998207 
C -6.611854 11.384559 -3.374812 12.725386 0 12.725386 
z
" id="m4b2a833784" style="stroke:#800000;"/>
    </defs>
    <g clip-path="url(#p83d3543062)">
     <use style="fill:#800000;stroke:#800000;" x="64.7925" xlink:href="#m4b2a833784" y="71.640706"/>
    </g>
   </g>
   <g id="PathCollection_2">
    <defs>
     <path d="M 0 24.861961 
C 6.593469 24.861961 12.917774 22.242348 17.580061 17.580061 
C 22.242348 12.917774 24.861961 6.593469 24.861961 0 
C 24.861961 -6.593469 22.242348 -12.917774 17.580061 -17.580061 
C 12.917774 -22.242348 6.593469 -24.861961 0 -24.861961 
C -6.593469 -24.861961 -12.917774 -22.242348 -17.580061 -17.580061 
C -22.242348 -12.917774 -24.861961 -6.593469 -24.861961 0 
C -24.861961 6.593469 -22.242348 12.917774 -17.580061 17.580061 
C -12.917774 22.242348 -6.593469 24.861961 0 24.861961 
z
" id="m50b94aa008" style="stroke:#800000;"/>
    </defs>
    <g clip-path="url(#p83d3543062)">
     <use style="fill:#800000;stroke:#800000;" x="204.634167" xlink:href="#m50b94aa008" y="228.882791"/>
    </g>
   </g>
   <g id="PathCollection_3">
    <defs>
     <path d="M 0 24.861961 
C 6.593469 24.861961 12.917774 22.242348 17.580061 17.580061 
C 22.242348 12.917774 24.861961 6.593469 24.861961 0 
C 24.861961 -6.593469 22.242348 -12.917774 17.580061 -17.580061 
C 12.917774 -22.242348 6.593469 -24.861961 0 -24.861961 
C -6.593469 -24.861961 -12.917774 -22.242348 -17.580061 -17.580061 
C -22.242348 -12.917774 -24.861961 -6.593469 -24.861961 0 
C -24.861961 6.593469 -22.242348 12.917774 -17.580061 17.580061 
C -12.917774 22.242348 -6.593469 24.861961 0 24.861961 
z
" id="mbed265a37e" style="stroke:#333333;"/>
    </defs>
    <g clip-path="url(#p83d3543062)">
     <use style="fill:#333333;stroke:#333333;" x="456.349167" xlink:href="#mbed265a37e" y="228.882791"/>
    </g>
   </g>
   <g id="PathCollection_4">
    <defs>
     <path d="M 0 26.119856 
C 6.927067 26.119856 13.571352 23.367704 18.469528 18.469528 
C 23.367704 13.571352 26.119856 6.927067 26.119856 0 
C 26.119856 -6.927067 23.367704 -13.571352 18.469528 -18.469528 
C 13.571352 -23.367704 6.927067 -26.119856 0 -26.119856 
C -6.927067 -26.119856 -13.571352 -23.367704 -18.469528 -18.469528 
C -23.367704 -13.571352 -26.119856 -6.927067 -26.119856 0 
C -26.119856 6.927067 -23.367704 13.571352 -18.469528 18.469528 
C -13.571352 23.367704 -6.927067 26.119856 0 26.119856 
z
" id="m333e60780c" style="stroke:#800000;"/>
    </defs>
    <g clip-path="url(#p83d3543062)">
     <use style="fill:#800000;stroke:#800000;" x="204.634167" xlink:href="#m333e60780c" y="167.120049"/>
    </g>
   </g>
   <g id="PathCollection_5">
    <defs>
     <path d="M 0 26.119856 
C 6.927067 26.119856 13.571352 23.367704 18.469528 18.469528 
C 23.367704 13.571352 26.119856 6.927067 26.119856 0 
C 26.119856 -6.927067 23.367704 -13.571352 18.469528 -18.469528 
C 13.571352 -23.367704 6.927067 -26.119856 0 -26.119856 
C -6.927067 -26.119856 -13.571352 -23.367704 -18.469528 -18.469528 
C -23.367704 -13.571352 -26.119856 -6.927067 -26.119856 0 
C -26.119856 6.927067 -23.367704 13.571352 -18.469528 18.469528 
C -13.571352 23.367704 -6.927067 26.119856 0 26.119856 
z
" id="m54ba555e05" style="stroke:#333333;"/>
    </defs>
    <g clip-path="url(#p83d3543062)">
     <use style="fill:#333333;stroke:#333333;" x="652.1275" xlink:href="#m54ba555e05" y="167.120049"/>
    </g>
   </g>
  </g>
 </g>
 <defs>
  <clipPath id="p83d3543062">
   <rect height="273.44" width="671.24" x="22.84" y="3.96"/>
  </clipPath>
 </defs>
</svg>
