<?xml version="1.0" encoding="utf-8" standalone="no"?>
<!DOCTYPE svg PUBLIC "-//W3C//DTD SVG 1.1//EN"
  "http://www.w3.org/Graphics/SVG/1.1/DTD/svg11.dtd">
<!-- Created with matplotlib (http://matplotlib.org/) -->
<svg height="294pt" version="1.1" viewBox="0 0 702 294" width="702pt" xmlns="http://www.w3.org/2000/svg" xmlns:xlink="http://www.w3.org/1999/xlink">
 <defs>
  <style type="text/css">
*{stroke-linecap:butt;stroke-linejoin:round;}
  </style>
 </defs>
 <g id="figure_1">
  <g id="patch_1">
   <path d="M 0 294.48 
L 702 294.48 
L 702 0 
L 0 0 
z
" style="fill:none;"/>
  </g>
  <g id="axes_1">
   <g id="line2d_1">
    <path clip-path="url(#pe59a97f0ee)" d="M 64.7925 35.510769 
L 204.634167 140.68 
L 64.7925 245.849231 
L 64.7925 35.510769 
" style="fill:none;stroke:#800000;stroke-linecap:round;stroke-width:16;"/>
   </g>
   <g id="line2d_2">
    <path clip-path="url(#pe59a97f0ee)" d="M 64.7925 35.510769 
L 64.7925 245.849231 
L 204.634167 140.68 
L 130.066164 84.600438 
" style="fill:none;opacity:0.922205;stroke:#333333;stroke-linecap:round;stroke-width:16;"/>
   </g>
   <g id="line2d_3">
    <path clip-path="url(#pe59a97f0ee)" d="M 204.634167 35.510769 
L 204.634167 166.840602 
" style="fill:none;opacity:0.812187;stroke:#333333;stroke-linecap:round;stroke-width:16;"/>
   </g>
   <g id="line2d_4">
    <path clip-path="url(#pe59a97f0ee)" d="M 260.570833 245.849231 
L 260.570833 166.840602 
" style="fill:none;opacity:0.107322;stroke:#800000;stroke-linecap:round;stroke-width:16;"/>
   </g>
   <g id="line2d_5">
    <path clip-path="url(#pe59a97f0ee)" d="M 204.634167 35.510769 
L 204.634167 245.849231 
L 204.634167 140.68 
L 64.7925 35.510769 
L 64.7925 147.307294 
" style="fill:none;opacity:0.941438;stroke:#333333;stroke-linecap:round;stroke-width:16;"/>
   </g>
   <g id="line2d_6">
    <path clip-path="url(#pe59a97f0ee)" d="M 316.5075 245.849231 
L 316.5075 147.307294 
" style="fill:none;opacity:0.107322;stroke:#800000;stroke-linecap:round;stroke-width:16;"/>
   </g>
   <g id="line2d_7">
    <path clip-path="url(#pe59a97f0ee)" d="M 204.634167 35.510769 
L 204.634167 245.849231 
L 204.634167 140.68 
L 64.7925 140.68 
L 64.7925 245.849231 
L 64.7925 148.380239 
" style="fill:none;opacity:0.946339;stroke:#333333;stroke-linecap:round;stroke-width:16;"/>
   </g>
   <g id="line2d_8">
    <path clip-path="url(#pe59a97f0ee)" d="M 512.285833 35.510769 
L 512.285833 148.380239 
" style="fill:none;opacity:0.107322;stroke:#800000;stroke-linecap:round;stroke-width:16;"/>
   </g>
   <g id="PathCollection_1">
    <defs>
     <path d="M 0 19.853063 
C 5.265094 19.853063 10.315252 17.761219 14.038236 14.038236 
C 17.761219 10.315252 19.853063 5.265094 19.853063 0 
C 19.853063 -5.265094 17.761219 -10.315252 14.038236 -14.038236 
C 10.315252 -17.761219 5.265094 -19.853063 0 -19.853063 
C -5.265094 -19.853063 -10.315252 -17.761219 -14.038236 -14.038236 
C -17.761219 -10.315252 -19.853063 -5.265094 -19.853063 0 
C -19.853063 5.265094 -17.761219 10.315252 -14.038236 14.038236 
C -10.315252 17.761219 -5.265094 19.853063 0 19.853063 
z
" id="m3a35a80ff5" style="stroke:#800000;"/>
    </defs>
    <g clip-path="url(#pe59a97f0ee)">
     <use style="fill:#800000;stroke:#800000;" x="130.066164" xlink:href="#m3a35a80ff5" y="84.600438"/>
    </g>
   </g>
   <g id="PathCollection_2">
    <defs>
     <path d="M 0 26.525336 
C 7.034601 26.525336 13.782031 23.730459 18.756245 18.756245 
C 23.730459 13.782031 26.525336 7.034601 26.525336 0 
C 26.525336 -7.034601 23.730459 -13.782031 18.756245 -18.756245 
C 13.782031 -23.730459 7.034601 -26.525336 0 -26.525336 
C -7.034601 -26.525336 -13.782031 -23.730459 -18.756245 -18.756245 
C -23.730459 -13.782031 -26.525336 -7.034601 -26.525336 0 
C -26.525336 7.034601 -23.730459 13.782031 -18.756245 18.756245 
C -13.782031 23.730459 -7.034601 26.525336 0 26.525336 
z
" id="mfdd0769a4d" style="stroke:#800000;"/>
    </defs>
    <g clip-path="url(#pe59a97f0ee)">
     <use style="fill:#800000;stroke:#800000;" x="204.634167" xlink:href="#mfdd0769a4d" y="166.840602"/>
    </g>
   </g>
   <g id="PathCollection_3">
    <defs>
     <path d="M 0 26.525336 
C 7.034601 26.525336 13.782031 23.730459 18.756245 18.756245 
C 23.730459 13.782031 26.525336 7.034601 26.525336 0 
C 26.525336 -7.034601 23.730459 -13.782031 18.756245 -18.756245 
C 13.782031 -23.730459 7.034601 -26.525336 0 -26.525336 
C -7.034601 -26.525336 -13.782031 -23.730459 -18.756245 -18.756245 
C -23.730459 -13.782031 -26.525336 -7.034601 -26.525336 0 
C -26.525336 7.034601 -23.730459 13.782031 -18.756245 18.756245 
C -13.782031 23.730459 -7.034601 26.525336 0 26.525336 
z
" id="m992d4eca67" style="stroke:#333333;"/>
    </defs>
    <g clip-path="url(#pe59a97f0ee)">
     <use style="fill:#333333;stroke:#333333;" x="260.570833" xlink:href="#m992d4eca67" y="166.840602"/>
    </g>
   </g>
   <g id="PathCollection_4">
    <defs>
     <path d="M 0 17.612943 
C 4.671007 17.612943 9.15133 15.757132 12.454231 12.454231 
C 15.757132 9.15133 17.612943 4.671007 17.612943 0 
C 17.612943 -4.671007 15.757132 -9.15133 12.454231 -12.454231 
C 9.15133 -15.757132 4.671007 -17.612943 0 -17.612943 
C -4.671007 -17.612943 -9.15133 -15.757132 -12.454231 -12.454231 
C -15.757132 -9.15133 -17.612943 -4.671007 -17.612943 0 
C -17.612943 4.671007 -15.757132 9.15133 -12.454231 12.454231 
C -9.15133 15.757132 -4.671007 17.612943 0 17.612943 
z
" id="mebd5bf55c1" style="stroke:#800000;"/>
    </defs>
    <g clip-path="url(#pe59a97f0ee)">
     <use style="fill:#800000;stroke:#800000;" x="64.7925" xlink:href="#mebd5bf55c1" y="147.307294"/>
    </g>
   </g>
   <g id="PathCollection_5">
    <defs>
     <path d="M 0 17.612943 
C 4.671007 17.612943 9.15133 15.757132 12.454231 12.454231 
C 15.757132 9.15133 17.612943 4.671007 17.612943 0 
C 17.612943 -4.671007 15.757132 -9.15133 12.454231 -12.454231 
C 9.15133 -15.757132 4.671007 -17.612943 0 -17.612943 
C -4.671007 -17.612943 -9.15133 -15.757132 -12.454231 -12.454231 
C -15.757132 -9.15133 -17.612943 -4.671007 -17.612943 0 
C -17.612943 4.671007 -15.757132 9.15133 -12.454231 12.454231 
C -9.15133 15.757132 -4.671007 17.612943 0 17.612943 
z
" id="m27f1c1e932" style="stroke:#333333;"/>
    </defs>
    <g clip-path="url(#pe59a97f0ee)">
     <use style="fill:#333333;stroke:#333333;" x="316.5075" xlink:href="#m27f1c1e932" y="147.307294"/>
    </g>
   </g>
   <g id="PathCollection_6">
    <defs>
     <path d="M 0 16.953212 
C 4.496044 16.953212 8.808548 15.166915 11.987731 11.987731 
C 15.166915 8.808548 16.953212 4.496044 16.953212 0 
C 16.953212 -4.496044 15.166915 -8.808548 11.987731 -11.987731 
C 8.808548 -15.166915 4.496044 -16.953212 0 -16.953212 
C -4.496044 -16.953212 -8.808548 -15.166915 -11.987731 -11.987731 
C -15.166915 -8.808548 -16.953212 -4.496044 -16.953212 0 
C -16.953212 4.496044 -15.166915 8.808548 -11.987731 11.987731 
C -8.808548 15.166915 -4.496044 16.953212 0 16.953212 
z
" id="mb66507c3bb" style="stroke:#800000;"/>
    </defs>
    <g clip-path="url(#pe59a97f0ee)">
     <use style="fill:#800000;stroke:#800000;" x="64.7925" xlink:href="#mb66507c3bb" y="148.380239"/>
    </g>
   </g>
   <g id="PathCollection_7">
    <defs>
     <path d="M 0 16.953212 
C 4.496044 16.953212 8.808548 15.166915 11.987731 11.987731 
C 15.166915 8.808548 16.953212 4.496044 16.953212 0 
C 16.953212 -4.496044 15.166915 -8.808548 11.987731 -11.987731 
C 8.808548 -15.166915 4.496044 -16.953212 0 -16.953212 
C -4.496044 -16.953212 -8.808548 -15.166915 -11.987731 -11.987731 
C -15.166915 -8.808548 -16.953212 -4.496044 -16.953212 0 
C -16.953212 4.496044 -15.166915 8.808548 -11.987731 11.987731 
C -8.808548 15.166915 -4.496044 16.953212 0 16.953212 
z
" id="m59df5d0657" style="stroke:#333333;"/>
    </defs>
    <g clip-path="url(#pe59a97f0ee)">
     <use style="fill:#333333;stroke:#333333;" x="512.285833" xlink:href="#m59df5d0657" y="148.380239"/>
    </g>
   </g>
  </g>
 </g>
 <defs>
  <clipPath id="pe59a97f0ee">
   <rect height="273.44" width="671.24" x="22.84" y="3.96"/>
  </clipPath>
 </defs>
</svg>
