<?xml version="1.0" encoding="utf-8" standalone="no"?>
<!DOCTYPE svg PUBLIC "-//W3C//DTD SVG 1.1//EN"
  "http://www.w3.org/Graphics/SVG/1.1/DTD/svg11.dtd">
<!-- Created with matplotlib (http://matplotlib.org/) -->
<svg height="294pt" version="1.1" viewBox="0 0 702 294" width="702pt" xmlns="http://www.w3.org/2000/svg" xmlns:xlink="http://www.w3.org/1999/xlink">
 <defs>
  <style type="text/css">
*{stroke-linecap:butt;stroke-linejoin:round;}
  </style>
 </defs>
 <g id="figure_1">
  <g id="patch_1">
   <path d="M 0 294.48 
L 702 294.48 
L 702 0 
L 0 0 
z
" style="fill:none;"/>
  </g>
  <g id="axes_1">
   <g id="line2d_1">
    <path clip-path="url(#pdab432367b)" d="M 64.7925 35.510769 
L 204.634167 140.68 
L 64.7925 245.849231 
L 64.7925 35.510769 
" style="fill:none;stroke:#800000;stroke-linecap:round;stroke-width:16;"/>
   </g>
   <g id="line2d_2">
    <path clip-path="url(#pdab432367b)" d="M 64.7925 35.510769 
L 64.7925 245.849231 
L 132.472396 194.949933 
" style="fill:none;opacity:0.747329;stroke:#333333;stroke-linecap:round;stroke-width:16;"/>
   </g>
   <g id="line2d_3">
    <path clip-path="url(#pdab432367b)" d="M 204.634167 35.510769 
L 204.634167 35.510769 
" style="fill:none;opacity:0.495;stroke:#333333;stroke-linecap:round;stroke-width:16;"/>
   </g>
   <g id="line2d_4">
    <path clip-path="url(#pdab432367b)" d="M 260.570833 245.849231 
L 260.570833 35.510769 
" style="fill:none;opacity:0.348572;stroke:#800000;stroke-linecap:round;stroke-width:16;"/>
   </g>
   <g id="line2d_5">
    <path clip-path="url(#pdab432367b)" d="M 204.634167 35.510769 
L 204.634167 245.849231 
L 204.634167 140.68 
L 137.737252 90.369551 
" style="fill:none;opacity:0.809797;stroke:#333333;stroke-linecap:round;stroke-width:16;"/>
   </g>
   <g id="line2d_6">
    <path clip-path="url(#pdab432367b)" d="M 316.5075 245.849231 
L 316.5075 35.510769 
L 389.452252 90.369551 
" style="fill:none;opacity:0.348572;stroke:#800000;stroke-linecap:round;stroke-width:16;"/>
   </g>
   <g id="line2d_7">
    <path clip-path="url(#pdab432367b)" d="M 204.634167 35.510769 
L 204.634167 245.849231 
L 204.634167 140.68 
L 64.7925 140.68 
L 64.7925 167.723132 
" style="fill:none;opacity:0.825714;stroke:#333333;stroke-linecap:round;stroke-width:16;"/>
   </g>
   <g id="line2d_8">
    <path clip-path="url(#pdab432367b)" d="M 512.285833 35.510769 
L 512.285833 245.849231 
L 512.285833 167.723132 
" style="fill:none;opacity:0.348572;stroke:#800000;stroke-linecap:round;stroke-width:16;"/>
   </g>
   <g id="PathCollection_1">
    <defs>
     <path d="M 0 27.384565 
C 7.262472 27.384565 14.228469 24.499155 19.363812 19.363812 
C 24.499155 14.228469 27.384565 7.262472 27.384565 0 
C 27.384565 -7.262472 24.499155 -14.228469 19.363812 -19.363812 
C 14.228469 -24.499155 7.262472 -27.384565 0 -27.384565 
C -7.262472 -27.384565 -14.228469 -24.499155 -19.363812 -19.363812 
C -24.499155 -14.228469 -27.384565 -7.262472 -27.384565 0 
C -27.384565 7.262472 -24.499155 14.228469 -19.363812 19.363812 
C -14.228469 24.499155 -7.262472 27.384565 0 27.384565 
z
" id="m7839ac83d8" style="stroke:#800000;"/>
    </defs>
    <g clip-path="url(#pdab432367b)">
     <use style="fill:#800000;stroke:#800000;" x="132.472396" xlink:href="#m7839ac83d8" y="194.949933"/>
    </g>
   </g>
   <g id="PathCollection_2">
    <defs>
     <path d="M 0 26.591198 
C 7.052068 26.591198 13.816251 23.789381 18.802816 18.802816 
C 23.789381 13.816251 26.591198 7.052068 26.591198 0 
C 26.591198 -7.052068 23.789381 -13.816251 18.802816 -18.802816 
C 13.816251 -23.789381 7.052068 -26.591198 0 -26.591198 
C -7.052068 -26.591198 -13.816251 -23.789381 -18.802816 -18.802816 
C -23.789381 -13.816251 -26.591198 -7.052068 -26.591198 0 
C -26.591198 7.052068 -23.789381 13.816251 -18.802816 18.802816 
C -13.816251 23.789381 -7.052068 26.591198 0 26.591198 
z
" id="m80f23f099e" style="stroke:#800000;"/>
    </defs>
    <g clip-path="url(#pdab432367b)">
     <use style="fill:#800000;stroke:#800000;" x="137.737252" xlink:href="#m80f23f099e" y="90.369551"/>
    </g>
   </g>
   <g id="PathCollection_3">
    <defs>
     <path d="M 0 26.591198 
C 7.052068 26.591198 13.816251 23.789381 18.802816 18.802816 
C 23.789381 13.816251 26.591198 7.052068 26.591198 0 
C 26.591198 -7.052068 23.789381 -13.816251 18.802816 -18.802816 
C 13.816251 -23.789381 7.052068 -26.591198 0 -26.591198 
C -7.052068 -26.591198 -13.816251 -23.789381 -18.802816 -18.802816 
C -23.789381 -13.816251 -26.591198 -7.052068 -26.591198 0 
C -26.591198 7.052068 -23.789381 13.816251 -18.802816 18.802816 
C -13.816251 23.789381 -7.052068 26.591198 0 26.591198 
z
" id="m8b4bc12ce7" style="stroke:#333333;"/>
    </defs>
    <g clip-path="url(#pdab432367b)">
     <use style="fill:#333333;stroke:#333333;" x="389.452252" xlink:href="#m8b4bc12ce7" y="90.369551"/>
    </g>
   </g>
   <g id="PathCollection_4">
    <defs>
     <path d="M 0 26.099978 
C 6.921795 26.099978 13.561023 23.349919 18.455471 18.455471 
C 23.349919 13.561023 26.099978 6.921795 26.099978 0 
C 26.099978 -6.921795 23.349919 -13.561023 18.455471 -18.455471 
C 13.561023 -23.349919 6.921795 -26.099978 0 -26.099978 
C -6.921795 -26.099978 -13.561023 -23.349919 -18.455471 -18.455471 
C -23.349919 -13.561023 -26.099978 -6.921795 -26.099978 0 
C -26.099978 6.921795 -23.349919 13.561023 -18.455471 18.455471 
C -13.561023 23.349919 -6.921795 26.099978 0 26.099978 
z
" id="mfb305c209a" style="stroke:#800000;"/>
    </defs>
    <g clip-path="url(#pdab432367b)">
     <use style="fill:#800000;stroke:#800000;" x="64.7925" xlink:href="#mfb305c209a" y="167.723132"/>
    </g>
   </g>
   <g id="PathCollection_5">
    <defs>
     <path d="M 0 26.099978 
C 6.921795 26.099978 13.561023 23.349919 18.455471 18.455471 
C 23.349919 13.561023 26.099978 6.921795 26.099978 0 
C 26.099978 -6.921795 23.349919 -13.561023 18.455471 -18.455471 
C 13.561023 -23.349919 6.921795 -26.099978 0 -26.099978 
C -6.921795 -26.099978 -13.561023 -23.349919 -18.455471 -18.455471 
C -23.349919 -13.561023 -26.099978 -6.921795 -26.099978 0 
C -26.099978 6.921795 -23.349919 13.561023 -18.455471 18.455471 
C -13.561023 23.349919 -6.921795 26.099978 0 26.099978 
z
" id="mfe9ff66afc" style="stroke:#333333;"/>
    </defs>
    <g clip-path="url(#pdab432367b)">
     <use style="fill:#333333;stroke:#333333;" x="512.285833" xlink:href="#mfe9ff66afc" y="167.723132"/>
    </g>
   </g>
  </g>
 </g>
 <defs>
  <clipPath id="pdab432367b">
   <rect height="273.44" width="671.24" x="22.84" y="3.96"/>
  </clipPath>
 </defs>
</svg>
