<?xml version="1.0" encoding="utf-8" standalone="no"?>
<!DOCTYPE svg PUBLIC "-//W3C//DTD SVG 1.1//EN"
  "http://www.w3.org/Graphics/SVG/1.1/DTD/svg11.dtd">
<!-- Created with matplotlib (http://matplotlib.org/) -->
<svg height="294pt" version="1.1" viewBox="0 0 702 294" width="702pt" xmlns="http://www.w3.org/2000/svg" xmlns:xlink="http://www.w3.org/1999/xlink">
 <defs>
  <style type="text/css">
*{stroke-linecap:butt;stroke-linejoin:round;}
  </style>
 </defs>
 <g id="figure_1">
  <g id="patch_1">
   <path d="M 0 294.48 
L 702 294.48 
L 702 0 
L 0 0 
z
" style="fill:none;"/>
  </g>
  <g id="axes_1">
   <g id="line2d_1">
    <path clip-path="url(#p5f30d4215d)" d="M 64.7925 35.510769 
L 204.634167 140.68 
L 64.7925 245.849231 
L 64.7925 35.510769 
" style="fill:none;stroke:#800000;stroke-linecap:round;stroke-width:16;"/>
   </g>
   <g id="line2d_2">
    <path clip-path="url(#p5f30d4215d)" d="M 64.7925 35.510769 
L 64.7925 35.510769 
" style="fill:none;opacity:0.495;stroke:#333333;stroke-linecap:round;stroke-width:16;"/>
   </g>
   <g id="line2d_3">
    <path clip-path="url(#p5f30d4215d)" d="M 204.634167 35.510769 
L 204.634167 35.510769 
" style="fill:none;opacity:0.495;stroke:#333333;stroke-linecap:round;stroke-width:16;"/>
   </g>
   <g id="line2d_4">
    <path clip-path="url(#p5f30d4215d)" d="M 260.570833 245.849231 
L 260.570833 35.510769 
" style="fill:none;opacity:0.905543;stroke:#800000;stroke-linecap:round;stroke-width:16;"/>
   </g>
   <g id="line2d_5">
    <path clip-path="url(#p5f30d4215d)" d="M 204.634167 35.510769 
L 204.634167 45.403056 
" style="fill:none;opacity:0.505879;stroke:#333333;stroke-linecap:round;stroke-width:16;"/>
   </g>
   <g id="line2d_6">
    <path clip-path="url(#p5f30d4215d)" d="M 316.5075 245.849231 
L 316.5075 35.510769 
L 456.349167 140.68 
L 456.349167 245.849231 
L 456.349167 45.403056 
" style="fill:none;opacity:0.905543;stroke:#800000;stroke-linecap:round;stroke-width:16;"/>
   </g>
   <g id="line2d_7">
    <path clip-path="url(#p5f30d4215d)" d="M 204.634167 35.510769 
L 204.634167 134.850932 
" style="fill:none;opacity:0.547229;stroke:#333333;stroke-linecap:round;stroke-width:16;"/>
   </g>
   <g id="line2d_8">
    <path clip-path="url(#p5f30d4215d)" d="M 512.285833 35.510769 
L 512.285833 245.849231 
L 512.285833 140.68 
L 652.1275 140.68 
L 652.1275 245.849231 
L 652.1275 134.850932 
" style="fill:none;opacity:0.905543;stroke:#800000;stroke-linecap:round;stroke-width:16;"/>
   </g>
   <g id="PathCollection_1">
    <defs>
     <path d="M 0 5.904068 
C 1.565777 5.904068 3.067635 5.281979 4.174807 4.174807 
C 5.281979 3.067635 5.904068 1.565777 5.904068 0 
C 5.904068 -1.565777 5.281979 -3.067635 4.174807 -4.174807 
C 3.067635 -5.281979 1.565777 -5.904068 0 -5.904068 
C -1.565777 -5.904068 -3.067635 -5.281979 -4.174807 -4.174807 
C -5.281979 -3.067635 -5.904068 -1.565777 -5.904068 0 
C -5.904068 1.565777 -5.281979 3.067635 -4.174807 4.174807 
C -3.067635 5.281979 -1.565777 5.904068 0 5.904068 
z
" id="m77f4baaf24" style="stroke:#800000;"/>
    </defs>
    <g clip-path="url(#p5f30d4215d)">
     <use style="fill:#800000;stroke:#800000;" x="204.634167" xlink:href="#m77f4baaf24" y="45.403056"/>
    </g>
   </g>
   <g id="PathCollection_2">
    <defs>
     <path d="M 0 5.904068 
C 1.565777 5.904068 3.067635 5.281979 4.174807 4.174807 
C 5.281979 3.067635 5.904068 1.565777 5.904068 0 
C 5.904068 -1.565777 5.281979 -3.067635 4.174807 -4.174807 
C 3.067635 -5.281979 1.565777 -5.904068 0 -5.904068 
C -1.565777 -5.904068 -3.067635 -5.281979 -4.174807 -4.174807 
C -5.281979 -3.067635 -5.904068 -1.565777 -5.904068 0 
C -5.904068 1.565777 -5.281979 3.067635 -4.174807 4.174807 
C -3.067635 5.281979 -1.565777 5.904068 0 5.904068 
z
" id="maf0af6ec05" style="stroke:#333333;"/>
    </defs>
    <g clip-path="url(#p5f30d4215d)">
     <use style="fill:#333333;stroke:#333333;" x="456.349167" xlink:href="#maf0af6ec05" y="45.403056"/>
    </g>
   </g>
   <g id="PathCollection_3">
    <defs>
     <path d="M 0 16.018917 
C 4.248266 16.018917 8.323107 14.331063 11.327085 11.327085 
C 14.331063 8.323107 16.018917 4.248266 16.018917 0 
C 16.018917 -4.248266 14.331063 -8.323107 11.327085 -11.327085 
C 8.323107 -14.331063 4.248266 -16.018917 0 -16.018917 
C -4.248266 -16.018917 -8.323107 -14.331063 -11.327085 -11.327085 
C -14.331063 -8.323107 -16.018917 -4.248266 -16.018917 0 
C -16.018917 4.248266 -14.331063 8.323107 -11.327085 11.327085 
C -8.323107 14.331063 -4.248266 16.018917 0 16.018917 
z
" id="m35ec36c9c1" style="stroke:#800000;"/>
    </defs>
    <g clip-path="url(#p5f30d4215d)">
     <use style="fill:#800000;stroke:#800000;" x="204.634167" xlink:href="#m35ec36c9c1" y="134.850932"/>
    </g>
   </g>
   <g id="PathCollection_4">
    <defs>
     <path d="M 0 16.018917 
C 4.248266 16.018917 8.323107 14.331063 11.327085 11.327085 
C 14.331063 8.323107 16.018917 4.248266 16.018917 0 
C 16.018917 -4.248266 14.331063 -8.323107 11.327085 -11.327085 
C 8.323107 -14.331063 4.248266 -16.018917 0 -16.018917 
C -4.248266 -16.018917 -8.323107 -14.331063 -11.327085 -11.327085 
C -14.331063 -8.323107 -16.018917 -4.248266 -16.018917 0 
C -16.018917 4.248266 -14.331063 8.323107 -11.327085 11.327085 
C -8.323107 14.331063 -4.248266 16.018917 0 16.018917 
z
" id="mfe1ef3706e" style="stroke:#333333;"/>
    </defs>
    <g clip-path="url(#p5f30d4215d)">
     <use style="fill:#333333;stroke:#333333;" x="652.1275" xlink:href="#mfe1ef3706e" y="134.850932"/>
    </g>
   </g>
  </g>
 </g>
 <defs>
  <clipPath id="p5f30d4215d">
   <rect height="273.44" width="671.24" x="22.84" y="3.96"/>
  </clipPath>
 </defs>
</svg>
