<?xml version="1.0" encoding="utf-8" standalone="no"?>
<!DOCTYPE svg PUBLIC "-//W3C//DTD SVG 1.1//EN"
  "http://www.w3.org/Graphics/SVG/1.1/DTD/svg11.dtd">
<!-- Created with matplotlib (http://matplotlib.org/) -->
<svg height="294pt" version="1.1" viewBox="0 0 702 294" width="702pt" xmlns="http://www.w3.org/2000/svg" xmlns:xlink="http://www.w3.org/1999/xlink">
 <defs>
  <style type="text/css">
*{stroke-linecap:butt;stroke-linejoin:round;}
  </style>
 </defs>
 <g id="figure_1">
  <g id="patch_1">
   <path d="M 0 294.48 
L 702 294.48 
L 702 0 
L 0 0 
z
" style="fill:none;"/>
  </g>
  <g id="axes_1">
   <g id="line2d_1">
    <path clip-path="url(#p620de3b8ef)" d="M 64.7925 35.510769 
L 204.634167 140.68 
L 64.7925 245.849231 
L 64.7925 35.510769 
" style="fill:none;stroke:#800000;stroke-linecap:round;stroke-width:16;"/>
   </g>
   <g id="line2d_2">
    <path clip-path="url(#p620de3b8ef)" d="M 64.7925 35.510769 
L 64.7925 45.99301 
" style="fill:none;opacity:0.508306;stroke:#333333;stroke-linecap:round;stroke-width:16;"/>
   </g>
   <g id="line2d_3">
    <path clip-path="url(#p620de3b8ef)" d="M 204.634167 35.510769 
L 204.634167 35.510769 
" style="fill:none;opacity:0.495;stroke:#333333;stroke-linecap:round;stroke-width:16;"/>
   </g>
   <g id="line2d_4">
    <path clip-path="url(#p620de3b8ef)" d="M 260.570833 245.849231 
L 260.570833 35.510769 
" style="fill:none;opacity:0.678317;stroke:#800000;stroke-linecap:round;stroke-width:16;"/>
   </g>
   <g id="line2d_5">
    <path clip-path="url(#p620de3b8ef)" d="M 204.634167 35.510769 
L 204.634167 245.849231 
L 204.634167 241.754001 
" style="fill:none;opacity:0.629867;stroke:#333333;stroke-linecap:round;stroke-width:16;"/>
   </g>
   <g id="line2d_6">
    <path clip-path="url(#p620de3b8ef)" d="M 316.5075 245.849231 
L 316.5075 35.510769 
L 456.349167 140.68 
L 456.349167 241.754001 
" style="fill:none;opacity:0.678317;stroke:#800000;stroke-linecap:round;stroke-width:16;"/>
   </g>
   <g id="line2d_7">
    <path clip-path="url(#p620de3b8ef)" d="M 204.634167 35.510769 
L 204.634167 245.849231 
L 204.634167 181.862672 
" style="fill:none;opacity:0.660842;stroke:#333333;stroke-linecap:round;stroke-width:16;"/>
   </g>
   <g id="line2d_8">
    <path clip-path="url(#p620de3b8ef)" d="M 512.285833 35.510769 
L 512.285833 245.849231 
L 512.285833 140.68 
L 652.1275 140.68 
L 652.1275 181.862672 
" style="fill:none;opacity:0.678317;stroke:#800000;stroke-linecap:round;stroke-width:16;"/>
   </g>
   <g id="PathCollection_1">
    <defs>
     <path d="M 0 7.000519 
C 1.856559 7.000519 3.637329 6.2629 4.950115 4.950115 
C 6.2629 3.637329 7.000519 1.856559 7.000519 0 
C 7.000519 -1.856559 6.2629 -3.637329 4.950115 -4.950115 
C 3.637329 -6.2629 1.856559 -7.000519 0 -7.000519 
C -1.856559 -7.000519 -3.637329 -6.2629 -4.950115 -4.950115 
C -6.2629 -3.637329 -7.000519 -1.856559 -7.000519 0 
C -7.000519 1.856559 -6.2629 3.637329 -4.950115 4.950115 
C -3.637329 6.2629 -1.856559 7.000519 0 7.000519 
z
" id="m6fac3bb230" style="stroke:#800000;"/>
    </defs>
    <g clip-path="url(#p620de3b8ef)">
     <use style="fill:#800000;stroke:#800000;" x="64.7925" xlink:href="#m6fac3bb230" y="45.99301"/>
    </g>
   </g>
   <g id="PathCollection_2">
    <defs>
     <path d="M 0 24.017035 
C 6.369392 24.017035 12.478768 21.486449 16.982609 16.982609 
C 21.486449 12.478768 24.017035 6.369392 24.017035 0 
C 24.017035 -6.369392 21.486449 -12.478768 16.982609 -16.982609 
C 12.478768 -21.486449 6.369392 -24.017035 0 -24.017035 
C -6.369392 -24.017035 -12.478768 -21.486449 -16.982609 -16.982609 
C -21.486449 -12.478768 -24.017035 -6.369392 -24.017035 0 
C -24.017035 6.369392 -21.486449 12.478768 -16.982609 16.982609 
C -12.478768 21.486449 -6.369392 24.017035 0 24.017035 
z
" id="m04ae33eda4" style="stroke:#800000;"/>
    </defs>
    <g clip-path="url(#p620de3b8ef)">
     <use style="fill:#800000;stroke:#800000;" x="204.634167" xlink:href="#m04ae33eda4" y="241.754001"/>
    </g>
   </g>
   <g id="PathCollection_3">
    <defs>
     <path d="M 0 24.017035 
C 6.369392 24.017035 12.478768 21.486449 16.982609 16.982609 
C 21.486449 12.478768 24.017035 6.369392 24.017035 0 
C 24.017035 -6.369392 21.486449 -12.478768 16.982609 -16.982609 
C 12.478768 -21.486449 6.369392 -24.017035 0 -24.017035 
C -6.369392 -24.017035 -12.478768 -21.486449 -16.982609 -16.982609 
C -21.486449 -12.478768 -24.017035 -6.369392 -24.017035 0 
C -24.017035 6.369392 -21.486449 12.478768 -16.982609 16.982609 
C -12.478768 21.486449 -6.369392 24.017035 0 24.017035 
z
" id="m0f7f853610" style="stroke:#333333;"/>
    </defs>
    <g clip-path="url(#p620de3b8ef)">
     <use style="fill:#333333;stroke:#333333;" x="456.349167" xlink:href="#m0f7f853610" y="241.754001"/>
    </g>
   </g>
   <g id="PathCollection_4">
    <defs>
     <path d="M 0 25.585331 
C 6.785309 25.585331 13.293623 22.8895 18.091561 18.091561 
C 22.8895 13.293623 25.585331 6.785309 25.585331 0 
C 25.585331 -6.785309 22.8895 -13.293623 18.091561 -18.091561 
C 13.293623 -22.8895 6.785309 -25.585331 0 -25.585331 
C -6.785309 -25.585331 -13.293623 -22.8895 -18.091561 -18.091561 
C -22.8895 -13.293623 -25.585331 -6.785309 -25.585331 0 
C -25.585331 6.785309 -22.8895 13.293623 -18.091561 18.091561 
C -13.293623 22.8895 -6.785309 25.585331 0 25.585331 
z
" id="m93aa3f9a1c" style="stroke:#800000;"/>
    </defs>
    <g clip-path="url(#p620de3b8ef)">
     <use style="fill:#800000;stroke:#800000;" x="204.634167" xlink:href="#m93aa3f9a1c" y="181.862672"/>
    </g>
   </g>
   <g id="PathCollection_5">
    <defs>
     <path d="M 0 25.585331 
C 6.785309 25.585331 13.293623 22.8895 18.091561 18.091561 
C 22.8895 13.293623 25.585331 6.785309 25.585331 0 
C 25.585331 -6.785309 22.8895 -13.293623 18.091561 -18.091561 
C 13.293623 -22.8895 6.785309 -25.585331 0 -25.585331 
C -6.785309 -25.585331 -13.293623 -22.8895 -18.091561 -18.091561 
C -22.8895 -13.293623 -25.585331 -6.785309 -25.585331 0 
C -25.585331 6.785309 -22.8895 13.293623 -18.091561 18.091561 
C -13.293623 22.8895 -6.785309 25.585331 0 25.585331 
z
" id="mc082afdd82" style="stroke:#333333;"/>
    </defs>
    <g clip-path="url(#p620de3b8ef)">
     <use style="fill:#333333;stroke:#333333;" x="652.1275" xlink:href="#mc082afdd82" y="181.862672"/>
    </g>
   </g>
  </g>
 </g>
 <defs>
  <clipPath id="p620de3b8ef">
   <rect height="273.44" width="671.24" x="22.84" y="3.96"/>
  </clipPath>
 </defs>
</svg>
