<?xml version="1.0" encoding="utf-8" standalone="no"?>
<!DOCTYPE svg PUBLIC "-//W3C//DTD SVG 1.1//EN"
  "http://www.w3.org/Graphics/SVG/1.1/DTD/svg11.dtd">
<!-- Created with matplotlib (http://matplotlib.org/) -->
<svg height="294pt" version="1.1" viewBox="0 0 702 294" width="702pt" xmlns="http://www.w3.org/2000/svg" xmlns:xlink="http://www.w3.org/1999/xlink">
 <defs>
  <style type="text/css">
*{stroke-linecap:butt;stroke-linejoin:round;}
  </style>
 </defs>
 <g id="figure_1">
  <g id="patch_1">
   <path d="M 0 294.48 
L 702 294.48 
L 702 0 
L 0 0 
z
" style="fill:none;"/>
  </g>
  <g id="axes_1">
   <g id="line2d_1">
    <path clip-path="url(#pf4769a60cb)" d="M 64.7925 35.510769 
L 204.634167 140.68 
L 64.7925 245.849231 
L 64.7925 35.510769 
" style="fill:none;stroke:#800000;stroke-linecap:round;stroke-width:16;"/>
   </g>
   <g id="line2d_2">
    <path clip-path="url(#pf4769a60cb)" d="M 64.7925 35.510769 
L 64.7925 245.849231 
L 204.634167 140.68 
L 158.061124 105.654309 
" style="fill:none;opacity:0.88884;stroke:#333333;stroke-linecap:round;stroke-width:16;"/>
   </g>
   <g id="line2d_3">
    <path clip-path="url(#pf4769a60cb)" d="M 204.634167 35.510769 
L 204.634167 132.954908 
" style="fill:none;opacity:0.731637;stroke:#333333;stroke-linecap:round;stroke-width:16;"/>
   </g>
   <g id="line2d_4">
    <path clip-path="url(#pf4769a60cb)" d="M 260.570833 245.849231 
L 260.570833 132.954908 
" style="fill:none;opacity:0.153351;stroke:#800000;stroke-linecap:round;stroke-width:16;"/>
   </g>
   <g id="line2d_5">
    <path clip-path="url(#pf4769a60cb)" d="M 204.634167 35.510769 
L 204.634167 245.849231 
L 204.634167 140.68 
L 64.7925 35.510769 
L 64.7925 105.044037 
" style="fill:none;opacity:0.916322;stroke:#333333;stroke-linecap:round;stroke-width:16;"/>
   </g>
   <g id="line2d_6">
    <path clip-path="url(#pf4769a60cb)" d="M 316.5075 245.849231 
L 316.5075 105.044037 
" style="fill:none;opacity:0.153351;stroke:#800000;stroke-linecap:round;stroke-width:16;"/>
   </g>
   <g id="line2d_7">
    <path clip-path="url(#pf4769a60cb)" d="M 204.634167 35.510769 
L 204.634167 245.849231 
L 204.634167 140.68 
L 64.7925 140.68 
L 64.7925 245.849231 
L 64.7925 196.788374 
" style="fill:none;opacity:0.923325;stroke:#333333;stroke-linecap:round;stroke-width:16;"/>
   </g>
   <g id="line2d_8">
    <path clip-path="url(#pf4769a60cb)" d="M 512.285833 35.510769 
L 512.285833 196.788374 
" style="fill:none;opacity:0.153351;stroke:#800000;stroke-linecap:round;stroke-width:16;"/>
   </g>
   <g id="PathCollection_1">
    <defs>
     <path d="M 0 22.774564 
C 6.039885 22.774564 11.833205 20.374892 16.104049 16.104049 
C 20.374892 11.833205 22.774564 6.039885 22.774564 0 
C 22.774564 -6.039885 20.374892 -11.833205 16.104049 -16.104049 
C 11.833205 -20.374892 6.039885 -22.774564 0 -22.774564 
C -6.039885 -22.774564 -11.833205 -20.374892 -16.104049 -16.104049 
C -20.374892 -11.833205 -22.774564 -6.039885 -22.774564 0 
C -22.774564 6.039885 -20.374892 11.833205 -16.104049 16.104049 
C -11.833205 20.374892 -6.039885 22.774564 0 22.774564 
z
" id="m39eaca0130" style="stroke:#800000;"/>
    </defs>
    <g clip-path="url(#pf4769a60cb)">
     <use style="fill:#800000;stroke:#800000;" x="158.061124" xlink:href="#m39eaca0130" y="105.654309"/>
    </g>
   </g>
   <g id="PathCollection_2">
    <defs>
     <path d="M 0 27.312147 
C 7.243266 27.312147 14.190842 24.434367 19.312605 19.312605 
C 24.434367 14.190842 27.312147 7.243266 27.312147 0 
C 27.312147 -7.243266 24.434367 -14.190842 19.312605 -19.312605 
C 14.190842 -24.434367 7.243266 -27.312147 0 -27.312147 
C -7.243266 -27.312147 -14.190842 -24.434367 -19.312605 -19.312605 
C -24.434367 -14.190842 -27.312147 -7.243266 -27.312147 0 
C -27.312147 7.243266 -24.434367 14.190842 -19.312605 19.312605 
C -14.190842 24.434367 -7.243266 27.312147 0 27.312147 
z
" id="maec6f8aa27" style="stroke:#800000;"/>
    </defs>
    <g clip-path="url(#pf4769a60cb)">
     <use style="fill:#800000;stroke:#800000;" x="204.634167" xlink:href="#maec6f8aa27" y="132.954908"/>
    </g>
   </g>
   <g id="PathCollection_3">
    <defs>
     <path d="M 0 27.312147 
C 7.243266 27.312147 14.190842 24.434367 19.312605 19.312605 
C 24.434367 14.190842 27.312147 7.243266 27.312147 0 
C 27.312147 -7.243266 24.434367 -14.190842 19.312605 -19.312605 
C 14.190842 -24.434367 7.243266 -27.312147 0 -27.312147 
C -7.243266 -27.312147 -14.190842 -24.434367 -19.312605 -19.312605 
C -24.434367 -14.190842 -27.312147 -7.243266 -27.312147 0 
C -27.312147 7.243266 -24.434367 14.190842 -19.312605 19.312605 
C -14.190842 24.434367 -7.243266 27.312147 0 27.312147 
z
" id="mff3b1c8371" style="stroke:#333333;"/>
    </defs>
    <g clip-path="url(#pf4769a60cb)">
     <use style="fill:#333333;stroke:#333333;" x="260.570833" xlink:href="#mff3b1c8371" y="132.954908"/>
    </g>
   </g>
   <g id="PathCollection_4">
    <defs>
     <path d="M 0 20.446098 
C 5.422368 20.446098 10.623381 18.291768 14.457574 14.457574 
C 18.291768 10.623381 20.446098 5.422368 20.446098 0 
C 20.446098 -5.422368 18.291768 -10.623381 14.457574 -14.457574 
C 10.623381 -18.291768 5.422368 -20.446098 0 -20.446098 
C -5.422368 -20.446098 -10.623381 -18.291768 -14.457574 -14.457574 
C -18.291768 -10.623381 -20.446098 -5.422368 -20.446098 0 
C -20.446098 5.422368 -18.291768 10.623381 -14.457574 14.457574 
C -10.623381 18.291768 -5.422368 20.446098 0 20.446098 
z
" id="m5d7152b6b3" style="stroke:#800000;"/>
    </defs>
    <g clip-path="url(#pf4769a60cb)">
     <use style="fill:#800000;stroke:#800000;" x="64.7925" xlink:href="#m5d7152b6b3" y="105.044037"/>
    </g>
   </g>
   <g id="PathCollection_5">
    <defs>
     <path d="M 0 20.446098 
C 5.422368 20.446098 10.623381 18.291768 14.457574 14.457574 
C 18.291768 10.623381 20.446098 5.422368 20.446098 0 
C 20.446098 -5.422368 18.291768 -10.623381 14.457574 -14.457574 
C 10.623381 -18.291768 5.422368 -20.446098 0 -20.446098 
C -5.422368 -20.446098 -10.623381 -18.291768 -14.457574 -14.457574 
C -18.291768 -10.623381 -20.446098 -5.422368 -20.446098 0 
C -20.446098 5.422368 -18.291768 10.623381 -14.457574 14.457574 
C -10.623381 18.291768 -5.422368 20.446098 0 20.446098 
z
" id="m4b8bb84cb0" style="stroke:#333333;"/>
    </defs>
    <g clip-path="url(#pf4769a60cb)">
     <use style="fill:#333333;stroke:#333333;" x="316.5075" xlink:href="#m4b8bb84cb0" y="105.044037"/>
    </g>
   </g>
   <g id="PathCollection_6">
    <defs>
     <path d="M 0 19.735818 
C 5.234 19.735818 10.254334 17.656327 13.95533 13.95533 
C 17.656327 10.254334 19.735818 5.234 19.735818 0 
C 19.735818 -5.234 17.656327 -10.254334 13.95533 -13.95533 
C 10.254334 -17.656327 5.234 -19.735818 0 -19.735818 
C -5.234 -19.735818 -10.254334 -17.656327 -13.95533 -13.95533 
C -17.656327 -10.254334 -19.735818 -5.234 -19.735818 0 
C -19.735818 5.234 -17.656327 10.254334 -13.95533 13.95533 
C -10.254334 17.656327 -5.234 19.735818 0 19.735818 
z
" id="meaf5b23fde" style="stroke:#800000;"/>
    </defs>
    <g clip-path="url(#pf4769a60cb)">
     <use style="fill:#800000;stroke:#800000;" x="64.7925" xlink:href="#meaf5b23fde" y="196.788374"/>
    </g>
   </g>
   <g id="PathCollection_7">
    <defs>
     <path d="M 0 19.735818 
C 5.234 19.735818 10.254334 17.656327 13.95533 13.95533 
C 17.656327 10.254334 19.735818 5.234 19.735818 0 
C 19.735818 -5.234 17.656327 -10.254334 13.95533 -13.95533 
C 10.254334 -17.656327 5.234 -19.735818 0 -19.735818 
C -5.234 -19.735818 -10.254334 -17.656327 -13.95533 -13.95533 
C -17.656327 -10.254334 -19.735818 -5.234 -19.735818 0 
C -19.735818 5.234 -17.656327 10.254334 -13.95533 13.95533 
C -10.254334 17.656327 -5.234 19.735818 0 19.735818 
z
" id="md77206f2bf" style="stroke:#333333;"/>
    </defs>
    <g clip-path="url(#pf4769a60cb)">
     <use style="fill:#333333;stroke:#333333;" x="512.285833" xlink:href="#md77206f2bf" y="196.788374"/>
    </g>
   </g>
  </g>
 </g>
 <defs>
  <clipPath id="pf4769a60cb">
   <rect height="273.44" width="671.24" x="22.84" y="3.96"/>
  </clipPath>
 </defs>
</svg>
