<?xml version="1.0" encoding="utf-8" standalone="no"?>
<!DOCTYPE svg PUBLIC "-//W3C//DTD SVG 1.1//EN"
  "http://www.w3.org/Graphics/SVG/1.1/DTD/svg11.dtd">
<!-- Created with matplotlib (http://matplotlib.org/) -->
<svg height="294pt" version="1.1" viewBox="0 0 702 294" width="702pt" xmlns="http://www.w3.org/2000/svg" xmlns:xlink="http://www.w3.org/1999/xlink">
 <defs>
  <style type="text/css">
*{stroke-linecap:butt;stroke-linejoin:round;}
  </style>
 </defs>
 <g id="figure_1">
  <g id="patch_1">
   <path d="M 0 294.48 
L 702 294.48 
L 702 0 
L 0 0 
z
" style="fill:none;"/>
  </g>
  <g id="axes_1">
   <g id="line2d_1">
    <path clip-path="url(#p39dca91ecb)" d="M 64.7925 35.510769 
L 204.634167 140.68 
L 64.7925 245.849231 
L 64.7925 35.510769 
" style="fill:none;stroke:#800000;stroke-linecap:round;stroke-width:16;"/>
   </g>
   <g id="line2d_2">
    <path clip-path="url(#p39dca91ecb)" d="M 64.7925 35.510769 
L 64.7925 245.849231 
L 113.988307 208.851065 
" style="fill:none;opacity:0.725299;stroke:#333333;stroke-linecap:round;stroke-width:16;"/>
   </g>
   <g id="line2d_3">
    <path clip-path="url(#p39dca91ecb)" d="M 204.634167 35.510769 
L 204.634167 35.510769 
" style="fill:none;opacity:0.495;stroke:#333333;stroke-linecap:round;stroke-width:16;"/>
   </g>
   <g id="line2d_4">
    <path clip-path="url(#p39dca91ecb)" d="M 260.570833 245.849231 
L 260.570833 35.510769 
" style="fill:none;opacity:0.378963;stroke:#800000;stroke-linecap:round;stroke-width:16;"/>
   </g>
   <g id="line2d_5">
    <path clip-path="url(#p39dca91ecb)" d="M 204.634167 35.510769 
L 204.634167 245.849231 
L 204.634167 140.68 
L 156.289607 104.322023 
" style="fill:none;opacity:0.793214;stroke:#333333;stroke-linecap:round;stroke-width:16;"/>
   </g>
   <g id="line2d_6">
    <path clip-path="url(#p39dca91ecb)" d="M 316.5075 245.849231 
L 316.5075 35.510769 
L 408.004607 104.322023 
" style="fill:none;opacity:0.378963;stroke:#800000;stroke-linecap:round;stroke-width:16;"/>
   </g>
   <g id="line2d_7">
    <path clip-path="url(#p39dca91ecb)" d="M 204.634167 35.510769 
L 204.634167 245.849231 
L 204.634167 140.68 
L 64.7925 140.68 
L 64.7925 151.742036 
" style="fill:none;opacity:0.810518;stroke:#333333;stroke-linecap:round;stroke-width:16;"/>
   </g>
   <g id="line2d_8">
    <path clip-path="url(#p39dca91ecb)" d="M 512.285833 35.510769 
L 512.285833 245.849231 
L 512.285833 151.742036 
" style="fill:none;opacity:0.378963;stroke:#800000;stroke-linecap:round;stroke-width:16;"/>
   </g>
   <g id="PathCollection_1">
    <defs>
     <path d="M 0 27.25213 
C 7.227349 27.25213 14.159658 24.380673 19.270166 19.270166 
C 24.380673 14.159658 27.25213 7.227349 27.25213 0 
C 27.25213 -7.227349 24.380673 -14.159658 19.270166 -19.270166 
C 14.159658 -24.380673 7.227349 -27.25213 0 -27.25213 
C -7.227349 -27.25213 -14.159658 -24.380673 -19.270166 -19.270166 
C -24.380673 -14.159658 -27.25213 -7.227349 -27.25213 0 
C -27.25213 7.227349 -24.380673 14.159658 -19.270166 19.270166 
C -14.159658 24.380673 -7.227349 27.25213 0 27.25213 
z
" id="m36071cf8c7" style="stroke:#800000;"/>
    </defs>
    <g clip-path="url(#p39dca91ecb)">
     <use style="fill:#800000;stroke:#800000;" x="113.988307" xlink:href="#m36071cf8c7" y="208.851065"/>
    </g>
   </g>
   <g id="PathCollection_2">
    <defs>
     <path d="M 0 26.973894 
C 7.15356 26.973894 14.015092 24.131754 19.073423 19.073423 
C 24.131754 14.015092 26.973894 7.15356 26.973894 0 
C 26.973894 -7.15356 24.131754 -14.015092 19.073423 -19.073423 
C 14.015092 -24.131754 7.15356 -26.973894 0 -26.973894 
C -7.15356 -26.973894 -14.015092 -24.131754 -19.073423 -19.073423 
C -24.131754 -14.015092 -26.973894 -7.15356 -26.973894 0 
C -26.973894 7.15356 -24.131754 14.015092 -19.073423 19.073423 
C -14.015092 24.131754 -7.15356 26.973894 0 26.973894 
z
" id="mccb8221350" style="stroke:#800000;"/>
    </defs>
    <g clip-path="url(#p39dca91ecb)">
     <use style="fill:#800000;stroke:#800000;" x="156.289607" xlink:href="#mccb8221350" y="104.322023"/>
    </g>
   </g>
   <g id="PathCollection_3">
    <defs>
     <path d="M 0 26.973894 
C 7.15356 26.973894 14.015092 24.131754 19.073423 19.073423 
C 24.131754 14.015092 26.973894 7.15356 26.973894 0 
C 26.973894 -7.15356 24.131754 -14.015092 19.073423 -19.073423 
C 14.015092 -24.131754 7.15356 -26.973894 0 -26.973894 
C -7.15356 -26.973894 -14.015092 -24.131754 -19.073423 -19.073423 
C -24.131754 -14.015092 -26.973894 -7.15356 -26.973894 0 
C -26.973894 7.15356 -24.131754 14.015092 -19.073423 19.073423 
C -14.015092 24.131754 -7.15356 26.973894 0 26.973894 
z
" id="m3de1882c98" style="stroke:#333333;"/>
    </defs>
    <g clip-path="url(#p39dca91ecb)">
     <use style="fill:#333333;stroke:#333333;" x="408.004607" xlink:href="#m3de1882c98" y="104.322023"/>
    </g>
   </g>
   <g id="PathCollection_4">
    <defs>
     <path d="M 0 26.571609 
C 7.046873 26.571609 13.806073 23.771856 18.788965 18.788965 
C 23.771856 13.806073 26.571609 7.046873 26.571609 0 
C 26.571609 -7.046873 23.771856 -13.806073 18.788965 -18.788965 
C 13.806073 -23.771856 7.046873 -26.571609 0 -26.571609 
C -7.046873 -26.571609 -13.806073 -23.771856 -18.788965 -18.788965 
C -23.771856 -13.806073 -26.571609 -7.046873 -26.571609 0 
C -26.571609 7.046873 -23.771856 13.806073 -18.788965 18.788965 
C -13.806073 23.771856 -7.046873 26.571609 0 26.571609 
z
" id="m32202ed742" style="stroke:#800000;"/>
    </defs>
    <g clip-path="url(#p39dca91ecb)">
     <use style="fill:#800000;stroke:#800000;" x="64.7925" xlink:href="#m32202ed742" y="151.742036"/>
    </g>
   </g>
   <g id="PathCollection_5">
    <defs>
     <path d="M 0 26.571609 
C 7.046873 26.571609 13.806073 23.771856 18.788965 18.788965 
C 23.771856 13.806073 26.571609 7.046873 26.571609 0 
C 26.571609 -7.046873 23.771856 -13.806073 18.788965 -18.788965 
C 13.806073 -23.771856 7.046873 -26.571609 0 -26.571609 
C -7.046873 -26.571609 -13.806073 -23.771856 -18.788965 -18.788965 
C -23.771856 -13.806073 -26.571609 -7.046873 -26.571609 0 
C -26.571609 7.046873 -23.771856 13.806073 -18.788965 18.788965 
C -13.806073 23.771856 -7.046873 26.571609 0 26.571609 
z
" id="m49145b2aa8" style="stroke:#333333;"/>
    </defs>
    <g clip-path="url(#p39dca91ecb)">
     <use style="fill:#333333;stroke:#333333;" x="512.285833" xlink:href="#m49145b2aa8" y="151.742036"/>
    </g>
   </g>
  </g>
 </g>
 <defs>
  <clipPath id="p39dca91ecb">
   <rect height="273.44" width="671.24" x="22.84" y="3.96"/>
  </clipPath>
 </defs>
</svg>
