<?xml version="1.0" encoding="utf-8" standalone="no"?>
<!DOCTYPE svg PUBLIC "-//W3C//DTD SVG 1.1//EN"
  "http://www.w3.org/Graphics/SVG/1.1/DTD/svg11.dtd">
<!-- Created with matplotlib (http://matplotlib.org/) -->
<svg height="294pt" version="1.1" viewBox="0 0 702 294" width="702pt" xmlns="http://www.w3.org/2000/svg" xmlns:xlink="http://www.w3.org/1999/xlink">
 <defs>
  <style type="text/css">
*{stroke-linecap:butt;stroke-linejoin:round;}
  </style>
 </defs>
 <g id="figure_1">
  <g id="patch_1">
   <path d="M 0 294.48 
L 702 294.48 
L 702 0 
L 0 0 
z
" style="fill:none;"/>
  </g>
  <g id="axes_1">
   <g id="line2d_1">
    <path clip-path="url(#pee013f7012)" d="M 64.7925 35.510769 
L 204.634167 140.68 
L 64.7925 245.849231 
L 64.7925 35.510769 
" style="fill:none;stroke:#800000;stroke-linecap:round;stroke-width:16;"/>
   </g>
   <g id="line2d_2">
    <path clip-path="url(#pee013f7012)" d="M 64.7925 35.510769 
L 64.7925 35.510769 
" style="fill:none;opacity:0.495;stroke:#333333;stroke-linecap:round;stroke-width:16;"/>
   </g>
   <g id="line2d_3">
    <path clip-path="url(#pee013f7012)" d="M 204.634167 35.510769 
L 204.634167 35.510769 
" style="fill:none;opacity:0.495;stroke:#333333;stroke-linecap:round;stroke-width:16;"/>
   </g>
   <g id="line2d_4">
    <path clip-path="url(#pee013f7012)" d="M 260.570833 245.849231 
L 260.570833 35.510769 
" style="fill:none;opacity:0.7056;stroke:#800000;stroke-linecap:round;stroke-width:16;"/>
   </g>
   <g id="line2d_5">
    <path clip-path="url(#pee013f7012)" d="M 204.634167 35.510769 
L 204.634167 228.988632 
" style="fill:none;opacity:0.61498;stroke:#333333;stroke-linecap:round;stroke-width:16;"/>
   </g>
   <g id="line2d_6">
    <path clip-path="url(#pee013f7012)" d="M 316.5075 245.849231 
L 316.5075 35.510769 
L 456.349167 140.68 
L 456.349167 245.849231 
L 456.349167 228.988632 
" style="fill:none;opacity:0.7056;stroke:#800000;stroke-linecap:round;stroke-width:16;"/>
   </g>
   <g id="line2d_7">
    <path clip-path="url(#pee013f7012)" d="M 204.634167 35.510769 
L 204.634167 245.849231 
L 204.634167 196.209354 
" style="fill:none;opacity:0.6472;stroke:#333333;stroke-linecap:round;stroke-width:16;"/>
   </g>
   <g id="line2d_8">
    <path clip-path="url(#pee013f7012)" d="M 512.285833 35.510769 
L 512.285833 245.849231 
L 512.285833 140.68 
L 652.1275 140.68 
L 652.1275 196.209354 
" style="fill:none;opacity:0.7056;stroke:#800000;stroke-linecap:round;stroke-width:16;"/>
   </g>
   <g id="PathCollection_1">
    <defs>
     <path d="M 0 23.048546 
C 6.112546 23.048546 11.97556 20.620005 16.297783 16.297783 
C 20.620005 11.97556 23.048546 6.112546 23.048546 0 
C 23.048546 -6.112546 20.620005 -11.97556 16.297783 -16.297783 
C 11.97556 -20.620005 6.112546 -23.048546 0 -23.048546 
C -6.112546 -23.048546 -11.97556 -20.620005 -16.297783 -16.297783 
C -20.620005 -11.97556 -23.048546 -6.112546 -23.048546 0 
C -23.048546 6.112546 -20.620005 11.97556 -16.297783 16.297783 
C -11.97556 20.620005 -6.112546 23.048546 0 23.048546 
z
" id="maa4bf73fd8" style="stroke:#800000;"/>
    </defs>
    <g clip-path="url(#pee013f7012)">
     <use style="fill:#800000;stroke:#800000;" x="204.634167" xlink:href="#maa4bf73fd8" y="228.988632"/>
    </g>
   </g>
   <g id="PathCollection_2">
    <defs>
     <path d="M 0 23.048546 
C 6.112546 23.048546 11.97556 20.620005 16.297783 16.297783 
C 20.620005 11.97556 23.048546 6.112546 23.048546 0 
C 23.048546 -6.112546 20.620005 -11.97556 16.297783 -16.297783 
C 11.97556 -20.620005 6.112546 -23.048546 0 -23.048546 
C -6.112546 -23.048546 -11.97556 -20.620005 -16.297783 -16.297783 
C -20.620005 -11.97556 -23.048546 -6.112546 -23.048546 0 
C -23.048546 6.112546 -20.620005 11.97556 -16.297783 16.297783 
C -11.97556 20.620005 -6.112546 23.048546 0 23.048546 
z
" id="mcc9342fd6c" style="stroke:#333333;"/>
    </defs>
    <g clip-path="url(#pee013f7012)">
     <use style="fill:#333333;stroke:#333333;" x="456.349167" xlink:href="#mcc9342fd6c" y="228.988632"/>
    </g>
   </g>
   <g id="PathCollection_3">
    <defs>
     <path d="M 0 24.963692 
C 6.620449 24.963692 12.970632 22.33336 17.651996 17.651996 
C 22.33336 12.970632 24.963692 6.620449 24.963692 0 
C 24.963692 -6.620449 22.33336 -12.970632 17.651996 -17.651996 
C 12.970632 -22.33336 6.620449 -24.963692 0 -24.963692 
C -6.620449 -24.963692 -12.970632 -22.33336 -17.651996 -17.651996 
C -22.33336 -12.970632 -24.963692 -6.620449 -24.963692 0 
C -24.963692 6.620449 -22.33336 12.970632 -17.651996 17.651996 
C -12.970632 22.33336 -6.620449 24.963692 0 24.963692 
z
" id="m78635859d1" style="stroke:#800000;"/>
    </defs>
    <g clip-path="url(#pee013f7012)">
     <use style="fill:#800000;stroke:#800000;" x="204.634167" xlink:href="#m78635859d1" y="196.209354"/>
    </g>
   </g>
   <g id="PathCollection_4">
    <defs>
     <path d="M 0 24.963692 
C 6.620449 24.963692 12.970632 22.33336 17.651996 17.651996 
C 22.33336 12.970632 24.963692 6.620449 24.963692 0 
C 24.963692 -6.620449 22.33336 -12.970632 17.651996 -17.651996 
C 12.970632 -22.33336 6.620449 -24.963692 0 -24.963692 
C -6.620449 -24.963692 -12.970632 -22.33336 -17.651996 -17.651996 
C -22.33336 -12.970632 -24.963692 -6.620449 -24.963692 0 
C -24.963692 6.620449 -22.33336 12.970632 -17.651996 17.651996 
C -12.970632 22.33336 -6.620449 24.963692 0 24.963692 
z
" id="m2fece032cf" style="stroke:#333333;"/>
    </defs>
    <g clip-path="url(#pee013f7012)">
     <use style="fill:#333333;stroke:#333333;" x="652.1275" xlink:href="#m2fece032cf" y="196.209354"/>
    </g>
   </g>
  </g>
 </g>
 <defs>
  <clipPath id="pee013f7012">
   <rect height="273.44" width="671.24" x="22.84" y="3.96"/>
  </clipPath>
 </defs>
</svg>
