<?xml version="1.0" encoding="utf-8" standalone="no"?>
<!DOCTYPE svg PUBLIC "-//W3C//DTD SVG 1.1//EN"
  "http://www.w3.org/Graphics/SVG/1.1/DTD/svg11.dtd">
<!-- Created with matplotlib (http://matplotlib.org/) -->
<svg height="294pt" version="1.1" viewBox="0 0 702 294" width="702pt" xmlns="http://www.w3.org/2000/svg" xmlns:xlink="http://www.w3.org/1999/xlink">
 <defs>
  <style type="text/css">
*{stroke-linecap:butt;stroke-linejoin:round;}
  </style>
 </defs>
 <g id="figure_1">
  <g id="patch_1">
   <path d="M 0 294.48 
L 702 294.48 
L 702 0 
L 0 0 
z
" style="fill:none;"/>
  </g>
  <g id="axes_1">
   <g id="line2d_1">
    <path clip-path="url(#p0345bf070f)" d="M 64.7925 35.510769 
L 204.634167 140.68 
L 64.7925 245.849231 
L 64.7925 35.510769 
" style="fill:none;stroke:#800000;stroke-linecap:round;stroke-width:16;"/>
   </g>
   <g id="line2d_2">
    <path clip-path="url(#p0345bf070f)" d="M 64.7925 35.510769 
L 64.7925 245.849231 
L 204.634167 140.68 
L 65.746263 36.228056 
" style="fill:none;opacity:0.998863;stroke:#333333;stroke-linecap:round;stroke-width:16;"/>
   </g>
   <g id="line2d_3">
    <path clip-path="url(#p0345bf070f)" d="M 204.634167 35.510769 
L 204.634167 244.694776 
" style="fill:none;opacity:0.997256;stroke:#333333;stroke-linecap:round;stroke-width:16;"/>
   </g>
   <g id="line2d_4">
    <path clip-path="url(#p0345bf070f)" d="M 260.570833 245.849231 
L 260.570833 244.694776 
" style="fill:none;opacity:0.001568;stroke:#800000;stroke-linecap:round;stroke-width:16;"/>
   </g>
   <g id="line2d_5">
    <path clip-path="url(#p0345bf070f)" d="M 204.634167 35.510769 
L 204.634167 245.849231 
L 204.634167 140.68 
L 64.7925 35.510769 
L 64.7925 244.409359 
" style="fill:none;opacity:0.999144;stroke:#333333;stroke-linecap:round;stroke-width:16;"/>
   </g>
   <g id="line2d_6">
    <path clip-path="url(#p0345bf070f)" d="M 316.5075 245.849231 
L 316.5075 244.409359 
" style="fill:none;opacity:0.001568;stroke:#800000;stroke-linecap:round;stroke-width:16;"/>
   </g>
   <g id="line2d_7">
    <path clip-path="url(#p0345bf070f)" d="M 204.634167 35.510769 
L 204.634167 245.849231 
L 204.634167 140.68 
L 64.7925 140.68 
L 64.7925 245.849231 
L 64.7925 37.159991 
" style="fill:none;opacity:0.999216;stroke:#333333;stroke-linecap:round;stroke-width:16;"/>
   </g>
   <g id="line2d_8">
    <path clip-path="url(#p0345bf070f)" d="M 512.285833 35.510769 
L 512.285833 37.159991 
" style="fill:none;opacity:0.001568;stroke:#800000;stroke-linecap:round;stroke-width:16;"/>
   </g>
   <g id="PathCollection_1">
    <defs>
     <path d="M 0 2.608602 
C 0.691809 2.608602 1.355377 2.333743 1.84456 1.84456 
C 2.333743 1.355377 2.608602 0.691809 2.608602 0 
C 2.608602 -0.691809 2.333743 -1.355377 1.84456 -1.84456 
C 1.355377 -2.333743 0.691809 -2.608602 0 -2.608602 
C -0.691809 -2.608602 -1.355377 -2.333743 -1.84456 -1.84456 
C -2.333743 -1.355377 -2.608602 -0.691809 -2.608602 0 
C -2.608602 0.691809 -2.333743 1.355377 -1.84456 1.84456 
C -1.355377 2.333743 -0.691809 2.608602 0 2.608602 
z
" id="m95f9f84563" style="stroke:#800000;"/>
    </defs>
    <g clip-path="url(#p0345bf070f)">
     <use style="fill:#800000;stroke:#800000;" x="65.746263" xlink:href="#m95f9f84563" y="36.228056"/>
    </g>
   </g>
   <g id="PathCollection_2">
    <defs>
     <path d="M 0 4.046641 
C 1.073182 4.046641 2.102553 3.620262 2.861408 2.861408 
C 3.620262 2.102553 4.046641 1.073182 4.046641 0 
C 4.046641 -1.073182 3.620262 -2.102553 2.861408 -2.861408 
C 2.102553 -3.620262 1.073182 -4.046641 0 -4.046641 
C -1.073182 -4.046641 -2.102553 -3.620262 -2.861408 -2.861408 
C -3.620262 -2.102553 -4.046641 -1.073182 -4.046641 0 
C -4.046641 1.073182 -3.620262 2.102553 -2.861408 2.861408 
C -2.102553 3.620262 -1.073182 4.046641 0 4.046641 
z
" id="m22f61997b3" style="stroke:#800000;"/>
    </defs>
    <g clip-path="url(#p0345bf070f)">
     <use style="fill:#800000;stroke:#800000;" x="204.634167" xlink:href="#m22f61997b3" y="244.694776"/>
    </g>
   </g>
   <g id="PathCollection_3">
    <defs>
     <path d="M 0 4.046641 
C 1.073182 4.046641 2.102553 3.620262 2.861408 2.861408 
C 3.620262 2.102553 4.046641 1.073182 4.046641 0 
C 4.046641 -1.073182 3.620262 -2.102553 2.861408 -2.861408 
C 2.102553 -3.620262 1.073182 -4.046641 0 -4.046641 
C -1.073182 -4.046641 -2.102553 -3.620262 -2.861408 -2.861408 
C -3.620262 -2.102553 -4.046641 -1.073182 -4.046641 0 
C -4.046641 1.073182 -3.620262 2.102553 -2.861408 2.861408 
C -2.102553 3.620262 -1.073182 4.046641 0 4.046641 
z
" id="m60edf8bf85" style="stroke:#333333;"/>
    </defs>
    <g clip-path="url(#p0345bf070f)">
     <use style="fill:#333333;stroke:#333333;" x="260.570833" xlink:href="#m60edf8bf85" y="244.694776"/>
    </g>
   </g>
   <g id="PathCollection_4">
    <defs>
     <path d="M 0 2.263921 
C 0.600399 2.263921 1.176288 2.02538 1.600834 1.600834 
C 2.02538 1.176288 2.263921 0.600399 2.263921 0 
C 2.263921 -0.600399 2.02538 -1.176288 1.600834 -1.600834 
C 1.176288 -2.02538 0.600399 -2.263921 0 -2.263921 
C -0.600399 -2.263921 -1.176288 -2.02538 -1.600834 -1.600834 
C -2.02538 -1.176288 -2.263921 -0.600399 -2.263921 0 
C -2.263921 0.600399 -2.02538 1.176288 -1.600834 1.600834 
C -1.176288 2.02538 -0.600399 2.263921 0 2.263921 
z
" id="m1a5221c669" style="stroke:#800000;"/>
    </defs>
    <g clip-path="url(#p0345bf070f)">
     <use style="fill:#800000;stroke:#800000;" x="64.7925" xlink:href="#m1a5221c669" y="244.409359"/>
    </g>
   </g>
   <g id="PathCollection_5">
    <defs>
     <path d="M 0 2.263921 
C 0.600399 2.263921 1.176288 2.02538 1.600834 1.600834 
C 2.02538 1.176288 2.263921 0.600399 2.263921 0 
C 2.263921 -0.600399 2.02538 -1.176288 1.600834 -1.600834 
C 1.176288 -2.02538 0.600399 -2.263921 0 -2.263921 
C -0.600399 -2.263921 -1.176288 -2.02538 -1.600834 -1.600834 
C -2.02538 -1.176288 -2.263921 -0.600399 -2.263921 0 
C -2.263921 0.600399 -2.02538 1.176288 -1.600834 1.600834 
C -1.176288 2.02538 -0.600399 2.263921 0 2.263921 
z
" id="m08d4c25451" style="stroke:#333333;"/>
    </defs>
    <g clip-path="url(#p0345bf070f)">
     <use style="fill:#333333;stroke:#333333;" x="316.5075" xlink:href="#m08d4c25451" y="244.409359"/>
    </g>
   </g>
   <g id="PathCollection_6">
    <defs>
     <path d="M 0 2.16728 
C 0.574769 2.16728 1.126075 1.938922 1.532498 1.532498 
C 1.938922 1.126075 2.16728 0.574769 2.16728 0 
C 2.16728 -0.574769 1.938922 -1.126075 1.532498 -1.532498 
C 1.126075 -1.938922 0.574769 -2.16728 0 -2.16728 
C -0.574769 -2.16728 -1.126075 -1.938922 -1.532498 -1.532498 
C -1.938922 -1.126075 -2.16728 -0.574769 -2.16728 0 
C -2.16728 0.574769 -1.938922 1.126075 -1.532498 1.532498 
C -1.126075 1.938922 -0.574769 2.16728 0 2.16728 
z
" id="m64a6f9ba6e" style="stroke:#800000;"/>
    </defs>
    <g clip-path="url(#p0345bf070f)">
     <use style="fill:#800000;stroke:#800000;" x="64.7925" xlink:href="#m64a6f9ba6e" y="37.159991"/>
    </g>
   </g>
   <g id="PathCollection_7">
    <defs>
     <path d="M 0 2.16728 
C 0.574769 2.16728 1.126075 1.938922 1.532498 1.532498 
C 1.938922 1.126075 2.16728 0.574769 2.16728 0 
C 2.16728 -0.574769 1.938922 -1.126075 1.532498 -1.532498 
C 1.126075 -1.938922 0.574769 -2.16728 0 -2.16728 
C -0.574769 -2.16728 -1.126075 -1.938922 -1.532498 -1.532498 
C -1.938922 -1.126075 -2.16728 -0.574769 -2.16728 0 
C -2.16728 0.574769 -1.938922 1.126075 -1.532498 1.532498 
C -1.126075 1.938922 -0.574769 2.16728 0 2.16728 
z
" id="m8049cba6dd" style="stroke:#333333;"/>
    </defs>
    <g clip-path="url(#p0345bf070f)">
     <use style="fill:#333333;stroke:#333333;" x="512.285833" xlink:href="#m8049cba6dd" y="37.159991"/>
    </g>
   </g>
  </g>
 </g>
 <defs>
  <clipPath id="p0345bf070f">
   <rect height="273.44" width="671.24" x="22.84" y="3.96"/>
  </clipPath>
 </defs>
</svg>
