<?xml version="1.0" encoding="utf-8" standalone="no"?>
<!DOCTYPE svg PUBLIC "-//W3C//DTD SVG 1.1//EN"
  "http://www.w3.org/Graphics/SVG/1.1/DTD/svg11.dtd">
<!-- Created with matplotlib (http://matplotlib.org/) -->
<svg height="294pt" version="1.1" viewBox="0 0 702 294" width="702pt" xmlns="http://www.w3.org/2000/svg" xmlns:xlink="http://www.w3.org/1999/xlink">
 <defs>
  <style type="text/css">
*{stroke-linecap:butt;stroke-linejoin:round;}
  </style>
 </defs>
 <g id="figure_1">
  <g id="patch_1">
   <path d="M 0 294.48 
L 702 294.48 
L 702 0 
L 0 0 
z
" style="fill:none;"/>
  </g>
  <g id="axes_1">
   <g id="line2d_1">
    <path clip-path="url(#p053bdd38ba)" d="M 64.7925 35.510769 
L 204.634167 140.68 
L 64.7925 245.849231 
L 64.7925 35.510769 
" style="fill:none;stroke:#800000;stroke-linecap:round;stroke-width:16;"/>
   </g>
   <g id="line2d_2">
    <path clip-path="url(#p053bdd38ba)" d="M 64.7925 35.510769 
L 64.7925 97.901693 
" style="fill:none;opacity:0.549437;stroke:#333333;stroke-linecap:round;stroke-width:16;"/>
   </g>
   <g id="line2d_3">
    <path clip-path="url(#p053bdd38ba)" d="M 204.634167 35.510769 
L 204.634167 35.510769 
" style="fill:none;opacity:0.495;stroke:#333333;stroke-linecap:round;stroke-width:16;"/>
   </g>
   <g id="line2d_4">
    <path clip-path="url(#p053bdd38ba)" d="M 260.570833 245.849231 
L 260.570833 35.510769 
" style="fill:none;opacity:0.621575;stroke:#800000;stroke-linecap:round;stroke-width:16;"/>
   </g>
   <g id="line2d_5">
    <path clip-path="url(#p053bdd38ba)" d="M 204.634167 35.510769 
L 204.634167 245.849231 
L 204.634167 215.703804 
" style="fill:none;opacity:0.66083;stroke:#333333;stroke-linecap:round;stroke-width:16;"/>
   </g>
   <g id="line2d_6">
    <path clip-path="url(#p053bdd38ba)" d="M 316.5075 245.849231 
L 316.5075 35.510769 
L 456.349167 140.68 
L 456.349167 215.703804 
" style="fill:none;opacity:0.621575;stroke:#800000;stroke-linecap:round;stroke-width:16;"/>
   </g>
   <g id="line2d_7">
    <path clip-path="url(#p053bdd38ba)" d="M 204.634167 35.510769 
L 204.634167 245.849231 
L 204.634167 152.024899 
" style="fill:none;opacity:0.689213;stroke:#333333;stroke-linecap:round;stroke-width:16;"/>
   </g>
   <g id="line2d_8">
    <path clip-path="url(#p053bdd38ba)" d="M 512.285833 35.510769 
L 512.285833 245.849231 
L 512.285833 140.68 
L 652.1275 140.68 
L 652.1275 152.024899 
" style="fill:none;opacity:0.621575;stroke:#800000;stroke-linecap:round;stroke-width:16;"/>
   </g>
   <g id="PathCollection_1">
    <defs>
     <path d="M 0 16.349112 
C 4.335835 16.349112 8.494669 14.626466 11.560568 11.560568 
C 14.626466 8.494669 16.349112 4.335835 16.349112 0 
C 16.349112 -4.335835 14.626466 -8.494669 11.560568 -11.560568 
C 8.494669 -14.626466 4.335835 -16.349112 0 -16.349112 
C -4.335835 -16.349112 -8.494669 -14.626466 -11.560568 -11.560568 
C -14.626466 -8.494669 -16.349112 -4.335835 -16.349112 0 
C -16.349112 4.335835 -14.626466 8.494669 -11.560568 11.560568 
C -8.494669 14.626466 -4.335835 16.349112 0 16.349112 
z
" id="mcb9bc201df" style="stroke:#800000;"/>
    </defs>
    <g clip-path="url(#p053bdd38ba)">
     <use style="fill:#800000;stroke:#800000;" x="64.7925" xlink:href="#mcb9bc201df" y="97.901693"/>
    </g>
   </g>
   <g id="PathCollection_2">
    <defs>
     <path d="M 0 25.584836 
C 6.785178 25.584836 13.293366 22.889056 18.091211 18.091211 
C 22.889056 13.293366 25.584836 6.785178 25.584836 0 
C 25.584836 -6.785178 22.889056 -13.293366 18.091211 -18.091211 
C 13.293366 -22.889056 6.785178 -25.584836 0 -25.584836 
C -6.785178 -25.584836 -13.293366 -22.889056 -18.091211 -18.091211 
C -22.889056 -13.293366 -25.584836 -6.785178 -25.584836 0 
C -25.584836 6.785178 -22.889056 13.293366 -18.091211 18.091211 
C -13.293366 22.889056 -6.785178 25.584836 0 25.584836 
z
" id="m07a3c8c6a6" style="stroke:#800000;"/>
    </defs>
    <g clip-path="url(#p053bdd38ba)">
     <use style="fill:#800000;stroke:#800000;" x="204.634167" xlink:href="#m07a3c8c6a6" y="215.703804"/>
    </g>
   </g>
   <g id="PathCollection_3">
    <defs>
     <path d="M 0 25.584836 
C 6.785178 25.584836 13.293366 22.889056 18.091211 18.091211 
C 22.889056 13.293366 25.584836 6.785178 25.584836 0 
C 25.584836 -6.785178 22.889056 -13.293366 18.091211 -18.091211 
C 13.293366 -22.889056 6.785178 -25.584836 0 -25.584836 
C -6.785178 -25.584836 -13.293366 -22.889056 -18.091211 -18.091211 
C -22.889056 -13.293366 -25.584836 -6.785178 -25.584836 0 
C -25.584836 6.785178 -22.889056 13.293366 -18.091211 18.091211 
C -13.293366 22.889056 -6.785178 25.584836 0 25.584836 
z
" id="m23b441c10c" style="stroke:#333333;"/>
    </defs>
    <g clip-path="url(#p053bdd38ba)">
     <use style="fill:#333333;stroke:#333333;" x="456.349167" xlink:href="#m23b441c10c" y="215.703804"/>
    </g>
   </g>
   <g id="PathCollection_4">
    <defs>
     <path d="M 0 26.564241 
C 7.044919 26.564241 13.802245 23.765265 18.783755 18.783755 
C 23.765265 13.802245 26.564241 7.044919 26.564241 0 
C 26.564241 -7.044919 23.765265 -13.802245 18.783755 -18.783755 
C 13.802245 -23.765265 7.044919 -26.564241 0 -26.564241 
C -7.044919 -26.564241 -13.802245 -23.765265 -18.783755 -18.783755 
C -23.765265 -13.802245 -26.564241 -7.044919 -26.564241 0 
C -26.564241 7.044919 -23.765265 13.802245 -18.783755 18.783755 
C -13.802245 23.765265 -7.044919 26.564241 0 26.564241 
z
" id="maee7e3ee41" style="stroke:#800000;"/>
    </defs>
    <g clip-path="url(#p053bdd38ba)">
     <use style="fill:#800000;stroke:#800000;" x="204.634167" xlink:href="#maee7e3ee41" y="152.024899"/>
    </g>
   </g>
   <g id="PathCollection_5">
    <defs>
     <path d="M 0 26.564241 
C 7.044919 26.564241 13.802245 23.765265 18.783755 18.783755 
C 23.765265 13.802245 26.564241 7.044919 26.564241 0 
C 26.564241 -7.044919 23.765265 -13.802245 18.783755 -18.783755 
C 13.802245 -23.765265 7.044919 -26.564241 0 -26.564241 
C -7.044919 -26.564241 -13.802245 -23.765265 -18.783755 -18.783755 
C -23.765265 -13.802245 -26.564241 -7.044919 -26.564241 0 
C -26.564241 7.044919 -23.765265 13.802245 -18.783755 18.783755 
C -13.802245 23.765265 -7.044919 26.564241 0 26.564241 
z
" id="m227ccee9fa" style="stroke:#333333;"/>
    </defs>
    <g clip-path="url(#p053bdd38ba)">
     <use style="fill:#333333;stroke:#333333;" x="652.1275" xlink:href="#m227ccee9fa" y="152.024899"/>
    </g>
   </g>
  </g>
 </g>
 <defs>
  <clipPath id="p053bdd38ba">
   <rect height="273.44" width="671.24" x="22.84" y="3.96"/>
  </clipPath>
 </defs>
</svg>
