<?xml version="1.0" encoding="utf-8" standalone="no"?>
<!DOCTYPE svg PUBLIC "-//W3C//DTD SVG 1.1//EN"
  "http://www.w3.org/Graphics/SVG/1.1/DTD/svg11.dtd">
<!-- Created with matplotlib (http://matplotlib.org/) -->
<svg height="294pt" version="1.1" viewBox="0 0 702 294" width="702pt" xmlns="http://www.w3.org/2000/svg" xmlns:xlink="http://www.w3.org/1999/xlink">
 <defs>
  <style type="text/css">
*{stroke-linecap:butt;stroke-linejoin:round;}
  </style>
 </defs>
 <g id="figure_1">
  <g id="patch_1">
   <path d="M 0 294.48 
L 702 294.48 
L 702 0 
L 0 0 
z
" style="fill:none;"/>
  </g>
  <g id="axes_1">
   <g id="line2d_1">
    <path clip-path="url(#pe6c570d679)" d="M 64.7925 35.510769 
L 204.634167 140.68 
L 64.7925 245.849231 
L 64.7925 35.510769 
" style="fill:none;stroke:#800000;stroke-linecap:round;stroke-width:16;"/>
   </g>
   <g id="line2d_2">
    <path clip-path="url(#pe6c570d679)" d="M 64.7925 35.510769 
L 64.7925 245.849231 
L 204.634167 140.68 
L 189.271301 129.126214 
" style="fill:none;opacity:0.851643;stroke:#333333;stroke-linecap:round;stroke-width:16;"/>
   </g>
   <g id="line2d_3">
    <path clip-path="url(#pe6c570d679)" d="M 204.634167 35.510769 
L 204.634167 95.177447 
" style="fill:none;opacity:0.641835;stroke:#333333;stroke-linecap:round;stroke-width:16;"/>
   </g>
   <g id="line2d_4">
    <path clip-path="url(#pe6c570d679)" d="M 260.570833 245.849231 
L 260.570833 95.177447 
" style="fill:none;opacity:0.204666;stroke:#800000;stroke-linecap:round;stroke-width:16;"/>
   </g>
   <g id="line2d_5">
    <path clip-path="url(#pe6c570d679)" d="M 204.634167 35.510769 
L 204.634167 245.849231 
L 204.634167 140.68 
L 64.7925 35.510769 
L 64.7925 57.926852 
" style="fill:none;opacity:0.888321;stroke:#333333;stroke-linecap:round;stroke-width:16;"/>
   </g>
   <g id="line2d_6">
    <path clip-path="url(#pe6c570d679)" d="M 316.5075 245.849231 
L 316.5075 57.926852 
" style="fill:none;opacity:0.204666;stroke:#800000;stroke-linecap:round;stroke-width:16;"/>
   </g>
   <g id="line2d_7">
    <path clip-path="url(#pe6c570d679)" d="M 204.634167 35.510769 
L 204.634167 245.849231 
L 204.634167 140.68 
L 64.7925 140.68 
L 64.7925 243.395759 
" style="fill:none;opacity:0.897667;stroke:#333333;stroke-linecap:round;stroke-width:16;"/>
   </g>
   <g id="line2d_8">
    <path clip-path="url(#pe6c570d679)" d="M 512.285833 35.510769 
L 512.285833 245.849231 
L 512.285833 243.395759 
" style="fill:none;opacity:0.204666;stroke:#800000;stroke-linecap:round;stroke-width:16;"/>
   </g>
   <g id="PathCollection_1">
    <defs>
     <path d="M 0 25.020472 
C 6.635507 25.020472 13.000133 22.384157 17.692145 17.692145 
C 22.384157 13.000133 25.020472 6.635507 25.020472 0 
C 25.020472 -6.635507 22.384157 -13.000133 17.692145 -17.692145 
C 13.000133 -22.384157 6.635507 -25.020472 0 -25.020472 
C -6.635507 -25.020472 -13.000133 -22.384157 -17.692145 -17.692145 
C -22.384157 -13.000133 -25.020472 -6.635507 -25.020472 0 
C -25.020472 6.635507 -22.384157 13.000133 -17.692145 17.692145 
C -13.000133 22.384157 -6.635507 25.020472 0 25.020472 
z
" id="m46d10e4e76" style="stroke:#800000;"/>
    </defs>
    <g clip-path="url(#pe6c570d679)">
     <use style="fill:#800000;stroke:#800000;" x="189.271301" xlink:href="#m46d10e4e76" y="129.126214"/>
    </g>
   </g>
   <g id="PathCollection_2">
    <defs>
     <path d="M 0 24.690156 
C 6.547906 24.690156 12.828508 22.088645 17.458576 17.458576 
C 22.088645 12.828508 24.690156 6.547906 24.690156 0 
C 24.690156 -6.547906 22.088645 -12.828508 17.458576 -17.458576 
C 12.828508 -22.088645 6.547906 -24.690156 0 -24.690156 
C -6.547906 -24.690156 -12.828508 -22.088645 -17.458576 -17.458576 
C -22.088645 -12.828508 -24.690156 -6.547906 -24.690156 0 
C -24.690156 6.547906 -22.088645 12.828508 -17.458576 17.458576 
C -12.828508 22.088645 -6.547906 24.690156 0 24.690156 
z
" id="m07be316f28" style="stroke:#800000;"/>
    </defs>
    <g clip-path="url(#pe6c570d679)">
     <use style="fill:#800000;stroke:#800000;" x="204.634167" xlink:href="#m07be316f28" y="95.177447"/>
    </g>
   </g>
   <g id="PathCollection_3">
    <defs>
     <path d="M 0 24.690156 
C 6.547906 24.690156 12.828508 22.088645 17.458576 17.458576 
C 22.088645 12.828508 24.690156 6.547906 24.690156 0 
C 24.690156 -6.547906 22.088645 -12.828508 17.458576 -17.458576 
C 12.828508 -22.088645 6.547906 -24.690156 0 -24.690156 
C -6.547906 -24.690156 -12.828508 -22.088645 -17.458576 -17.458576 
C -22.088645 -12.828508 -24.690156 -6.547906 -24.690156 0 
C -24.690156 6.547906 -22.088645 12.828508 -17.458576 17.458576 
C -12.828508 22.088645 -6.547906 24.690156 0 24.690156 
z
" id="m77f485c395" style="stroke:#333333;"/>
    </defs>
    <g clip-path="url(#pe6c570d679)">
     <use style="fill:#333333;stroke:#333333;" x="260.570833" xlink:href="#m77f485c395" y="95.177447"/>
    </g>
   </g>
   <g id="PathCollection_4">
    <defs>
     <path d="M 0 22.812413 
C 6.049923 22.812413 11.85287 20.408753 16.130812 16.130812 
C 20.408753 11.85287 22.812413 6.049923 22.812413 0 
C 22.812413 -6.049923 20.408753 -11.85287 16.130812 -16.130812 
C 11.85287 -20.408753 6.049923 -22.812413 0 -22.812413 
C -6.049923 -22.812413 -11.85287 -20.408753 -16.130812 -16.130812 
C -20.408753 -11.85287 -22.812413 -6.049923 -22.812413 0 
C -22.812413 6.049923 -20.408753 11.85287 -16.130812 16.130812 
C -11.85287 20.408753 -6.049923 22.812413 0 22.812413 
z
" id="m52f734fcb0" style="stroke:#800000;"/>
    </defs>
    <g clip-path="url(#pe6c570d679)">
     <use style="fill:#800000;stroke:#800000;" x="64.7925" xlink:href="#m52f734fcb0" y="57.926852"/>
    </g>
   </g>
   <g id="PathCollection_5">
    <defs>
     <path d="M 0 22.812413 
C 6.049923 22.812413 11.85287 20.408753 16.130812 16.130812 
C 20.408753 11.85287 22.812413 6.049923 22.812413 0 
C 22.812413 -6.049923 20.408753 -11.85287 16.130812 -16.130812 
C 11.85287 -20.408753 6.049923 -22.812413 0 -22.812413 
C -6.049923 -22.812413 -11.85287 -20.408753 -16.130812 -16.130812 
C -20.408753 -11.85287 -22.812413 -6.049923 -22.812413 0 
C -22.812413 6.049923 -20.408753 11.85287 -16.130812 16.130812 
C -11.85287 20.408753 -6.049923 22.812413 0 22.812413 
z
" id="mb81312e14a" style="stroke:#333333;"/>
    </defs>
    <g clip-path="url(#pe6c570d679)">
     <use style="fill:#333333;stroke:#333333;" x="316.5075" xlink:href="#mb81312e14a" y="57.926852"/>
    </g>
   </g>
   <g id="PathCollection_6">
    <defs>
     <path d="M 0 22.098259 
C 5.860527 22.098259 11.481811 19.769847 15.625829 15.625829 
C 19.769847 11.481811 22.098259 5.860527 22.098259 0 
C 22.098259 -5.860527 19.769847 -11.481811 15.625829 -15.625829 
C 11.481811 -19.769847 5.860527 -22.098259 0 -22.098259 
C -5.860527 -22.098259 -11.481811 -19.769847 -15.625829 -15.625829 
C -19.769847 -11.481811 -22.098259 -5.860527 -22.098259 0 
C -22.098259 5.860527 -19.769847 11.481811 -15.625829 15.625829 
C -11.481811 19.769847 -5.860527 22.098259 0 22.098259 
z
" id="mf60e4392a2" style="stroke:#800000;"/>
    </defs>
    <g clip-path="url(#pe6c570d679)">
     <use style="fill:#800000;stroke:#800000;" x="64.7925" xlink:href="#mf60e4392a2" y="243.395759"/>
    </g>
   </g>
   <g id="PathCollection_7">
    <defs>
     <path d="M 0 22.098259 
C 5.860527 22.098259 11.481811 19.769847 15.625829 15.625829 
C 19.769847 11.481811 22.098259 5.860527 22.098259 0 
C 22.098259 -5.860527 19.769847 -11.481811 15.625829 -15.625829 
C 11.481811 -19.769847 5.860527 -22.098259 0 -22.098259 
C -5.860527 -22.098259 -11.481811 -19.769847 -15.625829 -15.625829 
C -19.769847 -11.481811 -22.098259 -5.860527 -22.098259 0 
C -22.098259 5.860527 -19.769847 11.481811 -15.625829 15.625829 
C -11.481811 19.769847 -5.860527 22.098259 0 22.098259 
z
" id="m6ecc3fe84f" style="stroke:#333333;"/>
    </defs>
    <g clip-path="url(#pe6c570d679)">
     <use style="fill:#333333;stroke:#333333;" x="512.285833" xlink:href="#m6ecc3fe84f" y="243.395759"/>
    </g>
   </g>
  </g>
 </g>
 <defs>
  <clipPath id="pe6c570d679">
   <rect height="273.44" width="671.24" x="22.84" y="3.96"/>
  </clipPath>
 </defs>
</svg>
