<?xml version="1.0" encoding="utf-8" standalone="no"?>
<!DOCTYPE svg PUBLIC "-//W3C//DTD SVG 1.1//EN"
  "http://www.w3.org/Graphics/SVG/1.1/DTD/svg11.dtd">
<!-- Created with matplotlib (http://matplotlib.org/) -->
<svg height="294pt" version="1.1" viewBox="0 0 702 294" width="702pt" xmlns="http://www.w3.org/2000/svg" xmlns:xlink="http://www.w3.org/1999/xlink">
 <defs>
  <style type="text/css">
*{stroke-linecap:butt;stroke-linejoin:round;}
  </style>
 </defs>
 <g id="figure_1">
  <g id="patch_1">
   <path d="M 0 294.48 
L 702 294.48 
L 702 0 
L 0 0 
z
" style="fill:none;"/>
  </g>
  <g id="axes_1">
   <g id="line2d_1">
    <path clip-path="url(#pb3d5d06f12)" d="M 64.7925 35.510769 
L 204.634167 140.68 
L 64.7925 245.849231 
L 64.7925 35.510769 
" style="fill:none;stroke:#800000;stroke-linecap:round;stroke-width:16;"/>
   </g>
   <g id="line2d_2">
    <path clip-path="url(#pb3d5d06f12)" d="M 64.7925 35.510769 
L 64.7925 245.849231 
L 204.634167 140.68 
L 86.748712 52.023143 
" style="fill:none;opacity:0.973832;stroke:#333333;stroke-linecap:round;stroke-width:16;"/>
   </g>
   <g id="line2d_3">
    <path clip-path="url(#pb3d5d06f12)" d="M 204.634167 35.510769 
L 204.634167 219.272966 
" style="fill:none;opacity:0.936825;stroke:#333333;stroke-linecap:round;stroke-width:16;"/>
   </g>
   <g id="line2d_4">
    <path clip-path="url(#pb3d5d06f12)" d="M 260.570833 245.849231 
L 260.570833 219.272966 
" style="fill:none;opacity:0.0361;stroke:#800000;stroke-linecap:round;stroke-width:16;"/>
   </g>
   <g id="line2d_5">
    <path clip-path="url(#pb3d5d06f12)" d="M 204.634167 35.510769 
L 204.634167 245.849231 
L 204.634167 140.68 
L 64.7925 35.510769 
L 64.7925 212.702515 
" style="fill:none;opacity:0.980302;stroke:#333333;stroke-linecap:round;stroke-width:16;"/>
   </g>
   <g id="line2d_6">
    <path clip-path="url(#pb3d5d06f12)" d="M 316.5075 245.849231 
L 316.5075 212.702515 
" style="fill:none;opacity:0.0361;stroke:#800000;stroke-linecap:round;stroke-width:16;"/>
   </g>
   <g id="line2d_7">
    <path clip-path="url(#pb3d5d06f12)" d="M 204.634167 35.510769 
L 204.634167 245.849231 
L 204.634167 140.68 
L 64.7925 140.68 
L 64.7925 245.849231 
L 64.7925 73.476862 
" style="fill:none;opacity:0.98195;stroke:#333333;stroke-linecap:round;stroke-width:16;"/>
   </g>
   <g id="line2d_8">
    <path clip-path="url(#pb3d5d06f12)" d="M 512.285833 35.510769 
L 512.285833 73.476862 
" style="fill:none;opacity:0.0361;stroke:#800000;stroke-linecap:round;stroke-width:16;"/>
   </g>
   <g id="PathCollection_1">
    <defs>
     <path d="M 0 12.197972 
C 3.23494 12.197972 6.337821 10.912717 8.625269 8.625269 
C 10.912717 6.337821 12.197972 3.23494 12.197972 0 
C 12.197972 -3.23494 10.912717 -6.337821 8.625269 -8.625269 
C 6.337821 -10.912717 3.23494 -12.197972 0 -12.197972 
C -3.23494 -12.197972 -6.337821 -10.912717 -8.625269 -8.625269 
C -10.912717 -6.337821 -12.197972 -3.23494 -12.197972 0 
C -12.197972 3.23494 -10.912717 6.337821 -8.625269 8.625269 
C -6.337821 10.912717 -3.23494 12.197972 0 12.197972 
z
" id="md37053e1b0" style="stroke:#800000;"/>
    </defs>
    <g clip-path="url(#pb3d5d06f12)">
     <use style="fill:#800000;stroke:#800000;" x="86.748712" xlink:href="#md37053e1b0" y="52.023143"/>
    </g>
   </g>
   <g id="PathCollection_2">
    <defs>
     <path d="M 0 18.197721 
C 4.826092 18.197721 9.455169 16.280294 12.867732 12.867732 
C 16.280294 9.455169 18.197721 4.826092 18.197721 0 
C 18.197721 -4.826092 16.280294 -9.455169 12.867732 -12.867732 
C 9.455169 -16.280294 4.826092 -18.197721 0 -18.197721 
C -4.826092 -18.197721 -9.455169 -16.280294 -12.867732 -12.867732 
C -16.280294 -9.455169 -18.197721 -4.826092 -18.197721 0 
C -18.197721 4.826092 -16.280294 9.455169 -12.867732 12.867732 
C -9.455169 16.280294 -4.826092 18.197721 0 18.197721 
z
" id="m46a48f6300" style="stroke:#800000;"/>
    </defs>
    <g clip-path="url(#pb3d5d06f12)">
     <use style="fill:#800000;stroke:#800000;" x="204.634167" xlink:href="#m46a48f6300" y="219.272966"/>
    </g>
   </g>
   <g id="PathCollection_3">
    <defs>
     <path d="M 0 18.197721 
C 4.826092 18.197721 9.455169 16.280294 12.867732 12.867732 
C 16.280294 9.455169 18.197721 4.826092 18.197721 0 
C 18.197721 -4.826092 16.280294 -9.455169 12.867732 -12.867732 
C 9.455169 -16.280294 4.826092 -18.197721 0 -18.197721 
C -4.826092 -18.197721 -9.455169 -16.280294 -12.867732 -12.867732 
C -16.280294 -9.455169 -18.197721 -4.826092 -18.197721 0 
C -18.197721 4.826092 -16.280294 9.455169 -12.867732 12.867732 
C -9.455169 16.280294 -4.826092 18.197721 0 18.197721 
z
" id="me19a405e70" style="stroke:#333333;"/>
    </defs>
    <g clip-path="url(#pb3d5d06f12)">
     <use style="fill:#333333;stroke:#333333;" x="260.570833" xlink:href="#me19a405e70" y="219.272966"/>
    </g>
   </g>
   <g id="PathCollection_4">
    <defs>
     <path d="M 0 10.655247 
C 2.825805 10.655247 5.536252 9.532543 7.534398 7.534398 
C 9.532543 5.536252 10.655247 2.825805 10.655247 0 
C 10.655247 -2.825805 9.532543 -5.536252 7.534398 -7.534398 
C 5.536252 -9.532543 2.825805 -10.655247 0 -10.655247 
C -2.825805 -10.655247 -5.536252 -9.532543 -7.534398 -7.534398 
C -9.532543 -5.536252 -10.655247 -2.825805 -10.655247 0 
C -10.655247 2.825805 -9.532543 5.536252 -7.534398 7.534398 
C -5.536252 9.532543 -2.825805 10.655247 0 10.655247 
z
" id="mddc2c68a8b" style="stroke:#800000;"/>
    </defs>
    <g clip-path="url(#pb3d5d06f12)">
     <use style="fill:#800000;stroke:#800000;" x="64.7925" xlink:href="#mddc2c68a8b" y="212.702515"/>
    </g>
   </g>
   <g id="PathCollection_5">
    <defs>
     <path d="M 0 10.655247 
C 2.825805 10.655247 5.536252 9.532543 7.534398 7.534398 
C 9.532543 5.536252 10.655247 2.825805 10.655247 0 
C 10.655247 -2.825805 9.532543 -5.536252 7.534398 -7.534398 
C 5.536252 -9.532543 2.825805 -10.655247 0 -10.655247 
C -2.825805 -10.655247 -5.536252 -9.532543 -7.534398 -7.534398 
C -9.532543 -5.536252 -10.655247 -2.825805 -10.655247 0 
C -10.655247 2.825805 -9.532543 5.536252 -7.534398 7.534398 
C -5.536252 9.532543 -2.825805 10.655247 0 10.655247 
z
" id="m36613410e4" style="stroke:#333333;"/>
    </defs>
    <g clip-path="url(#pb3d5d06f12)">
     <use style="fill:#333333;stroke:#333333;" x="316.5075" xlink:href="#m36613410e4" y="212.702515"/>
    </g>
   </g>
   <g id="PathCollection_6">
    <defs>
     <path d="M 0 10.217161 
C 2.709623 10.217161 5.308631 9.140616 7.224624 7.224624 
C 9.140616 5.308631 10.217161 2.709623 10.217161 0 
C 10.217161 -2.709623 9.140616 -5.308631 7.224624 -7.224624 
C 5.308631 -9.140616 2.709623 -10.217161 0 -10.217161 
C -2.709623 -10.217161 -5.308631 -9.140616 -7.224624 -7.224624 
C -9.140616 -5.308631 -10.217161 -2.709623 -10.217161 0 
C -10.217161 2.709623 -9.140616 5.308631 -7.224624 7.224624 
C -5.308631 9.140616 -2.709623 10.217161 0 10.217161 
z
" id="m6e3360508f" style="stroke:#800000;"/>
    </defs>
    <g clip-path="url(#pb3d5d06f12)">
     <use style="fill:#800000;stroke:#800000;" x="64.7925" xlink:href="#m6e3360508f" y="73.476862"/>
    </g>
   </g>
   <g id="PathCollection_7">
    <defs>
     <path d="M 0 10.217161 
C 2.709623 10.217161 5.308631 9.140616 7.224624 7.224624 
C 9.140616 5.308631 10.217161 2.709623 10.217161 0 
C 10.217161 -2.709623 9.140616 -5.308631 7.224624 -7.224624 
C 5.308631 -9.140616 2.709623 -10.217161 0 -10.217161 
C -2.709623 -10.217161 -5.308631 -9.140616 -7.224624 -7.224624 
C -9.140616 -5.308631 -10.217161 -2.709623 -10.217161 0 
C -10.217161 2.709623 -9.140616 5.308631 -7.224624 7.224624 
C -5.308631 9.140616 -2.709623 10.217161 0 10.217161 
z
" id="mdf15165648" style="stroke:#333333;"/>
    </defs>
    <g clip-path="url(#pb3d5d06f12)">
     <use style="fill:#333333;stroke:#333333;" x="512.285833" xlink:href="#mdf15165648" y="73.476862"/>
    </g>
   </g>
  </g>
 </g>
 <defs>
  <clipPath id="pb3d5d06f12">
   <rect height="273.44" width="671.24" x="22.84" y="3.96"/>
  </clipPath>
 </defs>
</svg>
