<?xml version="1.0" encoding="utf-8" standalone="no"?>
<!DOCTYPE svg PUBLIC "-//W3C//DTD SVG 1.1//EN"
  "http://www.w3.org/Graphics/SVG/1.1/DTD/svg11.dtd">
<!-- Created with matplotlib (http://matplotlib.org/) -->
<svg height="294pt" version="1.1" viewBox="0 0 702 294" width="702pt" xmlns="http://www.w3.org/2000/svg" xmlns:xlink="http://www.w3.org/1999/xlink">
 <defs>
  <style type="text/css">
*{stroke-linecap:butt;stroke-linejoin:round;}
  </style>
 </defs>
 <g id="figure_1">
  <g id="patch_1">
   <path d="M 0 294.48 
L 702 294.48 
L 702 0 
L 0 0 
z
" style="fill:none;"/>
  </g>
  <g id="axes_1">
   <g id="line2d_1">
    <path clip-path="url(#p86ef170ddf)" d="M 64.7925 35.510769 
L 204.634167 140.68 
L 64.7925 245.849231 
L 64.7925 35.510769 
" style="fill:none;stroke:#800000;stroke-linecap:round;stroke-width:16;"/>
   </g>
   <g id="line2d_2">
    <path clip-path="url(#p86ef170ddf)" d="M 64.7925 35.510769 
L 64.7925 35.510769 
" style="fill:none;opacity:0.495;stroke:#333333;stroke-linecap:round;stroke-width:16;"/>
   </g>
   <g id="line2d_3">
    <path clip-path="url(#p86ef170ddf)" d="M 204.634167 35.510769 
L 204.634167 35.510769 
" style="fill:none;opacity:0.495;stroke:#333333;stroke-linecap:round;stroke-width:16;"/>
   </g>
   <g id="line2d_4">
    <path clip-path="url(#p86ef170ddf)" d="M 260.570833 245.849231 
L 260.570833 35.510769 
" style="fill:none;opacity:0.93625;stroke:#800000;stroke-linecap:round;stroke-width:16;"/>
   </g>
   <g id="line2d_5">
    <path clip-path="url(#p86ef170ddf)" d="M 204.634167 35.510769 
L 204.634167 35.510769 
" style="fill:none;opacity:0.495;stroke:#333333;stroke-linecap:round;stroke-width:16;"/>
   </g>
   <g id="line2d_6">
    <path clip-path="url(#p86ef170ddf)" d="M 316.5075 245.849231 
L 316.5075 35.510769 
L 456.349167 140.68 
L 456.349167 245.849231 
L 456.349167 35.510769 
" style="fill:none;opacity:0.93625;stroke:#800000;stroke-linecap:round;stroke-width:16;"/>
   </g>
   <g id="line2d_7">
    <path clip-path="url(#p86ef170ddf)" d="M 204.634167 35.510769 
L 204.634167 102.556406 
" style="fill:none;opacity:0.531875;stroke:#333333;stroke-linecap:round;stroke-width:16;"/>
   </g>
   <g id="line2d_8">
    <path clip-path="url(#p86ef170ddf)" d="M 512.285833 35.510769 
L 512.285833 245.849231 
L 512.285833 140.68 
L 652.1275 140.68 
L 652.1275 245.849231 
L 652.1275 102.556406 
" style="fill:none;opacity:0.93625;stroke:#800000;stroke-linecap:round;stroke-width:16;"/>
   </g>
   <g id="PathCollection_1">
    <defs>
     <path d="M 0 13.381272 
C 3.548755 13.381272 6.95264 11.971337 9.461988 9.461988 
C 11.971337 6.95264 13.381272 3.548755 13.381272 0 
C 13.381272 -3.548755 11.971337 -6.95264 9.461988 -9.461988 
C 6.95264 -11.971337 3.548755 -13.381272 0 -13.381272 
C -3.548755 -13.381272 -6.95264 -11.971337 -9.461988 -9.461988 
C -11.971337 -6.95264 -13.381272 -3.548755 -13.381272 0 
C -13.381272 3.548755 -11.971337 6.95264 -9.461988 9.461988 
C -6.95264 11.971337 -3.548755 13.381272 0 13.381272 
z
" id="m9ce7a62325" style="stroke:#800000;"/>
    </defs>
    <g clip-path="url(#p86ef170ddf)">
     <use style="fill:#800000;stroke:#800000;" x="204.634167" xlink:href="#m9ce7a62325" y="102.556406"/>
    </g>
   </g>
   <g id="PathCollection_2">
    <defs>
     <path d="M 0 13.381272 
C 3.548755 13.381272 6.95264 11.971337 9.461988 9.461988 
C 11.971337 6.95264 13.381272 3.548755 13.381272 0 
C 13.381272 -3.548755 11.971337 -6.95264 9.461988 -9.461988 
C 6.95264 -11.971337 3.548755 -13.381272 0 -13.381272 
C -3.548755 -13.381272 -6.95264 -11.971337 -9.461988 -9.461988 
C -11.971337 -6.95264 -13.381272 -3.548755 -13.381272 0 
C -13.381272 3.548755 -11.971337 6.95264 -9.461988 9.461988 
C -6.95264 11.971337 -3.548755 13.381272 0 13.381272 
z
" id="m14e20775c4" style="stroke:#333333;"/>
    </defs>
    <g clip-path="url(#p86ef170ddf)">
     <use style="fill:#333333;stroke:#333333;" x="652.1275" xlink:href="#m14e20775c4" y="102.556406"/>
    </g>
   </g>
  </g>
 </g>
 <defs>
  <clipPath id="p86ef170ddf">
   <rect height="273.44" width="671.24" x="22.84" y="3.96"/>
  </clipPath>
 </defs>
</svg>
