<?xml version="1.0" encoding="utf-8" standalone="no"?>
<!DOCTYPE svg PUBLIC "-//W3C//DTD SVG 1.1//EN"
  "http://www.w3.org/Graphics/SVG/1.1/DTD/svg11.dtd">
<!-- Created with matplotlib (http://matplotlib.org/) -->
<svg height="294pt" version="1.1" viewBox="0 0 702 294" width="702pt" xmlns="http://www.w3.org/2000/svg" xmlns:xlink="http://www.w3.org/1999/xlink">
 <defs>
  <style type="text/css">
*{stroke-linecap:butt;stroke-linejoin:round;}
  </style>
 </defs>
 <g id="figure_1">
  <g id="patch_1">
   <path d="M 0 294.48 
L 702 294.48 
L 702 0 
L 0 0 
z
" style="fill:none;"/>
  </g>
  <g id="axes_1">
   <g id="line2d_1">
    <path clip-path="url(#p499d2b8dd7)" d="M 64.7925 35.510769 
L 204.634167 140.68 
L 64.7925 245.849231 
L 64.7925 35.510769 
" style="fill:none;stroke:#800000;stroke-linecap:round;stroke-width:16;"/>
   </g>
   <g id="line2d_2">
    <path clip-path="url(#p499d2b8dd7)" d="M 64.7925 35.510769 
L 64.7925 124.69693 
" style="fill:none;opacity:0.570669;stroke:#333333;stroke-linecap:round;stroke-width:16;"/>
   </g>
   <g id="line2d_3">
    <path clip-path="url(#p499d2b8dd7)" d="M 204.634167 35.510769 
L 204.634167 35.510769 
" style="fill:none;opacity:0.495;stroke:#333333;stroke-linecap:round;stroke-width:16;"/>
   </g>
   <g id="line2d_4">
    <path clip-path="url(#p499d2b8dd7)" d="M 260.570833 245.849231 
L 260.570833 35.510769 
" style="fill:none;opacity:0.592284;stroke:#800000;stroke-linecap:round;stroke-width:16;"/>
   </g>
   <g id="line2d_5">
    <path clip-path="url(#p499d2b8dd7)" d="M 204.634167 35.510769 
L 204.634167 245.849231 
L 204.634167 202.256705 
" style="fill:none;opacity:0.676812;stroke:#333333;stroke-linecap:round;stroke-width:16;"/>
   </g>
   <g id="line2d_6">
    <path clip-path="url(#p499d2b8dd7)" d="M 316.5075 245.849231 
L 316.5075 35.510769 
L 456.349167 140.68 
L 456.349167 202.256705 
" style="fill:none;opacity:0.592284;stroke:#800000;stroke-linecap:round;stroke-width:16;"/>
   </g>
   <g id="line2d_7">
    <path clip-path="url(#p499d2b8dd7)" d="M 204.634167 35.510769 
L 204.634167 245.849231 
L 204.634167 140.68 
L 199.239187 140.68 
" style="fill:none;opacity:0.703858;stroke:#333333;stroke-linecap:round;stroke-width:16;"/>
   </g>
   <g id="line2d_8">
    <path clip-path="url(#p499d2b8dd7)" d="M 512.285833 35.510769 
L 512.285833 245.849231 
L 512.285833 140.68 
L 646.73252 140.68 
" style="fill:none;opacity:0.592284;stroke:#800000;stroke-linecap:round;stroke-width:16;"/>
   </g>
   <g id="PathCollection_1">
    <defs>
     <path d="M 0 19.080978 
C 5.060334 19.080978 9.914092 17.070486 13.492289 13.492289 
C 17.070486 9.914092 19.080978 5.060334 19.080978 0 
C 19.080978 -5.060334 17.070486 -9.914092 13.492289 -13.492289 
C 9.914092 -17.070486 5.060334 -19.080978 0 -19.080978 
C -5.060334 -19.080978 -9.914092 -17.070486 -13.492289 -13.492289 
C -17.070486 -9.914092 -19.080978 -5.060334 -19.080978 0 
C -19.080978 5.060334 -17.070486 9.914092 -13.492289 13.492289 
C -9.914092 17.070486 -5.060334 19.080978 0 19.080978 
z
" id="m806debf0cc" style="stroke:#800000;"/>
    </defs>
    <g clip-path="url(#p499d2b8dd7)">
     <use style="fill:#800000;stroke:#800000;" x="64.7925" xlink:href="#m806debf0cc" y="124.69693"/>
    </g>
   </g>
   <g id="PathCollection_2">
    <defs>
     <path d="M 0 26.18631 
C 6.944691 26.18631 13.60588 23.427155 18.516517 18.516517 
C 23.427155 13.60588 26.18631 6.944691 26.18631 0 
C 26.18631 -6.944691 23.427155 -13.60588 18.516517 -18.516517 
C 13.60588 -23.427155 6.944691 -26.18631 0 -26.18631 
C -6.944691 -26.18631 -13.60588 -23.427155 -18.516517 -18.516517 
C -23.427155 -13.60588 -26.18631 -6.944691 -26.18631 0 
C -26.18631 6.944691 -23.427155 13.60588 -18.516517 18.516517 
C -13.60588 23.427155 -6.944691 26.18631 0 26.18631 
z
" id="m0b059e8bde" style="stroke:#800000;"/>
    </defs>
    <g clip-path="url(#p499d2b8dd7)">
     <use style="fill:#800000;stroke:#800000;" x="204.634167" xlink:href="#m0b059e8bde" y="202.256705"/>
    </g>
   </g>
   <g id="PathCollection_3">
    <defs>
     <path d="M 0 26.18631 
C 6.944691 26.18631 13.60588 23.427155 18.516517 18.516517 
C 23.427155 13.60588 26.18631 6.944691 26.18631 0 
C 26.18631 -6.944691 23.427155 -13.60588 18.516517 -18.516517 
C 13.60588 -23.427155 6.944691 -26.18631 0 -26.18631 
C -6.944691 -26.18631 -13.60588 -23.427155 -18.516517 -18.516517 
C -23.427155 -13.60588 -26.18631 -6.944691 -26.18631 0 
C -26.18631 6.944691 -23.427155 13.60588 -18.516517 18.516517 
C -13.60588 23.427155 -6.944691 26.18631 0 26.18631 
z
" id="mbfc2c794db" style="stroke:#333333;"/>
    </defs>
    <g clip-path="url(#p499d2b8dd7)">
     <use style="fill:#333333;stroke:#333333;" x="456.349167" xlink:href="#mbfc2c794db" y="202.256705"/>
    </g>
   </g>
   <g id="PathCollection_4">
    <defs>
     <path d="M 0 26.915626 
C 7.138107 26.915626 13.984817 24.079625 19.032221 19.032221 
C 24.079625 13.984817 26.915626 7.138107 26.915626 0 
C 26.915626 -7.138107 24.079625 -13.984817 19.032221 -19.032221 
C 13.984817 -24.079625 7.138107 -26.915626 0 -26.915626 
C -7.138107 -26.915626 -13.984817 -24.079625 -19.032221 -19.032221 
C -24.079625 -13.984817 -26.915626 -7.138107 -26.915626 0 
C -26.915626 7.138107 -24.079625 13.984817 -19.032221 19.032221 
C -13.984817 24.079625 -7.138107 26.915626 0 26.915626 
z
" id="m934c6e24ed" style="stroke:#800000;"/>
    </defs>
    <g clip-path="url(#p499d2b8dd7)">
     <use style="fill:#800000;stroke:#800000;" x="199.239187" xlink:href="#m934c6e24ed" y="140.68"/>
    </g>
   </g>
   <g id="PathCollection_5">
    <defs>
     <path d="M 0 26.915626 
C 7.138107 26.915626 13.984817 24.079625 19.032221 19.032221 
C 24.079625 13.984817 26.915626 7.138107 26.915626 0 
C 26.915626 -7.138107 24.079625 -13.984817 19.032221 -19.032221 
C 13.984817 -24.079625 7.138107 -26.915626 0 -26.915626 
C -7.138107 -26.915626 -13.984817 -24.079625 -19.032221 -19.032221 
C -24.079625 -13.984817 -26.915626 -7.138107 -26.915626 0 
C -26.915626 7.138107 -24.079625 13.984817 -19.032221 19.032221 
C -13.984817 24.079625 -7.138107 26.915626 0 26.915626 
z
" id="m87070d1daf" style="stroke:#333333;"/>
    </defs>
    <g clip-path="url(#p499d2b8dd7)">
     <use style="fill:#333333;stroke:#333333;" x="646.73252" xlink:href="#m87070d1daf" y="140.68"/>
    </g>
   </g>
  </g>
 </g>
 <defs>
  <clipPath id="p499d2b8dd7">
   <rect height="273.44" width="671.24" x="22.84" y="3.96"/>
  </clipPath>
 </defs>
</svg>
