<?xml version="1.0" encoding="utf-8" standalone="no"?>
<!DOCTYPE svg PUBLIC "-//W3C//DTD SVG 1.1//EN"
  "http://www.w3.org/Graphics/SVG/1.1/DTD/svg11.dtd">
<!-- Created with matplotlib (http://matplotlib.org/) -->
<svg height="294pt" version="1.1" viewBox="0 0 702 294" width="702pt" xmlns="http://www.w3.org/2000/svg" xmlns:xlink="http://www.w3.org/1999/xlink">
 <defs>
  <style type="text/css">
*{stroke-linecap:butt;stroke-linejoin:round;}
  </style>
 </defs>
 <g id="figure_1">
  <g id="patch_1">
   <path d="M 0 294.48 
L 702 294.48 
L 702 0 
L 0 0 
z
" style="fill:none;"/>
  </g>
  <g id="axes_1">
   <g id="line2d_1">
    <path clip-path="url(#p5398ba3541)" d="M 64.7925 35.510769 
L 204.634167 140.68 
L 64.7925 245.849231 
L 64.7925 35.510769 
" style="fill:none;stroke:#800000;stroke-linecap:round;stroke-width:16;"/>
   </g>
   <g id="line2d_2">
    <path clip-path="url(#p5398ba3541)" d="M 64.7925 35.510769 
L 64.7925 35.510769 
" style="fill:none;opacity:0.495;stroke:#333333;stroke-linecap:round;stroke-width:16;"/>
   </g>
   <g id="line2d_3">
    <path clip-path="url(#p5398ba3541)" d="M 204.634167 35.510769 
L 204.634167 35.510769 
" style="fill:none;opacity:0.495;stroke:#333333;stroke-linecap:round;stroke-width:16;"/>
   </g>
   <g id="line2d_4">
    <path clip-path="url(#p5398ba3541)" d="M 260.570833 245.849231 
L 260.570833 35.510769 
" style="fill:none;opacity:0.961184;stroke:#800000;stroke-linecap:round;stroke-width:16;"/>
   </g>
   <g id="line2d_5">
    <path clip-path="url(#p5398ba3541)" d="M 204.634167 35.510769 
L 204.634167 35.510769 
" style="fill:none;opacity:0.495;stroke:#333333;stroke-linecap:round;stroke-width:16;"/>
   </g>
   <g id="line2d_6">
    <path clip-path="url(#p5398ba3541)" d="M 316.5075 245.849231 
L 316.5075 35.510769 
L 456.349167 140.68 
L 456.349167 245.849231 
L 456.349167 35.510769 
" style="fill:none;opacity:0.961184;stroke:#800000;stroke-linecap:round;stroke-width:16;"/>
   </g>
   <g id="line2d_7">
    <path clip-path="url(#p5398ba3541)" d="M 204.634167 35.510769 
L 204.634167 76.33309 
" style="fill:none;opacity:0.519408;stroke:#333333;stroke-linecap:round;stroke-width:16;"/>
   </g>
   <g id="line2d_8">
    <path clip-path="url(#p5398ba3541)" d="M 512.285833 35.510769 
L 512.285833 245.849231 
L 512.285833 140.68 
L 652.1275 140.68 
L 652.1275 245.849231 
L 652.1275 76.33309 
" style="fill:none;opacity:0.961184;stroke:#800000;stroke-linecap:round;stroke-width:16;"/>
   </g>
   <g id="PathCollection_1">
    <defs>
     <path d="M 0 10.57958 
C 2.805737 10.57958 5.496937 9.464849 7.480893 7.480893 
C 9.464849 5.496937 10.57958 2.805737 10.57958 0 
C 10.57958 -2.805737 9.464849 -5.496937 7.480893 -7.480893 
C 5.496937 -9.464849 2.805737 -10.57958 0 -10.57958 
C -2.805737 -10.57958 -5.496937 -9.464849 -7.480893 -7.480893 
C -9.464849 -5.496937 -10.57958 -2.805737 -10.57958 0 
C -10.57958 2.805737 -9.464849 5.496937 -7.480893 7.480893 
C -5.496937 9.464849 -2.805737 10.57958 0 10.57958 
z
" id="m7fb9c95017" style="stroke:#800000;"/>
    </defs>
    <g clip-path="url(#p5398ba3541)">
     <use style="fill:#800000;stroke:#800000;" x="204.634167" xlink:href="#m7fb9c95017" y="76.33309"/>
    </g>
   </g>
   <g id="PathCollection_2">
    <defs>
     <path d="M 0 10.57958 
C 2.805737 10.57958 5.496937 9.464849 7.480893 7.480893 
C 9.464849 5.496937 10.57958 2.805737 10.57958 0 
C 10.57958 -2.805737 9.464849 -5.496937 7.480893 -7.480893 
C 5.496937 -9.464849 2.805737 -10.57958 0 -10.57958 
C -2.805737 -10.57958 -5.496937 -9.464849 -7.480893 -7.480893 
C -9.464849 -5.496937 -10.57958 -2.805737 -10.57958 0 
C -10.57958 2.805737 -9.464849 5.496937 -7.480893 7.480893 
C -5.496937 9.464849 -2.805737 10.57958 0 10.57958 
z
" id="m492c494054" style="stroke:#333333;"/>
    </defs>
    <g clip-path="url(#p5398ba3541)">
     <use style="fill:#333333;stroke:#333333;" x="652.1275" xlink:href="#m492c494054" y="76.33309"/>
    </g>
   </g>
  </g>
 </g>
 <defs>
  <clipPath id="p5398ba3541">
   <rect height="273.44" width="671.24" x="22.84" y="3.96"/>
  </clipPath>
 </defs>
</svg>
