<?xml version="1.0" encoding="utf-8" standalone="no"?>
<!DOCTYPE svg PUBLIC "-//W3C//DTD SVG 1.1//EN"
  "http://www.w3.org/Graphics/SVG/1.1/DTD/svg11.dtd">
<!-- Created with matplotlib (http://matplotlib.org/) -->
<svg height="294pt" version="1.1" viewBox="0 0 702 294" width="702pt" xmlns="http://www.w3.org/2000/svg" xmlns:xlink="http://www.w3.org/1999/xlink">
 <defs>
  <style type="text/css">
*{stroke-linecap:butt;stroke-linejoin:round;}
  </style>
 </defs>
 <g id="figure_1">
  <g id="patch_1">
   <path d="M 0 294.48 
L 702 294.48 
L 702 0 
L 0 0 
z
" style="fill:none;"/>
  </g>
  <g id="axes_1">
   <g id="line2d_1">
    <path clip-path="url(#pe170e5057e)" d="M 64.7925 35.510769 
L 204.634167 140.68 
L 64.7925 245.849231 
L 64.7925 35.510769 
" style="fill:none;stroke:#800000;stroke-linecap:round;stroke-width:16;"/>
   </g>
   <g id="line2d_2">
    <path clip-path="url(#pe170e5057e)" d="M 64.7925 35.510769 
L 64.7925 245.849231 
L 204.634167 140.68 
L 106.033783 66.526661 
" style="fill:none;opacity:0.950848;stroke:#333333;stroke-linecap:round;stroke-width:16;"/>
   </g>
   <g id="line2d_3">
    <path clip-path="url(#pe170e5057e)" d="M 204.634167 35.510769 
L 204.634167 195.929907 
" style="fill:none;opacity:0.881336;stroke:#333333;stroke-linecap:round;stroke-width:16;"/>
   </g>
   <g id="line2d_4">
    <path clip-path="url(#pe170e5057e)" d="M 260.570833 245.849231 
L 260.570833 195.929907 
" style="fill:none;opacity:0.067808;stroke:#800000;stroke-linecap:round;stroke-width:16;"/>
   </g>
   <g id="line2d_5">
    <path clip-path="url(#pe170e5057e)" d="M 204.634167 35.510769 
L 204.634167 245.849231 
L 204.634167 140.68 
L 64.7925 35.510769 
L 64.7925 183.588349 
" style="fill:none;opacity:0.963;stroke:#333333;stroke-linecap:round;stroke-width:16;"/>
   </g>
   <g id="line2d_6">
    <path clip-path="url(#pe170e5057e)" d="M 316.5075 245.849231 
L 316.5075 183.588349 
" style="fill:none;opacity:0.067808;stroke:#800000;stroke-linecap:round;stroke-width:16;"/>
   </g>
   <g id="line2d_7">
    <path clip-path="url(#pe170e5057e)" d="M 204.634167 35.510769 
L 204.634167 245.849231 
L 204.634167 140.68 
L 64.7925 140.68 
L 64.7925 245.849231 
L 64.7925 106.82409 
" style="fill:none;opacity:0.966096;stroke:#333333;stroke-linecap:round;stroke-width:16;"/>
   </g>
   <g id="line2d_8">
    <path clip-path="url(#pe170e5057e)" d="M 512.285833 35.510769 
L 512.285833 106.82409 
" style="fill:none;opacity:0.067808;stroke:#800000;stroke-linecap:round;stroke-width:16;"/>
   </g>
   <g id="PathCollection_1">
    <defs>
     <path d="M 0 16.307136 
C 4.324703 16.307136 8.47286 14.588913 11.530886 11.530886 
C 14.588913 8.47286 16.307136 4.324703 16.307136 0 
C 16.307136 -4.324703 14.588913 -8.47286 11.530886 -11.530886 
C 8.47286 -14.588913 4.324703 -16.307136 0 -16.307136 
C -4.324703 -16.307136 -8.47286 -14.588913 -11.530886 -11.530886 
C -14.588913 -8.47286 -16.307136 -4.324703 -16.307136 0 
C -16.307136 4.324703 -14.588913 8.47286 -11.530886 11.530886 
C -8.47286 14.588913 -4.324703 16.307136 0 16.307136 
z
" id="m25b1bdf7df" style="stroke:#800000;"/>
    </defs>
    <g clip-path="url(#pe170e5057e)">
     <use style="fill:#800000;stroke:#800000;" x="106.033783" xlink:href="#m25b1bdf7df" y="66.526661"/>
    </g>
   </g>
   <g id="PathCollection_2">
    <defs>
     <path d="M 0 23.3026 
C 6.179922 23.3026 12.107562 20.847291 16.477426 16.477426 
C 20.847291 12.107562 23.3026 6.179922 23.3026 0 
C 23.3026 -6.179922 20.847291 -12.107562 16.477426 -16.477426 
C 12.107562 -20.847291 6.179922 -23.3026 0 -23.3026 
C -6.179922 -23.3026 -12.107562 -20.847291 -16.477426 -16.477426 
C -20.847291 -12.107562 -23.3026 -6.179922 -23.3026 0 
C -23.3026 6.179922 -20.847291 12.107562 -16.477426 16.477426 
C -12.107562 20.847291 -6.179922 23.3026 0 23.3026 
z
" id="m0f49d977b9" style="stroke:#800000;"/>
    </defs>
    <g clip-path="url(#pe170e5057e)">
     <use style="fill:#800000;stroke:#800000;" x="204.634167" xlink:href="#m0f49d977b9" y="195.929907"/>
    </g>
   </g>
   <g id="PathCollection_3">
    <defs>
     <path d="M 0 23.3026 
C 6.179922 23.3026 12.107562 20.847291 16.477426 16.477426 
C 20.847291 12.107562 23.3026 6.179922 23.3026 0 
C 23.3026 -6.179922 20.847291 -12.107562 16.477426 -16.477426 
C 12.107562 -20.847291 6.179922 -23.3026 0 -23.3026 
C -6.179922 -23.3026 -12.107562 -20.847291 -16.477426 -16.477426 
C -20.847291 -12.107562 -23.3026 -6.179922 -23.3026 0 
C -23.3026 6.179922 -20.847291 12.107562 -16.477426 16.477426 
C -12.107562 20.847291 -6.179922 23.3026 0 23.3026 
z
" id="m04bd6e62ff" style="stroke:#333333;"/>
    </defs>
    <g clip-path="url(#pe170e5057e)">
     <use style="fill:#333333;stroke:#333333;" x="260.570833" xlink:href="#m04bd6e62ff" y="195.929907"/>
    </g>
   </g>
   <g id="PathCollection_4">
    <defs>
     <path d="M 0 14.337856 
C 3.802444 14.337856 7.449661 12.827129 10.138395 10.138395 
C 12.827129 7.449661 14.337856 3.802444 14.337856 0 
C 14.337856 -3.802444 12.827129 -7.449661 10.138395 -10.138395 
C 7.449661 -12.827129 3.802444 -14.337856 0 -14.337856 
C -3.802444 -14.337856 -7.449661 -12.827129 -10.138395 -10.138395 
C -12.827129 -7.449661 -14.337856 -3.802444 -14.337856 0 
C -14.337856 3.802444 -12.827129 7.449661 -10.138395 10.138395 
C -7.449661 12.827129 -3.802444 14.337856 0 14.337856 
z
" id="m40f7e685d3" style="stroke:#800000;"/>
    </defs>
    <g clip-path="url(#pe170e5057e)">
     <use style="fill:#800000;stroke:#800000;" x="64.7925" xlink:href="#m40f7e685d3" y="183.588349"/>
    </g>
   </g>
   <g id="PathCollection_5">
    <defs>
     <path d="M 0 14.337856 
C 3.802444 14.337856 7.449661 12.827129 10.138395 10.138395 
C 12.827129 7.449661 14.337856 3.802444 14.337856 0 
C 14.337856 -3.802444 12.827129 -7.449661 10.138395 -10.138395 
C 7.449661 -12.827129 3.802444 -14.337856 0 -14.337856 
C -3.802444 -14.337856 -7.449661 -12.827129 -10.138395 -10.138395 
C -12.827129 -7.449661 -14.337856 -3.802444 -14.337856 0 
C -14.337856 3.802444 -12.827129 7.449661 -10.138395 10.138395 
C -7.449661 12.827129 -3.802444 14.337856 0 14.337856 
z
" id="m95092bb511" style="stroke:#333333;"/>
    </defs>
    <g clip-path="url(#pe170e5057e)">
     <use style="fill:#333333;stroke:#333333;" x="316.5075" xlink:href="#m95092bb511" y="183.588349"/>
    </g>
   </g>
   <g id="PathCollection_6">
    <defs>
     <path d="M 0 13.770644 
C 3.652018 13.770644 7.15495 12.319682 9.737316 9.737316 
C 12.319682 7.15495 13.770644 3.652018 13.770644 0 
C 13.770644 -3.652018 12.319682 -7.15495 9.737316 -9.737316 
C 7.15495 -12.319682 3.652018 -13.770644 0 -13.770644 
C -3.652018 -13.770644 -7.15495 -12.319682 -9.737316 -9.737316 
C -12.319682 -7.15495 -13.770644 -3.652018 -13.770644 0 
C -13.770644 3.652018 -12.319682 7.15495 -9.737316 9.737316 
C -7.15495 12.319682 -3.652018 13.770644 0 13.770644 
z
" id="m7dfdbb6845" style="stroke:#800000;"/>
    </defs>
    <g clip-path="url(#pe170e5057e)">
     <use style="fill:#800000;stroke:#800000;" x="64.7925" xlink:href="#m7dfdbb6845" y="106.82409"/>
    </g>
   </g>
   <g id="PathCollection_7">
    <defs>
     <path d="M 0 13.770644 
C 3.652018 13.770644 7.15495 12.319682 9.737316 9.737316 
C 12.319682 7.15495 13.770644 3.652018 13.770644 0 
C 13.770644 -3.652018 12.319682 -7.15495 9.737316 -9.737316 
C 7.15495 -12.319682 3.652018 -13.770644 0 -13.770644 
C -3.652018 -13.770644 -7.15495 -12.319682 -9.737316 -9.737316 
C -12.319682 -7.15495 -13.770644 -3.652018 -13.770644 0 
C -13.770644 3.652018 -12.319682 7.15495 -9.737316 9.737316 
C -7.15495 12.319682 -3.652018 13.770644 0 13.770644 
z
" id="mfd0a805c90" style="stroke:#333333;"/>
    </defs>
    <g clip-path="url(#pe170e5057e)">
     <use style="fill:#333333;stroke:#333333;" x="512.285833" xlink:href="#mfd0a805c90" y="106.82409"/>
    </g>
   </g>
  </g>
 </g>
 <defs>
  <clipPath id="pe170e5057e">
   <rect height="273.44" width="671.24" x="22.84" y="3.96"/>
  </clipPath>
 </defs>
</svg>
