<?xml version="1.0" encoding="utf-8" standalone="no"?>
<!DOCTYPE svg PUBLIC "-//W3C//DTD SVG 1.1//EN"
  "http://www.w3.org/Graphics/SVG/1.1/DTD/svg11.dtd">
<!-- Created with matplotlib (http://matplotlib.org/) -->
<svg height="294pt" version="1.1" viewBox="0 0 702 294" width="702pt" xmlns="http://www.w3.org/2000/svg" xmlns:xlink="http://www.w3.org/1999/xlink">
 <defs>
  <style type="text/css">
*{stroke-linecap:butt;stroke-linejoin:round;}
  </style>
 </defs>
 <g id="figure_1">
  <g id="patch_1">
   <path d="M 0 294.48 
L 702 294.48 
L 702 0 
L 0 0 
z
" style="fill:none;"/>
  </g>
  <g id="axes_1">
   <g id="line2d_1">
    <path clip-path="url(#pabfbf4bb33)" d="M 64.7925 35.510769 
L 204.634167 140.68 
L 64.7925 245.849231 
L 64.7925 35.510769 
" style="fill:none;stroke:#800000;stroke-linecap:round;stroke-width:16;"/>
   </g>
   <g id="line2d_2">
    <path clip-path="url(#pabfbf4bb33)" d="M 64.7925 35.510769 
L 64.7925 245.849231 
L 150.733639 181.216395 
" style="fill:none;opacity:0.769093;stroke:#333333;stroke-linecap:round;stroke-width:16;"/>
   </g>
   <g id="line2d_3">
    <path clip-path="url(#pabfbf4bb33)" d="M 204.634167 35.510769 
L 204.634167 35.510769 
" style="fill:none;opacity:0.495;stroke:#333333;stroke-linecap:round;stroke-width:16;"/>
   </g>
   <g id="line2d_4">
    <path clip-path="url(#pabfbf4bb33)" d="M 260.570833 245.849231 
L 260.570833 35.510769 
" style="fill:none;opacity:0.318547;stroke:#800000;stroke-linecap:round;stroke-width:16;"/>
   </g>
   <g id="line2d_5">
    <path clip-path="url(#pabfbf4bb33)" d="M 204.634167 35.510769 
L 204.634167 245.849231 
L 204.634167 140.68 
L 119.408566 76.585291 
" style="fill:none;opacity:0.82618;stroke:#333333;stroke-linecap:round;stroke-width:16;"/>
   </g>
   <g id="line2d_6">
    <path clip-path="url(#pabfbf4bb33)" d="M 316.5075 245.849231 
L 316.5075 35.510769 
L 371.123566 76.585291 
" style="fill:none;opacity:0.318547;stroke:#800000;stroke-linecap:round;stroke-width:16;"/>
   </g>
   <g id="line2d_7">
    <path clip-path="url(#pabfbf4bb33)" d="M 204.634167 35.510769 
L 204.634167 245.849231 
L 204.634167 140.68 
L 64.7925 140.68 
L 64.7925 183.511557 
" style="fill:none;opacity:0.840726;stroke:#333333;stroke-linecap:round;stroke-width:16;"/>
   </g>
   <g id="line2d_8">
    <path clip-path="url(#pabfbf4bb33)" d="M 512.285833 35.510769 
L 512.285833 245.849231 
L 512.285833 183.511557 
" style="fill:none;opacity:0.318547;stroke:#800000;stroke-linecap:round;stroke-width:16;"/>
   </g>
   <g id="PathCollection_1">
    <defs>
     <path d="M 0 27.306141 
C 7.241673 27.306141 14.187721 24.428993 19.308357 19.308357 
C 24.428993 14.187721 27.306141 7.241673 27.306141 0 
C 27.306141 -7.241673 24.428993 -14.187721 19.308357 -19.308357 
C 14.187721 -24.428993 7.241673 -27.306141 0 -27.306141 
C -7.241673 -27.306141 -14.187721 -24.428993 -19.308357 -19.308357 
C -24.428993 -14.187721 -27.306141 -7.241673 -27.306141 0 
C -27.306141 7.241673 -24.428993 14.187721 -19.308357 19.308357 
C -14.187721 24.428993 -7.241673 27.306141 0 27.306141 
z
" id="m7f225e647e" style="stroke:#800000;"/>
    </defs>
    <g clip-path="url(#pabfbf4bb33)">
     <use style="fill:#800000;stroke:#800000;" x="150.733639" xlink:href="#m7f225e647e" y="181.216395"/>
    </g>
   </g>
   <g id="PathCollection_2">
    <defs>
     <path d="M 0 26.083682 
C 6.917473 26.083682 13.552556 23.335341 18.443949 18.443949 
C 23.335341 13.552556 26.083682 6.917473 26.083682 0 
C 26.083682 -6.917473 23.335341 -13.552556 18.443949 -18.443949 
C 13.552556 -23.335341 6.917473 -26.083682 0 -26.083682 
C -6.917473 -26.083682 -13.552556 -23.335341 -18.443949 -18.443949 
C -23.335341 -13.552556 -26.083682 -6.917473 -26.083682 0 
C -26.083682 6.917473 -23.335341 13.552556 -18.443949 18.443949 
C -13.552556 23.335341 -6.917473 26.083682 0 26.083682 
z
" id="m2f6c39e413" style="stroke:#800000;"/>
    </defs>
    <g clip-path="url(#pabfbf4bb33)">
     <use style="fill:#800000;stroke:#800000;" x="119.408566" xlink:href="#m2f6c39e413" y="76.585291"/>
    </g>
   </g>
   <g id="PathCollection_3">
    <defs>
     <path d="M 0 26.083682 
C 6.917473 26.083682 13.552556 23.335341 18.443949 18.443949 
C 23.335341 13.552556 26.083682 6.917473 26.083682 0 
C 26.083682 -6.917473 23.335341 -13.552556 18.443949 -18.443949 
C 13.552556 -23.335341 6.917473 -26.083682 0 -26.083682 
C -6.917473 -26.083682 -13.552556 -23.335341 -18.443949 -18.443949 
C -23.335341 -13.552556 -26.083682 -6.917473 -26.083682 0 
C -26.083682 6.917473 -23.335341 13.552556 -18.443949 18.443949 
C -13.552556 23.335341 -6.917473 26.083682 0 26.083682 
z
" id="m13a31b88e4" style="stroke:#333333;"/>
    </defs>
    <g clip-path="url(#pabfbf4bb33)">
     <use style="fill:#333333;stroke:#333333;" x="371.123566" xlink:href="#m13a31b88e4" y="76.585291"/>
    </g>
   </g>
   <g id="PathCollection_4">
    <defs>
     <path d="M 0 25.519107 
C 6.767746 25.519107 13.259214 22.830253 18.044734 18.044734 
C 22.830253 13.259214 25.519107 6.767746 25.519107 0 
C 25.519107 -6.767746 22.830253 -13.259214 18.044734 -18.044734 
C 13.259214 -22.830253 6.767746 -25.519107 0 -25.519107 
C -6.767746 -25.519107 -13.259214 -22.830253 -18.044734 -18.044734 
C -22.830253 -13.259214 -25.519107 -6.767746 -25.519107 0 
C -25.519107 6.767746 -22.830253 13.259214 -18.044734 18.044734 
C -13.259214 22.830253 -6.767746 25.519107 0 25.519107 
z
" id="m51134334dc" style="stroke:#800000;"/>
    </defs>
    <g clip-path="url(#pabfbf4bb33)">
     <use style="fill:#800000;stroke:#800000;" x="64.7925" xlink:href="#m51134334dc" y="183.511557"/>
    </g>
   </g>
   <g id="PathCollection_5">
    <defs>
     <path d="M 0 25.519107 
C 6.767746 25.519107 13.259214 22.830253 18.044734 18.044734 
C 22.830253 13.259214 25.519107 6.767746 25.519107 0 
C 25.519107 -6.767746 22.830253 -13.259214 18.044734 -18.044734 
C 13.259214 -22.830253 6.767746 -25.519107 0 -25.519107 
C -6.767746 -25.519107 -13.259214 -22.830253 -18.044734 -18.044734 
C -22.830253 -13.259214 -25.519107 -6.767746 -25.519107 0 
C -25.519107 6.767746 -22.830253 13.259214 -18.044734 18.044734 
C -13.259214 22.830253 -6.767746 25.519107 0 25.519107 
z
" id="m259f1a5f15" style="stroke:#333333;"/>
    </defs>
    <g clip-path="url(#pabfbf4bb33)">
     <use style="fill:#333333;stroke:#333333;" x="512.285833" xlink:href="#m259f1a5f15" y="183.511557"/>
    </g>
   </g>
  </g>
 </g>
 <defs>
  <clipPath id="pabfbf4bb33">
   <rect height="273.44" width="671.24" x="22.84" y="3.96"/>
  </clipPath>
 </defs>
</svg>
