<?xml version="1.0" encoding="utf-8" standalone="no"?>
<!DOCTYPE svg PUBLIC "-//W3C//DTD SVG 1.1//EN"
  "http://www.w3.org/Graphics/SVG/1.1/DTD/svg11.dtd">
<!-- Created with matplotlib (http://matplotlib.org/) -->
<svg height="294pt" version="1.1" viewBox="0 0 702 294" width="702pt" xmlns="http://www.w3.org/2000/svg" xmlns:xlink="http://www.w3.org/1999/xlink">
 <defs>
  <style type="text/css">
*{stroke-linecap:butt;stroke-linejoin:round;}
  </style>
 </defs>
 <g id="figure_1">
  <g id="patch_1">
   <path d="M 0 294.48 
L 702 294.48 
L 702 0 
L 0 0 
z
" style="fill:none;"/>
  </g>
  <g id="axes_1">
   <g id="line2d_1">
    <path clip-path="url(#p028b544229)" d="M 64.7925 35.510769 
L 204.634167 140.68 
L 64.7925 245.849231 
L 64.7925 35.510769 
" style="fill:none;stroke:#800000;stroke-linecap:round;stroke-width:16;"/>
   </g>
   <g id="line2d_2">
    <path clip-path="url(#p028b544229)" d="M 64.7925 35.510769 
L 64.7925 35.510769 
" style="fill:none;opacity:0.495;stroke:#333333;stroke-linecap:round;stroke-width:16;"/>
   </g>
   <g id="line2d_3">
    <path clip-path="url(#p028b544229)" d="M 204.634167 35.510769 
L 204.634167 35.510769 
" style="fill:none;opacity:0.495;stroke:#333333;stroke-linecap:round;stroke-width:16;"/>
   </g>
   <g id="line2d_4">
    <path clip-path="url(#p028b544229)" d="M 260.570833 245.849231 
L 260.570833 35.510769 
" style="fill:none;opacity:0.805686;stroke:#800000;stroke-linecap:round;stroke-width:16;"/>
   </g>
   <g id="line2d_5">
    <path clip-path="url(#p028b544229)" d="M 204.634167 35.510769 
L 204.634167 137.09073 
" style="fill:none;opacity:0.560367;stroke:#333333;stroke-linecap:round;stroke-width:16;"/>
   </g>
   <g id="line2d_6">
    <path clip-path="url(#p028b544229)" d="M 316.5075 245.849231 
L 316.5075 35.510769 
L 456.349167 140.68 
L 456.349167 245.849231 
L 456.349167 137.09073 
" style="fill:none;opacity:0.805686;stroke:#800000;stroke-linecap:round;stroke-width:16;"/>
   </g>
   <g id="line2d_7">
    <path clip-path="url(#p028b544229)" d="M 204.634167 35.510769 
L 204.634167 239.869561 
" style="fill:none;opacity:0.597157;stroke:#333333;stroke-linecap:round;stroke-width:16;"/>
   </g>
   <g id="line2d_8">
    <path clip-path="url(#p028b544229)" d="M 512.285833 35.510769 
L 512.285833 245.849231 
L 512.285833 140.68 
L 652.1275 140.68 
L 652.1275 245.849231 
L 652.1275 239.869561 
" style="fill:none;opacity:0.805686;stroke:#800000;stroke-linecap:round;stroke-width:16;"/>
   </g>
   <g id="PathCollection_1">
    <defs>
     <path d="M 0 17.845777 
C 4.732755 17.845777 9.272306 15.965433 12.61887 12.61887 
C 15.965433 9.272306 17.845777 4.732755 17.845777 0 
C 17.845777 -4.732755 15.965433 -9.272306 12.61887 -12.61887 
C 9.272306 -15.965433 4.732755 -17.845777 0 -17.845777 
C -4.732755 -17.845777 -9.272306 -15.965433 -12.61887 -12.61887 
C -15.965433 -9.272306 -17.845777 -4.732755 -17.845777 0 
C -17.845777 4.732755 -15.965433 9.272306 -12.61887 12.61887 
C -9.272306 15.965433 -4.732755 17.845777 0 17.845777 
z
" id="m487599cf9b" style="stroke:#800000;"/>
    </defs>
    <g clip-path="url(#p028b544229)">
     <use style="fill:#800000;stroke:#800000;" x="204.634167" xlink:href="#m487599cf9b" y="137.09073"/>
    </g>
   </g>
   <g id="PathCollection_2">
    <defs>
     <path d="M 0 17.845777 
C 4.732755 17.845777 9.272306 15.965433 12.61887 12.61887 
C 15.965433 9.272306 17.845777 4.732755 17.845777 0 
C 17.845777 -4.732755 15.965433 -9.272306 12.61887 -12.61887 
C 9.272306 -15.965433 4.732755 -17.845777 0 -17.845777 
C -4.732755 -17.845777 -9.272306 -15.965433 -12.61887 -12.61887 
C -15.965433 -9.272306 -17.845777 -4.732755 -17.845777 0 
C -17.845777 4.732755 -15.965433 9.272306 -12.61887 12.61887 
C -9.272306 15.965433 -4.732755 17.845777 0 17.845777 
z
" id="mc227341919" style="stroke:#333333;"/>
    </defs>
    <g clip-path="url(#p028b544229)">
     <use style="fill:#333333;stroke:#333333;" x="456.349167" xlink:href="#mc227341919" y="137.09073"/>
    </g>
   </g>
   <g id="PathCollection_3">
    <defs>
     <path d="M 0 21.67184 
C 5.747439 21.67184 11.260252 19.388358 15.324305 15.324305 
C 19.388358 11.260252 21.67184 5.747439 21.67184 0 
C 21.67184 -5.747439 19.388358 -11.260252 15.324305 -15.324305 
C 11.260252 -19.388358 5.747439 -21.67184 0 -21.67184 
C -5.747439 -21.67184 -11.260252 -19.388358 -15.324305 -15.324305 
C -19.388358 -11.260252 -21.67184 -5.747439 -21.67184 0 
C -21.67184 5.747439 -19.388358 11.260252 -15.324305 15.324305 
C -11.260252 19.388358 -5.747439 21.67184 0 21.67184 
z
" id="ma65e9a6403" style="stroke:#800000;"/>
    </defs>
    <g clip-path="url(#p028b544229)">
     <use style="fill:#800000;stroke:#800000;" x="204.634167" xlink:href="#ma65e9a6403" y="239.869561"/>
    </g>
   </g>
   <g id="PathCollection_4">
    <defs>
     <path d="M 0 21.67184 
C 5.747439 21.67184 11.260252 19.388358 15.324305 15.324305 
C 19.388358 11.260252 21.67184 5.747439 21.67184 0 
C 21.67184 -5.747439 19.388358 -11.260252 15.324305 -15.324305 
C 11.260252 -19.388358 5.747439 -21.67184 0 -21.67184 
C -5.747439 -21.67184 -11.260252 -19.388358 -15.324305 -15.324305 
C -19.388358 -11.260252 -21.67184 -5.747439 -21.67184 0 
C -21.67184 5.747439 -19.388358 11.260252 -15.324305 15.324305 
C -11.260252 19.388358 -5.747439 21.67184 0 21.67184 
z
" id="mbd76564190" style="stroke:#333333;"/>
    </defs>
    <g clip-path="url(#p028b544229)">
     <use style="fill:#333333;stroke:#333333;" x="652.1275" xlink:href="#mbd76564190" y="239.869561"/>
    </g>
   </g>
  </g>
 </g>
 <defs>
  <clipPath id="p028b544229">
   <rect height="273.44" width="671.24" x="22.84" y="3.96"/>
  </clipPath>
 </defs>
</svg>
