<?xml version="1.0" encoding="utf-8" standalone="no"?>
<!DOCTYPE svg PUBLIC "-//W3C//DTD SVG 1.1//EN"
  "http://www.w3.org/Graphics/SVG/1.1/DTD/svg11.dtd">
<!-- Created with matplotlib (http://matplotlib.org/) -->
<svg height="294pt" version="1.1" viewBox="0 0 702 294" width="702pt" xmlns="http://www.w3.org/2000/svg" xmlns:xlink="http://www.w3.org/1999/xlink">
 <defs>
  <style type="text/css">
*{stroke-linecap:butt;stroke-linejoin:round;}
  </style>
 </defs>
 <g id="figure_1">
  <g id="patch_1">
   <path d="M 0 294.48 
L 702 294.48 
L 702 0 
L 0 0 
z
" style="fill:none;"/>
  </g>
  <g id="axes_1">
   <g id="line2d_1">
    <path clip-path="url(#p21cc6506e5)" d="M 64.7925 35.510769 
L 204.634167 140.68 
L 64.7925 245.849231 
L 64.7925 35.510769 
" style="fill:none;stroke:#800000;stroke-linecap:round;stroke-width:16;"/>
   </g>
   <g id="line2d_2">
    <path clip-path="url(#p21cc6506e5)" d="M 64.7925 35.510769 
L 64.7925 35.510769 
" style="fill:none;opacity:0.495;stroke:#333333;stroke-linecap:round;stroke-width:16;"/>
   </g>
   <g id="line2d_3">
    <path clip-path="url(#p21cc6506e5)" d="M 204.634167 35.510769 
L 204.634167 35.510769 
" style="fill:none;opacity:0.495;stroke:#333333;stroke-linecap:round;stroke-width:16;"/>
   </g>
   <g id="line2d_4">
    <path clip-path="url(#p21cc6506e5)" d="M 260.570833 245.849231 
L 260.570833 35.510769 
" style="fill:none;opacity:0.849347;stroke:#800000;stroke-linecap:round;stroke-width:16;"/>
   </g>
   <g id="line2d_5">
    <path clip-path="url(#p21cc6506e5)" d="M 204.634167 35.510769 
L 204.634167 97.00175 
" style="fill:none;opacity:0.536543;stroke:#333333;stroke-linecap:round;stroke-width:16;"/>
   </g>
   <g id="line2d_6">
    <path clip-path="url(#p21cc6506e5)" d="M 316.5075 245.849231 
L 316.5075 35.510769 
L 456.349167 140.68 
L 456.349167 245.849231 
L 456.349167 97.00175 
" style="fill:none;opacity:0.849347;stroke:#800000;stroke-linecap:round;stroke-width:16;"/>
   </g>
   <g id="line2d_7">
    <path clip-path="url(#p21cc6506e5)" d="M 204.634167 35.510769 
L 204.634167 193.951833 
" style="fill:none;opacity:0.575327;stroke:#333333;stroke-linecap:round;stroke-width:16;"/>
   </g>
   <g id="line2d_8">
    <path clip-path="url(#p21cc6506e5)" d="M 512.285833 35.510769 
L 512.285833 245.849231 
L 512.285833 140.68 
L 652.1275 140.68 
L 652.1275 245.849231 
L 652.1275 193.951833 
" style="fill:none;opacity:0.849347;stroke:#800000;stroke-linecap:round;stroke-width:16;"/>
   </g>
   <g id="PathCollection_1">
    <defs>
     <path d="M 0 14.25597 
C 3.780727 14.25597 7.407115 12.753871 10.080493 10.080493 
C 12.753871 7.407115 14.25597 3.780727 14.25597 0 
C 14.25597 -3.780727 12.753871 -7.407115 10.080493 -10.080493 
C 7.407115 -12.753871 3.780727 -14.25597 0 -14.25597 
C -3.780727 -14.25597 -7.407115 -12.753871 -10.080493 -10.080493 
C -12.753871 -7.407115 -14.25597 -3.780727 -14.25597 0 
C -14.25597 3.780727 -12.753871 7.407115 -10.080493 10.080493 
C -7.407115 12.753871 -3.780727 14.25597 0 14.25597 
z
" id="m07cf1ee2a7" style="stroke:#800000;"/>
    </defs>
    <g clip-path="url(#p21cc6506e5)">
     <use style="fill:#800000;stroke:#800000;" x="204.634167" xlink:href="#m07cf1ee2a7" y="97.00175"/>
    </g>
   </g>
   <g id="PathCollection_2">
    <defs>
     <path d="M 0 14.25597 
C 3.780727 14.25597 7.407115 12.753871 10.080493 10.080493 
C 12.753871 7.407115 14.25597 3.780727 14.25597 0 
C 14.25597 -3.780727 12.753871 -7.407115 10.080493 -10.080493 
C 7.407115 -12.753871 3.780727 -14.25597 0 -14.25597 
C -3.780727 -14.25597 -7.407115 -12.753871 -10.080493 -10.080493 
C -12.753871 -7.407115 -14.25597 -3.780727 -14.25597 0 
C -14.25597 3.780727 -12.753871 7.407115 -10.080493 10.080493 
C -7.407115 12.753871 -3.780727 14.25597 0 14.25597 
z
" id="m3697a89167" style="stroke:#333333;"/>
    </defs>
    <g clip-path="url(#p21cc6506e5)">
     <use style="fill:#333333;stroke:#333333;" x="456.349167" xlink:href="#m3697a89167" y="97.00175"/>
    </g>
   </g>
   <g id="PathCollection_3">
    <defs>
     <path d="M 0 19.592625 
C 5.196025 19.592625 10.179933 17.528222 13.854078 13.854078 
C 17.528222 10.179933 19.592625 5.196025 19.592625 0 
C 19.592625 -5.196025 17.528222 -10.179933 13.854078 -13.854078 
C 10.179933 -17.528222 5.196025 -19.592625 0 -19.592625 
C -5.196025 -19.592625 -10.179933 -17.528222 -13.854078 -13.854078 
C -17.528222 -10.179933 -19.592625 -5.196025 -19.592625 0 
C -19.592625 5.196025 -17.528222 10.179933 -13.854078 13.854078 
C -10.179933 17.528222 -5.196025 19.592625 0 19.592625 
z
" id="m98e56feec6" style="stroke:#800000;"/>
    </defs>
    <g clip-path="url(#p21cc6506e5)">
     <use style="fill:#800000;stroke:#800000;" x="204.634167" xlink:href="#m98e56feec6" y="193.951833"/>
    </g>
   </g>
   <g id="PathCollection_4">
    <defs>
     <path d="M 0 19.592625 
C 5.196025 19.592625 10.179933 17.528222 13.854078 13.854078 
C 17.528222 10.179933 19.592625 5.196025 19.592625 0 
C 19.592625 -5.196025 17.528222 -10.179933 13.854078 -13.854078 
C 10.179933 -17.528222 5.196025 -19.592625 0 -19.592625 
C -5.196025 -19.592625 -10.179933 -17.528222 -13.854078 -13.854078 
C -17.528222 -10.179933 -19.592625 -5.196025 -19.592625 0 
C -19.592625 5.196025 -17.528222 10.179933 -13.854078 13.854078 
C -10.179933 17.528222 -5.196025 19.592625 0 19.592625 
z
" id="mcd0b1990ca" style="stroke:#333333;"/>
    </defs>
    <g clip-path="url(#p21cc6506e5)">
     <use style="fill:#333333;stroke:#333333;" x="652.1275" xlink:href="#mcd0b1990ca" y="193.951833"/>
    </g>
   </g>
  </g>
 </g>
 <defs>
  <clipPath id="p21cc6506e5">
   <rect height="273.44" width="671.24" x="22.84" y="3.96"/>
  </clipPath>
 </defs>
</svg>
