<?xml version="1.0" encoding="utf-8" standalone="no"?>
<!DOCTYPE svg PUBLIC "-//W3C//DTD SVG 1.1//EN"
  "http://www.w3.org/Graphics/SVG/1.1/DTD/svg11.dtd">
<!-- Created with matplotlib (http://matplotlib.org/) -->
<svg height="294pt" version="1.1" viewBox="0 0 702 294" width="702pt" xmlns="http://www.w3.org/2000/svg" xmlns:xlink="http://www.w3.org/1999/xlink">
 <defs>
  <style type="text/css">
*{stroke-linecap:butt;stroke-linejoin:round;}
  </style>
 </defs>
 <g id="figure_1">
  <g id="patch_1">
   <path d="M 0 294.48 
L 702 294.48 
L 702 0 
L 0 0 
z
" style="fill:none;"/>
  </g>
  <g id="axes_1">
   <g id="line2d_1">
    <path clip-path="url(#p49a992b9b2)" d="M 64.7925 35.510769 
L 204.634167 140.68 
L 64.7925 245.849231 
L 64.7925 35.510769 
" style="fill:none;stroke:#800000;stroke-linecap:round;stroke-width:16;"/>
   </g>
   <g id="line2d_2">
    <path clip-path="url(#p49a992b9b2)" d="M 64.7925 35.510769 
L 64.7925 245.849231 
L 204.634167 140.68 
L 143.615908 94.790649 
" style="fill:none;opacity:0.906056;stroke:#333333;stroke-linecap:round;stroke-width:16;"/>
   </g>
   <g id="line2d_3">
    <path clip-path="url(#p49a992b9b2)" d="M 204.634167 35.510769 
L 204.634167 150.439705 
" style="fill:none;opacity:0.7732;stroke:#333333;stroke-linecap:round;stroke-width:16;"/>
   </g>
   <g id="line2d_4">
    <path clip-path="url(#p49a992b9b2)" d="M 260.570833 245.849231 
L 260.570833 150.439705 
" style="fill:none;opacity:0.1296;stroke:#800000;stroke-linecap:round;stroke-width:16;"/>
   </g>
   <g id="line2d_5">
    <path clip-path="url(#p49a992b9b2)" d="M 204.634167 35.510769 
L 204.634167 245.849231 
L 204.634167 140.68 
L 64.7925 35.510769 
L 64.7925 126.851601 
" style="fill:none;opacity:0.929282;stroke:#333333;stroke-linecap:round;stroke-width:16;"/>
   </g>
   <g id="line2d_6">
    <path clip-path="url(#p49a992b9b2)" d="M 316.5075 245.849231 
L 316.5075 126.851601 
" style="fill:none;opacity:0.1296;stroke:#800000;stroke-linecap:round;stroke-width:16;"/>
   </g>
   <g id="line2d_7">
    <path clip-path="url(#p49a992b9b2)" d="M 204.634167 35.510769 
L 204.634167 245.849231 
L 204.634167 140.68 
L 64.7925 140.68 
L 64.7925 245.849231 
L 64.7925 171.810092 
" style="fill:none;opacity:0.9352;stroke:#333333;stroke-linecap:round;stroke-width:16;"/>
   </g>
   <g id="line2d_8">
    <path clip-path="url(#p49a992b9b2)" d="M 512.285833 35.510769 
L 512.285833 171.810092 
" style="fill:none;opacity:0.1296;stroke:#800000;stroke-linecap:round;stroke-width:16;"/>
   </g>
   <g id="PathCollection_1">
    <defs>
     <path d="M 0 21.395255 
C 5.674088 21.395255 11.116544 19.140916 15.12873 15.12873 
C 19.140916 11.116544 21.395255 5.674088 21.395255 0 
C 21.395255 -5.674088 19.140916 -11.116544 15.12873 -15.12873 
C 11.116544 -19.140916 5.674088 -21.395255 0 -21.395255 
C -5.674088 -21.395255 -11.116544 -19.140916 -15.12873 -15.12873 
C -19.140916 -11.116544 -21.395255 -5.674088 -21.395255 0 
C -21.395255 5.674088 -19.140916 11.116544 -15.12873 15.12873 
C -11.116544 19.140916 -5.674088 21.395255 0 21.395255 
z
" id="m7a16a31137" style="stroke:#800000;"/>
    </defs>
    <g clip-path="url(#p49a992b9b2)">
     <use style="fill:#800000;stroke:#800000;" x="143.615908" xlink:href="#m7a16a31137" y="94.790649"/>
    </g>
   </g>
   <g id="PathCollection_2">
    <defs>
     <path d="M 0 27.26795 
C 7.231545 27.26795 14.167878 24.394827 19.281353 19.281353 
C 24.394827 14.167878 27.26795 7.231545 27.26795 0 
C 27.26795 -7.231545 24.394827 -14.167878 19.281353 -19.281353 
C 14.167878 -24.394827 7.231545 -27.26795 0 -27.26795 
C -7.231545 -27.26795 -14.167878 -24.394827 -19.281353 -19.281353 
C -24.394827 -14.167878 -27.26795 -7.231545 -27.26795 0 
C -27.26795 7.231545 -24.394827 14.167878 -19.281353 19.281353 
C -14.167878 24.394827 -7.231545 27.26795 0 27.26795 
z
" id="m05e721450e" style="stroke:#800000;"/>
    </defs>
    <g clip-path="url(#p49a992b9b2)">
     <use style="fill:#800000;stroke:#800000;" x="204.634167" xlink:href="#m05e721450e" y="150.439705"/>
    </g>
   </g>
   <g id="PathCollection_3">
    <defs>
     <path d="M 0 27.26795 
C 7.231545 27.26795 14.167878 24.394827 19.281353 19.281353 
C 24.394827 14.167878 27.26795 7.231545 27.26795 0 
C 27.26795 -7.231545 24.394827 -14.167878 19.281353 -19.281353 
C 14.167878 -24.394827 7.231545 -27.26795 0 -27.26795 
C -7.231545 -27.26795 -14.167878 -24.394827 -19.281353 -19.281353 
C -24.394827 -14.167878 -27.26795 -7.231545 -27.26795 0 
C -27.26795 7.231545 -24.394827 14.167878 -19.281353 19.281353 
C -14.167878 24.394827 -7.231545 27.26795 0 27.26795 
z
" id="mc95d6b9f32" style="stroke:#333333;"/>
    </defs>
    <g clip-path="url(#p49a992b9b2)">
     <use style="fill:#333333;stroke:#333333;" x="260.570833" xlink:href="#mc95d6b9f32" y="150.439705"/>
    </g>
   </g>
   <g id="PathCollection_4">
    <defs>
     <path d="M 0 19.086522 
C 5.061805 19.086522 9.916973 17.075446 13.496209 13.496209 
C 17.075446 9.916973 19.086522 5.061805 19.086522 0 
C 19.086522 -5.061805 17.075446 -9.916973 13.496209 -13.496209 
C 9.916973 -17.075446 5.061805 -19.086522 0 -19.086522 
C -5.061805 -19.086522 -9.916973 -17.075446 -13.496209 -13.496209 
C -17.075446 -9.916973 -19.086522 -5.061805 -19.086522 0 
C -19.086522 5.061805 -17.075446 9.916973 -13.496209 13.496209 
C -9.916973 17.075446 -5.061805 19.086522 0 19.086522 
z
" id="m0a5f623cbf" style="stroke:#800000;"/>
    </defs>
    <g clip-path="url(#p49a992b9b2)">
     <use style="fill:#800000;stroke:#800000;" x="64.7925" xlink:href="#m0a5f623cbf" y="126.851601"/>
    </g>
   </g>
   <g id="PathCollection_5">
    <defs>
     <path d="M 0 19.086522 
C 5.061805 19.086522 9.916973 17.075446 13.496209 13.496209 
C 17.075446 9.916973 19.086522 5.061805 19.086522 0 
C 19.086522 -5.061805 17.075446 -9.916973 13.496209 -13.496209 
C 9.916973 -17.075446 5.061805 -19.086522 0 -19.086522 
C -5.061805 -19.086522 -9.916973 -17.075446 -13.496209 -13.496209 
C -17.075446 -9.916973 -19.086522 -5.061805 -19.086522 0 
C -19.086522 5.061805 -17.075446 9.916973 -13.496209 13.496209 
C -9.916973 17.075446 -5.061805 19.086522 0 19.086522 
z
" id="me1556d765f" style="stroke:#333333;"/>
    </defs>
    <g clip-path="url(#p49a992b9b2)">
     <use style="fill:#333333;stroke:#333333;" x="316.5075" xlink:href="#me1556d765f" y="126.851601"/>
    </g>
   </g>
   <g id="PathCollection_6">
    <defs>
     <path d="M 0 18.395965 
C 4.878667 18.395965 9.558173 16.45765 13.007911 13.007911 
C 16.45765 9.558173 18.395965 4.878667 18.395965 0 
C 18.395965 -4.878667 16.45765 -9.558173 13.007911 -13.007911 
C 9.558173 -16.45765 4.878667 -18.395965 0 -18.395965 
C -4.878667 -18.395965 -9.558173 -16.45765 -13.007911 -13.007911 
C -16.45765 -9.558173 -18.395965 -4.878667 -18.395965 0 
C -18.395965 4.878667 -16.45765 9.558173 -13.007911 13.007911 
C -9.558173 16.45765 -4.878667 18.395965 0 18.395965 
z
" id="m7480723fe5" style="stroke:#800000;"/>
    </defs>
    <g clip-path="url(#p49a992b9b2)">
     <use style="fill:#800000;stroke:#800000;" x="64.7925" xlink:href="#m7480723fe5" y="171.810092"/>
    </g>
   </g>
   <g id="PathCollection_7">
    <defs>
     <path d="M 0 18.395965 
C 4.878667 18.395965 9.558173 16.45765 13.007911 13.007911 
C 16.45765 9.558173 18.395965 4.878667 18.395965 0 
C 18.395965 -4.878667 16.45765 -9.558173 13.007911 -13.007911 
C 9.558173 -16.45765 4.878667 -18.395965 0 -18.395965 
C -4.878667 -18.395965 -9.558173 -16.45765 -13.007911 -13.007911 
C -16.45765 -9.558173 -18.395965 -4.878667 -18.395965 0 
C -18.395965 4.878667 -16.45765 9.558173 -13.007911 13.007911 
C -9.558173 16.45765 -4.878667 18.395965 0 18.395965 
z
" id="m915cbc57d3" style="stroke:#333333;"/>
    </defs>
    <g clip-path="url(#p49a992b9b2)">
     <use style="fill:#333333;stroke:#333333;" x="512.285833" xlink:href="#m915cbc57d3" y="171.810092"/>
    </g>
   </g>
  </g>
 </g>
 <defs>
  <clipPath id="p49a992b9b2">
   <rect height="273.44" width="671.24" x="22.84" y="3.96"/>
  </clipPath>
 </defs>
</svg>
