<?xml version="1.0" encoding="utf-8" standalone="no"?>
<!DOCTYPE svg PUBLIC "-//W3C//DTD SVG 1.1//EN"
  "http://www.w3.org/Graphics/SVG/1.1/DTD/svg11.dtd">
<!-- Created with matplotlib (http://matplotlib.org/) -->
<svg height="294pt" version="1.1" viewBox="0 0 702 294" width="702pt" xmlns="http://www.w3.org/2000/svg" xmlns:xlink="http://www.w3.org/1999/xlink">
 <defs>
  <style type="text/css">
*{stroke-linecap:butt;stroke-linejoin:round;}
  </style>
 </defs>
 <g id="figure_1">
  <g id="patch_1">
   <path d="M 0 294.48 
L 702 294.48 
L 702 0 
L 0 0 
z
" style="fill:none;"/>
  </g>
  <g id="axes_1">
   <g id="line2d_1">
    <path clip-path="url(#p7c0970bef7)" d="M 64.7925 35.510769 
L 204.634167 140.68 
L 64.7925 245.849231 
L 64.7925 35.510769 
" style="fill:none;stroke:#800000;stroke-linecap:round;stroke-width:16;"/>
   </g>
   <g id="line2d_2">
    <path clip-path="url(#p7c0970bef7)" d="M 64.7925 35.510769 
L 64.7925 245.849231 
L 204.634167 140.68 
L 73.033049 41.708151 
" style="fill:none;opacity:0.990179;stroke:#333333;stroke-linecap:round;stroke-width:16;"/>
   </g>
   <g id="line2d_3">
    <path clip-path="url(#p7c0970bef7)" d="M 204.634167 35.510769 
L 204.634167 235.874695 
" style="fill:none;opacity:0.976289;stroke:#333333;stroke-linecap:round;stroke-width:16;"/>
   </g>
   <g id="line2d_4">
    <path clip-path="url(#p7c0970bef7)" d="M 260.570833 245.849231 
L 260.570833 235.874695 
" style="fill:none;opacity:0.013549;stroke:#800000;stroke-linecap:round;stroke-width:16;"/>
   </g>
   <g id="line2d_5">
    <path clip-path="url(#p7c0970bef7)" d="M 204.634167 35.510769 
L 204.634167 245.849231 
L 204.634167 140.68 
L 64.7925 35.510769 
L 64.7925 233.40869 
" style="fill:none;opacity:0.992607;stroke:#333333;stroke-linecap:round;stroke-width:16;"/>
   </g>
   <g id="line2d_6">
    <path clip-path="url(#p7c0970bef7)" d="M 316.5075 245.849231 
L 316.5075 233.40869 
" style="fill:none;opacity:0.013549;stroke:#800000;stroke-linecap:round;stroke-width:16;"/>
   </g>
   <g id="line2d_7">
    <path clip-path="url(#p7c0970bef7)" d="M 204.634167 35.510769 
L 204.634167 245.849231 
L 204.634167 140.68 
L 64.7925 140.68 
L 64.7925 245.849231 
L 64.7925 49.760106 
" style="fill:none;opacity:0.993226;stroke:#333333;stroke-linecap:round;stroke-width:16;"/>
   </g>
   <g id="line2d_8">
    <path clip-path="url(#p7c0970bef7)" d="M 512.285833 35.510769 
L 512.285833 49.760106 
" style="fill:none;opacity:0.013549;stroke:#800000;stroke-linecap:round;stroke-width:16;"/>
   </g>
   <g id="PathCollection_1">
    <defs>
     <path d="M 0 7.600672 
C 2.015722 7.600672 3.949156 6.799818 5.374487 5.374487 
C 6.799818 3.949156 7.600672 2.015722 7.600672 0 
C 7.600672 -2.015722 6.799818 -3.949156 5.374487 -5.374487 
C 3.949156 -6.799818 2.015722 -7.600672 0 -7.600672 
C -2.015722 -7.600672 -3.949156 -6.799818 -5.374487 -5.374487 
C -6.799818 -3.949156 -7.600672 -2.015722 -7.600672 0 
C -7.600672 2.015722 -6.799818 3.949156 -5.374487 5.374487 
C -3.949156 6.799818 -2.015722 7.600672 0 7.600672 
z
" id="mc930e39069" style="stroke:#800000;"/>
    </defs>
    <g clip-path="url(#p7c0970bef7)">
     <use style="fill:#800000;stroke:#800000;" x="73.033049" xlink:href="#mc930e39069" y="41.708151"/>
    </g>
   </g>
   <g id="PathCollection_2">
    <defs>
     <path d="M 0 11.641208 
C 3.087284 11.641208 6.048537 10.414617 8.231577 8.231577 
C 10.414617 6.048537 11.641208 3.087284 11.641208 0 
C 11.641208 -3.087284 10.414617 -6.048537 8.231577 -8.231577 
C 6.048537 -10.414617 3.087284 -11.641208 0 -11.641208 
C -3.087284 -11.641208 -6.048537 -10.414617 -8.231577 -8.231577 
C -10.414617 -6.048537 -11.641208 -3.087284 -11.641208 0 
C -11.641208 3.087284 -10.414617 6.048537 -8.231577 8.231577 
C -6.048537 10.414617 -3.087284 11.641208 0 11.641208 
z
" id="md2ce35312f" style="stroke:#800000;"/>
    </defs>
    <g clip-path="url(#p7c0970bef7)">
     <use style="fill:#800000;stroke:#800000;" x="204.634167" xlink:href="#md2ce35312f" y="235.874695"/>
    </g>
   </g>
   <g id="PathCollection_3">
    <defs>
     <path d="M 0 11.641208 
C 3.087284 11.641208 6.048537 10.414617 8.231577 8.231577 
C 10.414617 6.048537 11.641208 3.087284 11.641208 0 
C 11.641208 -3.087284 10.414617 -6.048537 8.231577 -8.231577 
C 6.048537 -10.414617 3.087284 -11.641208 0 -11.641208 
C -3.087284 -11.641208 -6.048537 -10.414617 -8.231577 -8.231577 
C -10.414617 -6.048537 -11.641208 -3.087284 -11.641208 0 
C -11.641208 3.087284 -10.414617 6.048537 -8.231577 8.231577 
C -6.048537 10.414617 -3.087284 11.641208 0 11.641208 
z
" id="ma272987b7b" style="stroke:#333333;"/>
    </defs>
    <g clip-path="url(#p7c0970bef7)">
     <use style="fill:#333333;stroke:#333333;" x="260.570833" xlink:href="#ma272987b7b" y="235.874695"/>
    </g>
   </g>
   <g id="PathCollection_4">
    <defs>
     <path d="M 0 6.610832 
C 1.753213 6.610832 3.434855 5.914273 4.674564 4.674564 
C 5.914273 3.434855 6.610832 1.753213 6.610832 0 
C 6.610832 -1.753213 5.914273 -3.434855 4.674564 -4.674564 
C 3.434855 -5.914273 1.753213 -6.610832 0 -6.610832 
C -1.753213 -6.610832 -3.434855 -5.914273 -4.674564 -4.674564 
C -5.914273 -3.434855 -6.610832 -1.753213 -6.610832 0 
C -6.610832 1.753213 -5.914273 3.434855 -4.674564 4.674564 
C -3.434855 5.914273 -1.753213 6.610832 0 6.610832 
z
" id="me172e87a2c" style="stroke:#800000;"/>
    </defs>
    <g clip-path="url(#p7c0970bef7)">
     <use style="fill:#800000;stroke:#800000;" x="64.7925" xlink:href="#me172e87a2c" y="233.40869"/>
    </g>
   </g>
   <g id="PathCollection_5">
    <defs>
     <path d="M 0 6.610832 
C 1.753213 6.610832 3.434855 5.914273 4.674564 4.674564 
C 5.914273 3.434855 6.610832 1.753213 6.610832 0 
C 6.610832 -1.753213 5.914273 -3.434855 4.674564 -4.674564 
C 3.434855 -5.914273 1.753213 -6.610832 0 -6.610832 
C -1.753213 -6.610832 -3.434855 -5.914273 -4.674564 -4.674564 
C -5.914273 -3.434855 -6.610832 -1.753213 -6.610832 0 
C -6.610832 1.753213 -5.914273 3.434855 -4.674564 4.674564 
C -3.434855 5.914273 -1.753213 6.610832 0 6.610832 
z
" id="m310dc4dbc7" style="stroke:#333333;"/>
    </defs>
    <g clip-path="url(#p7c0970bef7)">
     <use style="fill:#333333;stroke:#333333;" x="316.5075" xlink:href="#m310dc4dbc7" y="233.40869"/>
    </g>
   </g>
   <g id="PathCollection_6">
    <defs>
     <path d="M 0 6.332153 
C 1.679307 6.332153 3.290059 5.664957 4.477508 4.477508 
C 5.664957 3.290059 6.332153 1.679307 6.332153 0 
C 6.332153 -1.679307 5.664957 -3.290059 4.477508 -4.477508 
C 3.290059 -5.664957 1.679307 -6.332153 0 -6.332153 
C -1.679307 -6.332153 -3.290059 -5.664957 -4.477508 -4.477508 
C -5.664957 -3.290059 -6.332153 -1.679307 -6.332153 0 
C -6.332153 1.679307 -5.664957 3.290059 -4.477508 4.477508 
C -3.290059 5.664957 -1.679307 6.332153 0 6.332153 
z
" id="mb55f1f4c7b" style="stroke:#800000;"/>
    </defs>
    <g clip-path="url(#p7c0970bef7)">
     <use style="fill:#800000;stroke:#800000;" x="64.7925" xlink:href="#mb55f1f4c7b" y="49.760106"/>
    </g>
   </g>
   <g id="PathCollection_7">
    <defs>
     <path d="M 0 6.332153 
C 1.679307 6.332153 3.290059 5.664957 4.477508 4.477508 
C 5.664957 3.290059 6.332153 1.679307 6.332153 0 
C 6.332153 -1.679307 5.664957 -3.290059 4.477508 -4.477508 
C 3.290059 -5.664957 1.679307 -6.332153 0 -6.332153 
C -1.679307 -6.332153 -3.290059 -5.664957 -4.477508 -4.477508 
C -5.664957 -3.290059 -6.332153 -1.679307 -6.332153 0 
C -6.332153 1.679307 -5.664957 3.290059 -4.477508 4.477508 
C -3.290059 5.664957 -1.679307 6.332153 0 6.332153 
z
" id="me7d60a0665" style="stroke:#333333;"/>
    </defs>
    <g clip-path="url(#p7c0970bef7)">
     <use style="fill:#333333;stroke:#333333;" x="512.285833" xlink:href="#me7d60a0665" y="49.760106"/>
    </g>
   </g>
  </g>
 </g>
 <defs>
  <clipPath id="p7c0970bef7">
   <rect height="273.44" width="671.24" x="22.84" y="3.96"/>
  </clipPath>
 </defs>
</svg>
