<?xml version="1.0" encoding="utf-8" standalone="no"?>
<!DOCTYPE svg PUBLIC "-//W3C//DTD SVG 1.1//EN"
  "http://www.w3.org/Graphics/SVG/1.1/DTD/svg11.dtd">
<!-- Created with matplotlib (http://matplotlib.org/) -->
<svg height="294pt" version="1.1" viewBox="0 0 702 294" width="702pt" xmlns="http://www.w3.org/2000/svg" xmlns:xlink="http://www.w3.org/1999/xlink">
 <defs>
  <style type="text/css">
*{stroke-linecap:butt;stroke-linejoin:round;}
  </style>
 </defs>
 <g id="figure_1">
  <g id="patch_1">
   <path d="M 0 294.48 
L 702 294.48 
L 702 0 
L 0 0 
z
" style="fill:none;"/>
  </g>
  <g id="axes_1">
   <g id="line2d_1">
    <path clip-path="url(#pb154cdd3fe)" d="M 64.7925 35.510769 
L 204.634167 140.68 
L 64.7925 245.849231 
L 64.7925 35.510769 
" style="fill:none;stroke:#800000;stroke-linecap:round;stroke-width:16;"/>
   </g>
   <g id="line2d_2">
    <path clip-path="url(#pb154cdd3fe)" d="M 64.7925 35.510769 
L 64.7925 35.510769 
" style="fill:none;opacity:0.495;stroke:#333333;stroke-linecap:round;stroke-width:16;"/>
   </g>
   <g id="line2d_3">
    <path clip-path="url(#pb154cdd3fe)" d="M 204.634167 35.510769 
L 204.634167 35.510769 
" style="fill:none;opacity:0.495;stroke:#333333;stroke-linecap:round;stroke-width:16;"/>
   </g>
   <g id="line2d_4">
    <path clip-path="url(#pb154cdd3fe)" d="M 260.570833 245.849231 
L 260.570833 35.510769 
" style="fill:none;opacity:0.782163;stroke:#800000;stroke-linecap:round;stroke-width:16;"/>
   </g>
   <g id="line2d_5">
    <path clip-path="url(#pb154cdd3fe)" d="M 204.634167 35.510769 
L 204.634167 158.688799 
" style="fill:none;opacity:0.573202;stroke:#333333;stroke-linecap:round;stroke-width:16;"/>
   </g>
   <g id="line2d_6">
    <path clip-path="url(#pb154cdd3fe)" d="M 316.5075 245.849231 
L 316.5075 35.510769 
L 456.349167 140.68 
L 456.349167 245.849231 
L 456.349167 158.688799 
" style="fill:none;opacity:0.782163;stroke:#800000;stroke-linecap:round;stroke-width:16;"/>
   </g>
   <g id="line2d_7">
    <path clip-path="url(#pb154cdd3fe)" d="M 204.634167 35.510769 
L 204.634167 245.849231 
L 204.634167 236.469902 
" style="fill:none;opacity:0.608918;stroke:#333333;stroke-linecap:round;stroke-width:16;"/>
   </g>
   <g id="line2d_8">
    <path clip-path="url(#pb154cdd3fe)" d="M 512.285833 35.510769 
L 512.285833 245.849231 
L 512.285833 140.68 
L 652.1275 140.68 
L 652.1275 236.469902 
" style="fill:none;opacity:0.782163;stroke:#800000;stroke-linecap:round;stroke-width:16;"/>
   </g>
   <g id="PathCollection_1">
    <defs>
     <path d="M 0 19.362613 
C 5.135025 19.362613 10.060424 17.322446 13.691435 13.691435 
C 17.322446 10.060424 19.362613 5.135025 19.362613 0 
C 19.362613 -5.135025 17.322446 -10.060424 13.691435 -13.691435 
C 10.060424 -17.322446 5.135025 -19.362613 0 -19.362613 
C -5.135025 -19.362613 -10.060424 -17.322446 -13.691435 -13.691435 
C -17.322446 -10.060424 -19.362613 -5.135025 -19.362613 0 
C -19.362613 5.135025 -17.322446 10.060424 -13.691435 13.691435 
C -10.060424 17.322446 -5.135025 19.362613 0 19.362613 
z
" id="m40272c4e04" style="stroke:#800000;"/>
    </defs>
    <g clip-path="url(#pb154cdd3fe)">
     <use style="fill:#800000;stroke:#800000;" x="204.634167" xlink:href="#m40272c4e04" y="158.688799"/>
    </g>
   </g>
   <g id="PathCollection_2">
    <defs>
     <path d="M 0 19.362613 
C 5.135025 19.362613 10.060424 17.322446 13.691435 13.691435 
C 17.322446 10.060424 19.362613 5.135025 19.362613 0 
C 19.362613 -5.135025 17.322446 -10.060424 13.691435 -13.691435 
C 10.060424 -17.322446 5.135025 -19.362613 0 -19.362613 
C -5.135025 -19.362613 -10.060424 -17.322446 -13.691435 -13.691435 
C -17.322446 -10.060424 -19.362613 -5.135025 -19.362613 0 
C -19.362613 5.135025 -17.322446 10.060424 -13.691435 13.691435 
C -10.060424 17.322446 -5.135025 19.362613 0 19.362613 
z
" id="m27fe9d6b95" style="stroke:#333333;"/>
    </defs>
    <g clip-path="url(#pb154cdd3fe)">
     <use style="fill:#333333;stroke:#333333;" x="456.349167" xlink:href="#m27fe9d6b95" y="158.688799"/>
    </g>
   </g>
   <g id="PathCollection_3">
    <defs>
     <path d="M 0 22.60866 
C 5.995887 22.60866 11.747005 20.226469 15.986737 15.986737 
C 20.226469 11.747005 22.60866 5.995887 22.60866 0 
C 22.60866 -5.995887 20.226469 -11.747005 15.986737 -15.986737 
C 11.747005 -20.226469 5.995887 -22.60866 0 -22.60866 
C -5.995887 -22.60866 -11.747005 -20.226469 -15.986737 -15.986737 
C -20.226469 -11.747005 -22.60866 -5.995887 -22.60866 0 
C -22.60866 5.995887 -20.226469 11.747005 -15.986737 15.986737 
C -11.747005 20.226469 -5.995887 22.60866 0 22.60866 
z
" id="m8a30cf5ec6" style="stroke:#800000;"/>
    </defs>
    <g clip-path="url(#pb154cdd3fe)">
     <use style="fill:#800000;stroke:#800000;" x="204.634167" xlink:href="#m8a30cf5ec6" y="236.469902"/>
    </g>
   </g>
   <g id="PathCollection_4">
    <defs>
     <path d="M 0 22.60866 
C 5.995887 22.60866 11.747005 20.226469 15.986737 15.986737 
C 20.226469 11.747005 22.60866 5.995887 22.60866 0 
C 22.60866 -5.995887 20.226469 -11.747005 15.986737 -15.986737 
C 11.747005 -20.226469 5.995887 -22.60866 0 -22.60866 
C -5.995887 -22.60866 -11.747005 -20.226469 -15.986737 -15.986737 
C -20.226469 -11.747005 -22.60866 -5.995887 -22.60866 0 
C -22.60866 5.995887 -20.226469 11.747005 -15.986737 15.986737 
C -11.747005 20.226469 -5.995887 22.60866 0 22.60866 
z
" id="me564b11e3c" style="stroke:#333333;"/>
    </defs>
    <g clip-path="url(#pb154cdd3fe)">
     <use style="fill:#333333;stroke:#333333;" x="652.1275" xlink:href="#me564b11e3c" y="236.469902"/>
    </g>
   </g>
  </g>
 </g>
 <defs>
  <clipPath id="pb154cdd3fe">
   <rect height="273.44" width="671.24" x="22.84" y="3.96"/>
  </clipPath>
 </defs>
</svg>
