<?xml version="1.0" encoding="utf-8" standalone="no"?>
<!DOCTYPE svg PUBLIC "-//W3C//DTD SVG 1.1//EN"
  "http://www.w3.org/Graphics/SVG/1.1/DTD/svg11.dtd">
<!-- Created with matplotlib (http://matplotlib.org/) -->
<svg height="294pt" version="1.1" viewBox="0 0 702 294" width="702pt" xmlns="http://www.w3.org/2000/svg" xmlns:xlink="http://www.w3.org/1999/xlink">
 <defs>
  <style type="text/css">
*{stroke-linecap:butt;stroke-linejoin:round;}
  </style>
 </defs>
 <g id="figure_1">
  <g id="patch_1">
   <path d="M 0 294.48 
L 702 294.48 
L 702 0 
L 0 0 
z
" style="fill:none;"/>
  </g>
  <g id="axes_1">
   <g id="line2d_1">
    <path clip-path="url(#pa7699e4157)" d="M 64.7925 35.510769 
L 204.634167 140.68 
L 64.7925 245.849231 
L 64.7925 35.510769 
" style="fill:none;stroke:#800000;stroke-linecap:round;stroke-width:16;"/>
   </g>
   <g id="line2d_2">
    <path clip-path="url(#pa7699e4157)" d="M 64.7925 35.510769 
L 64.7925 245.849231 
L 203.40957 141.600969 
" style="fill:none;opacity:0.831874;stroke:#333333;stroke-linecap:round;stroke-width:16;"/>
   </g>
   <g id="line2d_3">
    <path clip-path="url(#pa7699e4157)" d="M 204.634167 35.510769 
L 204.634167 75.099631 
" style="fill:none;opacity:0.594108;stroke:#333333;stroke-linecap:round;stroke-width:16;"/>
   </g>
   <g id="line2d_4">
    <path clip-path="url(#pa7699e4157)" d="M 260.570833 245.849231 
L 260.570833 75.099631 
" style="fill:none;opacity:0.231939;stroke:#800000;stroke-linecap:round;stroke-width:16;"/>
   </g>
   <g id="line2d_5">
    <path clip-path="url(#pa7699e4157)" d="M 204.634167 35.510769 
L 204.634167 245.849231 
L 204.634167 140.68 
L 66.538089 36.823556 
" style="fill:none;opacity:0.87344;stroke:#333333;stroke-linecap:round;stroke-width:16;"/>
   </g>
   <g id="line2d_6">
    <path clip-path="url(#pa7699e4157)" d="M 316.5075 245.849231 
L 316.5075 35.510769 
L 318.253089 36.823556 
" style="fill:none;opacity:0.231939;stroke:#800000;stroke-linecap:round;stroke-width:16;"/>
   </g>
   <g id="line2d_7">
    <path clip-path="url(#pa7699e4157)" d="M 204.634167 35.510769 
L 204.634167 245.849231 
L 204.634167 140.68 
L 64.7925 140.68 
L 64.7925 229.054462 
" style="fill:none;opacity:0.884031;stroke:#333333;stroke-linecap:round;stroke-width:16;"/>
   </g>
   <g id="line2d_8">
    <path clip-path="url(#pa7699e4157)" d="M 512.285833 35.510769 
L 512.285833 245.849231 
L 512.285833 229.054462 
" style="fill:none;opacity:0.231939;stroke:#800000;stroke-linecap:round;stroke-width:16;"/>
   </g>
   <g id="PathCollection_1">
    <defs>
     <path d="M 0 25.87586 
C 6.862358 25.87586 13.444576 23.149416 18.296996 18.296996 
C 23.149416 13.444576 25.87586 6.862358 25.87586 0 
C 25.87586 -6.862358 23.149416 -13.444576 18.296996 -18.296996 
C 13.444576 -23.149416 6.862358 -25.87586 0 -25.87586 
C -6.862358 -25.87586 -13.444576 -23.149416 -18.296996 -18.296996 
C -23.149416 -13.444576 -25.87586 -6.862358 -25.87586 0 
C -25.87586 6.862358 -23.149416 13.444576 -18.296996 18.296996 
C -13.444576 23.149416 -6.862358 25.87586 0 25.87586 
z
" id="m6741cb16a8" style="stroke:#800000;"/>
    </defs>
    <g clip-path="url(#pa7699e4157)">
     <use style="fill:#800000;stroke:#800000;" x="203.40957" xlink:href="#m6741cb16a8" y="141.600969"/>
    </g>
   </g>
   <g id="PathCollection_2">
    <defs>
     <path d="M 0 21.409587 
C 5.677889 21.409587 11.12399 19.153738 15.138864 15.138864 
C 19.153738 11.12399 21.409587 5.677889 21.409587 0 
C 21.409587 -5.677889 19.153738 -11.12399 15.138864 -15.138864 
C 11.12399 -19.153738 5.677889 -21.409587 0 -21.409587 
C -5.677889 -21.409587 -11.12399 -19.153738 -15.138864 -15.138864 
C -19.153738 -11.12399 -21.409587 -5.677889 -21.409587 0 
C -21.409587 5.677889 -19.153738 11.12399 -15.138864 15.138864 
C -11.12399 19.153738 -5.677889 21.409587 0 21.409587 
z
" id="m2b2943c722" style="stroke:#800000;"/>
    </defs>
    <g clip-path="url(#pa7699e4157)">
     <use style="fill:#800000;stroke:#800000;" x="204.634167" xlink:href="#m2b2943c722" y="75.099631"/>
    </g>
   </g>
   <g id="PathCollection_3">
    <defs>
     <path d="M 0 21.409587 
C 5.677889 21.409587 11.12399 19.153738 15.138864 15.138864 
C 19.153738 11.12399 21.409587 5.677889 21.409587 0 
C 21.409587 -5.677889 19.153738 -11.12399 15.138864 -15.138864 
C 11.12399 -19.153738 5.677889 -21.409587 0 -21.409587 
C -5.677889 -21.409587 -11.12399 -19.153738 -15.138864 -15.138864 
C -19.153738 -11.12399 -21.409587 -5.677889 -21.409587 0 
C -21.409587 5.677889 -19.153738 11.12399 -15.138864 15.138864 
C -11.12399 19.153738 -5.677889 21.409587 0 21.409587 
z
" id="m70d93e693e" style="stroke:#333333;"/>
    </defs>
    <g clip-path="url(#pa7699e4157)">
     <use style="fill:#333333;stroke:#333333;" x="260.570833" xlink:href="#m70d93e693e" y="75.099631"/>
    </g>
   </g>
   <g id="PathCollection_4">
    <defs>
     <path d="M 0 23.814948 
C 6.315798 23.814948 12.373768 21.305655 16.839711 16.839711 
C 21.305655 12.373768 23.814948 6.315798 23.814948 0 
C 23.814948 -6.315798 21.305655 -12.373768 16.839711 -16.839711 
C 12.373768 -21.305655 6.315798 -23.814948 0 -23.814948 
C -6.315798 -23.814948 -12.373768 -21.305655 -16.839711 -16.839711 
C -21.305655 -12.373768 -23.814948 -6.315798 -23.814948 0 
C -23.814948 6.315798 -21.305655 12.373768 -16.839711 16.839711 
C -12.373768 21.305655 -6.315798 23.814948 0 23.814948 
z
" id="m318d26e659" style="stroke:#800000;"/>
    </defs>
    <g clip-path="url(#pa7699e4157)">
     <use style="fill:#800000;stroke:#800000;" x="66.538089" xlink:href="#m318d26e659" y="36.823556"/>
    </g>
   </g>
   <g id="PathCollection_5">
    <defs>
     <path d="M 0 23.814948 
C 6.315798 23.814948 12.373768 21.305655 16.839711 16.839711 
C 21.305655 12.373768 23.814948 6.315798 23.814948 0 
C 23.814948 -6.315798 21.305655 -12.373768 16.839711 -16.839711 
C 12.373768 -21.305655 6.315798 -23.814948 0 -23.814948 
C -6.315798 -23.814948 -12.373768 -21.305655 -16.839711 -16.839711 
C -21.305655 -12.373768 -23.814948 -6.315798 -23.814948 0 
C -23.814948 6.315798 -21.305655 12.373768 -16.839711 16.839711 
C -12.373768 21.305655 -6.315798 23.814948 0 23.814948 
z
" id="m310e28f766" style="stroke:#333333;"/>
    </defs>
    <g clip-path="url(#pa7699e4157)">
     <use style="fill:#333333;stroke:#333333;" x="318.253089" xlink:href="#m310e28f766" y="36.823556"/>
    </g>
   </g>
   <g id="PathCollection_6">
    <defs>
     <path d="M 0 23.117725 
C 6.130892 23.117725 12.011504 20.681895 16.3467 16.3467 
C 20.681895 12.011504 23.117725 6.130892 23.117725 0 
C 23.117725 -6.130892 20.681895 -12.011504 16.3467 -16.3467 
C 12.011504 -20.681895 6.130892 -23.117725 0 -23.117725 
C -6.130892 -23.117725 -12.011504 -20.681895 -16.3467 -16.3467 
C -20.681895 -12.011504 -23.117725 -6.130892 -23.117725 0 
C -23.117725 6.130892 -20.681895 12.011504 -16.3467 16.3467 
C -12.011504 20.681895 -6.130892 23.117725 0 23.117725 
z
" id="mba86084722" style="stroke:#800000;"/>
    </defs>
    <g clip-path="url(#pa7699e4157)">
     <use style="fill:#800000;stroke:#800000;" x="64.7925" xlink:href="#mba86084722" y="229.054462"/>
    </g>
   </g>
   <g id="PathCollection_7">
    <defs>
     <path d="M 0 23.117725 
C 6.130892 23.117725 12.011504 20.681895 16.3467 16.3467 
C 20.681895 12.011504 23.117725 6.130892 23.117725 0 
C 23.117725 -6.130892 20.681895 -12.011504 16.3467 -16.3467 
C 12.011504 -20.681895 6.130892 -23.117725 0 -23.117725 
C -6.130892 -23.117725 -12.011504 -20.681895 -16.3467 -16.3467 
C -20.681895 -12.011504 -23.117725 -6.130892 -23.117725 0 
C -23.117725 6.130892 -20.681895 12.011504 -16.3467 16.3467 
C -12.011504 20.681895 -6.130892 23.117725 0 23.117725 
z
" id="mf61b079a9f" style="stroke:#333333;"/>
    </defs>
    <g clip-path="url(#pa7699e4157)">
     <use style="fill:#333333;stroke:#333333;" x="512.285833" xlink:href="#mf61b079a9f" y="229.054462"/>
    </g>
   </g>
  </g>
 </g>
 <defs>
  <clipPath id="pa7699e4157">
   <rect height="273.44" width="671.24" x="22.84" y="3.96"/>
  </clipPath>
 </defs>
</svg>
