<?xml version="1.0" encoding="utf-8" standalone="no"?>
<!DOCTYPE svg PUBLIC "-//W3C//DTD SVG 1.1//EN"
  "http://www.w3.org/Graphics/SVG/1.1/DTD/svg11.dtd">
<!-- Created with matplotlib (http://matplotlib.org/) -->
<svg height="294pt" version="1.1" viewBox="0 0 702 294" width="702pt" xmlns="http://www.w3.org/2000/svg" xmlns:xlink="http://www.w3.org/1999/xlink">
 <defs>
  <style type="text/css">
*{stroke-linecap:butt;stroke-linejoin:round;}
  </style>
 </defs>
 <g id="figure_1">
  <g id="patch_1">
   <path d="M 0 294.48 
L 702 294.48 
L 702 0 
L 0 0 
z
" style="fill:none;"/>
  </g>
  <g id="axes_1">
   <g id="line2d_1">
    <path clip-path="url(#p9de85af523)" d="M 64.7925 35.510769 
L 204.634167 140.68 
L 64.7925 245.849231 
L 64.7925 35.510769 
" style="fill:none;stroke:#800000;stroke-linecap:round;stroke-width:16;"/>
   </g>
   <g id="line2d_2">
    <path clip-path="url(#p9de85af523)" d="M 64.7925 35.510769 
L 64.7925 245.849231 
L 204.634167 140.68 
L 68.53087 38.322246 
" style="fill:none;opacity:0.995545;stroke:#333333;stroke-linecap:round;stroke-width:16;"/>
   </g>
   <g id="line2d_3">
    <path clip-path="url(#p9de85af523)" d="M 204.634167 35.510769 
L 204.634167 241.324228 
" style="fill:none;opacity:0.989244;stroke:#333333;stroke-linecap:round;stroke-width:16;"/>
   </g>
   <g id="line2d_4">
    <path clip-path="url(#p9de85af523)" d="M 260.570833 245.849231 
L 260.570833 241.324228 
" style="fill:none;opacity:0.006147;stroke:#800000;stroke-linecap:round;stroke-width:16;"/>
   </g>
   <g id="line2d_5">
    <path clip-path="url(#p9de85af523)" d="M 204.634167 35.510769 
L 204.634167 245.849231 
L 204.634167 140.68 
L 64.7925 35.510769 
L 64.7925 240.205511 
" style="fill:none;opacity:0.996646;stroke:#333333;stroke-linecap:round;stroke-width:16;"/>
   </g>
   <g id="line2d_6">
    <path clip-path="url(#p9de85af523)" d="M 316.5075 245.849231 
L 316.5075 240.205511 
" style="fill:none;opacity:0.006147;stroke:#800000;stroke-linecap:round;stroke-width:16;"/>
   </g>
   <g id="line2d_7">
    <path clip-path="url(#p9de85af523)" d="M 204.634167 35.510769 
L 204.634167 245.849231 
L 204.634167 140.68 
L 64.7925 140.68 
L 64.7925 245.849231 
L 64.7925 41.975059 
" style="fill:none;opacity:0.996927;stroke:#333333;stroke-linecap:round;stroke-width:16;"/>
   </g>
   <g id="line2d_8">
    <path clip-path="url(#p9de85af523)" d="M 512.285833 35.510769 
L 512.285833 41.975059 
" style="fill:none;opacity:0.006147;stroke:#800000;stroke-linecap:round;stroke-width:16;"/>
   </g>
   <g id="PathCollection_1">
    <defs>
     <path d="M 0 5.147297 
C 1.365079 5.147297 2.674432 4.604945 3.639688 3.639688 
C 4.604945 2.674432 5.147297 1.365079 5.147297 0 
C 5.147297 -1.365079 4.604945 -2.674432 3.639688 -3.639688 
C 2.674432 -4.604945 1.365079 -5.147297 0 -5.147297 
C -1.365079 -5.147297 -2.674432 -4.604945 -3.639688 -3.639688 
C -4.604945 -2.674432 -5.147297 -1.365079 -5.147297 0 
C -5.147297 1.365079 -4.604945 2.674432 -3.639688 3.639688 
C -2.674432 4.604945 -1.365079 5.147297 0 5.147297 
z
" id="mcb7ec3e5d4" style="stroke:#800000;"/>
    </defs>
    <g clip-path="url(#p9de85af523)">
     <use style="fill:#800000;stroke:#800000;" x="68.53087" xlink:href="#mcb7ec3e5d4" y="38.322246"/>
    </g>
   </g>
   <g id="PathCollection_2">
    <defs>
     <path d="M 0 7.946726 
C 2.107496 7.946726 4.128959 7.109409 5.619184 5.619184 
C 7.109409 4.128959 7.946726 2.107496 7.946726 0 
C 7.946726 -2.107496 7.109409 -4.128959 5.619184 -5.619184 
C 4.128959 -7.109409 2.107496 -7.946726 0 -7.946726 
C -2.107496 -7.946726 -4.128959 -7.109409 -5.619184 -5.619184 
C -7.109409 -4.128959 -7.946726 -2.107496 -7.946726 0 
C -7.946726 2.107496 -7.109409 4.128959 -5.619184 5.619184 
C -4.128959 7.109409 -2.107496 7.946726 0 7.946726 
z
" id="m29281006bd" style="stroke:#800000;"/>
    </defs>
    <g clip-path="url(#p9de85af523)">
     <use style="fill:#800000;stroke:#800000;" x="204.634167" xlink:href="#m29281006bd" y="241.324228"/>
    </g>
   </g>
   <g id="PathCollection_3">
    <defs>
     <path d="M 0 7.946726 
C 2.107496 7.946726 4.128959 7.109409 5.619184 5.619184 
C 7.109409 4.128959 7.946726 2.107496 7.946726 0 
C 7.946726 -2.107496 7.109409 -4.128959 5.619184 -5.619184 
C 4.128959 -7.109409 2.107496 -7.946726 0 -7.946726 
C -2.107496 -7.946726 -4.128959 -7.109409 -5.619184 -5.619184 
C -7.109409 -4.128959 -7.946726 -2.107496 -7.946726 0 
C -7.946726 2.107496 -7.109409 4.128959 -5.619184 5.619184 
C -4.128959 7.109409 -2.107496 7.946726 0 7.946726 
z
" id="ma531a78c7c" style="stroke:#333333;"/>
    </defs>
    <g clip-path="url(#p9de85af523)">
     <use style="fill:#333333;stroke:#333333;" x="260.570833" xlink:href="#ma531a78c7c" y="241.324228"/>
    </g>
   </g>
   <g id="PathCollection_4">
    <defs>
     <path d="M 0 4.470875 
C 1.18569 4.470875 2.322976 3.999795 3.161386 3.161386 
C 3.999795 2.322976 4.470875 1.18569 4.470875 0 
C 4.470875 -1.18569 3.999795 -2.322976 3.161386 -3.161386 
C 2.322976 -3.999795 1.18569 -4.470875 0 -4.470875 
C -1.18569 -4.470875 -2.322976 -3.999795 -3.161386 -3.161386 
C -3.999795 -2.322976 -4.470875 -1.18569 -4.470875 0 
C -4.470875 1.18569 -3.999795 2.322976 -3.161386 3.161386 
C -2.322976 3.999795 -1.18569 4.470875 0 4.470875 
z
" id="m2307a4043d" style="stroke:#800000;"/>
    </defs>
    <g clip-path="url(#p9de85af523)">
     <use style="fill:#800000;stroke:#800000;" x="64.7925" xlink:href="#m2307a4043d" y="240.205511"/>
    </g>
   </g>
   <g id="PathCollection_5">
    <defs>
     <path d="M 0 4.470875 
C 1.18569 4.470875 2.322976 3.999795 3.161386 3.161386 
C 3.999795 2.322976 4.470875 1.18569 4.470875 0 
C 4.470875 -1.18569 3.999795 -2.322976 3.161386 -3.161386 
C 2.322976 -3.999795 1.18569 -4.470875 0 -4.470875 
C -1.18569 -4.470875 -2.322976 -3.999795 -3.161386 -3.161386 
C -3.999795 -2.322976 -4.470875 -1.18569 -4.470875 0 
C -4.470875 1.18569 -3.999795 2.322976 -3.161386 3.161386 
C -2.322976 3.999795 -1.18569 4.470875 0 4.470875 
z
" id="mdd0cc8e422" style="stroke:#333333;"/>
    </defs>
    <g clip-path="url(#p9de85af523)">
     <use style="fill:#333333;stroke:#333333;" x="316.5075" xlink:href="#mdd0cc8e422" y="240.205511"/>
    </g>
   </g>
   <g id="PathCollection_6">
    <defs>
     <path d="M 0 4.280927 
C 1.135315 4.280927 2.224284 3.829862 3.027073 3.027073 
C 3.829862 2.224284 4.280927 1.135315 4.280927 0 
C 4.280927 -1.135315 3.829862 -2.224284 3.027073 -3.027073 
C 2.224284 -3.829862 1.135315 -4.280927 0 -4.280927 
C -1.135315 -4.280927 -2.224284 -3.829862 -3.027073 -3.027073 
C -3.829862 -2.224284 -4.280927 -1.135315 -4.280927 0 
C -4.280927 1.135315 -3.829862 2.224284 -3.027073 3.027073 
C -2.224284 3.829862 -1.135315 4.280927 0 4.280927 
z
" id="m7385eaaa9b" style="stroke:#800000;"/>
    </defs>
    <g clip-path="url(#p9de85af523)">
     <use style="fill:#800000;stroke:#800000;" x="64.7925" xlink:href="#m7385eaaa9b" y="41.975059"/>
    </g>
   </g>
   <g id="PathCollection_7">
    <defs>
     <path d="M 0 4.280927 
C 1.135315 4.280927 2.224284 3.829862 3.027073 3.027073 
C 3.829862 2.224284 4.280927 1.135315 4.280927 0 
C 4.280927 -1.135315 3.829862 -2.224284 3.027073 -3.027073 
C 2.224284 -3.829862 1.135315 -4.280927 0 -4.280927 
C -1.135315 -4.280927 -2.224284 -3.829862 -3.027073 -3.027073 
C -3.829862 -2.224284 -4.280927 -1.135315 -4.280927 0 
C -4.280927 1.135315 -3.829862 2.224284 -3.027073 3.027073 
C -2.224284 3.829862 -1.135315 4.280927 0 4.280927 
z
" id="m7c64b258d6" style="stroke:#333333;"/>
    </defs>
    <g clip-path="url(#p9de85af523)">
     <use style="fill:#333333;stroke:#333333;" x="512.285833" xlink:href="#m7c64b258d6" y="41.975059"/>
    </g>
   </g>
  </g>
 </g>
 <defs>
  <clipPath id="p9de85af523">
   <rect height="273.44" width="671.24" x="22.84" y="3.96"/>
  </clipPath>
 </defs>
</svg>
