<?xml version="1.0" encoding="utf-8" standalone="no"?>
<!DOCTYPE svg PUBLIC "-//W3C//DTD SVG 1.1//EN"
  "http://www.w3.org/Graphics/SVG/1.1/DTD/svg11.dtd">
<!-- Created with matplotlib (http://matplotlib.org/) -->
<svg height="294pt" version="1.1" viewBox="0 0 702 294" width="702pt" xmlns="http://www.w3.org/2000/svg" xmlns:xlink="http://www.w3.org/1999/xlink">
 <defs>
  <style type="text/css">
*{stroke-linecap:butt;stroke-linejoin:round;}
  </style>
 </defs>
 <g id="figure_1">
  <g id="patch_1">
   <path d="M 0 294.48 
L 702 294.48 
L 702 0 
L 0 0 
z
" style="fill:none;"/>
  </g>
  <g id="axes_1">
   <g id="line2d_1">
    <path clip-path="url(#p385b341d74)" d="M 64.7925 35.510769 
L 204.634167 140.68 
L 64.7925 245.849231 
L 64.7925 35.510769 
" style="fill:none;stroke:#800000;stroke-linecap:round;stroke-width:16;"/>
   </g>
   <g id="line2d_2">
    <path clip-path="url(#p385b341d74)" d="M 64.7925 35.510769 
L 64.7925 245.849231 
L 204.634167 140.68 
L 95.747328 58.790637 
" style="fill:none;opacity:0.963107;stroke:#333333;stroke-linecap:round;stroke-width:16;"/>
   </g>
   <g id="line2d_3">
    <path clip-path="url(#p385b341d74)" d="M 204.634167 35.510769 
L 204.634167 208.38085 
" style="fill:none;opacity:0.910933;stroke:#333333;stroke-linecap:round;stroke-width:16;"/>
   </g>
   <g id="line2d_4">
    <path clip-path="url(#p385b341d74)" d="M 260.570833 245.849231 
L 260.570833 208.38085 
" style="fill:none;opacity:0.050895;stroke:#800000;stroke-linecap:round;stroke-width:16;"/>
   </g>
   <g id="line2d_5">
    <path clip-path="url(#p385b341d74)" d="M 204.634167 35.510769 
L 204.634167 245.849231 
L 204.634167 140.68 
L 64.7925 35.510769 
L 64.7925 199.117539 
" style="fill:none;opacity:0.972228;stroke:#333333;stroke-linecap:round;stroke-width:16;"/>
   </g>
   <g id="line2d_6">
    <path clip-path="url(#p385b341d74)" d="M 316.5075 245.849231 
L 316.5075 199.117539 
" style="fill:none;opacity:0.050895;stroke:#800000;stroke-linecap:round;stroke-width:16;"/>
   </g>
   <g id="line2d_7">
    <path clip-path="url(#p385b341d74)" d="M 204.634167 35.510769 
L 204.634167 245.849231 
L 204.634167 140.68 
L 64.7925 140.68 
L 64.7925 245.849231 
L 64.7925 89.037028 
" style="fill:none;opacity:0.974552;stroke:#333333;stroke-linecap:round;stroke-width:16;"/>
   </g>
   <g id="line2d_8">
    <path clip-path="url(#p385b341d74)" d="M 512.285833 35.510769 
L 512.285833 89.037028 
" style="fill:none;opacity:0.050895;stroke:#800000;stroke-linecap:round;stroke-width:16;"/>
   </g>
   <g id="PathCollection_1">
    <defs>
     <path d="M 0 14.318638 
C 3.797347 14.318638 7.439676 12.809936 10.124806 10.124806 
C 12.809936 7.439676 14.318638 3.797347 14.318638 0 
C 14.318638 -3.797347 12.809936 -7.439676 10.124806 -10.124806 
C 7.439676 -12.809936 3.797347 -14.318638 0 -14.318638 
C -3.797347 -14.318638 -7.439676 -12.809936 -10.124806 -10.124806 
C -12.809936 -7.439676 -14.318638 -3.797347 -14.318638 0 
C -14.318638 3.797347 -12.809936 7.439676 -10.124806 10.124806 
C -7.439676 12.809936 -3.797347 14.318638 0 14.318638 
z
" id="mb290f208ca" style="stroke:#800000;"/>
    </defs>
    <g clip-path="url(#p385b341d74)">
     <use style="fill:#800000;stroke:#800000;" x="95.747328" xlink:href="#mb290f208ca" y="58.790637"/>
    </g>
   </g>
   <g id="PathCollection_2">
    <defs>
     <path d="M 0 20.957251 
C 5.557928 20.957251 10.888966 18.749063 14.819014 14.819014 
C 18.749063 10.888966 20.957251 5.557928 20.957251 0 
C 20.957251 -5.557928 18.749063 -10.888966 14.819014 -14.819014 
C 10.888966 -18.749063 5.557928 -20.957251 0 -20.957251 
C -5.557928 -20.957251 -10.888966 -18.749063 -14.819014 -14.819014 
C -18.749063 -10.888966 -20.957251 -5.557928 -20.957251 0 
C -20.957251 5.557928 -18.749063 10.888966 -14.819014 14.819014 
C -10.888966 18.749063 -5.557928 20.957251 0 20.957251 
z
" id="mf8f2a16d4e" style="stroke:#800000;"/>
    </defs>
    <g clip-path="url(#p385b341d74)">
     <use style="fill:#800000;stroke:#800000;" x="204.634167" xlink:href="#mf8f2a16d4e" y="208.38085"/>
    </g>
   </g>
   <g id="PathCollection_3">
    <defs>
     <path d="M 0 20.957251 
C 5.557928 20.957251 10.888966 18.749063 14.819014 14.819014 
C 18.749063 10.888966 20.957251 5.557928 20.957251 0 
C 20.957251 -5.557928 18.749063 -10.888966 14.819014 -14.819014 
C 10.888966 -18.749063 5.557928 -20.957251 0 -20.957251 
C -5.557928 -20.957251 -10.888966 -18.749063 -14.819014 -14.819014 
C -18.749063 -10.888966 -20.957251 -5.557928 -20.957251 0 
C -20.957251 5.557928 -18.749063 10.888966 -14.819014 14.819014 
C -10.888966 18.749063 -5.557928 20.957251 0 20.957251 
z
" id="m655a73cbf2" style="stroke:#333333;"/>
    </defs>
    <g clip-path="url(#p385b341d74)">
     <use style="fill:#333333;stroke:#333333;" x="260.570833" xlink:href="#m655a73cbf2" y="208.38085"/>
    </g>
   </g>
   <g id="PathCollection_4">
    <defs>
     <path d="M 0 12.544924 
C 3.326953 12.544924 6.51809 11.223111 8.870601 8.870601 
C 11.223111 6.51809 12.544924 3.326953 12.544924 0 
C 12.544924 -3.326953 11.223111 -6.51809 8.870601 -8.870601 
C 6.51809 -11.223111 3.326953 -12.544924 0 -12.544924 
C -3.326953 -12.544924 -6.51809 -11.223111 -8.870601 -8.870601 
C -11.223111 -6.51809 -12.544924 -3.326953 -12.544924 0 
C -12.544924 3.326953 -11.223111 6.51809 -8.870601 8.870601 
C -6.51809 11.223111 -3.326953 12.544924 0 12.544924 
z
" id="m8b1c265ce5" style="stroke:#800000;"/>
    </defs>
    <g clip-path="url(#p385b341d74)">
     <use style="fill:#800000;stroke:#800000;" x="64.7925" xlink:href="#m8b1c265ce5" y="199.117539"/>
    </g>
   </g>
   <g id="PathCollection_5">
    <defs>
     <path d="M 0 12.544924 
C 3.326953 12.544924 6.51809 11.223111 8.870601 8.870601 
C 11.223111 6.51809 12.544924 3.326953 12.544924 0 
C 12.544924 -3.326953 11.223111 -6.51809 8.870601 -8.870601 
C 6.51809 -11.223111 3.326953 -12.544924 0 -12.544924 
C -3.326953 -12.544924 -6.51809 -11.223111 -8.870601 -8.870601 
C -11.223111 -6.51809 -12.544924 -3.326953 -12.544924 0 
C -12.544924 3.326953 -11.223111 6.51809 -8.870601 8.870601 
C -6.51809 11.223111 -3.326953 12.544924 0 12.544924 
z
" id="md9e03ee9a3" style="stroke:#333333;"/>
    </defs>
    <g clip-path="url(#p385b341d74)">
     <use style="fill:#333333;stroke:#333333;" x="316.5075" xlink:href="#md9e03ee9a3" y="199.117539"/>
    </g>
   </g>
   <g id="PathCollection_6">
    <defs>
     <path d="M 0 12.038067 
C 3.192533 12.038067 6.254738 10.769661 8.512199 8.512199 
C 10.769661 6.254738 12.038067 3.192533 12.038067 0 
C 12.038067 -3.192533 10.769661 -6.254738 8.512199 -8.512199 
C 6.254738 -10.769661 3.192533 -12.038067 0 -12.038067 
C -3.192533 -12.038067 -6.254738 -10.769661 -8.512199 -8.512199 
C -10.769661 -6.254738 -12.038067 -3.192533 -12.038067 0 
C -12.038067 3.192533 -10.769661 6.254738 -8.512199 8.512199 
C -6.254738 10.769661 -3.192533 12.038067 0 12.038067 
z
" id="m4ba17ac18d" style="stroke:#800000;"/>
    </defs>
    <g clip-path="url(#p385b341d74)">
     <use style="fill:#800000;stroke:#800000;" x="64.7925" xlink:href="#m4ba17ac18d" y="89.037028"/>
    </g>
   </g>
   <g id="PathCollection_7">
    <defs>
     <path d="M 0 12.038067 
C 3.192533 12.038067 6.254738 10.769661 8.512199 8.512199 
C 10.769661 6.254738 12.038067 3.192533 12.038067 0 
C 12.038067 -3.192533 10.769661 -6.254738 8.512199 -8.512199 
C 6.254738 -10.769661 3.192533 -12.038067 0 -12.038067 
C -3.192533 -12.038067 -6.254738 -10.769661 -8.512199 -8.512199 
C -10.769661 -6.254738 -12.038067 -3.192533 -12.038067 0 
C -12.038067 3.192533 -10.769661 6.254738 -8.512199 8.512199 
C -6.254738 10.769661 -3.192533 12.038067 0 12.038067 
z
" id="mb45918cece" style="stroke:#333333;"/>
    </defs>
    <g clip-path="url(#p385b341d74)">
     <use style="fill:#333333;stroke:#333333;" x="512.285833" xlink:href="#mb45918cece" y="89.037028"/>
    </g>
   </g>
  </g>
 </g>
 <defs>
  <clipPath id="p385b341d74">
   <rect height="273.44" width="671.24" x="22.84" y="3.96"/>
  </clipPath>
 </defs>
</svg>
