<?xml version="1.0" encoding="utf-8" standalone="no"?>
<!DOCTYPE svg PUBLIC "-//W3C//DTD SVG 1.1//EN"
  "http://www.w3.org/Graphics/SVG/1.1/DTD/svg11.dtd">
<!-- Created with matplotlib (http://matplotlib.org/) -->
<svg height="294pt" version="1.1" viewBox="0 0 702 294" width="702pt" xmlns="http://www.w3.org/2000/svg" xmlns:xlink="http://www.w3.org/1999/xlink">
 <defs>
  <style type="text/css">
*{stroke-linecap:butt;stroke-linejoin:round;}
  </style>
 </defs>
 <g id="figure_1">
  <g id="patch_1">
   <path d="M 0 294.48 
L 702 294.48 
L 702 0 
L 0 0 
z
" style="fill:none;"/>
  </g>
  <g id="axes_1">
   <g id="line2d_1">
    <path clip-path="url(#p5a9add0fb4)" d="M 64.7925 35.510769 
L 204.634167 140.68 
L 64.7925 245.849231 
L 64.7925 35.510769 
" style="fill:none;stroke:#800000;stroke-linecap:round;stroke-width:16;"/>
   </g>
   <g id="line2d_2">
    <path clip-path="url(#p5a9add0fb4)" d="M 64.7925 35.510769 
L 64.7925 245.849231 
L 186.281633 154.482194 
" style="fill:none;opacity:0.81146;stroke:#333333;stroke-linecap:round;stroke-width:16;"/>
   </g>
   <g id="line2d_3">
    <path clip-path="url(#p5a9add0fb4)" d="M 204.634167 35.510769 
L 204.634167 54.367612 
" style="fill:none;opacity:0.544825;stroke:#333333;stroke-linecap:round;stroke-width:16;"/>
   </g>
   <g id="line2d_4">
    <path clip-path="url(#p5a9add0fb4)" d="M 260.570833 245.849231 
L 260.570833 54.367612 
" style="fill:none;opacity:0.2601;stroke:#800000;stroke-linecap:round;stroke-width:16;"/>
   </g>
   <g id="line2d_5">
    <path clip-path="url(#p5a9add0fb4)" d="M 204.634167 35.510769 
L 204.634167 245.849231 
L 204.634167 140.68 
L 83.729284 49.752354 
" style="fill:none;opacity:0.858073;stroke:#333333;stroke-linecap:round;stroke-width:16;"/>
   </g>
   <g id="line2d_6">
    <path clip-path="url(#p5a9add0fb4)" d="M 316.5075 245.849231 
L 316.5075 35.510769 
L 335.444284 49.752354 
" style="fill:none;opacity:0.2601;stroke:#800000;stroke-linecap:round;stroke-width:16;"/>
   </g>
   <g id="line2d_7">
    <path clip-path="url(#p5a9add0fb4)" d="M 204.634167 35.510769 
L 204.634167 245.849231 
L 204.634167 140.68 
L 64.7925 140.68 
L 64.7925 214.245877 
" style="fill:none;opacity:0.86995;stroke:#333333;stroke-linecap:round;stroke-width:16;"/>
   </g>
   <g id="line2d_8">
    <path clip-path="url(#p5a9add0fb4)" d="M 512.285833 35.510769 
L 512.285833 245.849231 
L 512.285833 214.245877 
" style="fill:none;opacity:0.2601;stroke:#800000;stroke-linecap:round;stroke-width:16;"/>
   </g>
   <g id="PathCollection_1">
    <defs>
     <path d="M 0 26.54565 
C 7.039989 26.54565 13.792585 23.748633 18.770609 18.770609 
C 23.748633 13.792585 26.54565 7.039989 26.54565 0 
C 26.54565 -7.039989 23.748633 -13.792585 18.770609 -18.770609 
C 13.792585 -23.748633 7.039989 -26.54565 0 -26.54565 
C -7.039989 -26.54565 -13.792585 -23.748633 -18.770609 -18.770609 
C -23.748633 -13.792585 -26.54565 -7.039989 -26.54565 0 
C -26.54565 7.039989 -23.748633 13.792585 -18.770609 18.770609 
C -13.792585 23.748633 -7.039989 26.54565 0 26.54565 
z
" id="m39eac093e8" style="stroke:#800000;"/>
    </defs>
    <g clip-path="url(#p5a9add0fb4)">
     <use style="fill:#800000;stroke:#800000;" x="186.281633" xlink:href="#m39eac093e8" y="154.482194"/>
    </g>
   </g>
   <g id="PathCollection_2">
    <defs>
     <path d="M 0 15.64732 
C 4.149718 15.64732 8.130033 13.99862 11.064326 11.064326 
C 13.99862 8.130033 15.64732 4.149718 15.64732 0 
C 15.64732 -4.149718 13.99862 -8.130033 11.064326 -11.064326 
C 8.130033 -13.99862 4.149718 -15.64732 0 -15.64732 
C -4.149718 -15.64732 -8.130033 -13.99862 -11.064326 -11.064326 
C -13.99862 -8.130033 -15.64732 -4.149718 -15.64732 0 
C -15.64732 4.149718 -13.99862 8.130033 -11.064326 11.064326 
C -8.130033 13.99862 -4.149718 15.64732 0 15.64732 
z
" id="m83e5dc473d" style="stroke:#800000;"/>
    </defs>
    <g clip-path="url(#p5a9add0fb4)">
     <use style="fill:#800000;stroke:#800000;" x="204.634167" xlink:href="#m83e5dc473d" y="54.367612"/>
    </g>
   </g>
   <g id="PathCollection_3">
    <defs>
     <path d="M 0 15.64732 
C 4.149718 15.64732 8.130033 13.99862 11.064326 11.064326 
C 13.99862 8.130033 15.64732 4.149718 15.64732 0 
C 15.64732 -4.149718 13.99862 -8.130033 11.064326 -11.064326 
C 8.130033 -13.99862 4.149718 -15.64732 0 -15.64732 
C -4.149718 -15.64732 -8.130033 -13.99862 -11.064326 -11.064326 
C -13.99862 -8.130033 -15.64732 -4.149718 -15.64732 0 
C -15.64732 4.149718 -13.99862 8.130033 -11.064326 11.064326 
C -8.130033 13.99862 -4.149718 15.64732 0 15.64732 
z
" id="m57db6fbbbd" style="stroke:#333333;"/>
    </defs>
    <g clip-path="url(#p5a9add0fb4)">
     <use style="fill:#333333;stroke:#333333;" x="260.570833" xlink:href="#m57db6fbbbd" y="54.367612"/>
    </g>
   </g>
   <g id="PathCollection_4">
    <defs>
     <path d="M 0 24.694993 
C 6.549189 24.694993 12.831021 22.092973 17.461997 17.461997 
C 22.092973 12.831021 24.694993 6.549189 24.694993 0 
C 24.694993 -6.549189 22.092973 -12.831021 17.461997 -17.461997 
C 12.831021 -22.092973 6.549189 -24.694993 0 -24.694993 
C -6.549189 -24.694993 -12.831021 -22.092973 -17.461997 -17.461997 
C -22.092973 -12.831021 -24.694993 -6.549189 -24.694993 0 
C -24.694993 6.549189 -22.092973 12.831021 -17.461997 17.461997 
C -12.831021 22.092973 -6.549189 24.694993 0 24.694993 
z
" id="medf80ddea6" style="stroke:#800000;"/>
    </defs>
    <g clip-path="url(#p5a9add0fb4)">
     <use style="fill:#800000;stroke:#800000;" x="83.729284" xlink:href="#medf80ddea6" y="49.752354"/>
    </g>
   </g>
   <g id="PathCollection_5">
    <defs>
     <path d="M 0 24.694993 
C 6.549189 24.694993 12.831021 22.092973 17.461997 17.461997 
C 22.092973 12.831021 24.694993 6.549189 24.694993 0 
C 24.694993 -6.549189 22.092973 -12.831021 17.461997 -17.461997 
C 12.831021 -22.092973 6.549189 -24.694993 0 -24.694993 
C -6.549189 -24.694993 -12.831021 -22.092973 -17.461997 -17.461997 
C -22.092973 -12.831021 -24.694993 -6.549189 -24.694993 0 
C -24.694993 6.549189 -22.092973 12.831021 -17.461997 17.461997 
C -12.831021 22.092973 -6.549189 24.694993 0 24.694993 
z
" id="mff5615d2af" style="stroke:#333333;"/>
    </defs>
    <g clip-path="url(#p5a9add0fb4)">
     <use style="fill:#333333;stroke:#333333;" x="335.444284" xlink:href="#mff5615d2af" y="49.752354"/>
    </g>
   </g>
   <g id="PathCollection_6">
    <defs>
     <path d="M 0 24.027983 
C 6.372296 24.027983 12.484456 21.496243 16.99035 16.99035 
C 21.496243 12.484456 24.027983 6.372296 24.027983 0 
C 24.027983 -6.372296 21.496243 -12.484456 16.99035 -16.99035 
C 12.484456 -21.496243 6.372296 -24.027983 0 -24.027983 
C -6.372296 -24.027983 -12.484456 -21.496243 -16.99035 -16.99035 
C -21.496243 -12.484456 -24.027983 -6.372296 -24.027983 0 
C -24.027983 6.372296 -21.496243 12.484456 -16.99035 16.99035 
C -12.484456 21.496243 -6.372296 24.027983 0 24.027983 
z
" id="mc9958b0d30" style="stroke:#800000;"/>
    </defs>
    <g clip-path="url(#p5a9add0fb4)">
     <use style="fill:#800000;stroke:#800000;" x="64.7925" xlink:href="#mc9958b0d30" y="214.245877"/>
    </g>
   </g>
   <g id="PathCollection_7">
    <defs>
     <path d="M 0 24.027983 
C 6.372296 24.027983 12.484456 21.496243 16.99035 16.99035 
C 21.496243 12.484456 24.027983 6.372296 24.027983 0 
C 24.027983 -6.372296 21.496243 -12.484456 16.99035 -16.99035 
C 12.484456 -21.496243 6.372296 -24.027983 0 -24.027983 
C -6.372296 -24.027983 -12.484456 -21.496243 -16.99035 -16.99035 
C -21.496243 -12.484456 -24.027983 -6.372296 -24.027983 0 
C -24.027983 6.372296 -21.496243 12.484456 -16.99035 16.99035 
C -12.484456 21.496243 -6.372296 24.027983 0 24.027983 
z
" id="m81daf722b5" style="stroke:#333333;"/>
    </defs>
    <g clip-path="url(#p5a9add0fb4)">
     <use style="fill:#333333;stroke:#333333;" x="512.285833" xlink:href="#m81daf722b5" y="214.245877"/>
    </g>
   </g>
  </g>
 </g>
 <defs>
  <clipPath id="p5a9add0fb4">
   <rect height="273.44" width="671.24" x="22.84" y="3.96"/>
  </clipPath>
 </defs>
</svg>
