<?xml version="1.0" encoding="utf-8" standalone="no"?>
<!DOCTYPE svg PUBLIC "-//W3C//DTD SVG 1.1//EN"
  "http://www.w3.org/Graphics/SVG/1.1/DTD/svg11.dtd">
<!-- Created with matplotlib (http://matplotlib.org/) -->
<svg height="294pt" version="1.1" viewBox="0 0 702 294" width="702pt" xmlns="http://www.w3.org/2000/svg" xmlns:xlink="http://www.w3.org/1999/xlink">
 <defs>
  <style type="text/css">
*{stroke-linecap:butt;stroke-linejoin:round;}
  </style>
 </defs>
 <g id="figure_1">
  <g id="patch_1">
   <path d="M 0 294.48 
L 702 294.48 
L 702 0 
L 0 0 
z
" style="fill:none;"/>
  </g>
  <g id="axes_1">
   <g id="line2d_1">
    <path clip-path="url(#p827a090818)" d="M 64.7925 35.510769 
L 204.634167 140.68 
L 64.7925 245.849231 
L 64.7925 35.510769 
" style="fill:none;stroke:#800000;stroke-linecap:round;stroke-width:16;"/>
   </g>
   <g id="line2d_2">
    <path clip-path="url(#p827a090818)" d="M 64.7925 35.510769 
L 64.7925 245.849231 
L 204.634167 140.68 
L 117.506481 75.154811 
" style="fill:none;opacity:0.937174;stroke:#333333;stroke-linecap:round;stroke-width:16;"/>
   </g>
   <g id="line2d_3">
    <path clip-path="url(#p827a090818)" d="M 204.634167 35.510769 
L 204.634167 182.043109 
" style="fill:none;opacity:0.848325;stroke:#333333;stroke-linecap:round;stroke-width:16;"/>
   </g>
   <g id="line2d_4">
    <path clip-path="url(#p827a090818)" d="M 260.570833 245.849231 
L 260.570833 182.043109 
" style="fill:none;opacity:0.086671;stroke:#800000;stroke-linecap:round;stroke-width:16;"/>
   </g>
   <g id="line2d_5">
    <path clip-path="url(#p827a090818)" d="M 204.634167 35.510769 
L 204.634167 245.849231 
L 204.634167 140.68 
L 64.7925 35.510769 
L 64.7925 166.268317 
" style="fill:none;opacity:0.952707;stroke:#333333;stroke-linecap:round;stroke-width:16;"/>
   </g>
   <g id="line2d_6">
    <path clip-path="url(#p827a090818)" d="M 316.5075 245.849231 
L 316.5075 166.268317 
" style="fill:none;opacity:0.086671;stroke:#800000;stroke-linecap:round;stroke-width:16;"/>
   </g>
   <g id="line2d_7">
    <path clip-path="url(#p827a090818)" d="M 204.634167 35.510769 
L 204.634167 245.849231 
L 204.634167 140.68 
L 64.7925 140.68 
L 64.7925 245.849231 
L 64.7925 126.662372 
" style="fill:none;opacity:0.956664;stroke:#333333;stroke-linecap:round;stroke-width:16;"/>
   </g>
   <g id="line2d_8">
    <path clip-path="url(#p827a090818)" d="M 512.285833 35.510769 
L 512.285833 126.662372 
" style="fill:none;opacity:0.086671;stroke:#800000;stroke-linecap:round;stroke-width:16;"/>
   </g>
   <g id="PathCollection_1">
    <defs>
     <path d="M 0 18.154608 
C 4.814658 18.154608 9.432769 16.241724 12.837246 12.837246 
C 16.241724 9.432769 18.154608 4.814658 18.154608 0 
C 18.154608 -4.814658 16.241724 -9.432769 12.837246 -12.837246 
C 9.432769 -16.241724 4.814658 -18.154608 0 -18.154608 
C -4.814658 -18.154608 -9.432769 -16.241724 -12.837246 -12.837246 
C -16.241724 -9.432769 -18.154608 -4.814658 -18.154608 0 
C -18.154608 4.814658 -16.241724 9.432769 -12.837246 12.837246 
C -9.432769 16.241724 -4.814658 18.154608 0 18.154608 
z
" id="meae1de2e95" style="stroke:#800000;"/>
    </defs>
    <g clip-path="url(#p827a090818)">
     <use style="fill:#800000;stroke:#800000;" x="117.506481" xlink:href="#meae1de2e95" y="75.154811"/>
    </g>
   </g>
   <g id="PathCollection_2">
    <defs>
     <path d="M 0 25.17908 
C 6.67757 25.17908 13.082543 22.526053 17.804298 17.804298 
C 22.526053 13.082543 25.17908 6.67757 25.17908 0 
C 25.17908 -6.67757 22.526053 -13.082543 17.804298 -17.804298 
C 13.082543 -22.526053 6.67757 -25.17908 0 -25.17908 
C -6.67757 -25.17908 -13.082543 -22.526053 -17.804298 -17.804298 
C -22.526053 -13.082543 -25.17908 -6.67757 -25.17908 0 
C -25.17908 6.67757 -22.526053 13.082543 -17.804298 17.804298 
C -13.082543 22.526053 -6.67757 25.17908 0 25.17908 
z
" id="me976eddcc3" style="stroke:#800000;"/>
    </defs>
    <g clip-path="url(#p827a090818)">
     <use style="fill:#800000;stroke:#800000;" x="204.634167" xlink:href="#me976eddcc3" y="182.043109"/>
    </g>
   </g>
   <g id="PathCollection_3">
    <defs>
     <path d="M 0 25.17908 
C 6.67757 25.17908 13.082543 22.526053 17.804298 17.804298 
C 22.526053 13.082543 25.17908 6.67757 25.17908 0 
C 25.17908 -6.67757 22.526053 -13.082543 17.804298 -17.804298 
C 13.082543 -22.526053 6.67757 -25.17908 0 -25.17908 
C -6.67757 -25.17908 -13.082543 -22.526053 -17.804298 -17.804298 
C -22.526053 -13.082543 -25.17908 -6.67757 -25.17908 0 
C -25.17908 6.67757 -22.526053 13.082543 -17.804298 17.804298 
C -13.082543 22.526053 -6.67757 25.17908 0 25.17908 
z
" id="m4e41bbceed" style="stroke:#333333;"/>
    </defs>
    <g clip-path="url(#p827a090818)">
     <use style="fill:#333333;stroke:#333333;" x="260.570833" xlink:href="#m4e41bbceed" y="182.043109"/>
    </g>
   </g>
   <g id="PathCollection_4">
    <defs>
     <path d="M 0 16.028732 
C 4.250869 16.028732 8.328207 14.339844 11.334025 11.334025 
C 14.339844 8.328207 16.028732 4.250869 16.028732 0 
C 16.028732 -4.250869 14.339844 -8.328207 11.334025 -11.334025 
C 8.328207 -14.339844 4.250869 -16.028732 0 -16.028732 
C -4.250869 -16.028732 -8.328207 -14.339844 -11.334025 -11.334025 
C -14.339844 -8.328207 -16.028732 -4.250869 -16.028732 0 
C -16.028732 4.250869 -14.339844 8.328207 -11.334025 11.334025 
C -8.328207 14.339844 -4.250869 16.028732 0 16.028732 
z
" id="mbe6b12182c" style="stroke:#800000;"/>
    </defs>
    <g clip-path="url(#p827a090818)">
     <use style="fill:#800000;stroke:#800000;" x="64.7925" xlink:href="#mbe6b12182c" y="166.268317"/>
    </g>
   </g>
   <g id="PathCollection_5">
    <defs>
     <path d="M 0 16.028732 
C 4.250869 16.028732 8.328207 14.339844 11.334025 11.334025 
C 14.339844 8.328207 16.028732 4.250869 16.028732 0 
C 16.028732 -4.250869 14.339844 -8.328207 11.334025 -11.334025 
C 8.328207 -14.339844 4.250869 -16.028732 0 -16.028732 
C -4.250869 -16.028732 -8.328207 -14.339844 -11.334025 -11.334025 
C -14.339844 -8.328207 -16.028732 -4.250869 -16.028732 0 
C -16.028732 4.250869 -14.339844 8.328207 -11.334025 11.334025 
C -8.328207 14.339844 -4.250869 16.028732 0 16.028732 
z
" id="m7186340a74" style="stroke:#333333;"/>
    </defs>
    <g clip-path="url(#p827a090818)">
     <use style="fill:#333333;stroke:#333333;" x="316.5075" xlink:href="#m7186340a74" y="166.268317"/>
    </g>
   </g>
   <g id="PathCollection_6">
    <defs>
     <path d="M 0 15.410331 
C 4.086868 15.410331 8.006898 13.786601 10.89675 10.89675 
C 13.786601 8.006898 15.410331 4.086868 15.410331 0 
C 15.410331 -4.086868 13.786601 -8.006898 10.89675 -10.89675 
C 8.006898 -13.786601 4.086868 -15.410331 0 -15.410331 
C -4.086868 -15.410331 -8.006898 -13.786601 -10.89675 -10.89675 
C -13.786601 -8.006898 -15.410331 -4.086868 -15.410331 0 
C -15.410331 4.086868 -13.786601 8.006898 -10.89675 10.89675 
C -8.006898 13.786601 -4.086868 15.410331 0 15.410331 
z
" id="m368b26204d" style="stroke:#800000;"/>
    </defs>
    <g clip-path="url(#p827a090818)">
     <use style="fill:#800000;stroke:#800000;" x="64.7925" xlink:href="#m368b26204d" y="126.662372"/>
    </g>
   </g>
   <g id="PathCollection_7">
    <defs>
     <path d="M 0 15.410331 
C 4.086868 15.410331 8.006898 13.786601 10.89675 10.89675 
C 13.786601 8.006898 15.410331 4.086868 15.410331 0 
C 15.410331 -4.086868 13.786601 -8.006898 10.89675 -10.89675 
C 8.006898 -13.786601 4.086868 -15.410331 0 -15.410331 
C -4.086868 -15.410331 -8.006898 -13.786601 -10.89675 -10.89675 
C -13.786601 -8.006898 -15.410331 -4.086868 -15.410331 0 
C -15.410331 4.086868 -13.786601 8.006898 -10.89675 10.89675 
C -8.006898 13.786601 -4.086868 15.410331 0 15.410331 
z
" id="m5e5e213c7d" style="stroke:#333333;"/>
    </defs>
    <g clip-path="url(#p827a090818)">
     <use style="fill:#333333;stroke:#333333;" x="512.285833" xlink:href="#m5e5e213c7d" y="126.662372"/>
    </g>
   </g>
  </g>
 </g>
 <defs>
  <clipPath id="p827a090818">
   <rect height="273.44" width="671.24" x="22.84" y="3.96"/>
  </clipPath>
 </defs>
</svg>
