<?xml version="1.0" standalone="yes"?>

<svg version="1.1" viewBox="0.0 0.0 612.6 629.2" fill="none" stroke="none" stroke-linecap="square" stroke-miterlimit="10" xmlns="http://www.w3.org/2000/svg" xmlns:xlink="http://www.w3.org/1999/xlink"><clipPath id="p.0"><path d="m0 0l3216.0 0l0 824.0l-3216.0 0l0 -824.0z" clip-rule="nonzero"></path></clipPath><g clip-path="url(#p.0)"><path fill="#000000" fill-opacity="0.0" d="m0 0l3216.0 0l0 824.0l-3216.0 0z" fill-rule="evenodd"></path><path fill="#000000" d="m0 0l7008.0 0l0 824.0l-7008.0 0z" fill-rule="evenodd"></path><path fill="#000000" fill-opacity="0.0" d="m49.716534 110.23753l100.566925 0.06298828" fill-rule="evenodd"></path><path stroke="#111111" stroke-width="8.0" stroke-linejoin="round" stroke-linecap="butt" d="m49.716534 110.23753l100.566925 0.06298828" fill-rule="evenodd"></path><path fill="#000000" fill-opacity="0.0" d="m51.874016 35.30971l0 146.14174" fill-rule="evenodd"></path><path stroke="#111111" stroke-width="8.0" stroke-linejoin="round" stroke-linecap="butt" d="m51.874016 35.30971l0 146.14174" fill-rule="evenodd"></path><path fill="#000000" fill-opacity="0.0" d="m147.90552 35.30971l0 146.14174" fill-rule="evenodd"></path><path stroke="#111111" stroke-width="8.0" stroke-linejoin="round" stroke-linecap="butt" d="m147.90552 35.30971l0 146.14174" fill-rule="evenodd"></path><path fill="#000000" fill-opacity="0.0" d="m53.574802 178.2126l94.33072 -67.08662" fill-rule="evenodd"></path><path stroke="#111111" stroke-width="8.0" stroke-linejoin="round" stroke-linecap="butt" d="m53.574802 178.2126l94.33072 -67.08662" fill-rule="evenodd"></path><path fill="#000000" fill-opacity="0.0" d="m53.44882 38.587925l94.267715 70.86615" fill-rule="evenodd"></path><path stroke="#111111" stroke-width="8.0" stroke-linejoin="round" stroke-linecap="butt" d="m53.44882 38.587925l94.267715 70.86615" fill-rule="evenodd"></path><path fill="#000000" fill-opacity="0.0" d="m641.71655 110.23753l100.566895 0.06298828" fill-rule="evenodd"></path><path stroke="#111111" stroke-width="8.0" stroke-linejoin="round" stroke-linecap="butt" d="m641.71655 110.23753l100.566895 0.06298828" fill-rule="evenodd"></path><path fill="#000000" fill-opacity="0.0" d="m643.874 35.30971l0 146.14174" fill-rule="evenodd"></path><path stroke="#111111" stroke-width="8.0" stroke-linejoin="round" stroke-linecap="butt" d="m643.874 35.30971l0 146.14174" fill-rule="evenodd"></path><path fill="#000000" fill-opacity="0.0" d="m739.9055 35.30971l0 146.14174" fill-rule="evenodd"></path><path stroke="#111111" stroke-width="8.0" stroke-linejoin="round" stroke-linecap="butt" d="m739.9055 35.30971l0 146.14174" fill-rule="evenodd"></path><path fill="#000000" fill-opacity="0.0" d="m645.5748 178.2126l94.33069 -67.08662" fill-rule="evenodd"></path><path stroke="#111111" stroke-width="8.0" stroke-linejoin="round" stroke-linecap="butt" d="m645.5748 178.2126l94.33069 -67.08662" fill-rule="evenodd"></path><path fill="#000000" fill-opacity="0.0" d="m645.4488 38.587925l94.26776 70.86615" fill-rule="evenodd"></path><path stroke="#111111" stroke-width="8.0" stroke-linejoin="round" stroke-linecap="butt" d="m645.4488 38.587925l94.26776 70.86615" fill-rule="evenodd"></path><path fill="#000000" fill-opacity="0.0" d="m1233.7166 110.23753l100.566895 0.06298828" fill-rule="evenodd"></path><path stroke="#111111" stroke-width="8.0" stroke-linejoin="round" stroke-linecap="butt" d="m1233.7166 110.23753l100.566895 0.06298828" fill-rule="evenodd"></path><path fill="#000000" fill-opacity="0.0" d="m1235.874 35.30971l0 146.14174" fill-rule="evenodd"></path><path stroke="#111111" stroke-width="8.0" stroke-linejoin="round" stroke-linecap="butt" d="m1235.874 35.30971l0 146.14174" fill-rule="evenodd"></path><path fill="#000000" fill-opacity="0.0" d="m1331.9055 35.30971l0 146.14174" fill-rule="evenodd"></path><path stroke="#111111" stroke-width="8.0" stroke-linejoin="round" stroke-linecap="butt" d="m1331.9055 35.30971l0 146.14174" fill-rule="evenodd"></path><path fill="#000000" fill-opacity="0.0" d="m1237.5748 178.2126l94.33069 -67.08662" fill-rule="evenodd"></path><path stroke="#111111" stroke-width="8.0" stroke-linejoin="round" stroke-linecap="butt" d="m1237.5748 178.2126l94.33069 -67.08662" fill-rule="evenodd"></path><path fill="#000000" fill-opacity="0.0" d="m1237.4489 38.587925l94.2677 70.86615" fill-rule="evenodd"></path><path stroke="#111111" stroke-width="8.0" stroke-linejoin="round" stroke-linecap="butt" d="m1237.4489 38.587925l94.2677 70.86615" fill-rule="evenodd"></path><path fill="#000000" fill-opacity="0.0" d="m1825.7166 110.23753l100.566895 0.06298828" fill-rule="evenodd"></path><path stroke="#111111" stroke-width="8.0" stroke-linejoin="round" stroke-linecap="butt" d="m1825.7166 110.23753l100.566895 0.06298828" fill-rule="evenodd"></path><path fill="#000000" fill-opacity="0.0" d="m1827.874 35.30971l0 146.14174" fill-rule="evenodd"></path><path stroke="#111111" stroke-width="8.0" stroke-linejoin="round" stroke-linecap="butt" d="m1827.874 35.30971l0 146.14174" fill-rule="evenodd"></path><path fill="#000000" fill-opacity="0.0" d="m1923.9055 35.30971l0 146.14174" fill-rule="evenodd"></path><path stroke="#111111" stroke-width="8.0" stroke-linejoin="round" stroke-linecap="butt" d="m1923.9055 35.30971l0 146.14174" fill-rule="evenodd"></path><path fill="#000000" fill-opacity="0.0" d="m1829.5748 178.2126l94.33069 -67.08662" fill-rule="evenodd"></path><path stroke="#111111" stroke-width="8.0" stroke-linejoin="round" stroke-linecap="butt" d="m1829.5748 178.2126l94.33069 -67.08662" fill-rule="evenodd"></path><path fill="#000000" fill-opacity="0.0" d="m1829.4489 38.587925l94.2677 70.86615" fill-rule="evenodd"></path><path stroke="#111111" stroke-width="8.0" stroke-linejoin="round" stroke-linecap="butt" d="m1829.4489 38.587925l94.2677 70.86615" fill-rule="evenodd"></path><path fill="#000000" fill-opacity="0.0" d="m2417.7166 109.350395l100.566895 0.06298828" fill-rule="evenodd"></path><path stroke="#111111" stroke-width="8.0" stroke-linejoin="round" stroke-linecap="butt" d="m2417.7166 109.350395l100.566895 0.06298828" fill-rule="evenodd"></path><path fill="#000000" fill-opacity="0.0" d="m2419.874 34.422573l0 146.14172" fill-rule="evenodd"></path><path stroke="#111111" stroke-width="8.0" stroke-linejoin="round" stroke-linecap="butt" d="m2419.874 34.422573l0 146.14172" fill-rule="evenodd"></path><path fill="#000000" fill-opacity="0.0" d="m2515.9055 34.422573l0 146.14172" fill-rule="evenodd"></path><path stroke="#111111" stroke-width="8.0" stroke-linejoin="round" stroke-linecap="butt" d="m2515.9055 34.422573l0 146.14172" fill-rule="evenodd"></path><path fill="#000000" fill-opacity="0.0" d="m2421.5747 177.32545l94.33081 -67.08661" fill-rule="evenodd"></path><path stroke="#111111" stroke-width="8.0" stroke-linejoin="round" stroke-linecap="butt" d="m2421.5747 177.32545l94.33081 -67.08661" fill-rule="evenodd"></path><path fill="#000000" fill-opacity="0.0" d="m2421.4487 37.700787l94.26782 70.86615" fill-rule="evenodd"></path><path stroke="#111111" stroke-width="8.0" stroke-linejoin="round" stroke-linecap="butt" d="m2421.4487 37.700787l94.26782 70.86615" fill-rule="evenodd"></path><path fill="#000000" fill-opacity="0.0" d="m3009.7166 109.350395l100.566895 0.06298828" fill-rule="evenodd"></path><path stroke="#111111" stroke-width="8.0" stroke-linejoin="round" stroke-linecap="butt" d="m3009.7166 109.350395l100.566895 0.06298828" fill-rule="evenodd"></path><path fill="#000000" fill-opacity="0.0" d="m3011.874 34.422573l0 146.14172" fill-rule="evenodd"></path><path stroke="#111111" stroke-width="8.0" stroke-linejoin="round" stroke-linecap="butt" d="m3011.874 34.422573l0 146.14172" fill-rule="evenodd"></path><path fill="#000000" fill-opacity="0.0" d="m3107.9055 34.422573l0 146.14172" fill-rule="evenodd"></path><path stroke="#111111" stroke-width="8.0" stroke-linejoin="round" stroke-linecap="butt" d="m3107.9055 34.422573l0 146.14172" fill-rule="evenodd"></path><path fill="#000000" fill-opacity="0.0" d="m3013.5747 177.32545l94.33081 -67.08661" fill-rule="evenodd"></path><path stroke="#111111" stroke-width="8.0" stroke-linejoin="round" stroke-linecap="butt" d="m3013.5747 177.32545l94.33081 -67.08661" fill-rule="evenodd"></path><path fill="#000000" fill-opacity="0.0" d="m3013.4487 37.700787l94.26782 70.86615" fill-rule="evenodd"></path><path stroke="#111111" stroke-width="8.0" stroke-linejoin="round" stroke-linecap="butt" d="m3013.4487 37.700787l94.26782 70.86615" fill-rule="evenodd"></path><path fill="#000000" fill-opacity="0.0" d="m3601.7166 109.350395l100.566895 0.06298828" fill-rule="evenodd"></path><path stroke="#111111" stroke-width="8.0" stroke-linejoin="round" stroke-linecap="butt" d="m3601.7166 109.350395l100.566895 0.06298828" fill-rule="evenodd"></path><path fill="#000000" fill-opacity="0.0" d="m3603.874 34.422573l0 146.14172" fill-rule="evenodd"></path><path stroke="#111111" stroke-width="8.0" stroke-linejoin="round" stroke-linecap="butt" d="m3603.874 34.422573l0 146.14172" fill-rule="evenodd"></path><path fill="#000000" fill-opacity="0.0" d="m3699.9055 34.422573l0 146.14172" fill-rule="evenodd"></path><path stroke="#111111" stroke-width="8.0" stroke-linejoin="round" stroke-linecap="butt" d="m3699.9055 34.422573l0 146.14172" fill-rule="evenodd"></path><path fill="#000000" fill-opacity="0.0" d="m3605.5747 177.32545l94.33081 -67.08661" fill-rule="evenodd"></path><path stroke="#111111" stroke-width="8.0" stroke-linejoin="round" stroke-linecap="butt" d="m3605.5747 177.32545l94.33081 -67.08661" fill-rule="evenodd"></path><path fill="#000000" fill-opacity="0.0" d="m3605.4487 37.700787l94.26782 70.86615" fill-rule="evenodd"></path><path stroke="#111111" stroke-width="8.0" stroke-linejoin="round" stroke-linecap="butt" d="m3605.4487 37.700787l94.26782 70.86615" fill-rule="evenodd"></path><path fill="#000000" fill-opacity="0.0" d="m4193.7163 109.350395l100.56738 0.06298828" fill-rule="evenodd"></path><path stroke="#111111" stroke-width="8.0" stroke-linejoin="round" stroke-linecap="butt" d="m4193.7163 109.350395l100.56738 0.06298828" fill-rule="evenodd"></path><path fill="#000000" fill-opacity="0.0" d="m4195.874 34.422573l0 146.14172" fill-rule="evenodd"></path><path stroke="#111111" stroke-width="8.0" stroke-linejoin="round" stroke-linecap="butt" d="m4195.874 34.422573l0 146.14172" fill-rule="evenodd"></path><path fill="#000000" fill-opacity="0.0" d="m4291.9053 34.422573l0 146.14172" fill-rule="evenodd"></path><path stroke="#111111" stroke-width="8.0" stroke-linejoin="round" stroke-linecap="butt" d="m4291.9053 34.422573l0 146.14172" fill-rule="evenodd"></path><path fill="#000000" fill-opacity="0.0" d="m4197.5747 177.32545l94.33057 -67.08661" fill-rule="evenodd"></path><path stroke="#111111" stroke-width="8.0" stroke-linejoin="round" stroke-linecap="butt" d="m4197.5747 177.32545l94.33057 -67.08661" fill-rule="evenodd"></path><path fill="#000000" fill-opacity="0.0" d="m4197.4487 37.700787l94.26758 70.86615" fill-rule="evenodd"></path><path stroke="#111111" stroke-width="8.0" stroke-linejoin="round" stroke-linecap="butt" d="m4197.4487 37.700787l94.26758 70.86615" fill-rule="evenodd"></path><path fill="#000000" fill-opacity="0.0" d="m4785.7163 109.350395l100.56738 0.06298828" fill-rule="evenodd"></path><path stroke="#111111" stroke-width="8.0" stroke-linejoin="round" stroke-linecap="butt" d="m4785.7163 109.350395l100.56738 0.06298828" fill-rule="evenodd"></path><path fill="#000000" fill-opacity="0.0" d="m4787.874 34.422573l0 146.14172" fill-rule="evenodd"></path><path stroke="#111111" stroke-width="8.0" stroke-linejoin="round" stroke-linecap="butt" d="m4787.874 34.422573l0 146.14172" fill-rule="evenodd"></path><path fill="#000000" fill-opacity="0.0" d="m4883.9053 34.422573l0 146.14172" fill-rule="evenodd"></path><path stroke="#111111" stroke-width="8.0" stroke-linejoin="round" stroke-linecap="butt" d="m4883.9053 34.422573l0 146.14172" fill-rule="evenodd"></path><path fill="#000000" fill-opacity="0.0" d="m4789.5747 177.32545l94.33057 -67.08661" fill-rule="evenodd"></path><path stroke="#111111" stroke-width="8.0" stroke-linejoin="round" stroke-linecap="butt" d="m4789.5747 177.32545l94.33057 -67.08661" fill-rule="evenodd"></path><path fill="#000000" fill-opacity="0.0" d="m4789.4487 37.700787l94.26758 70.86615" fill-rule="evenodd"></path><path stroke="#111111" stroke-width="8.0" stroke-linejoin="round" stroke-linecap="butt" d="m4789.4487 37.700787l94.26758 70.86615" fill-rule="evenodd"></path><path fill="#000000" fill-opacity="0.0" d="m5377.7163 109.350395l100.56738 0.06298828" fill-rule="evenodd"></path><path stroke="#111111" stroke-width="8.0" stroke-linejoin="round" stroke-linecap="butt" d="m5377.7163 109.350395l100.56738 0.06298828" fill-rule="evenodd"></path><path fill="#000000" fill-opacity="0.0" d="m5379.874 34.422573l0 146.14172" fill-rule="evenodd"></path><path stroke="#111111" stroke-width="8.0" stroke-linejoin="round" stroke-linecap="butt" d="m5379.874 34.422573l0 146.14172" fill-rule="evenodd"></path><path fill="#000000" fill-opacity="0.0" d="m5475.9053 34.422573l0 146.14172" fill-rule="evenodd"></path><path stroke="#111111" stroke-width="8.0" stroke-linejoin="round" stroke-linecap="butt" d="m5475.9053 34.422573l0 146.14172" fill-rule="evenodd"></path><path fill="#000000" fill-opacity="0.0" d="m5381.5747 177.32545l94.33057 -67.08661" fill-rule="evenodd"></path><path stroke="#111111" stroke-width="8.0" stroke-linejoin="round" stroke-linecap="butt" d="m5381.5747 177.32545l94.33057 -67.08661" fill-rule="evenodd"></path><path fill="#000000" fill-opacity="0.0" d="m5381.4487 37.700787l94.26758 70.86615" fill-rule="evenodd"></path><path stroke="#111111" stroke-width="8.0" stroke-linejoin="round" stroke-linecap="butt" d="m5381.4487 37.700787l94.26758 70.86615" fill-rule="evenodd"></path><path fill="#000000" fill-opacity="0.0" d="m5969.7163 109.350395l100.56738 0.06298828" fill-rule="evenodd"></path><path stroke="#111111" stroke-width="8.0" stroke-linejoin="round" stroke-linecap="butt" d="m5969.7163 109.350395l100.56738 0.06298828" fill-rule="evenodd"></path><path fill="#000000" fill-opacity="0.0" d="m5971.874 34.422573l0 146.14172" fill-rule="evenodd"></path><path stroke="#111111" stroke-width="8.0" stroke-linejoin="round" stroke-linecap="butt" d="m5971.874 34.422573l0 146.14172" fill-rule="evenodd"></path><path fill="#000000" fill-opacity="0.0" d="m6067.9053 34.422573l0 146.14172" fill-rule="evenodd"></path><path stroke="#111111" stroke-width="8.0" stroke-linejoin="round" stroke-linecap="butt" d="m6067.9053 34.422573l0 146.14172" fill-rule="evenodd"></path><path fill="#000000" fill-opacity="0.0" d="m5973.5747 177.32545l94.33057 -67.08661" fill-rule="evenodd"></path><path stroke="#111111" stroke-width="8.0" stroke-linejoin="round" stroke-linecap="butt" d="m5973.5747 177.32545l94.33057 -67.08661" fill-rule="evenodd"></path><path fill="#000000" fill-opacity="0.0" d="m5973.4487 37.700787l94.26758 70.86615" fill-rule="evenodd"></path><path stroke="#111111" stroke-width="8.0" stroke-linejoin="round" stroke-linecap="butt" d="m5973.4487 37.700787l94.26758 70.86615" fill-rule="evenodd"></path><path fill="#000000" fill-opacity="0.0" d="m6561.7163 109.350395l100.56738 0.06298828" fill-rule="evenodd"></path><path stroke="#111111" stroke-width="8.0" stroke-linejoin="round" stroke-linecap="butt" d="m6561.7163 109.350395l100.56738 0.06298828" fill-rule="evenodd"></path><path fill="#000000" fill-opacity="0.0" d="m6563.874 34.422573l0 146.14172" fill-rule="evenodd"></path><path stroke="#111111" stroke-width="8.0" stroke-linejoin="round" stroke-linecap="butt" d="m6563.874 34.422573l0 146.14172" fill-rule="evenodd"></path><path fill="#000000" fill-opacity="0.0" d="m6659.9053 34.422573l0 146.14172" fill-rule="evenodd"></path><path stroke="#111111" stroke-width="8.0" stroke-linejoin="round" stroke-linecap="butt" d="m6659.9053 34.422573l0 146.14172" fill-rule="evenodd"></path><path fill="#000000" fill-opacity="0.0" d="m6565.5747 177.32545l94.33057 -67.08661" fill-rule="evenodd"></path><path stroke="#111111" stroke-width="8.0" stroke-linejoin="round" stroke-linecap="butt" d="m6565.5747 177.32545l94.33057 -67.08661" fill-rule="evenodd"></path><path fill="#000000" fill-opacity="0.0" d="m6565.4487 37.700787l94.26758 70.86615" fill-rule="evenodd"></path><path stroke="#111111" stroke-width="8.0" stroke-linejoin="round" stroke-linecap="butt" d="m6565.4487 37.700787l94.26758 70.86615" fill-rule="evenodd"></path><path fill="#000000" fill-opacity="0.0" d="m344.43307 406.30054l100.566925 0.06298828" fill-rule="evenodd"></path><path stroke="#111111" stroke-width="8.0" stroke-linejoin="round" stroke-linecap="butt" d="m344.43307 406.30054l100.566925 0.06298828" fill-rule="evenodd"></path><path fill="#000000" fill-opacity="0.0" d="m346.59055 331.3727l0 146.14172" fill-rule="evenodd"></path><path stroke="#111111" stroke-width="8.0" stroke-linejoin="round" stroke-linecap="butt" d="m346.59055 331.3727l0 146.14172" fill-rule="evenodd"></path><path fill="#000000" fill-opacity="0.0" d="m442.62204 331.3727l0 146.14172" fill-rule="evenodd"></path><path stroke="#111111" stroke-width="8.0" stroke-linejoin="round" stroke-linecap="butt" d="m442.62204 331.3727l0 146.14172" fill-rule="evenodd"></path><path fill="#000000" fill-opacity="0.0" d="m348.29135 474.2756l94.33069 -67.08664" fill-rule="evenodd"></path><path stroke="#111111" stroke-width="8.0" stroke-linejoin="round" stroke-linecap="butt" d="m348.29135 474.2756l94.33069 -67.08664" fill-rule="evenodd"></path><path fill="#000000" fill-opacity="0.0" d="m348.16534 334.6509l94.26773 70.86615" fill-rule="evenodd"></path><path stroke="#111111" stroke-width="8.0" stroke-linejoin="round" stroke-linecap="butt" d="m348.16534 334.6509l94.26773 70.86615" fill-rule="evenodd"></path><path fill="#000000" fill-opacity="0.0" d="m937.71655 406.30054l100.566895 0.06298828" fill-rule="evenodd"></path><path stroke="#111111" stroke-width="8.0" stroke-linejoin="round" stroke-linecap="butt" d="m937.71655 406.30054l100.566895 0.06298828" fill-rule="evenodd"></path><path fill="#000000" fill-opacity="0.0" d="m939.874 331.3727l0 146.14172" fill-rule="evenodd"></path><path stroke="#111111" stroke-width="8.0" stroke-linejoin="round" stroke-linecap="butt" d="m939.874 331.3727l0 146.14172" fill-rule="evenodd"></path><path fill="#000000" fill-opacity="0.0" d="m1035.9055 331.3727l0 146.14172" fill-rule="evenodd"></path><path stroke="#111111" stroke-width="8.0" stroke-linejoin="round" stroke-linecap="butt" d="m1035.9055 331.3727l0 146.14172" fill-rule="evenodd"></path><path fill="#000000" fill-opacity="0.0" d="m941.5748 474.2756l94.33069 -67.08664" fill-rule="evenodd"></path><path stroke="#111111" stroke-width="8.0" stroke-linejoin="round" stroke-linecap="butt" d="m941.5748 474.2756l94.33069 -67.08664" fill-rule="evenodd"></path><path fill="#000000" fill-opacity="0.0" d="m941.4488 334.6509l94.26776 70.86615" fill-rule="evenodd"></path><path stroke="#111111" stroke-width="8.0" stroke-linejoin="round" stroke-linecap="butt" d="m941.4488 334.6509l94.26776 70.86615" fill-rule="evenodd"></path><path fill="#000000" fill-opacity="0.0" d="m1529.7166 406.30054l100.566895 0.06298828" fill-rule="evenodd"></path><path stroke="#111111" stroke-width="8.0" stroke-linejoin="round" stroke-linecap="butt" d="m1529.7166 406.30054l100.566895 0.06298828" fill-rule="evenodd"></path><path fill="#000000" fill-opacity="0.0" d="m1531.874 331.3727l0 146.14172" fill-rule="evenodd"></path><path stroke="#111111" stroke-width="8.0" stroke-linejoin="round" stroke-linecap="butt" d="m1531.874 331.3727l0 146.14172" fill-rule="evenodd"></path><path fill="#000000" fill-opacity="0.0" d="m1627.9055 331.3727l0 146.14172" fill-rule="evenodd"></path><path stroke="#111111" stroke-width="8.0" stroke-linejoin="round" stroke-linecap="butt" d="m1627.9055 331.3727l0 146.14172" fill-rule="evenodd"></path><path fill="#000000" fill-opacity="0.0" d="m1533.5748 474.2756l94.33069 -67.08664" fill-rule="evenodd"></path><path stroke="#111111" stroke-width="8.0" stroke-linejoin="round" stroke-linecap="butt" d="m1533.5748 474.2756l94.33069 -67.08664" fill-rule="evenodd"></path><path fill="#000000" fill-opacity="0.0" d="m1533.4489 334.6509l94.2677 70.86615" fill-rule="evenodd"></path><path stroke="#111111" stroke-width="8.0" stroke-linejoin="round" stroke-linecap="butt" d="m1533.4489 334.6509l94.2677 70.86615" fill-rule="evenodd"></path><path fill="#000000" fill-opacity="0.0" d="m2121.7166 406.30054l100.566895 0.06298828" fill-rule="evenodd"></path><path stroke="#111111" stroke-width="8.0" stroke-linejoin="round" stroke-linecap="butt" d="m2121.7166 406.30054l100.566895 0.06298828" fill-rule="evenodd"></path><path fill="#000000" fill-opacity="0.0" d="m2123.874 331.3727l0 146.14172" fill-rule="evenodd"></path><path stroke="#111111" stroke-width="8.0" stroke-linejoin="round" stroke-linecap="butt" d="m2123.874 331.3727l0 146.14172" fill-rule="evenodd"></path><path fill="#000000" fill-opacity="0.0" d="m2219.9055 331.3727l0 146.14172" fill-rule="evenodd"></path><path stroke="#111111" stroke-width="8.0" stroke-linejoin="round" stroke-linecap="butt" d="m2219.9055 331.3727l0 146.14172" fill-rule="evenodd"></path><path fill="#000000" fill-opacity="0.0" d="m2125.5747 474.2756l94.33081 -67.08664" fill-rule="evenodd"></path><path stroke="#111111" stroke-width="8.0" stroke-linejoin="round" stroke-linecap="butt" d="m2125.5747 474.2756l94.33081 -67.08664" fill-rule="evenodd"></path><path fill="#000000" fill-opacity="0.0" d="m2125.4487 334.6509l94.26782 70.86615" fill-rule="evenodd"></path><path stroke="#111111" stroke-width="8.0" stroke-linejoin="round" stroke-linecap="butt" d="m2125.4487 334.6509l94.26782 70.86615" fill-rule="evenodd"></path><path fill="#000000" fill-opacity="0.0" d="m2713.7166 405.4134l100.566895 0.06298828" fill-rule="evenodd"></path><path stroke="#111111" stroke-width="8.0" stroke-linejoin="round" stroke-linecap="butt" d="m2713.7166 405.4134l100.566895 0.06298828" fill-rule="evenodd"></path><path fill="#000000" fill-opacity="0.0" d="m2715.874 330.48557l0 146.14172" fill-rule="evenodd"></path><path stroke="#111111" stroke-width="8.0" stroke-linejoin="round" stroke-linecap="butt" d="m2715.874 330.48557l0 146.14172" fill-rule="evenodd"></path><path fill="#000000" fill-opacity="0.0" d="m2811.9055 330.48557l0 146.14172" fill-rule="evenodd"></path><path stroke="#111111" stroke-width="8.0" stroke-linejoin="round" stroke-linecap="butt" d="m2811.9055 330.48557l0 146.14172" fill-rule="evenodd"></path><path fill="#000000" fill-opacity="0.0" d="m2717.5747 473.38846l94.33081 -67.08661" fill-rule="evenodd"></path><path stroke="#111111" stroke-width="8.0" stroke-linejoin="round" stroke-linecap="butt" d="m2717.5747 473.38846l94.33081 -67.08661" fill-rule="evenodd"></path><path fill="#000000" fill-opacity="0.0" d="m2717.4487 333.7638l94.26782 70.86612" fill-rule="evenodd"></path><path stroke="#111111" stroke-width="8.0" stroke-linejoin="round" stroke-linecap="butt" d="m2717.4487 333.7638l94.26782 70.86612" fill-rule="evenodd"></path><path fill="#000000" fill-opacity="0.0" d="m3305.7166 405.4134l100.566895 0.06298828" fill-rule="evenodd"></path><path stroke="#111111" stroke-width="8.0" stroke-linejoin="round" stroke-linecap="butt" d="m3305.7166 405.4134l100.566895 0.06298828" fill-rule="evenodd"></path><path fill="#000000" fill-opacity="0.0" d="m3307.874 330.48557l0 146.14172" fill-rule="evenodd"></path><path stroke="#111111" stroke-width="8.0" stroke-linejoin="round" stroke-linecap="butt" d="m3307.874 330.48557l0 146.14172" fill-rule="evenodd"></path><path fill="#000000" fill-opacity="0.0" d="m3403.9055 330.48557l0 146.14172" fill-rule="evenodd"></path><path stroke="#111111" stroke-width="8.0" stroke-linejoin="round" stroke-linecap="butt" d="m3403.9055 330.48557l0 146.14172" fill-rule="evenodd"></path><path fill="#000000" fill-opacity="0.0" d="m3309.5747 473.38846l94.33081 -67.08661" fill-rule="evenodd"></path><path stroke="#111111" stroke-width="8.0" stroke-linejoin="round" stroke-linecap="butt" d="m3309.5747 473.38846l94.33081 -67.08661" fill-rule="evenodd"></path><path fill="#000000" fill-opacity="0.0" d="m3309.4487 333.7638l94.26782 70.86612" fill-rule="evenodd"></path><path stroke="#111111" stroke-width="8.0" stroke-linejoin="round" stroke-linecap="butt" d="m3309.4487 333.7638l94.26782 70.86612" fill-rule="evenodd"></path><path fill="#000000" fill-opacity="0.0" d="m3897.7166 405.4134l100.566895 0.06298828" fill-rule="evenodd"></path><path stroke="#111111" stroke-width="8.0" stroke-linejoin="round" stroke-linecap="butt" d="m3897.7166 405.4134l100.566895 0.06298828" fill-rule="evenodd"></path><path fill="#000000" fill-opacity="0.0" d="m3899.874 330.48557l0 146.14172" fill-rule="evenodd"></path><path stroke="#111111" stroke-width="8.0" stroke-linejoin="round" stroke-linecap="butt" d="m3899.874 330.48557l0 146.14172" fill-rule="evenodd"></path><path fill="#000000" fill-opacity="0.0" d="m3995.9055 330.48557l0 146.14172" fill-rule="evenodd"></path><path stroke="#111111" stroke-width="8.0" stroke-linejoin="round" stroke-linecap="butt" d="m3995.9055 330.48557l0 146.14172" fill-rule="evenodd"></path><path fill="#000000" fill-opacity="0.0" d="m3901.5747 473.38846l94.33081 -67.08661" fill-rule="evenodd"></path><path stroke="#111111" stroke-width="8.0" stroke-linejoin="round" stroke-linecap="butt" d="m3901.5747 473.38846l94.33081 -67.08661" fill-rule="evenodd"></path><path fill="#000000" fill-opacity="0.0" d="m3901.4487 333.7638l94.26782 70.86612" fill-rule="evenodd"></path><path stroke="#111111" stroke-width="8.0" stroke-linejoin="round" stroke-linecap="butt" d="m3901.4487 333.7638l94.26782 70.86612" fill-rule="evenodd"></path><path fill="#000000" fill-opacity="0.0" d="m4489.7163 405.4134l100.56738 0.06298828" fill-rule="evenodd"></path><path stroke="#111111" stroke-width="8.0" stroke-linejoin="round" stroke-linecap="butt" d="m4489.7163 405.4134l100.56738 0.06298828" fill-rule="evenodd"></path><path fill="#000000" fill-opacity="0.0" d="m4491.874 330.48557l0 146.14172" fill-rule="evenodd"></path><path stroke="#111111" stroke-width="8.0" stroke-linejoin="round" stroke-linecap="butt" d="m4491.874 330.48557l0 146.14172" fill-rule="evenodd"></path><path fill="#000000" fill-opacity="0.0" d="m4587.9053 330.48557l0 146.14172" fill-rule="evenodd"></path><path stroke="#111111" stroke-width="8.0" stroke-linejoin="round" stroke-linecap="butt" d="m4587.9053 330.48557l0 146.14172" fill-rule="evenodd"></path><path fill="#000000" fill-opacity="0.0" d="m4493.5747 473.38846l94.33057 -67.08661" fill-rule="evenodd"></path><path stroke="#111111" stroke-width="8.0" stroke-linejoin="round" stroke-linecap="butt" d="m4493.5747 473.38846l94.33057 -67.08661" fill-rule="evenodd"></path><path fill="#000000" fill-opacity="0.0" d="m4493.4487 333.7638l94.26758 70.86612" fill-rule="evenodd"></path><path stroke="#111111" stroke-width="8.0" stroke-linejoin="round" stroke-linecap="butt" d="m4493.4487 333.7638l94.26758 70.86612" fill-rule="evenodd"></path><path fill="#000000" fill-opacity="0.0" d="m5081.7163 405.4134l100.56738 0.06298828" fill-rule="evenodd"></path><path stroke="#111111" stroke-width="8.0" stroke-linejoin="round" stroke-linecap="butt" d="m5081.7163 405.4134l100.56738 0.06298828" fill-rule="evenodd"></path><path fill="#000000" fill-opacity="0.0" d="m5083.874 330.48557l0 146.14172" fill-rule="evenodd"></path><path stroke="#111111" stroke-width="8.0" stroke-linejoin="round" stroke-linecap="butt" d="m5083.874 330.48557l0 146.14172" fill-rule="evenodd"></path><path fill="#000000" fill-opacity="0.0" d="m5179.9053 330.48557l0 146.14172" fill-rule="evenodd"></path><path stroke="#111111" stroke-width="8.0" stroke-linejoin="round" stroke-linecap="butt" d="m5179.9053 330.48557l0 146.14172" fill-rule="evenodd"></path><path fill="#000000" fill-opacity="0.0" d="m5085.5747 473.38846l94.33057 -67.08661" fill-rule="evenodd"></path><path stroke="#111111" stroke-width="8.0" stroke-linejoin="round" stroke-linecap="butt" d="m5085.5747 473.38846l94.33057 -67.08661" fill-rule="evenodd"></path><path fill="#000000" fill-opacity="0.0" d="m5085.4487 333.7638l94.26758 70.86612" fill-rule="evenodd"></path><path stroke="#111111" stroke-width="8.0" stroke-linejoin="round" stroke-linecap="butt" d="m5085.4487 333.7638l94.26758 70.86612" fill-rule="evenodd"></path><path fill="#000000" fill-opacity="0.0" d="m5673.7163 405.4134l100.56738 0.06298828" fill-rule="evenodd"></path><path stroke="#111111" stroke-width="8.0" stroke-linejoin="round" stroke-linecap="butt" d="m5673.7163 405.4134l100.56738 0.06298828" fill-rule="evenodd"></path><path fill="#000000" fill-opacity="0.0" d="m5675.874 330.48557l0 146.14172" fill-rule="evenodd"></path><path stroke="#111111" stroke-width="8.0" stroke-linejoin="round" stroke-linecap="butt" d="m5675.874 330.48557l0 146.14172" fill-rule="evenodd"></path><path fill="#000000" fill-opacity="0.0" d="m5771.9053 330.48557l0 146.14172" fill-rule="evenodd"></path><path stroke="#111111" stroke-width="8.0" stroke-linejoin="round" stroke-linecap="butt" d="m5771.9053 330.48557l0 146.14172" fill-rule="evenodd"></path><path fill="#000000" fill-opacity="0.0" d="m5677.5747 473.38846l94.33057 -67.08661" fill-rule="evenodd"></path><path stroke="#111111" stroke-width="8.0" stroke-linejoin="round" stroke-linecap="butt" d="m5677.5747 473.38846l94.33057 -67.08661" fill-rule="evenodd"></path><path fill="#000000" fill-opacity="0.0" d="m5677.4487 333.7638l94.26758 70.86612" fill-rule="evenodd"></path><path stroke="#111111" stroke-width="8.0" stroke-linejoin="round" stroke-linecap="butt" d="m5677.4487 333.7638l94.26758 70.86612" fill-rule="evenodd"></path><path fill="#000000" fill-opacity="0.0" d="m6265.7163 405.4134l100.56738 0.06298828" fill-rule="evenodd"></path><path stroke="#111111" stroke-width="8.0" stroke-linejoin="round" stroke-linecap="butt" d="m6265.7163 405.4134l100.56738 0.06298828" fill-rule="evenodd"></path><path fill="#000000" fill-opacity="0.0" d="m6267.874 330.48557l0 146.14172" fill-rule="evenodd"></path><path stroke="#111111" stroke-width="8.0" stroke-linejoin="round" stroke-linecap="butt" d="m6267.874 330.48557l0 146.14172" fill-rule="evenodd"></path><path fill="#000000" fill-opacity="0.0" d="m6363.9053 330.48557l0 146.14172" fill-rule="evenodd"></path><path stroke="#111111" stroke-width="8.0" stroke-linejoin="round" stroke-linecap="butt" d="m6363.9053 330.48557l0 146.14172" fill-rule="evenodd"></path><path fill="#000000" fill-opacity="0.0" d="m6269.5747 473.38846l94.33057 -67.08661" fill-rule="evenodd"></path><path stroke="#111111" stroke-width="8.0" stroke-linejoin="round" stroke-linecap="butt" d="m6269.5747 473.38846l94.33057 -67.08661" fill-rule="evenodd"></path><path fill="#000000" fill-opacity="0.0" d="m6269.4487 333.7638l94.26758 70.86612" fill-rule="evenodd"></path><path stroke="#111111" stroke-width="8.0" stroke-linejoin="round" stroke-linecap="butt" d="m6269.4487 333.7638l94.26758 70.86612" fill-rule="evenodd"></path><path fill="#000000" fill-opacity="0.0" d="m6857.7163 405.4134l100.56738 0.06298828" fill-rule="evenodd"></path><path stroke="#111111" stroke-width="8.0" stroke-linejoin="round" stroke-linecap="butt" d="m6857.7163 405.4134l100.56738 0.06298828" fill-rule="evenodd"></path><path fill="#000000" fill-opacity="0.0" d="m6859.874 330.48557l0 146.14172" fill-rule="evenodd"></path><path stroke="#111111" stroke-width="8.0" stroke-linejoin="round" stroke-linecap="butt" d="m6859.874 330.48557l0 146.14172" fill-rule="evenodd"></path><path fill="#000000" fill-opacity="0.0" d="m6955.9053 330.48557l0 146.14172" fill-rule="evenodd"></path><path stroke="#111111" stroke-width="8.0" stroke-linejoin="round" stroke-linecap="butt" d="m6955.9053 330.48557l0 146.14172" fill-rule="evenodd"></path><path fill="#000000" fill-opacity="0.0" d="m6861.5747 473.38846l94.33057 -67.08661" fill-rule="evenodd"></path><path stroke="#111111" stroke-width="8.0" stroke-linejoin="round" stroke-linecap="butt" d="m6861.5747 473.38846l94.33057 -67.08661" fill-rule="evenodd"></path><path fill="#000000" fill-opacity="0.0" d="m6861.4487 333.7638l94.26758 70.86612" fill-rule="evenodd"></path><path stroke="#111111" stroke-width="8.0" stroke-linejoin="round" stroke-linecap="butt" d="m6861.4487 333.7638l94.26758 70.86612" fill-rule="evenodd"></path><path fill="#000000" fill-opacity="0.0" d="m655.1496 718.3635l100.566956 0.06298828" fill-rule="evenodd"></path><path stroke="#111111" stroke-width="8.0" stroke-linejoin="round" stroke-linecap="butt" d="m655.1496 718.3635l100.566956 0.06298828" fill-rule="evenodd"></path><path fill="#000000" fill-opacity="0.0" d="m657.30707 643.43567l0 146.14178" fill-rule="evenodd"></path><path stroke="#111111" stroke-width="8.0" stroke-linejoin="round" stroke-linecap="butt" d="m657.30707 643.43567l0 146.14178" fill-rule="evenodd"></path><path fill="#000000" fill-opacity="0.0" d="m753.33856 643.43567l0 146.14178" fill-rule="evenodd"></path><path stroke="#111111" stroke-width="8.0" stroke-linejoin="round" stroke-linecap="butt" d="m753.33856 643.43567l0 146.14178" fill-rule="evenodd"></path><path fill="#000000" fill-opacity="0.0" d="m659.0079 786.33856l94.33069 -67.08661" fill-rule="evenodd"></path><path stroke="#111111" stroke-width="8.0" stroke-linejoin="round" stroke-linecap="butt" d="m659.0079 786.33856l94.33069 -67.08661" fill-rule="evenodd"></path><path fill="#000000" fill-opacity="0.0" d="m658.8819 646.7139l94.2677 70.86615" fill-rule="evenodd"></path><path stroke="#111111" stroke-width="8.0" stroke-linejoin="round" stroke-linecap="butt" d="m658.8819 646.7139l94.2677 70.86615" fill-rule="evenodd"></path><path fill="#000000" fill-opacity="0.0" d="m1248.4331 718.3635l100.566895 0.06298828" fill-rule="evenodd"></path><path stroke="#111111" stroke-width="8.0" stroke-linejoin="round" stroke-linecap="butt" d="m1248.4331 718.3635l100.566895 0.06298828" fill-rule="evenodd"></path><path fill="#000000" fill-opacity="0.0" d="m1250.5906 643.43567l0 146.14178" fill-rule="evenodd"></path><path stroke="#111111" stroke-width="8.0" stroke-linejoin="round" stroke-linecap="butt" d="m1250.5906 643.43567l0 146.14178" fill-rule="evenodd"></path><path fill="#000000" fill-opacity="0.0" d="m1346.6221 643.43567l0 146.14178" fill-rule="evenodd"></path><path stroke="#111111" stroke-width="8.0" stroke-linejoin="round" stroke-linecap="butt" d="m1346.6221 643.43567l0 146.14178" fill-rule="evenodd"></path><path fill="#000000" fill-opacity="0.0" d="m1252.2914 786.33856l94.33069 -67.08661" fill-rule="evenodd"></path><path stroke="#111111" stroke-width="8.0" stroke-linejoin="round" stroke-linecap="butt" d="m1252.2914 786.33856l94.33069 -67.08661" fill-rule="evenodd"></path><path fill="#000000" fill-opacity="0.0" d="m1252.1654 646.7139l94.2677 70.86615" fill-rule="evenodd"></path><path stroke="#111111" stroke-width="8.0" stroke-linejoin="round" stroke-linecap="butt" d="m1252.1654 646.7139l94.2677 70.86615" fill-rule="evenodd"></path><path fill="#000000" fill-opacity="0.0" d="m1840.4331 718.3635l100.566895 0.06298828" fill-rule="evenodd"></path><path stroke="#111111" stroke-width="8.0" stroke-linejoin="round" stroke-linecap="butt" d="m1840.4331 718.3635l100.566895 0.06298828" fill-rule="evenodd"></path><path fill="#000000" fill-opacity="0.0" d="m1842.5906 643.43567l0 146.14178" fill-rule="evenodd"></path><path stroke="#111111" stroke-width="8.0" stroke-linejoin="round" stroke-linecap="butt" d="m1842.5906 643.43567l0 146.14178" fill-rule="evenodd"></path><path fill="#000000" fill-opacity="0.0" d="m1938.6221 643.43567l0 146.14178" fill-rule="evenodd"></path><path stroke="#111111" stroke-width="8.0" stroke-linejoin="round" stroke-linecap="butt" d="m1938.6221 643.43567l0 146.14178" fill-rule="evenodd"></path><path fill="#000000" fill-opacity="0.0" d="m1844.2914 786.33856l94.33069 -67.08661" fill-rule="evenodd"></path><path stroke="#111111" stroke-width="8.0" stroke-linejoin="round" stroke-linecap="butt" d="m1844.2914 786.33856l94.33069 -67.08661" fill-rule="evenodd"></path><path fill="#000000" fill-opacity="0.0" d="m1844.1654 646.7139l94.2677 70.86615" fill-rule="evenodd"></path><path stroke="#111111" stroke-width="8.0" stroke-linejoin="round" stroke-linecap="butt" d="m1844.1654 646.7139l94.2677 70.86615" fill-rule="evenodd"></path><path fill="#000000" fill-opacity="0.0" d="m2432.433 718.3635l100.566895 0.06298828" fill-rule="evenodd"></path><path stroke="#111111" stroke-width="8.0" stroke-linejoin="round" stroke-linecap="butt" d="m2432.433 718.3635l100.566895 0.06298828" fill-rule="evenodd"></path><path fill="#000000" fill-opacity="0.0" d="m2434.5906 643.43567l0 146.14178" fill-rule="evenodd"></path><path stroke="#111111" stroke-width="8.0" stroke-linejoin="round" stroke-linecap="butt" d="m2434.5906 643.43567l0 146.14178" fill-rule="evenodd"></path><path fill="#000000" fill-opacity="0.0" d="m2530.622 643.43567l0 146.14178" fill-rule="evenodd"></path><path stroke="#111111" stroke-width="8.0" stroke-linejoin="round" stroke-linecap="butt" d="m2530.622 643.43567l0 146.14178" fill-rule="evenodd"></path><path fill="#000000" fill-opacity="0.0" d="m2436.2913 786.33856l94.33081 -67.08661" fill-rule="evenodd"></path><path stroke="#111111" stroke-width="8.0" stroke-linejoin="round" stroke-linecap="butt" d="m2436.2913 786.33856l94.33081 -67.08661" fill-rule="evenodd"></path><path fill="#000000" fill-opacity="0.0" d="m2436.1653 646.7139l94.26782 70.86615" fill-rule="evenodd"></path><path stroke="#111111" stroke-width="8.0" stroke-linejoin="round" stroke-linecap="butt" d="m2436.1653 646.7139l94.26782 70.86615" fill-rule="evenodd"></path><path fill="#000000" fill-opacity="0.0" d="m3024.433 717.4764l100.566895 0.06298828" fill-rule="evenodd"></path><path stroke="#111111" stroke-width="8.0" stroke-linejoin="round" stroke-linecap="butt" d="m3024.433 717.4764l100.566895 0.06298828" fill-rule="evenodd"></path><path fill="#000000" fill-opacity="0.0" d="m3026.5906 642.5486l0 146.14172" fill-rule="evenodd"></path><path stroke="#111111" stroke-width="8.0" stroke-linejoin="round" stroke-linecap="butt" d="m3026.5906 642.5486l0 146.14172" fill-rule="evenodd"></path><path fill="#000000" fill-opacity="0.0" d="m3122.622 642.5486l0 146.14172" fill-rule="evenodd"></path><path stroke="#111111" stroke-width="8.0" stroke-linejoin="round" stroke-linecap="butt" d="m3122.622 642.5486l0 146.14172" fill-rule="evenodd"></path><path fill="#000000" fill-opacity="0.0" d="m3028.2913 785.4514l94.33081 -67.08661" fill-rule="evenodd"></path><path stroke="#111111" stroke-width="8.0" stroke-linejoin="round" stroke-linecap="butt" d="m3028.2913 785.4514l94.33081 -67.08661" fill-rule="evenodd"></path><path fill="#000000" fill-opacity="0.0" d="m3028.1653 645.8268l94.26782 70.86615" fill-rule="evenodd"></path><path stroke="#111111" stroke-width="8.0" stroke-linejoin="round" stroke-linecap="butt" d="m3028.1653 645.8268l94.26782 70.86615" fill-rule="evenodd"></path><path fill="#000000" fill-opacity="0.0" d="m3616.433 717.4764l100.566895 0.06298828" fill-rule="evenodd"></path><path stroke="#111111" stroke-width="8.0" stroke-linejoin="round" stroke-linecap="butt" d="m3616.433 717.4764l100.566895 0.06298828" fill-rule="evenodd"></path><path fill="#000000" fill-opacity="0.0" d="m3618.5906 642.5486l0 146.14172" fill-rule="evenodd"></path><path stroke="#111111" stroke-width="8.0" stroke-linejoin="round" stroke-linecap="butt" d="m3618.5906 642.5486l0 146.14172" fill-rule="evenodd"></path><path fill="#000000" fill-opacity="0.0" d="m3714.622 642.5486l0 146.14172" fill-rule="evenodd"></path><path stroke="#111111" stroke-width="8.0" stroke-linejoin="round" stroke-linecap="butt" d="m3714.622 642.5486l0 146.14172" fill-rule="evenodd"></path><path fill="#000000" fill-opacity="0.0" d="m3620.2913 785.4514l94.33081 -67.08661" fill-rule="evenodd"></path><path stroke="#111111" stroke-width="8.0" stroke-linejoin="round" stroke-linecap="butt" d="m3620.2913 785.4514l94.33081 -67.08661" fill-rule="evenodd"></path><path fill="#000000" fill-opacity="0.0" d="m3620.1653 645.8268l94.26782 70.86615" fill-rule="evenodd"></path><path stroke="#111111" stroke-width="8.0" stroke-linejoin="round" stroke-linecap="butt" d="m3620.1653 645.8268l94.26782 70.86615" fill-rule="evenodd"></path><path fill="#000000" fill-opacity="0.0" d="m4208.433 717.4764l100.566895 0.06298828" fill-rule="evenodd"></path><path stroke="#111111" stroke-width="8.0" stroke-linejoin="round" stroke-linecap="butt" d="m4208.433 717.4764l100.566895 0.06298828" fill-rule="evenodd"></path><path fill="#000000" fill-opacity="0.0" d="m4210.5903 642.5486l0 146.14172" fill-rule="evenodd"></path><path stroke="#111111" stroke-width="8.0" stroke-linejoin="round" stroke-linecap="butt" d="m4210.5903 642.5486l0 146.14172" fill-rule="evenodd"></path><path fill="#000000" fill-opacity="0.0" d="m4306.622 642.5486l0 146.14172" fill-rule="evenodd"></path><path stroke="#111111" stroke-width="8.0" stroke-linejoin="round" stroke-linecap="butt" d="m4306.622 642.5486l0 146.14172" fill-rule="evenodd"></path><path fill="#000000" fill-opacity="0.0" d="m4212.2915 785.4514l94.33057 -67.08661" fill-rule="evenodd"></path><path stroke="#111111" stroke-width="8.0" stroke-linejoin="round" stroke-linecap="butt" d="m4212.2915 785.4514l94.33057 -67.08661" fill-rule="evenodd"></path><path fill="#000000" fill-opacity="0.0" d="m4212.1655 645.8268l94.26758 70.86615" fill-rule="evenodd"></path><path stroke="#111111" stroke-width="8.0" stroke-linejoin="round" stroke-linecap="butt" d="m4212.1655 645.8268l94.26758 70.86615" fill-rule="evenodd"></path><path fill="#000000" fill-opacity="0.0" d="m4800.433 717.4764l100.566895 0.06298828" fill-rule="evenodd"></path><path stroke="#111111" stroke-width="8.0" stroke-linejoin="round" stroke-linecap="butt" d="m4800.433 717.4764l100.566895 0.06298828" fill-rule="evenodd"></path><path fill="#000000" fill-opacity="0.0" d="m4802.5903 642.5486l0 146.14172" fill-rule="evenodd"></path><path stroke="#111111" stroke-width="8.0" stroke-linejoin="round" stroke-linecap="butt" d="m4802.5903 642.5486l0 146.14172" fill-rule="evenodd"></path><path fill="#000000" fill-opacity="0.0" d="m4898.622 642.5486l0 146.14172" fill-rule="evenodd"></path><path stroke="#111111" stroke-width="8.0" stroke-linejoin="round" stroke-linecap="butt" d="m4898.622 642.5486l0 146.14172" fill-rule="evenodd"></path><path fill="#000000" fill-opacity="0.0" d="m4804.2915 785.4514l94.33057 -67.08661" fill-rule="evenodd"></path><path stroke="#111111" stroke-width="8.0" stroke-linejoin="round" stroke-linecap="butt" d="m4804.2915 785.4514l94.33057 -67.08661" fill-rule="evenodd"></path><path fill="#000000" fill-opacity="0.0" d="m4804.1655 645.8268l94.26758 70.86615" fill-rule="evenodd"></path><path stroke="#111111" stroke-width="8.0" stroke-linejoin="round" stroke-linecap="butt" d="m4804.1655 645.8268l94.26758 70.86615" fill-rule="evenodd"></path><path fill="#000000" fill-opacity="0.0" d="m5392.433 717.4764l100.566895 0.06298828" fill-rule="evenodd"></path><path stroke="#111111" stroke-width="8.0" stroke-linejoin="round" stroke-linecap="butt" d="m5392.433 717.4764l100.566895 0.06298828" fill-rule="evenodd"></path><path fill="#000000" fill-opacity="0.0" d="m5394.5903 642.5486l0 146.14172" fill-rule="evenodd"></path><path stroke="#111111" stroke-width="8.0" stroke-linejoin="round" stroke-linecap="butt" d="m5394.5903 642.5486l0 146.14172" fill-rule="evenodd"></path><path fill="#000000" fill-opacity="0.0" d="m5490.622 642.5486l0 146.14172" fill-rule="evenodd"></path><path stroke="#111111" stroke-width="8.0" stroke-linejoin="round" stroke-linecap="butt" d="m5490.622 642.5486l0 146.14172" fill-rule="evenodd"></path><path fill="#000000" fill-opacity="0.0" d="m5396.2915 785.4514l94.33057 -67.08661" fill-rule="evenodd"></path><path stroke="#111111" stroke-width="8.0" stroke-linejoin="round" stroke-linecap="butt" d="m5396.2915 785.4514l94.33057 -67.08661" fill-rule="evenodd"></path><path fill="#000000" fill-opacity="0.0" d="m5396.1655 645.8268l94.26758 70.86615" fill-rule="evenodd"></path><path stroke="#111111" stroke-width="8.0" stroke-linejoin="round" stroke-linecap="butt" d="m5396.1655 645.8268l94.26758 70.86615" fill-rule="evenodd"></path><path fill="#000000" fill-opacity="0.0" d="m5984.433 717.4764l100.566895 0.06298828" fill-rule="evenodd"></path><path stroke="#111111" stroke-width="8.0" stroke-linejoin="round" stroke-linecap="butt" d="m5984.433 717.4764l100.566895 0.06298828" fill-rule="evenodd"></path><path fill="#000000" fill-opacity="0.0" d="m5986.5903 642.5486l0 146.14172" fill-rule="evenodd"></path><path stroke="#111111" stroke-width="8.0" stroke-linejoin="round" stroke-linecap="butt" d="m5986.5903 642.5486l0 146.14172" fill-rule="evenodd"></path><path fill="#000000" fill-opacity="0.0" d="m6082.622 642.5486l0 146.14172" fill-rule="evenodd"></path><path stroke="#111111" stroke-width="8.0" stroke-linejoin="round" stroke-linecap="butt" d="m6082.622 642.5486l0 146.14172" fill-rule="evenodd"></path><path fill="#000000" fill-opacity="0.0" d="m5988.2915 785.4514l94.33057 -67.08661" fill-rule="evenodd"></path><path stroke="#111111" stroke-width="8.0" stroke-linejoin="round" stroke-linecap="butt" d="m5988.2915 785.4514l94.33057 -67.08661" fill-rule="evenodd"></path><path fill="#000000" fill-opacity="0.0" d="m5988.1655 645.8268l94.26758 70.86615" fill-rule="evenodd"></path><path stroke="#111111" stroke-width="8.0" stroke-linejoin="round" stroke-linecap="butt" d="m5988.1655 645.8268l94.26758 70.86615" fill-rule="evenodd"></path><path fill="#000000" fill-opacity="0.0" d="m6576.433 717.4764l100.566895 0.06298828" fill-rule="evenodd"></path><path stroke="#111111" stroke-width="8.0" stroke-linejoin="round" stroke-linecap="butt" d="m6576.433 717.4764l100.566895 0.06298828" fill-rule="evenodd"></path><path fill="#000000" fill-opacity="0.0" d="m6578.5903 642.5486l0 146.14172" fill-rule="evenodd"></path><path stroke="#111111" stroke-width="8.0" stroke-linejoin="round" stroke-linecap="butt" d="m6578.5903 642.5486l0 146.14172" fill-rule="evenodd"></path><path fill="#000000" fill-opacity="0.0" d="m6674.622 642.5486l0 146.14172" fill-rule="evenodd"></path><path stroke="#111111" stroke-width="8.0" stroke-linejoin="round" stroke-linecap="butt" d="m6674.622 642.5486l0 146.14172" fill-rule="evenodd"></path><path fill="#000000" fill-opacity="0.0" d="m6580.2915 785.4514l94.33057 -67.08661" fill-rule="evenodd"></path><path stroke="#111111" stroke-width="8.0" stroke-linejoin="round" stroke-linecap="butt" d="m6580.2915 785.4514l94.33057 -67.08661" fill-rule="evenodd"></path><path fill="#000000" fill-opacity="0.0" d="m6580.1655 645.8268l94.26758 70.86615" fill-rule="evenodd"></path><path stroke="#111111" stroke-width="8.0" stroke-linejoin="round" stroke-linecap="butt" d="m6580.1655 645.8268l94.26758 70.86615" fill-rule="evenodd"></path><path fill="#000000" fill-opacity="0.0" d="m49.716534 717.4764l100.566925 0.06298828" fill-rule="evenodd"></path><path stroke="#111111" stroke-width="8.0" stroke-linejoin="round" stroke-linecap="butt" d="m49.716534 717.4764l100.566925 0.06298828" fill-rule="evenodd"></path><path fill="#000000" fill-opacity="0.0" d="m51.874016 642.5486l0 146.14172" fill-rule="evenodd"></path><path stroke="#111111" stroke-width="8.0" stroke-linejoin="round" stroke-linecap="butt" d="m51.874016 642.5486l0 146.14172" fill-rule="evenodd"></path><path fill="#000000" fill-opacity="0.0" d="m147.90552 642.5486l0 146.14172" fill-rule="evenodd"></path><path stroke="#111111" stroke-width="8.0" stroke-linejoin="round" stroke-linecap="butt" d="m147.90552 642.5486l0 146.14172" fill-rule="evenodd"></path><path fill="#000000" fill-opacity="0.0" d="m53.574802 785.4514l94.33072 -67.08661" fill-rule="evenodd"></path><path stroke="#111111" stroke-width="8.0" stroke-linejoin="round" stroke-linecap="butt" d="m53.574802 785.4514l94.33072 -67.08661" fill-rule="evenodd"></path><path fill="#000000" fill-opacity="0.0" d="m53.44882 645.8268l94.267715 70.86615" fill-rule="evenodd"></path><path stroke="#111111" stroke-width="8.0" stroke-linejoin="round" stroke-linecap="butt" d="m53.44882 645.8268l94.267715 70.86615" fill-rule="evenodd"></path><path fill="#000000" fill-opacity="0.2667" d="m0 0l7008.0 0l0 824.0l-7008.0 0z" fill-rule="evenodd"></path></g></svg>

