<?xml version="1.0" standalone="yes"?>

<svg version="1.1" viewBox="0.0 0.0 868.7454068241469 296.43044619422574" fill="none" stroke="none" stroke-linecap="square" stroke-miterlimit="10" xmlns="http://www.w3.org/2000/svg" xmlns:xlink="http://www.w3.org/1999/xlink"><clipPath id="p.0"><path d="m0 0l868.7454 0l0 296.43045l-868.7454 0l0 -296.43045z" clip-rule="nonzero"></path></clipPath><g clip-path="url(#p.0)"><path fill="#000000" fill-opacity="0.0" d="m0 0l868.7454 0l0 296.43045l-868.7454 0z" fill-rule="evenodd"></path><path fill="#cfe2f3" d="m13.0 16.498688l-1.0 266.0l118.0 -87.49869l-118.5958 87.27823z" fill-rule="evenodd"></path><path stroke="#8C8C8C" stroke-width="16.0" stroke-linejoin="round" stroke-linecap="butt" d="m13.0 16.498688l-1.0 266.0l118.0 -87.49869l-118.5958 87.27823z" fill-rule="evenodd"></path><path fill="#000000" fill-opacity="0.0" d="m157.5328 170.36482l-110.53281 -150.36482l139.04724 127.5538l-67.719154 -62.727028l-12.826775 13.671913z" fill-rule="evenodd"></path><path stroke="#8C8C8C" stroke-width="16.0" stroke-linejoin="round" stroke-linecap="butt" d="m157.5328 170.36482l-110.53281 -150.36482l139.04724 127.5538l-67.719154 -62.727028l-12.826775 13.671913z" fill-rule="evenodd"></path><path fill="#cfe2f3" d="m245.2336 16.989502l12.832016 268.73227l17.107605 -269.44617l-17.107605 269.44617z" fill-rule="evenodd"></path><path stroke="#8C8C8C" stroke-width="16.0" stroke-linejoin="round" stroke-linecap="butt" d="m245.2336 16.989502l12.832016 268.73227l17.107605 -269.44617l-17.107605 269.44617z" fill-rule="evenodd"></path><path fill="#000000" fill-opacity="0.0" d="m349.28085 286.5538l0.22045898 -272.0551l90.49869 124.50131l-89.49869 0l60.083984 2.8503876l85.538055 145.41734l-86.25195 -146.84253l-59.370087 -0.42520142z" fill-rule="evenodd"></path><path stroke="#8C8C8C" stroke-width="16.0" stroke-linejoin="round" stroke-linecap="butt" d="m349.28085 286.5538l0.22045898 -272.0551l90.49869 124.50131l-89.49869 0l60.083984 2.8503876l85.538055 145.41734l-86.25195 -146.84253l-59.370087 -0.42520142z" fill-rule="evenodd"></path><path fill="#cfe2f3" d="m546.0 288.97797l-25.0 0l0 -280.97797l25.0 0l-24.0 0l0.5013428 142.77477l14.498657 0l-14.498657 0l0 138.71263z" fill-rule="evenodd"></path><path stroke="#8C8C8C" stroke-width="16.0" stroke-linejoin="round" stroke-linecap="butt" d="m546.0 288.97797l-25.0 0l0 -280.97797l25.0 0l-24.0 0l0.5013428 142.77477l14.498657 0l-14.498657 0l0 138.71263z" fill-rule="evenodd"></path><path fill="#cfe2f3" d="m633.73865 289.73505l-0.3213501 -279.96152l24.999023 280.4756l-0.3196411 -281.5011l0.3196411 281.5011l-24.999023 -278.93597z" fill-rule="evenodd"></path><path stroke="#8C8C8C" stroke-width="16.0" stroke-linejoin="round" stroke-linecap="butt" d="m633.73865 289.73505l-0.3213501 -279.96152l24.999023 280.4756l-0.3196411 -281.5011l0.3196411 281.5011l-24.999023 -278.93597z" fill-rule="evenodd"></path><path fill="#cfe2f3" d="m806.48816 288.13385l-25.501282 0l-4.4987183 -5.5013123l-0.50128174 -269.4987l0 136.49869l-81.543335 0.6194153l141.54333 -0.6194153l-59.49872 0l0 133.5013l5.0 5.4986877z" fill-rule="evenodd"></path><path stroke="#8C8C8C" stroke-width="16.0" stroke-linejoin="round" stroke-linecap="butt" d="m806.48816 288.13385l-25.501282 0l-4.4987183 -5.5013123l-0.50128174 -269.4987l0 136.49869l-81.543335 0.6194153l141.54333 -0.6194153l-59.49872 0l0 133.5013l5.0 5.4986877z" fill-rule="evenodd"></path></g></svg>

